<svg width="79" height="113" viewBox="0 0 79 113" fill="none" xmlns="http://www.w3.org/2000/svg">
<path fill-rule="evenodd" clip-rule="evenodd" d="M27.4454 70.638L22.7361 68.6553C23.362 66.2987 24.6738 64.8321 26.7355 64.3382C25.7736 63.6481 24.6478 63.2281 23.376 63.0426C24.2998 61.8024 25.5697 60.9573 27.3474 60.6873C26.4495 60.1728 25.8736 59.3226 25.8676 58.2647C28.9811 60.1436 31.6667 60.6719 33.4604 59.8343L33.3924 48.9458L40.6993 43.6058L49.1459 44.7251C49.1459 44.7251 55.7809 44.4053 56.0208 44.4053C56.2608 44.4053 62.2299 41.6337 62.2299 41.6337L66.3872 49.4917L67.525 53.8866C68.9248 53.6015 70.1826 52.3894 71.2084 49.6513C71.7004 50.4337 71.9204 51.4814 71.3244 53.3203C71.9983 53.0897 72.6962 53.0897 73.4301 53.4803C72.7822 53.4505 72.3023 53.5771 72.1523 54.0132C74.3979 53.9142 75.5198 54.7493 75.9357 55.9233C74.6159 55.6525 73.4041 55.6667 72.3643 56.5448C76.2097 57.895 78.5073 60.5642 77.9454 65.6714C76.7336 64.2084 75.2898 63.4733 73.4841 63.873C75.2018 65.2024 76.5356 66.8896 76.1137 70.212C72.9422 67.4753 71.1705 66.9132 68.8788 68.8507L54.6471 69.4442L44.3067 74.5102L27.4454 70.638Z" fill="black"/>
<path fill-rule="evenodd" clip-rule="evenodd" d="M27.4365 70.638L23.1511 68.8649C23.775 66.5082 25.7867 64.9267 27.8464 64.433C26.8865 63.7429 25.4768 62.9836 24.207 62.798C25.1288 61.5578 26.9905 61.1963 28.7683 60.9265C27.8704 60.412 26.7586 60.247 26.7526 59.1892C29.8661 61.0681 32.1437 61.0803 33.9375 60.2426L33.9855 50.1804L40.6904 43.6058L49.1371 44.7251C49.1371 44.7251 55.772 44.4053 56.012 44.4053C56.2519 44.4053 62.221 41.6337 62.221 41.6337C62.221 41.6337 65.3105 48.0083 66.1924 50.0506C66.7303 51.2922 67.3322 55.0314 67.3322 55.0314C68.73 54.7463 70.1098 53.5383 71.1356 50.8001C71.6276 51.5826 71.3056 52.1335 70.7117 53.9722C71.3856 53.7418 71.8335 53.0587 72.5674 53.4491C71.9195 53.4193 71.5955 54.2118 71.4436 54.6477C73.6912 54.5489 74.735 54.6871 75.4449 55.5973C74.1271 55.3266 72.0615 55.7287 71.0236 56.6068C74.869 57.957 77.6366 59.7415 77.5086 64.6157C76.2988 63.1528 73.8512 63.124 72.0455 63.5237C73.7632 64.8531 75.6349 65.7331 75.5869 68.9002C72.4154 66.1635 70.4977 66.5446 68.2081 68.4819L54.6382 69.4442L44.2978 74.5102L27.4365 70.638Z" fill="#DADADA"/>
<path fill-rule="evenodd" clip-rule="evenodd" d="M67.3406 55.0325C68.7384 54.7474 70.1181 53.5394 71.144 50.8012C71.6359 51.5837 71.3139 52.1346 70.72 53.9733C71.3939 53.7429 71.8419 53.0598 72.5757 53.4502C71.9278 53.4204 71.6039 54.2129 71.4519 54.6488C73.6995 54.55 74.7434 54.6882 75.4533 55.5985C74.1355 55.3277 72.0698 55.7298 71.032 56.6079C74.8774 57.9581 77.6449 59.7426 77.5169 64.6168C76.3071 63.1539 73.8595 63.1251 72.0538 63.5248C73.7715 64.8542 75.6433 65.7343 75.5953 68.9014C72.4238 66.1646 70.5061 66.5457 68.2164 68.483C68.5284 67.7065 68.9143 66.8265 69.8501 66.4215C70.4121 66.1786 71.5479 66.4647 71.9338 66.0444C72.3498 65.5921 71.022 64.0517 71.2739 63.486C71.9078 62.059 73.7395 61.4309 73.8055 60.3559C73.8575 59.512 70.97 59.5242 69.9902 58.6802C69.0543 57.8755 70.0361 56.2084 69.6102 55.6434C69.2682 55.1889 67.8205 55.4217 67.3406 55.0325Z" fill="#B5B5B5"/>
<path fill-rule="evenodd" clip-rule="evenodd" d="M46.8394 44.2232C46.2615 45.6964 42.858 44.4722 42.1182 45.7746C41.0363 47.6841 39.4666 49.7486 38.9006 51.8264C37.9788 55.2137 37.5829 58.4628 37.5229 60.5793C37.5129 60.8886 37.6049 61.6523 37.6089 61.9488C37.6109 62.2852 38.4507 62.2988 38.4687 62.6191C38.7947 68.5422 41.6422 71.7519 45.4176 73.6036L27.4365 70.6381L23.1511 68.865C23.775 66.5083 25.7867 64.9268 27.8464 64.4331C26.8865 63.743 25.4768 62.9837 24.207 62.7981C25.1288 61.5579 26.9905 61.1964 28.7683 60.9266C27.8704 60.4121 26.7586 60.2471 26.7526 59.1893C29.8661 61.0682 32.1437 61.0804 33.9375 60.2427L33.9855 50.1805L39.4266 43.7547L46.8394 44.2232Z" fill="#939393"/>
<path fill-rule="evenodd" clip-rule="evenodd" d="M52.033 45.3554C54.6545 46.3034 55.4304 49.6545 55.3744 52.4812C55.8803 50.296 56.4982 48.1659 57.2001 46.0782L52.033 45.3554Z" fill="#BDBDBD"/>
<path fill-rule="evenodd" clip-rule="evenodd" d="M54.6139 67.3218C56.8356 64.1577 53.1422 62.1986 54.064 61.7577C54.196 62.4334 55.0379 62.3026 55.7798 61.8287C56.3797 61.4459 56.8056 60.7692 56.8296 60.5211C56.8296 60.5211 57.7275 66.0596 58.2694 67.6713C56.8096 67.1314 55.5758 66.991 54.6139 67.3218Z" fill="#BABABA"/>
<path fill-rule="evenodd" clip-rule="evenodd" d="M30.8816 38.9431C30.4296 36.4525 28.432 29.9895 25.8884 24.443C23.4547 19.1298 20.4592 14.7055 20.5152 13.2834C20.7371 7.68364 34.365 1.53701 45.4333 0.969495C56.5015 0.401784 66.198 2.79101 67.9878 6.94516C68.4697 8.06458 66.22 14.6973 64.8242 21.0731C63.0845 29.0315 64.3403 36.0782 64.5523 37.1446C64.5523 37.1446 68.3197 34.6538 70.1874 35.6794C72.0791 36.7187 73.4889 38.9253 72.913 40.969C71.2452 46.8877 66.354 49.9474 66.354 49.9474C66.354 49.9474 63.3385 43.0271 61.0448 43.1341C58.8612 43.2359 57.5574 46.4638 57.5574 46.4638C57.5574 46.4638 53.648 46.0036 51.7203 46.0452C49.6886 46.089 47.271 46.8185 47.271 46.8185C47.271 46.8185 45.3653 44.5373 43.2536 44.56C40.4341 44.5904 38.8283 48.4502 38.8283 48.4502C38.8283 48.4502 36.0628 49.8506 34.853 52.655C33.9251 54.8032 33.7891 56.6096 33.7891 56.6096C26.9242 54.5847 22.5489 49.7554 22.6309 46.2628C22.7848 39.5938 30.8816 38.9431 30.8816 38.9431Z" fill="black"/>
<path fill-rule="evenodd" clip-rule="evenodd" d="M25.1042 41.6126C27.5679 39.7841 29.2676 39.0218 31.9811 39.3258C36.1645 39.7941 41.6977 42.98 50.6103 42.5737C55.0976 42.3691 58.473 40.674 61.5785 39.107C64.642 37.5613 67.1916 36.1643 68.1755 35.8717C69.7512 35.4026 70.8631 36.5724 71.185 36.888C70.5651 36.4082 68.8894 35.9137 67.7536 36.5398C67.2616 36.8118 64.854 37.945 61.7745 39.6393C58.301 41.5502 55.6874 42.9434 50.6862 43.1578C40.7278 43.5845 36.3905 40.1882 31.8032 39.9113C29.2256 39.7555 27.0919 40.3816 25.1042 41.6126Z" fill="#A84F46"/>
<path fill-rule="evenodd" clip-rule="evenodd" d="M33.8445 39.2687C43.355 35.4065 53.5014 34.9359 64.0257 37.3378C64.0257 37.3378 56.9788 41.7817 50.6258 42.2644C43.321 42.8197 33.8445 39.2687 33.8445 39.2687Z" fill="#A84F46"/>
<path fill-rule="evenodd" clip-rule="evenodd" d="M52.9893 1.83812C55.8909 1.61836 59.0044 2.26626 62.1839 3.64164C58.5964 15.457 56.6087 26.1991 56.9147 35.8136C54.667 35.4684 52.4654 35.4091 50.2897 35.49C50.1338 24.0762 51.2416 9.97164 52.9893 1.83812Z" fill="#A84F46"/>
<path fill-rule="evenodd" clip-rule="evenodd" d="M57.1314 2.5163C58.9411 2.62988 61.1907 3.60793 61.6487 3.89348C58.0792 14.8564 56.1175 23.9765 56.3515 35.3803C55.3517 35.243 54.0879 35.1456 53.156 35.1682C53.488 24.3665 54.0118 16.0078 57.1314 2.5163Z" fill="#6E302A" fill-opacity="0.27"/>
<path fill-rule="evenodd" clip-rule="evenodd" d="M53.1027 36.3741C53.0687 36.2971 55.6043 36.349 56.3802 36.506C56.3722 37.9915 56.5821 38.9683 56.9821 40.3889C55.6423 40.9204 54.1905 41.3045 53.0607 41.4785C52.9247 39.8384 53.1027 36.3741 53.1027 36.3741Z" fill="#6E302A" fill-opacity="0.27"/>
<path fill-rule="evenodd" clip-rule="evenodd" d="M36.2371 55.1162C36.2371 55.1162 39.4805 44.0539 42.914 43.7626C46.5834 43.4514 50.9227 52.446 50.9227 52.446C50.9227 52.446 45.8455 44.9372 42.758 44.9014C40.0984 44.8708 36.2371 55.1162 36.2371 55.1162Z" fill="black"/>
<path fill-rule="evenodd" clip-rule="evenodd" d="M55.3777 52.4913C55.3777 52.4913 57.0354 42.2189 60.4689 41.9277C64.1383 41.6164 66.9219 43.0099 61.3988 43.0925C57.5874 43.1493 55.3777 52.4913 55.3777 52.4913Z" fill="black"/>
<path fill-rule="evenodd" clip-rule="evenodd" d="M38.2436 62.5307C38.1496 66.7418 39.4994 69.9961 42.3949 71.6847C44.5066 72.9175 50.6616 72.0232 52.2154 68.2066C53.8071 64.293 50.2637 57.9484 50.2637 57.9484C45.9024 58.0914 41.967 59.8967 38.2436 62.5307Z" fill="black"/>
<path fill-rule="evenodd" clip-rule="evenodd" d="M65.1769 58.2268C67.1217 61.5221 66.7844 64.0719 65.8665 66.0857C65.1958 67.5563 61.9748 68.9952 59.6176 67.223C57.1992 65.4069 56.7056 60.0702 56.7056 60.0702C58.8711 58.7742 63.8807 57.2412 65.1769 58.2268Z" fill="black"/>
<path fill-rule="evenodd" clip-rule="evenodd" d="M65.0886 58.596C66.7092 61.4102 66.5239 63.983 65.6101 65.9961C65.1442 67.0231 62.1559 68.6107 60.0024 67.1219C57.5162 65.4034 57.0609 60.3719 57.0609 60.3719C59.2321 59.0761 63.7881 57.6155 65.0886 58.596Z" fill="#FFDA53"/>
<path fill-rule="evenodd" clip-rule="evenodd" d="M38.7544 62.8044C38.6844 66.5188 39.9862 69.8725 42.5578 71.3625C44.6735 72.5889 50.4286 71.2187 51.7324 68.1822C53.2961 64.5367 49.9787 58.3711 49.9787 58.3711C45.6193 58.5143 42.4778 60.1706 38.7544 62.8044Z" fill="#FFDA53"/>
<path fill-rule="evenodd" clip-rule="evenodd" d="M44.0412 72.0014C44.0412 72.0014 42.7614 66.2515 46.1649 66.0016C49.6683 65.7442 48.6485 71.2674 48.6485 71.2674C46.8068 71.9055 45.221 72.2244 44.0412 72.0014Z" fill="black"/>
<path fill-rule="evenodd" clip-rule="evenodd" d="M62.782 68.4309C63.0492 67.618 62.8676 63.3494 60.2706 63.2308C57.6362 63.1105 57.6872 66.8811 57.6872 66.8811C58.6734 68.1381 60.79 68.881 62.782 68.4309Z" fill="black"/>
<path d="M46.9968 68.0708C47.3705 68.0708 47.6735 67.7375 47.6735 67.3263C47.6735 66.9152 47.3705 66.5819 46.9968 66.5819C46.623 66.5819 46.3201 66.9152 46.3201 67.3263C46.3201 67.7375 46.623 68.0708 46.9968 68.0708Z" fill="#B8B8B8"/>
<path d="M61.2335 63.3707C61.0061 63.3729 60.593 63.3766 60.3109 63.3792C60.0288 63.3817 59.9845 63.3819 60.212 63.3798C60.4394 63.3776 60.8525 63.3739 61.1346 63.3714C61.4167 63.3689 61.461 63.3686 61.2335 63.3707Z" fill="#B8B8B8"/>
<path fill-rule="evenodd" clip-rule="evenodd" d="M38.4074 62.6193C38.4074 62.6193 37.5516 62.4478 37.5316 61.9251C37.5096 61.3074 38.1335 60.798 38.1335 60.798C38.4234 56.6723 39.5952 52.5349 42.3708 49.5916C42.2748 49.4866 42.0729 49.3818 41.7929 49.2769C47.0481 49.9739 49.5217 56.4635 50.3075 58.0685L49.9236 58.2032C49.9236 58.2032 49.4457 57.0432 48.9618 56.8167C48.4218 56.5629 47.452 56.7171 46.7601 56.9496C47.378 56.5031 48.4279 56.4129 49.0778 56.3589C47.588 53.713 45.8783 50.9264 42.6928 49.7648C39.7852 52.3662 38.7454 56.7741 38.4934 60.5209C39.3693 59.8844 40.5331 59.1437 41.4089 58.8099C39.7372 59.867 37.7515 61.3703 37.8815 61.8767C37.9955 62.3192 38.7654 62.4402 38.7654 62.4402L38.4074 62.6193Z" fill="black"/>
<path fill-rule="evenodd" clip-rule="evenodd" d="M67.9058 56.3927C67.9058 56.3927 68.3838 55.6986 68.1778 55.3655C67.9348 54.9715 67.2635 54.7963 67.2635 54.7963C65.4 52.3392 62.5509 50.2919 59.8006 49.7529C59.7943 49.4655 59.8393 49.3369 59.9387 49.106C58.1656 51.254 60.0974 57.7124 60.338 59.0048L60.5857 58.7863C59.8779 56.3756 58.9573 51.6627 59.7527 49.9877C62.4274 50.452 65.2466 52.4937 66.9317 54.7304C66.2594 54.5781 65.9966 54.5673 65.157 54.7278C66.4697 54.7039 67.7707 55.1613 67.9082 55.5287C68.0283 55.8501 67.4297 56.0966 67.4297 56.0966L67.9058 56.3927Z" fill="black"/>
<path fill-rule="evenodd" clip-rule="evenodd" d="M53.8152 56.7994C54.3231 57.357 54.3391 58.1808 54.1691 59.0691C54.1691 59.0691 54.0871 58.2812 54.0132 57.9153C53.9392 57.5629 53.8152 56.7994 53.8152 56.7994Z" fill="black"/>
<path fill-rule="evenodd" clip-rule="evenodd" d="M51.3005 60.4857C51.3005 60.4857 52.2944 61.94 52.8543 61.9956C53.6962 62.079 54.0421 61.2957 54.0421 61.2957C54.0421 61.2957 53.8702 62.5639 55.3899 61.8562C56.3238 61.4217 56.8317 59.9885 56.8317 59.9885L56.6677 60.9856C56.6677 60.9856 56.1238 61.9956 55.3219 62.2264C54.1421 62.5659 53.8722 61.9956 53.8722 61.9956C53.8722 61.9956 53.3642 62.4037 52.8103 62.3345C52.2544 62.2652 51.6645 61.5119 51.6645 61.5119L51.3005 60.4857Z" fill="black"/>
<path fill-rule="evenodd" clip-rule="evenodd" d="M28.7983 70.1139C28.7983 70.1139 28.1664 68.2706 28.5464 67.5635C28.9243 66.8564 33.1677 64.3818 34.3535 64.7858C35.5413 65.1899 37.9389 68.3398 39.6627 70.1321C41.3044 71.8383 43.678 72.0124 45.0918 72.088C46.5056 72.1638 49.2451 71.2404 50.305 70.4827C51.3668 69.7252 53.6285 67.0002 55.3642 66.8564C57.3159 66.6949 59.3176 68.5542 61.9672 68.617C64.7807 68.6834 67.1164 65.3273 67.5203 62.7767C67.9242 60.2263 67.5963 59.3582 67.5963 59.3582C67.5963 59.3582 67.8942 59.299 68.0522 59.0385C68.1782 58.8307 68.1202 58.5668 68.1202 58.5668C68.1202 58.5668 69.17 57.4027 69.8559 57.4673C70.5398 57.5319 74.0293 60.769 73.6273 61.9326C73.2274 63.0962 70.5558 64.1803 70.3178 64.7076C70.0419 65.3193 69.282 66.7425 69.0801 67.5253C68.8781 68.3082 69.298 71.2682 70.1499 72.3912C70.8897 73.3692 71.4377 74.3861 71.9176 74.6134C72.3975 74.8406 73.3134 74.9568 73.5613 75.5553C73.8833 76.3376 72.3055 78.8308 70.8658 79.0579C70.6158 79.0971 69.8039 78.927 69.47 79.1339C68.9741 79.4421 68.922 80.2366 67.8382 80.6903C65.4286 81.6981 61.6412 83.0035 58.5957 83.6238C46.9915 85.9859 45.7017 84.4151 44.8199 84.4691C44.2 84.5071 43.794 84.6545 43.508 84.689C41.8403 84.8912 38.8448 82.4002 37.885 81.0364C36.9251 79.6728 37.371 79.6638 37.347 79.0325C37.321 78.4012 28.7983 70.1139 28.7983 70.1139Z" fill="black"/>
<path fill-rule="evenodd" clip-rule="evenodd" d="M29.2077 69.9944C29.2077 69.9944 28.6698 68.4156 29.0477 67.7085C29.4276 67.0014 33.0611 64.7652 34.2469 65.1691C35.4347 65.5733 37.7823 68.5808 39.4221 70.4493C41.0638 72.318 43.7534 72.3008 45.1672 72.3766C46.583 72.4524 49.5265 71.5243 50.5863 70.7668C51.6481 70.0092 53.8138 67.447 55.5495 67.3032C57.5032 67.1416 59.275 69.0417 61.9226 68.9417C65.1841 68.8183 67.2977 64.6994 67.5936 62.134C67.8416 59.9827 67.5577 59.2708 67.5577 59.2708C67.5577 59.2708 67.9996 59.3086 68.2276 59.1089C68.4535 58.9137 68.4995 58.6085 68.4735 58.5592C68.4735 58.5592 69.2254 57.6935 69.9113 57.7581C70.5972 57.8229 73.5187 60.7774 73.1188 61.941C72.7169 63.1046 70.2912 63.9885 70.0533 64.516C69.7773 65.1275 69.0014 66.7875 68.7995 67.5701C68.5975 68.353 68.9974 71.4859 69.8493 72.609C70.5912 73.587 71.3011 74.7222 71.781 74.9494C72.2609 75.1767 72.9328 75.1018 73.1788 75.7003C73.5007 76.4825 72.1869 78.5116 70.7472 78.739C70.4992 78.7782 69.6493 78.6444 69.3154 78.8514C68.8215 79.1593 68.7495 79.8994 67.6657 80.3531C65.256 81.361 61.5886 82.5898 58.5411 83.2101C46.9369 85.5721 45.7891 83.9152 44.9052 83.9692C44.2853 84.0074 43.6914 84.1803 43.4055 84.2149C41.7397 84.4169 39.1921 82.2004 38.2323 80.8369C37.2724 79.4733 37.7763 79.5069 37.7503 78.8756C37.7263 78.2443 29.2077 69.9944 29.2077 69.9944Z" fill="#A84F46"/>
<path fill-rule="evenodd" clip-rule="evenodd" d="M44.6846 84.4023C44.6846 84.4023 52.0354 80.4523 56.8387 79.3751C61.6439 78.2978 69.5267 79.0271 69.5267 79.0271C67.621 79.0037 65.7392 79.0303 63.9115 79.1659C63.9115 79.1659 60.828 80.3791 57.9025 80.9728C54.8349 81.5957 51.2555 81.7943 51.2555 81.7943C49.1098 82.5274 46.9102 83.4306 44.6846 84.4023Z" fill="black"/>
<path fill-rule="evenodd" clip-rule="evenodd" d="M31.7459 69.6139C31.7459 69.6139 31.5499 68.9498 31.7958 68.7162C32.1578 68.3763 34.4354 68.1381 34.6814 68.3685C35.0993 68.7626 37.393 71.3892 37.6429 72.0131C37.8929 72.637 39.9145 76.9775 40.6564 78.0234C42.0482 79.9853 44.0439 79.2512 44.9598 79.1834C45.5037 79.1432 49.881 77.2745 51.6287 76.6044C53.5004 75.8871 61.4732 74.0248 64.7927 74.1312C68.2601 74.2422 71.6276 74.9393 71.6276 74.9393C71.6276 74.9393 66.4544 74.3543 64.6267 74.4559C62.799 74.5573 55.6821 75.4594 51.9407 76.83C48.0973 78.2383 45.5417 79.328 43.9819 79.5567C42.4222 79.7855 41.4343 79.2682 40.5825 78.4571C39.7306 77.646 37.8309 72.8638 37.311 72.1359C36.793 71.408 34.8953 69.1922 34.3234 68.7598C34.1095 68.5983 32.2617 68.6049 32.0678 68.9384C31.8698 69.2801 32.1018 69.6883 32.1018 69.6883L31.7459 69.6139Z" fill="black"/>
<path fill-rule="evenodd" clip-rule="evenodd" d="M53.8387 74.3729C52.4749 73.6158 51.293 73.635 50.0312 74.6008L50.0792 75.2073C51.2651 74.4852 52.5488 74.4308 53.8646 74.975L53.8387 74.3729Z" fill="#CFF1FF"/>
<path d="M44.8301 80.5484C47.8094 80.5484 50.2246 78.2857 50.2246 75.4946C50.2246 72.7035 47.8094 70.4408 44.8301 70.4408C41.8507 70.4408 39.4355 72.7035 39.4355 75.4946C39.4355 78.2857 41.8507 80.5484 44.8301 80.5484Z" fill="black"/>
<path d="M58.7261 79.6104C61.4922 79.6104 63.7346 77.4037 63.7346 74.6815C63.7346 71.9594 61.4922 69.7526 58.7261 69.7526C55.9601 69.7526 53.7178 71.9594 53.7178 74.6815C53.7178 77.4037 55.9601 79.6104 58.7261 79.6104Z" fill="black"/>
<path d="M44.828 80.1591C47.577 80.1591 49.8055 78.0713 49.8055 75.496C49.8055 72.9207 47.577 70.833 44.828 70.833C42.079 70.833 39.8506 72.9207 39.8506 75.496C39.8506 78.0713 42.079 80.1591 44.828 80.1591Z" fill="#CFF1FF"/>
<path fill-rule="evenodd" clip-rule="evenodd" d="M48.0328 73.4636C48.0328 73.4636 46.585 71.7034 44.2647 71.9845C42.0434 72.2535 40.9736 74.2391 40.9736 74.2391C41.1822 73.4454 42.091 71.8435 44.2078 71.5632C46.3247 71.2829 48.0018 72.7099 48.0328 73.4636Z" fill="black" fill-opacity="0.35"/>
<path d="M58.7051 79.2297C61.2573 79.2297 63.3263 77.1936 63.3263 74.6819C63.3263 72.1702 61.2573 70.1341 58.7051 70.1341C56.1529 70.1341 54.084 72.1702 54.084 74.6819C54.084 77.1936 56.1529 79.2297 58.7051 79.2297Z" fill="#CFF1FF"/>
<path fill-rule="evenodd" clip-rule="evenodd" d="M62.0709 72.8028C62.0709 72.8028 60.6231 71.0427 58.3028 71.3238C56.0815 71.5928 55.0117 73.5784 55.0117 73.5784C55.2203 72.7847 56.1291 71.1828 58.2459 70.9025C60.3628 70.6222 62.0399 72.0492 62.0709 72.8028Z" fill="black" fill-opacity="0.35"/>
<path fill-rule="evenodd" clip-rule="evenodd" d="M49.958 74.7098C49.958 74.7098 50.6969 73.6745 51.8698 73.6177C53.1721 73.5547 53.9461 74.4776 53.9461 74.4776C53.9461 74.4776 53.0557 73.8825 51.8772 73.9411C50.7597 73.9967 49.958 74.7098 49.958 74.7098Z" fill="black"/>
<path fill-rule="evenodd" clip-rule="evenodd" d="M49.9336 75.3196C49.9336 75.3196 50.7201 74.5133 51.9092 74.4565C53.2294 74.3935 54.0458 75.066 54.0458 75.066C54.0458 75.066 53.1113 74.7213 51.9166 74.7798C50.7837 74.8354 49.9336 75.3196 49.9336 75.3196Z" fill="black"/>
<path fill-rule="evenodd" clip-rule="evenodd" d="M26.2776 101.107L7.63599 91.6246C6.56892 94.7693 4.82702 97.6229 2.16379 100.079C5.54263 104.879 11.7365 108.051 20.8054 109.562C23.0115 105.073 24.7736 102.525 26.2776 101.107Z" fill="#A84F46"/>
<path fill-rule="evenodd" clip-rule="evenodd" d="M6.76805 79.8707C5.20029 85.2129 3.46059 89.9845 0.739014 93.7118C11.6413 99.6392 19.654 104.469 30.5563 100.271C29.6384 95.4233 31.2822 91.9854 31.9761 87.5977L6.76805 79.8707Z" fill="black"/>
<path fill-rule="evenodd" clip-rule="evenodd" d="M14.3395 79.9011C14.3395 79.9011 7.90848 78.0861 6.78666 79.8193C6.31873 80.5446 8.50436 83.4909 8.2064 84.8991C7.79447 86.8588 28.0753 92.795 29.4251 92.1207C30.7729 91.4466 32.0367 87.4015 32.0367 87.4015L14.3395 79.9011Z" fill="black"/>
<path fill-rule="evenodd" clip-rule="evenodd" d="M14.3508 80.5547C14.3508 80.5547 7.2479 78.8707 7.93979 80.0246C8.98962 81.7709 10.5174 81.6591 12.2631 83.2547C14.2648 85.0858 16.9264 87.43 22.0676 88.0199C27.2087 88.6098 25.317 88.8758 28.5705 88.66C31.782 88.447 31.4541 87.2998 31.4541 87.2998L14.3508 80.5547Z" fill="#A84F46"/>
<path fill-rule="evenodd" clip-rule="evenodd" d="M12.5178 84.0277C13.1957 81.1496 18.0949 69.5382 19.6606 68.588C20.7745 67.9125 24.3519 68.5024 26.9535 68.7357C30.001 69.0091 32.5326 69.1747 33.2865 69.483C34.6843 70.0545 34.7923 70.8336 35.8241 71.5857C36.322 71.9474 37.7158 73.0087 38.9476 73.7612C40.3414 74.613 41.5912 75.0429 41.7592 75.2789C42.0771 75.7236 41.7972 76.8137 41.1193 77.0738C41.0313 77.1078 40.1894 77.4522 40.1894 77.4522C40.3094 77.8229 40.4814 78.0909 40.6874 78.2912C38.6157 78.8026 36.544 79.6956 34.4703 80.6909C34.4703 80.6909 34.8443 82.7611 34.7383 83.5476C34.6123 84.4541 33.0826 87.3206 31.9847 87.6458C30.8869 87.9709 30.197 88.7026 29.6271 87.8083C29.0592 86.9141 29.0632 86.8861 27.5014 87.504C25.9396 88.1219 23.4881 88.917 22.8402 88.3625C22.1743 87.7933 20.6785 88.4566 19.1428 88.9088C16.1632 89.7866 12.2738 85.0662 12.5178 84.0277Z" fill="black"/>
<path fill-rule="evenodd" clip-rule="evenodd" d="M13.2731 83.9749C13.951 81.0968 18.2723 70.0835 19.8381 69.1332C20.9499 68.4575 24.3093 68.8709 26.9109 69.1043C29.9564 69.3776 32.2961 69.64 33.0499 69.9483C34.4477 70.5198 34.5537 71.2021 35.5876 71.9542C36.0855 72.3162 37.5572 73.3578 38.789 74.1103C40.1828 74.9621 41.2387 75.2179 41.4066 75.4539C41.7246 75.8986 41.4246 76.6789 40.7467 76.939C40.6588 76.9732 39.7769 77.3378 39.7769 77.3378C39.9129 77.6831 40.0709 77.8583 40.2728 78.1498C38.1992 78.6614 36.0415 79.457 33.9698 80.4521C33.9698 80.4521 34.3418 82.6821 34.2338 83.4686C34.1098 84.3751 33.186 86.6953 32.0881 87.0204C30.9903 87.3456 30.5944 88.3758 30.0264 87.4816C29.4565 86.5873 29.2705 86.3655 27.7088 86.9834C26.149 87.6011 23.2635 88.5918 22.8096 87.8439C22.3536 87.096 20.4659 86.9924 19.4181 86.8085C16.6065 86.3147 13.0571 84.8892 13.2731 83.9749Z" fill="#DADADA"/>
<path fill-rule="evenodd" clip-rule="evenodd" d="M13.2804 83.9072C14.8361 78.362 18.2796 70.6268 19.7073 69.1643C20.6552 68.1928 28.9119 69.1873 30.6096 69.4862C30.6096 69.4862 22.7809 69.1873 21.3871 70.625C20.6572 71.3787 20.9652 72.9171 19.9993 74.7542C19.4974 75.7122 17.3198 76.9175 17.3018 77.7803C17.2738 79.2813 21.1931 81.07 20.9632 82.5084C20.7212 84.0153 19.7934 86.5687 19.8994 86.8791C17.6317 86.6877 12.9464 85.0968 13.2804 83.9072Z" fill="#C9C9C9"/>
<path fill-rule="evenodd" clip-rule="evenodd" d="M23.5908 70.9627C23.5908 70.9627 25.7784 72.3374 27.3122 73.2799C28.372 73.9312 30.6317 74.9818 30.6317 74.9818C30.6317 74.9818 31.2096 75.109 31.3276 75.029C31.4476 74.949 31.2736 74.4573 31.2736 74.4573C31.2736 74.4573 34.3011 76.7198 35.7449 77.0879C36.7047 77.3329 38.8124 77.4334 39.6563 77.3458C39.8922 77.3215 40.2182 77.1603 40.2102 77.1769L40.1442 77.4596C40.1442 77.4596 39.9223 77.5786 39.6343 77.598C38.7824 77.6554 36.9747 77.6652 35.7449 77.3578C34.4791 77.0415 32.5554 75.6215 31.8315 75.2448C31.6515 75.1508 31.2596 75.186 31.3476 75.301C31.4895 75.4867 32.1334 75.7951 32.6434 76.3598C32.8973 76.6418 33.5592 77.1691 33.8532 77.8954C34.3071 79.0216 34.3571 80.4074 34.3571 80.4074L33.9752 80.4624C33.9752 80.4624 33.9712 79.0446 33.5212 77.964C33.1833 77.1495 32.5614 76.6416 32.2954 76.5818C32.1174 76.5418 31.1456 76.49 30.0658 76.7893C29.1019 77.0567 28.0761 77.666 27.0683 77.8288C25.2585 78.1209 23.9888 77.7846 23.9888 77.7846C23.9888 77.7846 25.0746 77.9812 26.9823 77.6638C27.8941 77.5118 28.9859 76.7199 29.9118 76.469C31.0856 76.1502 31.9975 76.374 32.0495 76.275C32.1814 76.0301 28.484 74.2159 27.0343 73.4191C25.5605 72.6086 23.5908 70.9627 23.5908 70.9627Z" fill="black"/>
<path fill-rule="evenodd" clip-rule="evenodd" d="M23.9023 85.4773C23.7083 85.2837 23.5543 85.3737 24.2782 85.2863C24.7981 85.2236 25.9819 84.9164 26.8118 84.5057C28.0436 83.896 28.9155 83.0689 29.1435 82.9645C29.4714 82.8141 29.3374 81.7735 29.3374 81.7735C29.4554 82.0501 29.6274 82.23 29.7474 82.5532C29.8914 82.9387 29.9873 83.4694 30.1753 83.8018C30.3173 84.0493 30.6272 84.2647 30.8012 84.4531C30.9392 84.6032 30.9392 84.8324 31.0651 85.0118C31.0651 85.0118 30.6952 84.6842 30.5992 84.8106C30.4432 85.0154 29.9533 85.6761 29.7214 86.308C29.5594 86.7449 29.6094 87.2482 29.6094 87.2482L28.5995 86.8067C28.5995 86.8067 29.0715 86.5633 29.4974 86.0852C29.8934 85.6411 30.2233 84.9572 30.2753 84.6566C30.3073 84.4825 29.9313 84.2817 29.7654 83.9638C29.5774 83.601 29.6054 83.1429 29.4694 83.1231C29.2954 83.0977 28.1716 84.0623 26.8318 84.6858C25.92 85.1108 24.7442 85.1688 24.3482 85.4631C23.7603 85.8994 23.0824 86.4624 22.7205 86.7755C22.5125 86.9563 23.1184 88.1561 23.1184 88.1561H22.8985C22.8985 88.1561 22.1166 87.0323 22.3725 86.7553C22.6265 86.4782 24.0762 85.6517 23.9023 85.4773Z" fill="black"/>
</svg>
