<svg width="169" height="109" viewBox="0 0 169 109" fill="none" xmlns="http://www.w3.org/2000/svg">
<path fill-rule="evenodd" clip-rule="evenodd" d="M116.784 55.9328L116.457 53.0982C113.879 52.992 112.049 54.4745 110.463 56.4771C110.463 56.4771 109.42 50.549 110.79 48.6837C111.733 47.4024 116.948 45.9597 116.948 45.9597C115.198 45.4795 113.027 45.942 110.721 46.7054C110.721 46.7054 113.782 42.6338 116.145 42.6117C117.705 42.5962 119.236 45.079 119.236 45.079C120.13 41.4611 121.365 38.1441 122.757 35.2719L125.339 31.4636L133.405 34.0792L145.777 36.3694L149.676 48.1282L147.823 53.4323C147.823 53.4323 151.481 53.6005 152.621 54.7445C153.917 56.0434 154.738 62.0401 154.738 62.0401C153.4 59.429 151.999 58.2496 150.585 57.422C153.986 62.3875 153.13 66.7091 147.775 70.3558C147.536 67.685 146.945 65.3682 146.009 63.3943C145.801 65.7222 145.279 67.103 144.531 67.8022C144.285 66.1028 143.402 64.5339 141.683 63.1443H129.882L120.172 59.5994L116.784 55.9328Z" fill="black"/>
<path fill-rule="evenodd" clip-rule="evenodd" d="M117.215 55.8797L116.794 52.7663C114.216 52.66 112.364 53.5828 110.777 55.5854C110.777 55.5854 110.025 50.611 111.395 48.7456C112.337 47.4644 118.031 46.0216 118.031 46.0216C116.283 45.5437 114.11 45.3003 111.804 46.0615C111.804 46.0615 113.891 43.0498 116.254 43.0277C117.814 43.0144 119.385 45.8668 119.385 45.8668C120.281 42.2488 121.609 38.2768 122.999 35.4046L125.344 31.4636L133.41 34.0792L145.782 36.3694L149.342 47.8671C148.813 49.8852 147.99 52.1622 147.284 53.7908C147.284 53.7908 151.23 53.8572 152.363 55.01C153.343 56.0102 154.294 60.646 154.294 60.646C152.958 58.0349 151.126 57.2538 149.712 56.4284C153.113 61.3918 153.484 65.8306 148.127 69.4773C147.888 66.8065 146.784 64.4543 145.848 62.4827C145.64 64.8105 145.368 66.2732 144.618 66.9746C144.372 65.273 143.425 64.1533 141.706 62.7615L129.887 62.7194L120.549 59.1745L117.215 55.8797Z" fill="#CCCCCC"/>
<path fill-rule="evenodd" clip-rule="evenodd" d="M121.999 57.6123L117.215 55.8797L116.794 52.7663C114.216 52.6601 112.364 53.5828 110.777 55.5854C110.777 55.5854 110.025 50.611 111.395 48.7456C112.337 47.4644 118.031 46.0217 118.031 46.0217C116.283 45.5437 114.11 45.3003 111.804 46.0615C111.804 46.0615 113.891 43.0499 116.254 43.0277C117.814 43.0144 119.385 45.8668 119.385 45.8668C120.281 42.2488 121.609 38.2769 122.999 35.4046L125.344 31.4636L134.521 33.7141C126.984 37.332 127.292 54.6095 121.999 57.6123Z" fill="#939393"/>
<path fill-rule="evenodd" clip-rule="evenodd" d="M122.348 36.7366C118.861 33.6475 120.191 26.3077 123.435 25.2433C124.189 24.9955 126.734 29.4343 130.326 30.554C134.158 22.0192 137.052 13.8629 138.887 6.32828C151.595 3.76144 161.648 8.83982 168.195 24.0086C162.869 28.0646 157.598 33.1231 152.438 40.0912C153.272 41.1312 157.37 50.8698 155.397 53.0317C153.529 55.0785 147.933 52.3412 147.933 52.3412C148.426 51.3433 148.816 50.2656 148.993 49.0287C147.174 46.2561 145.218 43.8485 143.162 41.7088C142.682 36.7742 140.42 34.7052 135.499 36.907C133.384 35.6169 131.085 34.9398 128.697 34.5636C127.073 31.3108 124.787 31.6981 122.348 36.7366Z" fill="black"/>
<path fill-rule="evenodd" clip-rule="evenodd" d="M130.664 30.7105L133.187 24.8886C142.474 25.6343 149.267 30.0289 154.084 37.3223L152.17 39.6635C152.17 39.6635 149.139 34.782 146.32 33.5694C143.277 32.2572 138.484 32.6423 136.234 32.3502C132.802 31.9054 130.664 30.7105 130.664 30.7105Z" fill="#A84F46"/>
<path fill-rule="evenodd" clip-rule="evenodd" d="M154.398 8.56934C156.863 9.81072 159.673 11.9815 161.957 14.6036C161.957 14.6036 160.731 26.6523 156.23 28.2677C153.482 29.2524 152.216 27.4357 152.216 27.4357C151.55 29.3807 151.716 31.3767 151.382 33.0672C150.681 32.2109 149.884 31.3899 148.855 30.6686C148.479 28.2212 148.494 25.8181 148.901 23.4593C148.901 23.4593 150.707 25.1742 152.491 23.7314C155.81 21.0495 154.398 8.56934 154.398 8.56934Z" fill="#A84F46"/>
<path fill-rule="evenodd" clip-rule="evenodd" d="M113.875 49.7894C112.312 51.4026 111.556 52.925 111.135 55.5029L110.695 55.8038L110.425 55.317C111.281 52.4182 112.359 50.7365 113.875 49.7894Z" fill="black"/>
<path fill-rule="evenodd" clip-rule="evenodd" d="M148.783 59.6753C149.483 63.7492 148.94 65.5385 147.692 68.9395L147.945 69.67L148.338 69.5895C150.11 65.2694 149.72 62.4344 148.783 59.6753Z" fill="black"/>
<path fill-rule="evenodd" clip-rule="evenodd" d="M129.271 37.4892C129.34 35.8406 129.262 34.2319 128.689 32.5546L127.368 32.7892C128.373 33.6876 129.041 35.5021 129.271 37.4892Z" fill="black"/>
<path fill-rule="evenodd" clip-rule="evenodd" d="M133.937 38.4493C134.85 37.0753 136.066 35.9012 137.515 34.8822L138.428 36.0678C137.092 36.2015 135.289 36.9778 133.937 38.4493Z" fill="black"/>
<path fill-rule="evenodd" clip-rule="evenodd" d="M142.565 44.4076C143.372 42.9788 143.652 41.2754 143.943 39.5177L142.905 39.2589C143.2 40.4606 143.28 42.5403 142.565 44.4076Z" fill="black"/>
<path fill-rule="evenodd" clip-rule="evenodd" d="M129.449 47.5257C129.796 47.3089 132.204 48.86 134.682 49.7562C137.141 50.6436 139.668 50.8759 139.803 51.2676C140.081 52.0664 138.22 58.7889 134.321 62.3316C131.128 61.7717 128.367 60.4994 126.123 58.4437C126.736 54.5846 128.732 47.9705 129.449 47.5257Z" fill="black"/>
<path fill-rule="evenodd" clip-rule="evenodd" d="M129.742 48.1392C130.09 47.9245 132.035 49.323 134.513 50.2192C136.972 51.1087 139.304 51.1751 139.439 51.5668C139.718 52.3656 138.171 58.2804 134.272 61.8231C131.079 61.2633 128.857 60.2896 126.611 58.234C127.224 54.3748 129.026 48.5861 129.742 48.1392Z" fill="#FFDA53"/>
<path fill-rule="evenodd" clip-rule="evenodd" d="M135.839 50.4196C134.553 51.2715 132.591 58.0538 134.463 59.2044C136.047 60.1781 137.857 57.1753 137.857 57.1753C139.003 54.7235 139.858 52.5284 139.65 51.287L135.839 50.4196Z" fill="black"/>
<path fill-rule="evenodd" clip-rule="evenodd" d="M135.821 51.8308C136.794 52.7449 137.659 53.429 137.535 53.5898C137.426 53.7355 136.399 53.2337 135.353 52.7244C134.443 52.281 134.315 53.6747 133.614 53.129C133.245 52.8437 134.928 50.5076 135.531 50.6085C135.983 50.6833 135.059 51.1166 135.821 51.8308Z" fill="#FFDA53"/>
<path fill-rule="evenodd" clip-rule="evenodd" d="M119.835 43.222C119.835 43.222 121.565 44.1625 122.596 44.5276C123.734 44.9259 125.716 45.1007 126.033 45.4902C126.353 45.884 123.309 54.1134 121.618 55.9479C119.27 55.7531 117.593 55.2951 117.383 54.2551C117.952 50.2167 118.775 46.5479 119.835 43.222Z" fill="black"/>
<path fill-rule="evenodd" clip-rule="evenodd" d="M120.026 43.7683C120.026 43.7683 121.537 44.6202 122.571 44.9831C123.706 45.3837 125.283 45.4323 125.6 45.8196C125.921 46.2135 122.967 53.8587 121.451 55.6422C119.309 55.4099 117.91 55.0912 117.7 54.0512C118.269 50.0129 118.966 47.0941 120.026 43.7683Z" fill="#FFDA53"/>
<path fill-rule="evenodd" clip-rule="evenodd" d="M123.125 44.928C121.828 45.8684 119.582 51.8673 121.622 52.5821C122.742 52.9715 123.95 51.4358 123.95 51.4358C124.72 49.5107 125.399 47.444 125.897 45.5852L123.125 44.928Z" fill="black"/>
<path fill-rule="evenodd" clip-rule="evenodd" d="M122.935 46.842C123.554 47.7135 124.145 48.092 124.042 48.2678C123.953 48.4128 123.135 47.8758 122.45 47.3455C121.834 46.8715 121.226 48.0797 120.683 47.6978C120.553 47.6075 122.108 45.0851 122.475 45.1924C123.03 45.3542 122.146 45.7351 122.935 46.842Z" fill="#FFDA53"/>
<path fill-rule="evenodd" clip-rule="evenodd" d="M118.203 49.719C118.203 49.719 116.592 49.3362 115.906 49.9027C115.107 50.5621 115.605 54.2708 115.605 54.2708C115.605 54.2708 113.224 56.7071 111.582 57.1607C110.495 57.4594 107.902 55.167 107.189 55.2931C106.324 55.4458 107.081 59.0903 108.088 59.6855C109.292 60.398 111.469 60.8406 111.469 60.8406C111.469 60.8406 110.933 62.7701 111.201 63.2968C111.912 64.6886 121.783 70.692 126.074 70.8137C129.76 70.9199 140.853 67.0608 142.997 64.3567C144.179 62.8675 147.874 56.1229 145.953 54.3748C144.595 53.1378 142.059 59.7807 140.342 60.938C138.209 62.3763 135.301 62.3453 131.643 60.8937C124.513 58.0657 124.496 55.6361 123.887 55.448C123.611 55.3617 121.575 55.8463 120.052 55.6405C118.466 55.4281 117.554 54.2066 117.554 54.2066L118.203 49.719Z" fill="black"/>
<path fill-rule="evenodd" clip-rule="evenodd" d="M117.766 50.0733C117.766 50.0733 116.852 49.7104 116.166 50.2769C115.367 50.9363 115.966 54.4414 115.966 54.4414C115.966 54.4414 113.373 57.006 111.74 57.4817C110.246 57.9177 108.109 55.6496 107.416 55.8531C106.89 56.0058 107.516 59.1502 108.602 59.5839C109.62 59.9911 111.964 60.5332 111.964 60.5332C111.964 60.5332 111.357 62.6221 111.625 63.1487C112.333 64.5406 121.976 70.2363 126.267 70.358C129.956 70.462 140.752 66.6582 142.896 63.952C144.076 62.4628 147.138 56.3244 145.636 54.8042C144.894 54.0541 142.403 60.1415 140.644 61.2346C137.676 63.0757 135.005 62.5867 131.348 61.1351C124.216 58.3071 124.368 56.0169 123.76 55.8288C123.486 55.7447 121.799 56.247 120.058 55.8841C117.141 55.2756 117.31 54.1736 117.31 54.1736L117.766 50.0733Z" fill="#A84F46"/>
<path fill-rule="evenodd" clip-rule="evenodd" d="M111.856 60.5089C111.856 60.5089 115.775 61.5158 119.36 63.5139C122.688 65.3705 125.657 68.2559 126.536 68.3068C127.414 68.3577 131.475 67.2447 135.234 65.7511C138.505 64.4522 141.603 62.7948 142.101 62.1685C142.939 61.1152 143.238 60.3563 143.68 59.4357C144.457 57.8138 145.106 56.2604 145.258 56.298C145.415 56.3356 144.794 57.9023 143.935 59.6459C143.397 60.7369 142.621 62.1907 142.333 62.4828C141.738 63.0891 138.649 64.7442 135.325 66.0764C131.503 67.6098 127.377 68.7959 126.476 68.745C125.653 68.6985 120.347 67.2469 116.919 65.3572C114.699 64.1335 113.1 61.3565 113.1 61.3565C112.759 61.1374 112.146 60.9847 111.743 60.9139L111.856 60.5089Z" fill="black"/>
<path d="M124.284 61.922C125.397 62.5755 127.029 61.6963 127.93 59.9582C128.831 58.2202 128.66 56.2815 127.547 55.6281C126.434 54.9746 124.801 55.8539 123.9 57.5919C122.999 59.3299 123.171 61.2686 124.284 61.922Z" fill="black"/>
<path d="M117.743 58.3219C118.686 58.8773 120.094 58.0703 120.885 56.5194C121.677 54.9685 121.554 53.2609 120.61 52.7055C119.666 52.1501 118.259 52.9571 117.467 54.508C116.675 56.0589 116.799 57.7665 117.743 58.3219Z" fill="black"/>
<path d="M124.413 61.4759C125.383 62.0452 126.805 61.2791 127.59 59.7647C128.376 58.2503 128.226 56.561 127.256 55.9916C126.287 55.4222 124.864 56.1883 124.079 57.7028C123.294 59.2172 123.443 60.9065 124.413 61.4759Z" fill="#CFF1FF"/>
<path d="M117.857 57.9247C118.679 58.4086 119.905 57.7055 120.595 56.3541C121.285 55.0027 121.177 53.5148 120.355 53.0309C119.532 52.5469 118.306 53.2501 117.617 54.6015C116.927 55.9529 117.034 57.4407 117.857 57.9247Z" fill="#CFF1FF"/>
<path fill-rule="evenodd" clip-rule="evenodd" d="M127.399 55.4823C124.596 53.5435 122.631 52.3239 119.702 52.2464L120.728 52.8805C122.811 52.9862 124.403 53.9356 126.565 55.357L127.399 55.4823Z" fill="black"/>
<path fill-rule="evenodd" clip-rule="evenodd" d="M101.746 81.6186C101.746 81.6186 103.135 79.3992 105.209 79.2908C108.636 79.1093 110.756 81.3863 110.756 81.3863C112.484 81.3487 113.991 80.9305 115.211 80.0144C120.756 83.4885 122.431 89.1931 120.222 95.1477C118.567 95.3579 116.992 95.3358 115.465 95.1632C115.465 95.1632 113.555 97.2654 110.581 97.8385C107.82 98.3695 105.788 98.1394 104.071 97.0817C101.892 95.7407 101.513 93.4195 101.513 93.4195C101.513 93.4195 98.7805 94.7892 96.7447 94.8733C93.7353 94.9972 91.1065 94.4662 91.1065 94.4662C91.1065 94.4662 87.9886 95.3513 85.4306 96.0483C82.6912 96.794 80.4651 97.3539 79.3632 97.314C77.885 97.2631 77.8806 96.0549 77.8806 96.0549C77.8806 96.0549 76.4356 96.7719 75.7076 95.8071C74.8335 94.6498 75.9842 93.4328 75.9842 93.4328C75.9842 93.4328 75.3514 93.4306 75.0084 92.7667C74.6189 92.0077 75.3868 90.7464 75.9444 90.0007C76.502 89.2572 80.2859 84.5749 83.8507 82.933C87.4178 81.2889 90.4869 78.9943 90.4869 78.9943C90.4869 78.9943 89.1835 75.0267 90.301 72.2983C91.4163 69.5699 93.8659 66.2817 96.1295 67.2443C98.3932 68.2046 94.3925 73.5065 96.5013 75.9561C98.6101 78.4057 101.746 81.6186 101.746 81.6186Z" fill="black"/>
<path fill-rule="evenodd" clip-rule="evenodd" d="M111.206 81.8614C113.813 84.0897 117.004 90.0178 115.674 94.7134C117.165 94.9369 118.34 95.0674 120.124 94.7289C121.75 89.6107 120.475 83.9415 115.346 80.5161C114.202 81.2507 112.934 81.7574 111.206 81.8614Z" fill="#8E251A"/>
<path fill-rule="evenodd" clip-rule="evenodd" d="M103.19 84.2058C102.19 83.8318 101.796 85.3277 101.405 87.078C101.405 87.078 101.914 83.4468 101.272 82.4665C98.7914 78.6671 96.3794 77.9347 95.5917 75.3302C94.6003 72.0464 97.4328 68.4042 95.7311 67.6629C94.2773 67.0323 91.082 70.6325 90.5355 73.7769C89.9756 76.9921 91.0134 78.3264 92.673 80.1718C92.0888 79.7558 91.5024 79.3487 90.9161 79.508C90.9161 79.508 86.3975 82.2098 83.5187 83.5751C81.0957 84.7236 74.1674 91.5147 75.3556 92.7715C76.3625 93.8359 78.3075 91.4018 79.675 90.5012C83.0031 88.3105 86.6409 85.6485 87.0392 86.1641C87.4353 86.6797 73.8819 93.3955 76.035 95.438C77.4091 96.7413 78.4801 94.5661 82.5893 92.9596C84.9304 92.0457 90.531 89.698 90.4912 90.4105C90.4514 91.1252 77.4047 94.3758 78.5022 96.5421C79.3232 98.1553 89.4003 94.1833 91.0267 94.1037C92.6553 94.024 94.1379 94.9866 97.3465 94.4068C100.736 93.7961 103.31 92.1962 104.064 91.601C104.819 91.0057 105.255 90.1339 105.255 90.1339C105.153 90.5145 105.164 90.9084 105.414 91.3244C106.275 91.5368 106.884 91.497 107.359 91.3244C107.512 87.5471 104.554 84.7169 103.19 84.2058Z" fill="#CCCCCC"/>
<path fill-rule="evenodd" clip-rule="evenodd" d="M89.4775 87.7568C89.4775 87.7568 92.1086 85.5241 95.1313 85.1192C97.333 84.8249 99.2426 85.4489 99.2426 85.4489C95.8039 85.4268 92.5445 86.4181 89.4775 87.7568Z" fill="black"/>
<path fill-rule="evenodd" clip-rule="evenodd" d="M44.2937 71.9098L27.3237 70.3339L26.5137 80.6558L43.1437 82.6658L44.2937 71.9098Z" fill="black"/>
<path fill-rule="evenodd" clip-rule="evenodd" d="M44.0116 72.1161L27.8416 70.6421L26.9775 80.4381L42.8855 82.4281L44.0116 72.1161Z" fill="#FF561C"/>
<path fill-rule="evenodd" clip-rule="evenodd" d="M27.3133 70.3354L0 89.5561L21.1425 93.0716L44.2886 71.9007L27.3133 70.3354Z" fill="black"/>
<path fill-rule="evenodd" clip-rule="evenodd" d="M27.3556 70.6161L1.00098 89.4671L20.9132 92.7556L43.6087 72.1036L27.3556 70.6161Z" fill="#FF561C"/>
<path fill-rule="evenodd" clip-rule="evenodd" d="M43.5065 24.379H41.626V44.3356C42.2855 44.8409 42.9122 44.8372 43.5065 44.3356V24.379Z" fill="black"/>
<path fill-rule="evenodd" clip-rule="evenodd" d="M67.1053 58.1085H66.0889V68.2536C66.4453 68.5104 66.7841 68.5086 67.1053 68.2536V58.1085Z" fill="black"/>
<path fill-rule="evenodd" clip-rule="evenodd" d="M91.0651 8.1131H89.1846V28.0698C89.8441 28.575 90.4708 28.5713 91.0651 28.0698V8.1131Z" fill="black"/>
<path fill-rule="evenodd" clip-rule="evenodd" d="M43.2663 24.6552H41.8701V44.0427C42.3355 44.4944 42.8009 44.4838 43.2663 44.0427V24.6552Z" fill="#A84F46"/>
<path fill-rule="evenodd" clip-rule="evenodd" d="M66.99 58.2504H66.2354V68.1062C66.4869 68.3359 66.7384 68.3304 66.99 68.1062V58.2504Z" fill="#A84F46"/>
<path fill-rule="evenodd" clip-rule="evenodd" d="M90.8493 8.38928H89.4531V27.7769C89.9185 28.2286 90.3839 28.2179 90.8493 27.7769V8.38928Z" fill="#A84F46"/>
<path d="M60.9101 15.6769H24.3164V30.9943H60.9101V15.6769Z" fill="black"/>
<path fill-rule="evenodd" clip-rule="evenodd" d="M60.3943 16.1798L24.9268 16.1377L24.9706 30.4504L60.4351 30.5769L60.3943 16.1798Z" fill="#FFD031"/>
<path d="M108.395 0H71.8018V15.3174H108.395V0Z" fill="black"/>
<path fill-rule="evenodd" clip-rule="evenodd" d="M107.988 0.314331L72.2656 0.397578L72.3902 14.9082H107.988V0.314331Z" fill="#FFD031"/>
<path fill-rule="evenodd" clip-rule="evenodd" d="M25.1126 78.7772L14.8438 77.4597V84.9325L25.0446 86.4527L25.1126 78.7772Z" fill="black"/>
<path fill-rule="evenodd" clip-rule="evenodd" d="M24.8587 78.8538L15.0146 77.6016L15.0694 84.7582L24.8571 86.2131L24.8587 78.8538Z" fill="#FFCC5D"/>
<path fill-rule="evenodd" clip-rule="evenodd" d="M20.5624 78.3076L18.5547 78.0533L18.5721 85.2981L20.5909 85.5902L20.5624 78.3076Z" fill="#D21805"/>
<path fill-rule="evenodd" clip-rule="evenodd" d="M32.7625 72.6028L25.1135 78.7891L25.0488 86.4521L32.4489 80.0802L32.7625 72.6028Z" fill="black"/>
<path fill-rule="evenodd" clip-rule="evenodd" d="M32.5729 72.8226L25.1296 78.7889L25.0732 86.1998L32.3423 80.0112L32.5729 72.8226Z" fill="#FFCC5D"/>
<path fill-rule="evenodd" clip-rule="evenodd" d="M32.7649 72.6015L23.3257 71.6827L14.8438 77.46L25.1126 78.7901L32.7649 72.6015Z" fill="black"/>
<path fill-rule="evenodd" clip-rule="evenodd" d="M32.407 72.6995L23.4041 71.7911L15.1611 77.4057L24.8974 78.6372L32.407 72.6995Z" fill="#FFCC5D"/>
<path fill-rule="evenodd" clip-rule="evenodd" d="M29.9095 74.9512L28.6659 75.9478L28.6377 83.1617L29.8387 82.1375L29.9095 74.9512Z" fill="#D21805"/>
<path fill-rule="evenodd" clip-rule="evenodd" d="M20.661 73.677L19.3848 74.5452L28.6218 75.7156L29.8487 74.7491L20.661 73.677Z" fill="#D21805"/>
<path fill-rule="evenodd" clip-rule="evenodd" d="M28.1316 72.2679L26.5343 72.1058L18.6802 77.8494L20.6258 78.0921L28.1316 72.2679Z" fill="#D21805"/>
<path fill-rule="evenodd" clip-rule="evenodd" d="M31.1634 76.2558L27.4414 79.2098L27.4994 81.2558L31.1134 78.3978L31.1634 76.2558Z" fill="black"/>
<path fill-rule="evenodd" clip-rule="evenodd" d="M31.0675 76.4771L27.5635 79.2651L27.6135 81.0391L31.0315 78.3671L31.0675 76.4771Z" fill="#F2E8C6"/>
<path d="M28.6603 79.0862C28.7397 78.9359 28.7957 78.8505 28.8273 78.8323C28.8595 78.8129 28.8631 78.8637 28.8396 78.9809C28.8251 79.0536 28.8068 79.1269 28.7842 79.203L28.6793 79.4013C28.6891 79.3725 28.6991 79.3392 28.7097 79.3001C28.7206 79.2598 28.7289 79.2268 28.7338 79.2022C28.7453 79.1447 28.7449 79.1186 28.7334 79.1213C28.7219 79.1241 28.6995 79.1569 28.6652 79.221L28.6645 79.2245C28.6827 79.2128 28.6854 79.2398 28.6715 79.309C28.6633 79.35 28.6499 79.3986 28.6314 79.4548C28.6129 79.511 28.5905 79.57 28.5659 79.6281C28.5411 79.6875 28.5151 79.7424 28.4877 79.7942C28.4539 79.8582 28.4271 79.9007 28.4069 79.923C28.3864 79.9464 28.3741 79.947 28.3696 79.9271C28.366 79.9049 28.3696 79.8645 28.3816 79.8047C28.394 79.7426 28.4142 79.6702 28.4421 79.5877C28.4693 79.5063 28.5017 79.4231 28.5386 79.3381C28.5752 79.2543 28.616 79.1699 28.6603 79.0862ZM28.5526 79.4398C28.537 79.4694 28.5228 79.4999 28.5091 79.5337C28.4955 79.5675 28.487 79.5938 28.4827 79.6149C28.4785 79.636 28.4798 79.6438 28.4861 79.6406C28.4926 79.6363 28.5056 79.6162 28.5251 79.5793C28.5427 79.546 28.5578 79.5131 28.5701 79.4817C28.5818 79.4516 28.5899 79.4254 28.5939 79.4054C28.5986 79.382 28.5967 79.3754 28.5895 79.381C28.5814 79.389 28.5689 79.409 28.5526 79.4398Z" fill="#F91700"/>
<path d="M29.2706 78.6238C29.3501 78.4736 29.4061 78.3882 29.4376 78.37C29.4698 78.3506 29.4734 78.4014 29.45 78.5186C29.4354 78.5913 29.4171 78.6645 29.3946 78.7406L29.2897 78.9389C29.2995 78.9102 29.3094 78.8769 29.3201 78.8378C29.331 78.7975 29.3392 78.7644 29.3441 78.7398C29.3556 78.6824 29.3552 78.6562 29.3437 78.659C29.3322 78.6618 29.3099 78.6946 29.2756 78.7587L29.2749 78.7622C29.293 78.7505 29.2957 78.7775 29.2819 78.8466C29.2736 78.8877 29.2603 78.9363 29.2417 78.9925C29.2232 79.0486 29.2009 79.1076 29.1763 79.1658C29.1514 79.2251 29.1254 79.2801 29.0981 79.3318C29.0642 79.3959 29.0375 79.4384 29.0172 79.4606C28.9968 79.4841 28.9845 79.4847 28.98 79.4648C28.9763 79.4425 28.98 79.4022 28.9919 79.3424C29.0044 79.2802 29.0245 79.2079 29.0524 79.1253C29.0796 79.044 29.1121 78.9608 29.1489 78.8758C29.1855 78.792 29.2263 78.7076 29.2706 78.6238ZM29.163 78.9775C29.1473 79.007 29.1331 79.0375 29.1195 79.0714C29.1058 79.1052 29.0973 79.1315 29.0931 79.1526C29.0889 79.1737 29.0901 79.1815 29.0964 79.1783C29.103 79.1739 29.1159 79.1539 29.1355 79.1169C29.153 79.0837 29.1681 79.0508 29.1805 79.0194C29.1922 78.9893 29.2003 78.963 29.2043 78.9431C29.209 78.9197 29.207 78.9131 29.1998 78.9187C29.1918 78.9267 29.1793 78.9467 29.163 78.9775Z" fill="#F91700"/>
<path d="M30.2018 77.7735C30.2192 77.7332 30.2338 77.705 30.247 77.6852C30.2597 77.6668 30.2701 77.6591 30.2768 77.6651C30.2841 77.6697 30.2873 77.688 30.2873 77.7186L30.3502 77.5731L30.3326 77.7097L30.277 77.8384C30.271 77.8821 30.2632 77.9309 30.2529 77.986C30.2423 78.0413 30.2336 78.0813 30.2269 78.1059L30.1241 78.3438C30.1618 78.2012 30.1858 78.0909 30.1954 78.0167C30.1979 77.9967 30.1978 77.9854 30.1943 77.9853C30.1913 77.9839 30.1853 77.9936 30.1775 78.0118C30.1702 78.0287 30.1647 78.044 30.1593 78.0614C30.1543 78.0788 30.1483 78.1009 30.1422 78.1265C30.1356 78.1534 30.1268 78.1912 30.1164 78.2384C30.0775 78.4154 30.0318 78.5649 29.9796 78.6858C29.9493 78.756 29.9267 78.7944 29.9116 78.8011C29.896 78.8092 29.8902 78.7837 29.8931 78.7273L29.8386 78.8534L29.8562 78.7167L29.9078 78.5972C29.9182 78.5261 29.9298 78.4604 29.9412 78.4048L30.0412 78.1735C30.0284 78.2237 30.0174 78.2723 30.0071 78.3218C29.9974 78.3701 29.9899 78.4131 29.9853 78.4484C29.9826 78.4696 29.9827 78.4809 29.9861 78.4822C29.9889 78.4847 29.9936 78.4788 30.0009 78.4619C30.0099 78.4411 30.0183 78.416 30.0264 78.3864C30.0346 78.3568 30.0439 78.3177 30.0552 78.2668C30.0802 78.1551 30.1041 78.0608 30.1276 77.9824C30.1512 77.9029 30.176 77.8332 30.2018 77.7735Z" fill="#F91700"/>
<path fill-rule="evenodd" clip-rule="evenodd" d="M21.144 93.0714L0 89.5554V102.583L20.916 108.025L21.144 93.0714Z" fill="black"/>
<path fill-rule="evenodd" clip-rule="evenodd" d="M20.7986 93.0714L0.432617 89.8254L0.390625 102.329L20.6586 107.559L20.7986 93.0714Z" fill="#FF561C"/>
<path d="M36.1275 28.7979C39.1314 28.7979 41.5665 26.3628 41.5665 23.3589C41.5665 20.355 39.1314 17.9199 36.1275 17.9199C33.1236 17.9199 30.6885 20.355 30.6885 23.3589C30.6885 26.3628 33.1236 28.7979 36.1275 28.7979Z" fill="black"/>
<path d="M82.9292 13.0493C85.9331 13.0493 88.3683 10.6142 88.3683 7.61031C88.3683 4.60644 85.9331 2.17133 82.9292 2.17133C79.9254 2.17133 77.4902 4.60644 77.4902 7.61031C77.4902 10.6142 79.9254 13.0493 82.9292 13.0493Z" fill="black"/>
<path d="M36.1551 28.4121C38.945 28.4121 41.2066 26.1505 41.2066 23.3606C41.2066 20.5707 38.945 18.309 36.1551 18.309C33.3652 18.309 31.1035 20.5707 31.1035 23.3606C31.1035 26.1505 33.3652 28.4121 36.1551 28.4121Z" fill="#B6E097"/>
<path d="M82.9568 12.6605C85.7467 12.6605 88.0084 10.3988 88.0084 7.60892C88.0084 4.81902 85.7467 2.55737 82.9568 2.55737C80.1669 2.55737 77.9053 4.81902 77.9053 7.60892C77.9053 10.3988 80.1669 12.6605 82.9568 12.6605Z" fill="#E87D69"/>
<path d="M37.4746 24.0606L39.3346 22.6606H36.9146L36.1346 20.2606L35.3546 22.6606H32.9346L34.7946 24.0606L34.1346 26.4606L36.1346 24.9006L38.1346 26.4606L37.4746 24.0606Z" fill="black"/>
<path d="M84.2763 8.30897L86.1363 6.90897H83.7163L82.9363 4.50897L82.1563 6.90897H79.7363L81.5963 8.30897L80.9363 10.709L82.9363 9.14897L84.9363 10.709L84.2763 8.30897Z" fill="black"/>
<path d="M56.1106 20.2042H44.2139V21.9871H56.1106V20.2042Z" fill="#474747"/>
<path d="M103.718 4.67834H91.8213V6.46126H103.718V4.67834Z" fill="#474747"/>
<path d="M54.9903 23.3475H44.2139V23.9377H54.9903V23.3475Z" fill="#B6B6B6"/>
<path d="M102.598 7.82013H91.8213V8.41039H102.598V7.82013Z" fill="#B6B6B6"/>
<path d="M54.9903 24.4675H44.2139V25.0577H54.9903V24.4675Z" fill="#B6B6B6"/>
<path d="M102.598 8.94165H91.8213V9.53191H102.598V8.94165Z" fill="#B6B6B6"/>
<path d="M51.1955 25.4791H44.2139V26.0694H51.1955V25.4791Z" fill="#B6B6B6"/>
<path d="M98.8029 9.95331H91.8213V10.5436H98.8029V9.95331Z" fill="#B6B6B6"/>
<path fill-rule="evenodd" clip-rule="evenodd" d="M98.3076 30.1252C98.862 30.4251 98.4723 30.9761 98.1931 31.5897C98.0222 31.966 97.8116 32.418 97.3424 32.547C97.1278 32.6061 97.3137 31.9951 97.0989 32.0011C96.7632 32.0101 96.0995 32.5041 95.8325 32.3597C95.5981 32.2329 96.1209 31.5848 96.039 31.3902C95.9835 31.2592 95.1162 31.5721 95.0507 31.4733C94.9285 31.2912 95.7843 30.725 96.1711 30.5656C97.4144 30.054 97.7526 29.8251 98.3076 30.1252Z" fill="#C7C7C7"/>
<path fill-rule="evenodd" clip-rule="evenodd" d="M89.9061 32.5615C90.5274 32.8976 90.1163 33.4922 89.8292 34.1569C89.6534 34.5646 89.4365 35.0542 88.9236 35.1873C88.689 35.2483 88.8733 34.5849 88.6368 34.5879C88.2669 34.5924 87.5519 35.1203 87.2527 34.9585C86.99 34.8165 87.5445 34.118 87.4476 33.9045C87.3821 33.7607 86.4364 34.0879 86.3609 33.9791C86.2201 33.7785 87.1445 33.1749 87.5656 33.0072C88.919 32.4694 89.2842 32.2252 89.9061 32.5615Z" fill="#C7C7C7"/>
<path fill-rule="evenodd" clip-rule="evenodd" d="M45.9819 47.0223C45.3288 47.2142 45.6221 47.8806 45.7846 48.5882C45.884 49.0221 46.0089 49.5445 46.4783 49.7848C46.6929 49.8949 46.6288 49.2107 46.8552 49.2649C47.2093 49.3493 47.8055 50.0168 48.12 49.9244C48.3961 49.8433 47.9828 49.0451 48.112 48.8587C48.1993 48.7333 49.0508 49.2557 49.1418 49.1664C49.3109 49.0021 48.5267 48.2158 48.1513 47.9618C46.9443 47.1466 46.6356 46.8304 45.9819 47.0223Z" fill="#C7C7C7"/>
<path fill-rule="evenodd" clip-rule="evenodd" d="M38.9994 45.5926C38.3463 45.7844 38.6397 46.4509 38.8022 47.1585C38.9016 47.5924 39.0265 48.1148 39.4959 48.3551C39.7105 48.4651 39.6464 47.781 39.8728 47.8351C40.2269 47.9195 40.8231 48.587 41.1375 48.4947C41.4136 48.4136 41.0004 47.6153 41.1296 47.4289C41.2169 47.3035 42.0684 47.826 42.1593 47.7366C42.3285 47.5723 41.5443 46.7861 41.1689 46.5321C39.9619 45.7168 39.6532 45.4006 38.9994 45.5926Z" fill="#C7C7C7"/>
<path fill-rule="evenodd" clip-rule="evenodd" d="M46.5187 51.8579C45.8656 52.0497 46.1589 52.7161 46.3215 53.4238C46.4208 53.8576 46.5458 54.3801 47.0151 54.6204C47.2298 54.7304 47.1657 54.0463 47.3921 54.1004C47.7461 54.1848 48.3424 54.8523 48.6568 54.7599C48.9329 54.6789 48.5197 53.8806 48.6489 53.6942C48.7362 53.5688 49.5877 54.0912 49.6786 54.0019C49.8478 53.8376 49.0636 53.0513 48.6882 52.7974C47.4812 51.9821 47.1724 51.6659 46.5187 51.8579Z" fill="#C7C7C7"/>
<path fill-rule="evenodd" clip-rule="evenodd" d="M52.5004 53.225C51.8473 53.4169 52.1406 54.0833 52.3032 54.7909C52.4025 55.2248 52.5274 55.7472 52.9968 55.9875C53.2115 56.0976 53.1474 55.4134 53.3738 55.4676C53.7278 55.552 54.324 56.2195 54.6385 56.1271C54.9146 56.046 54.5014 55.2478 54.6305 55.0614C54.7178 54.936 55.5694 55.4584 55.6603 55.3691C55.8295 55.2048 55.0453 54.4185 54.6699 54.1645C53.4629 53.3493 53.1541 53.0331 52.5004 53.225Z" fill="#C7C7C7"/>
<path fill-rule="evenodd" clip-rule="evenodd" d="M58.0754 51.8555C57.7158 52.4221 58.1355 52.2912 58.4841 52.2743C58.6976 52.2641 58.9582 52.2476 59.3464 51.9024C59.524 51.7447 59.2475 51.6848 59.4136 51.5082C59.6732 51.232 60.2905 50.8531 60.4637 50.5803C60.6157 50.3408 60.0727 50.5483 60.0929 50.4118C60.1067 50.3197 60.8406 49.7078 60.8692 49.6187C60.923 49.4531 60.1425 49.9665 59.8108 50.2323C58.745 51.0873 58.4354 51.2884 58.0754 51.8555Z" fill="#C7C7C7"/>
<path fill-rule="evenodd" clip-rule="evenodd" d="M65.6608 49.3437C66.066 50.0993 66.4067 50.3708 66.8305 50.7957C67.0904 51.0566 67.4012 51.3658 67.3726 51.1296C67.3596 51.0217 66.9111 50.5254 66.8544 50.3614C66.7656 50.1046 66.9808 50.0986 66.7857 49.7348C66.6143 49.4153 66.2321 49.1471 66.0488 48.8771C65.9254 48.6952 65.9335 48.3369 65.8336 48.1809C65.649 47.8921 65.4296 47.9744 65.4096 48.1132C65.3461 48.5603 65.2551 48.5873 65.6608 49.3437Z" fill="#C7C7C7"/>
<path fill-rule="evenodd" clip-rule="evenodd" d="M62.829 46.3117C63.2583 46.6598 63.1026 46.3724 63.033 46.1542C62.9905 46.0206 62.936 45.8567 62.6461 45.5407C62.5136 45.3961 62.521 45.5527 62.3782 45.4111C62.1547 45.1896 61.8044 44.7251 61.5977 44.5575C61.4162 44.4103 61.6425 44.7907 61.5503 44.7477C61.488 44.7186 60.9663 44.1302 60.9035 44.0927C60.7867 44.0225 61.252 44.6174 61.4808 44.881C62.2164 45.7279 62.3993 45.9633 62.829 46.3117Z" fill="#C7C7C7"/>
<path fill-rule="evenodd" clip-rule="evenodd" d="M66.8329 41.7921C67.2622 42.1401 67.1065 41.8528 67.0369 41.6346C66.9944 41.501 66.9399 41.337 66.65 41.021C66.5175 40.8765 66.5249 41.0331 66.3821 40.8914C66.1586 40.6699 65.8083 40.2054 65.6016 40.0378C65.4201 39.8907 65.6464 40.2711 65.5542 40.2281C65.4919 40.1989 64.9702 39.6106 64.9074 39.573C64.7906 39.5028 65.2559 40.0978 65.4847 40.3613C66.2203 41.2083 66.4032 41.4437 66.8329 41.7921Z" fill="#C7C7C7"/>
<path fill-rule="evenodd" clip-rule="evenodd" d="M62.0808 38.9284C62.4729 39.2392 62.341 38.9979 62.2877 38.8184C62.2553 38.7085 62.2131 38.5735 61.9534 38.299C61.8347 38.1735 61.832 38.299 61.7031 38.175C61.5016 37.981 61.1931 37.5834 61.0043 37.4337C60.8386 37.3023 61.0327 37.6233 60.9465 37.5819C60.8882 37.5539 60.4223 37.0442 60.364 37.0094C60.2558 36.9444 60.6669 37.455 60.8709 37.6829C61.5269 38.4154 61.6884 38.6173 62.0808 38.9284Z" fill="#C7C7C7"/>
<path fill-rule="evenodd" clip-rule="evenodd" d="M66.1824 35.3548C66.5745 35.6656 66.4426 35.4243 66.3893 35.2448C66.3568 35.1349 66.3146 34.9999 66.055 34.7254C65.9363 34.5999 65.9335 34.7254 65.8047 34.6013C65.6032 34.4074 65.2947 34.0098 65.1059 33.8601C64.9401 33.7287 65.1343 34.0497 65.048 34.0083C64.9898 33.9802 64.5239 33.4706 64.4656 33.4358C64.3573 33.3708 64.7685 33.8814 64.9725 34.1093C65.6285 34.8418 65.79 35.0437 66.1824 35.3548Z" fill="#C7C7C7"/>
<path fill-rule="evenodd" clip-rule="evenodd" d="M92.6117 38.9257C93.2196 39.2545 92.7725 39.8763 92.4464 40.5668C92.2468 40.9902 92.0011 41.499 91.4768 41.6493C91.2369 41.7182 91.4592 41.0318 91.2206 41.0411C90.8475 41.0555 90.0976 41.6168 89.8049 41.4585C89.5479 41.3195 90.1453 40.5873 90.0594 40.3705C90.0013 40.2245 89.0299 40.5857 88.9598 40.4759C88.8288 40.2735 89.794 39.6289 90.2277 39.4455C91.6217 38.8572 92.0033 38.5966 92.6117 38.9257Z" fill="#C7C7C7"/>
<path fill-rule="evenodd" clip-rule="evenodd" d="M84.8939 42.6494C85.5803 43.0206 85.1715 43.6372 84.8998 44.331C84.7335 44.7565 84.5275 45.2674 83.9837 45.3942C83.735 45.4523 83.8963 44.7571 83.6422 44.754C83.245 44.7488 82.5058 45.2869 82.1754 45.1082C81.8852 44.9513 82.4423 44.229 82.3264 44.0011C82.248 43.8476 81.2499 44.1677 81.1627 44.0508C81.0002 43.8354 81.9602 43.2231 82.4033 43.0573C83.828 42.5259 84.2069 42.2779 84.8939 42.6494Z" fill="#C7C7C7"/>
<path fill-rule="evenodd" clip-rule="evenodd" d="M86.5654 68.3774C87.5962 68.7651 87.0913 69.7621 86.7926 70.841C86.6099 71.5026 86.3816 72.2985 85.6197 72.6083C85.2712 72.7501 85.4116 71.6944 85.0475 71.7477C84.4782 71.8306 83.4902 72.7879 82.9938 72.6012C82.5581 72.4373 83.2616 71.2516 83.066 70.9439C82.9338 70.7368 81.5466 71.4334 81.4067 71.282C81.146 71.0032 82.4405 69.8869 83.0533 69.543C85.0235 68.4393 85.5336 67.9894 86.5654 68.3774Z" fill="#C7C7C7"/>
<path fill-rule="evenodd" clip-rule="evenodd" d="M74.9533 70.8841C75.8914 71.5509 75.0846 72.4473 74.4643 73.4815C74.0844 74.1159 73.6186 74.8767 72.7507 74.9983C72.3538 75.0541 72.8059 74.0027 72.4189 73.9632C71.8139 73.901 70.526 74.6311 70.0744 74.3101C69.6778 74.0282 70.7424 72.9889 70.6329 72.6211C70.5586 72.3735 68.9398 72.7315 68.8413 72.5392C68.6571 72.1844 70.3041 71.3698 71.0298 71.1743C73.3625 70.548 74.0144 70.2167 74.9533 70.8841Z" fill="#C7C7C7"/>
<path fill-rule="evenodd" clip-rule="evenodd" d="M74.5832 78.0189C75.5995 78.7412 74.7721 79.6801 74.1468 80.7684C73.7639 81.4358 73.2939 82.2362 72.3772 82.3518C71.9579 82.4049 72.4041 81.2958 71.9924 81.2479C71.3486 81.1725 70.0055 81.9274 69.5162 81.5796C69.0866 81.2742 70.1829 80.1876 70.0551 79.7955C69.9685 79.5315 68.2626 79.8864 68.152 79.6807C67.9453 79.3012 69.6667 78.4621 70.4304 78.2659C72.885 77.6374 73.5661 77.2958 74.5832 78.0189Z" fill="#C7C7C7"/>
<path fill-rule="evenodd" clip-rule="evenodd" d="M64.6633 78.5281C65.5959 79.191 64.6067 80.2112 63.8021 81.369C63.3093 82.0791 62.7072 82.9314 61.7503 83.1171C61.3127 83.2023 61.9369 82.0364 61.5222 82.0179C60.8739 81.9884 59.384 82.8588 58.9349 82.5395C58.5407 82.2593 59.8277 81.0683 59.7558 80.6772C59.7068 80.4139 57.9053 80.9024 57.823 80.7005C57.6683 80.328 59.5585 79.3438 60.3706 79.087C62.9806 78.2638 63.7299 77.8646 64.6633 78.5281Z" fill="#C7C7C7"/>
<path fill-rule="evenodd" clip-rule="evenodd" d="M60.2201 87.1474C61.0298 87.958 59.8862 88.7932 58.9018 89.795C58.2987 90.4096 57.5644 91.1454 56.5905 91.1654C56.145 91.1748 56.953 90.1342 56.5472 90.0455C55.913 89.9062 54.3005 90.5088 53.9106 90.1185C53.5682 89.7758 55.0337 88.8234 55.0274 88.4265C55.0226 88.1592 53.1661 88.3333 53.1183 88.1206C53.0273 87.7281 55.0532 87.0815 55.8962 86.9671C58.605 86.6013 59.4095 86.3361 60.2201 87.1474Z" fill="#C7C7C7"/>
<path fill-rule="evenodd" clip-rule="evenodd" d="M48.1192 87.8496C48.8296 88.7567 47.6181 89.4071 46.5457 90.243C45.8885 90.7559 45.0897 91.3682 44.1307 91.2478C43.692 91.1929 44.5952 90.2939 44.2059 90.149C43.5974 89.922 41.9497 90.2782 41.6076 89.8414C41.3073 89.458 42.8472 88.7394 42.8828 88.3513C42.9061 88.0898 41.0637 87.9929 41.0391 87.7786C40.991 87.3825 43.0495 87.0429 43.8897 87.0524C46.5897 87.0847 47.408 86.9416 48.1192 87.8496Z" fill="#C7C7C7"/>
<path fill-rule="evenodd" clip-rule="evenodd" d="M43.6582 95.9484C44.3316 96.8996 43.1372 97.4251 42.0744 98.1446C41.4232 98.586 40.6317 99.1119 39.6996 98.907C39.2731 98.8135 40.1723 98.017 39.7959 97.84C39.2076 97.5628 37.5942 97.7611 37.27 97.3032C36.9853 96.9011 38.5013 96.3388 38.5441 95.9627C38.5723 95.7093 36.7787 95.447 36.7592 95.2354C36.7206 94.8439 38.734 94.6991 39.5527 94.7848C42.1835 95.0618 42.9842 94.9964 43.6582 95.9484Z" fill="#C7C7C7"/>
<path fill-rule="evenodd" clip-rule="evenodd" d="M81.2888 54.4518C82.0638 54.5764 81.7919 55.3499 81.6755 56.1515C81.6045 56.6429 81.5129 57.2353 80.9941 57.5626C80.7569 57.7124 80.7618 56.9498 80.5054 57.0396C80.1043 57.1796 79.4821 57.9946 79.109 57.9346C78.7813 57.8819 79.1786 56.9471 79.0103 56.7588C78.8966 56.6322 77.9643 57.3212 77.8501 57.2348C77.6378 57.0762 78.4654 56.1054 78.874 55.7755C80.1879 54.7166 80.5131 54.327 81.2888 54.4518Z" fill="#C7C7C7"/>
<path fill-rule="evenodd" clip-rule="evenodd" d="M86.4743 48.4735C87.0116 48.3693 86.7869 49.0158 86.6699 49.6436C86.5984 50.0284 86.508 50.4939 86.1302 50.87C85.9574 51.0422 85.9946 50.4718 85.811 50.6041C85.5238 50.8106 85.0519 51.5771 84.7932 51.6273C84.566 51.6713 84.8857 50.8726 84.7761 50.7749C84.7021 50.7094 84.0185 51.4607 83.9423 51.4253C83.8006 51.361 84.4233 50.4259 84.7241 50.0758C85.6913 48.9512 85.9364 48.5777 86.4743 48.4735Z" fill="#C7C7C7"/>
<path fill-rule="evenodd" clip-rule="evenodd" d="M84.1984 58.9551C84.9957 58.1103 85.5065 58.435 86.1803 58.5902C86.5936 58.6851 87.0867 58.806 86.9503 59.3856C86.8881 59.6507 86.1547 59.619 86.0177 59.903C85.803 60.3473 86.048 61.0573 85.6641 61.4641C85.3271 61.8212 84.7698 61.3536 84.4407 61.5315C84.2189 61.6517 84.0714 62.697 83.8881 62.8191C83.5492 63.0463 83.3328 62.1059 83.3705 61.6468C83.4933 60.1706 83.4004 59.8008 84.1984 58.9551Z" fill="#C7C7C7"/>
<path fill-rule="evenodd" clip-rule="evenodd" d="M80.3281 63.6124C80.998 62.9494 80.6614 63.5602 80.4589 64.0394C80.335 64.3329 80.1804 64.6922 79.681 65.326C79.4526 65.6158 79.5517 65.2584 79.3138 65.5384C78.9417 65.9761 78.2902 66.9318 77.9677 67.251C77.6845 67.5313 78.152 66.7293 78.0265 66.7986C77.9417 66.8457 77.0316 68.0315 76.9414 68.0977C76.7733 68.2217 77.6259 67.0029 78.0282 66.4703C79.3216 64.7586 79.6576 64.2759 80.3281 63.6124Z" fill="#C7C7C7"/>
<path fill-rule="evenodd" clip-rule="evenodd" d="M71.2391 54.5148L60.1558 61.4705L58.2668 64.8497L62.2024 63.9655L72.6815 57.2652L71.2391 54.5148Z" fill="black"/>
<path fill-rule="evenodd" clip-rule="evenodd" d="M71.1953 55.0375L60.4928 61.6974L59.0924 64.3695L62.0956 63.6943L72.3463 57.2688L71.1953 55.0375Z" fill="#FFE27D"/>
<path d="M63.8333 60.8925C63.7828 60.9814 63.7129 61.081 63.6191 61.1971C63.5264 61.3112 63.4197 61.4301 63.3002 61.5519C63.1807 61.6737 63.0506 61.7964 62.9089 61.9218C62.7446 62.0672 62.6067 62.1779 62.4963 62.2521L62.7023 61.8887C62.7439 61.8726 62.7977 61.841 62.8648 61.7939C62.9296 61.7488 62.9963 61.6964 63.0661 61.6346C63.1178 61.5888 63.1626 61.5454 63.2005 61.5044C63.2394 61.4615 63.2657 61.4268 63.2829 61.3965C63.2947 61.3757 63.2987 61.3627 63.2926 61.3597C63.2888 61.3546 63.2748 61.3593 63.2553 61.37C63.2347 61.3807 63.1914 61.4096 63.1266 61.4547C62.9185 61.5983 62.8676 61.5774 62.9717 61.3938C63.0435 61.267 63.1611 61.1111 63.3187 60.9338C63.4798 60.7527 63.6565 60.5774 63.85 60.4061C63.9062 60.3563 63.9547 60.3144 63.9998 60.2764C64.0426 60.2403 64.0833 60.2063 64.1183 60.1781C64.1511 60.1519 64.1986 60.1155 64.2576 60.0709L64.0666 60.4078C63.9681 60.4647 63.8548 60.5499 63.7265 60.6635C63.6748 60.7093 63.6277 60.7547 63.5866 60.7996C63.5432 60.8465 63.5145 60.8831 63.4984 60.9115C63.4823 60.9399 63.483 60.9507 63.497 60.9477C63.5143 60.9408 63.5544 60.9177 63.6216 60.8724C63.7547 60.7819 63.8351 60.7409 63.8651 60.7474C63.895 60.7539 63.8848 60.8016 63.8333 60.8925Z" fill="#F91700"/>
<path d="M65.3727 60.6192L65.4596 60.4343L64.9607 60.8177L64.7211 61.1199L64.1769 61.5382L65.625 59.7843L66.2503 59.3037L65.9193 60.1991L65.3727 60.6192ZM65.7386 59.8362L65.7267 59.8454C65.7143 59.8622 65.6933 59.8902 65.6613 59.9313C65.6293 59.9724 65.4892 60.1496 65.2337 60.4705L65.5535 60.2247L65.6735 59.9586C65.6917 59.9189 65.7146 59.8776 65.7386 59.8362Z" fill="#F91700"/>
<path d="M66.7651 60.3678L67.4861 59.0376L67.9545 58.6081L67.4034 59.6247L67.9384 59.1341L67.7684 59.4477L66.7651 60.3678Z" fill="#F91700"/>
<path d="M68.4985 59.5896L69.2195 58.2594L70.1873 57.3718L70.0174 57.6854L69.5179 58.1434L69.4128 58.3372L69.8812 57.9077L69.7113 58.2212L69.2429 58.6508L69.1368 58.8465L69.6718 58.3559L69.5018 58.6694L68.4985 59.5896Z" fill="#F91700"/>
<path d="M70.8518 57.8635L70.5048 58.2598L70.8041 57.4025L71.2591 56.8827L70.8518 57.8635ZM70.809 58.0779C70.7869 58.1354 70.7457 58.209 70.6884 58.2945C70.6303 58.382 70.5653 58.4662 70.4926 58.5493C70.4219 58.63 70.3706 58.6786 70.3394 58.6932C70.3102 58.7054 70.3056 58.684 70.3269 58.6285C70.349 58.5711 70.3873 58.5018 70.4439 58.4183C70.5012 58.3328 70.5683 58.2461 70.641 58.1631C70.7138 58.08 70.7651 58.0314 70.795 58.0172C70.8257 58.001 70.831 58.0205 70.809 58.0779Z" fill="#F91700"/>
</svg>
