<svg width="124" height="119" viewBox="0 0 124 119" fill="none" xmlns="http://www.w3.org/2000/svg">
<path fill-rule="evenodd" clip-rule="evenodd" d="M57.2988 10.7651C53.586 9.63149 45.8511 11.5679 41.8291 14.1341C42.487 10.7704 47.1345 7.34241 52.5003 6.34109C56.7014 5.55667 61.7463 7.474 61.9904 6.26576C62.1276 5.59294 60.4397 5.02823 59.6074 4.53233C58.1335 3.65492 57.0222 3.01348 55.4343 2.33322C57.5499 2.05982 59.812 2.03936 62.3624 2.51085C61.486 1.31516 60.0469 0.901333 58.366 0.823449C60.3747 -0.0037429 62.9204 0.553993 65.0477 1.68784C66.2869 2.3481 67.1214 3.46544 68.3118 3.93205C71.0319 4.998 73.5149 2.20396 82.1705 5.26118C85.6183 6.47895 88.4453 8.55088 90.6679 10.6416C93.0602 12.8933 94.7736 15.1261 96.4847 15.1505C102.183 15.2321 104.122 3.25202 101.795 2.77728C104.21 3.90275 105.449 6.33365 106.217 8.91426C107.295 5.01567 110.039 2.54549 114.319 2.33322C111.708 4.45398 109.723 7.00833 109.346 10.6819C112.238 11.5002 114.842 10.8679 117.251 9.2609C116.609 11.3101 114.937 13.034 112.454 14.5009C117.202 13.5189 120.742 14.4679 122.579 18.1424C119.919 16.6917 117.323 16.6515 114.763 17.4319C121.693 19.1003 122.837 25.2331 121.577 32.4588C120.547 29.6043 119.459 27.2673 118.041 26.0621C117.434 30.9737 119.717 34.3726 123.186 37.149C120.919 37.0983 118.783 36.0561 116.807 33.774C116.667 36.4494 116.927 39.3093 118.048 42.5667C117.313 42.2491 116.469 41.2306 115.537 39.652C115.79 42.3274 115.607 44.77 114.403 46.6694C114.363 43.2609 113.512 41.0713 111.92 39.9912C112.768 45.1819 111.492 49.6573 109.139 51.8408C109.592 49.7222 109.892 47.6621 109.079 46.0305C106.998 48.3856 105.884 50.9337 105.259 53.5798C105.073 52.2249 105.168 50.3292 106.147 46.741C104.013 51.7504 102.427 54.5017 101.262 55.5339C102.385 52.6455 102.662 50.8865 102.329 49.9384C100.935 51.012 100.007 52.602 99.4862 54.6456C98.8445 53.8165 100.425 48.4433 98.8653 49.3167C97.2519 50.2197 89.8053 60.0635 89.8053 60.0635L52.326 64.593L48.4178 64.7707L46.5533 64.4154C45.5512 66.2086 45.9558 67.1806 46.3742 68.1457C45.2071 67.6528 44.233 66.578 43.5332 64.6819C42.322 65.6265 41.3734 66.88 40.5132 68.2345L25.8595 51.626C25.8595 51.626 31.23 50.7144 31.5648 48.672C31.7554 47.5112 28.5424 45.4504 24.7924 44.876C27.7915 45.1308 29.77 45.0806 31.216 44.8699C26.9778 43.5952 25.3155 40.5631 24.8807 36.8826C24.8807 36.8826 26.1826 38.0541 27.5101 38.6734C29.0306 39.3828 30.6139 39.522 30.7789 38.9789C31.4438 36.8179 27.0428 33.2274 23.1045 33.1523C24.4645 31.6063 26.3803 30.9578 29.5235 32.2842C28.7865 29.5501 27.5869 28.0018 26.3035 26.6687C26.3035 26.6687 28.5656 27.982 31.0579 30.0993C32.4552 31.2868 33.6107 33.0719 34.8754 34.0467C36.0192 34.9276 37.3142 35.0773 37.9094 34.7725C39.5763 33.9195 39.4112 28.5507 39.76 24.1439C39.9181 22.1277 40.5528 20.2441 40.8689 19.2084C42.1476 14.9959 47.3507 15.8333 47.3507 15.8333C49.2269 13.1221 49.6337 13.3027 51.9679 11.8576C53.0281 11.2015 55.6924 10.9399 57.2988 10.7651Z" fill="black"/>
<path fill-rule="evenodd" clip-rule="evenodd" d="M58.8733 10.9651C56.2554 8.90128 47.6947 9.72255 43.837 12.1837C47.2934 9.03195 48.1965 8.44414 53.3432 7.48372C57.3726 6.73134 62.8872 8.03874 63.5294 7.01231C64.1783 5.97049 60.1912 3.94506 58.6659 3.09457C61.1411 3.22859 61.7678 3.20896 64.214 3.66141C63.3756 2.51434 63.3554 2.1919 61.9417 1.37396C64.2407 2.33952 63.5606 2.156 65.601 3.24353C66.7896 3.87682 67.1687 4.60177 68.3104 5.04909C70.9194 6.07173 73.2608 2.92108 81.565 5.85342C84.872 7.02145 87.8199 9.60325 89.9517 11.6086C92.2463 13.7683 95.1006 16.7809 96.7396 16.8043C102.205 16.8826 105.372 6.7465 103.142 6.29138C105.459 7.37066 105.581 8.87964 106.317 11.3549C107.352 7.61573 108.919 3.95911 112.173 3.52361C109.669 5.55751 108.074 8.35606 107.711 11.8795C110.487 12.6645 112.713 12.7934 115.023 11.2521C113.633 13.1401 111.604 13.9418 109.223 15.3491C111.415 16.0716 117.248 13.7304 119.786 16.3646C115.299 15.7083 114.436 16.0569 111.475 17.3473C118.122 18.9477 120.651 21.385 121.262 29.167C120.274 26.4291 118.535 24.7682 117.175 23.6123C116.593 28.3232 117.079 31.3601 119.98 35.5713C117.498 33.8195 117.034 32.1022 115.139 29.9133C115.005 32.4795 115.834 37.6344 116.911 40.7588C116.332 40.0356 115.658 38.4133 114.766 36.899C115.009 39.4654 115.417 42.4205 114.639 45.0944C114.603 41.8253 112.637 38.8729 111.109 37.8369C111.923 42.8156 112.244 47.8813 109.988 49.9757C110.422 47.9433 109.996 46.0073 109.216 44.4421C107.22 46.7011 106.29 48.5111 105.69 51.0489C105.987 49.2737 106.279 47.4554 107.218 44.0138C105.169 48.8188 103.452 52.6268 102.334 53.6167C103.411 50.8465 102.901 49.6943 102.582 48.7849C101.246 49.8147 100.414 50.7254 99.9172 52.6855C99.3017 51.8905 100.834 47.7275 99.3374 48.5653C97.7898 49.4314 89.1244 59.0118 89.1244 59.0118L53.1759 63.3563L49.3404 64.3161L45.9064 63.7122C45.4358 64.4053 45.2084 65.3186 45.3801 66.5966C44.749 66.0474 44.1871 64.868 43.9574 63.1418C42.6953 64.0801 41.6829 65.1286 40.947 66.3007L27.679 51.7447C27.679 51.7447 32.2414 50.8806 32.5625 48.9216C32.7454 47.8084 31.0952 45.8517 27.4984 45.3007C30.375 45.5453 33.7176 45.5805 35.1046 45.3785C31.0395 44.1558 25.9308 41.4672 25.5138 37.937C25.5138 37.937 27.1773 39.1642 28.4505 39.7582C29.9089 40.4385 31.4899 40.0086 31.6505 39.4877C32.286 37.4148 28.988 33.2241 24.3252 32.6925C26.4838 31.495 27.8306 32.3159 30.8455 33.588C29.8844 31.2827 29.6837 30.5745 28.7694 29.1057C28.7694 29.1057 30.1966 29.8103 32.3953 32.1107C33.6128 33.382 35.2652 35.1838 36.757 35.5713C38.0637 35.9116 38.8107 35.3158 39.3169 34.5478C40.307 33.0499 40.6393 28.3154 40.9737 24.0886C41.1276 22.155 41.8836 20.8188 42.1869 19.8254C43.4133 15.785 48.4039 16.5882 48.4039 16.5882C48.9011 14.2638 50.2926 13.7339 52.6006 12.4647C54.7145 11.3022 56.6768 11.8193 58.8733 10.9651Z" fill="#CCCCCC"/>
<path fill-rule="evenodd" clip-rule="evenodd" d="M93.4414 14.8722C100.633 21.1619 105.378 6.74682 103.148 6.2917C105.465 7.37098 105.588 8.87996 106.324 11.3552C107.358 7.61605 108.926 3.95943 112.179 3.52393C109.675 5.55783 108.081 8.35638 107.717 11.8799C110.494 12.6648 112.719 12.7937 115.029 11.2524C113.64 13.1404 111.611 13.9421 109.229 15.3494C111.421 16.0719 117.255 13.7307 119.792 16.3649C115.306 15.7086 114.443 16.0572 111.481 17.3476C118.129 18.948 120.658 21.3853 121.269 29.1673C120.281 26.4294 118.541 24.7686 117.181 23.6126C116.599 28.3235 117.085 31.3604 119.986 35.5716C117.504 33.8198 117.041 32.1026 115.145 29.9137C115.011 32.4799 115.841 37.6348 116.918 40.7591C116.338 40.0359 115.665 38.4137 114.773 36.8993C115.016 39.4657 115.424 42.4208 114.646 45.0947C114.61 41.8257 112.643 38.8733 111.116 37.8372C111.93 42.816 112.251 47.8817 109.994 49.976C110.429 47.9437 110.003 46.0077 109.223 44.4425C107.227 46.7014 106.297 48.5114 105.697 51.0493C105.994 49.274 106.286 47.4558 107.225 44.0141C105.175 48.8191 103.458 52.6272 102.341 53.617C103.418 50.8468 102.907 49.6946 102.589 48.7852C101.253 49.815 100.421 50.7257 99.9237 52.6858C99.3083 51.8908 100.84 47.7278 99.3439 48.5656C99.3439 48.5656 97.7852 49.991 97.8611 49.4879C98.1287 47.743 93.0266 36.487 93.9877 31.4028C94.4983 28.6948 95.4885 30.7031 99.2726 30.7586C102.622 30.8076 104.787 27.6924 104.37 24.1087C104.129 22.0394 103.046 20.3232 100.381 19.3702C98.8288 18.8151 97.9436 18.048 96.8353 17.4141C94.1126 15.8563 93.4414 14.8722 93.4414 14.8722Z" fill="#9F9F9F"/>
<path fill-rule="evenodd" clip-rule="evenodd" d="M67.7417 58.5956L53.1759 63.3573L49.4274 63.5277L47.1885 64.0223L45.9599 63.7817C45.2931 65.7019 45.3377 66.363 45.4871 66.8407C44.6486 66.0841 44.1246 64.8929 43.9306 63.2499L40.811 66.3013L27.679 51.7457C27.679 51.7457 32.2414 50.8816 32.5625 48.9226C32.7454 47.8095 31.0952 45.8527 27.4984 45.3017C30.375 45.5463 33.7176 45.5815 35.1046 45.3795C31.0395 44.1569 25.9308 41.4682 25.5138 37.9381C25.5138 37.9381 27.1773 39.1652 28.4505 39.7592C29.9089 40.4396 31.4899 40.0097 31.6505 39.4887C32.286 37.4158 28.988 33.2251 24.3252 32.6935C26.4838 31.496 27.8306 32.3169 30.8455 33.5891C29.8844 31.2838 29.6837 30.5755 28.7694 29.1067C28.7694 29.1067 30.1966 29.8114 32.3953 32.1117C33.6128 33.383 35.2652 35.1848 36.757 35.5723C38.0637 35.9126 38.8107 35.3168 39.3169 34.5488C40.307 33.051 40.6393 28.3164 40.9737 24.0896C41.1276 22.156 41.8836 20.8199 42.1869 19.8264C43.4133 15.7861 48.1809 16.5275 48.1809 16.5275C48.1809 16.5275 49.4854 17.2003 50.4665 18.6279C51.4878 20.1159 52.4355 22.4798 53.5817 25.3908C56.7928 33.5456 60.8914 44.7543 65.5051 50.6497C66.3234 51.6976 66.9858 51.9185 67.6659 52.2894C68.0316 52.4889 68.4619 52.5817 68.792 53.207C69.5145 54.5768 67.7417 58.5956 67.7417 58.5956Z" fill="#939393"/>
<path fill-rule="evenodd" clip-rule="evenodd" d="M44.5177 55.6208C44.978 55.0142 46.5845 54.8978 47.2284 55.306C48.4211 56.0639 50.4298 58.8019 52.1153 60.0808C53.7032 61.2851 55.9375 62.2937 57.5858 62.4832C59.2341 62.6726 59.9827 62.4755 61.1614 61.5669C62.2495 60.7281 62.461 59.4004 63.2004 59.0007C64.0396 58.546 65.967 58.8708 67.0481 58.1982C68.1268 57.5256 68.2407 55.3276 69.4473 54.6739C70.1681 54.2831 71.0654 55.1919 72.1558 55.1628C72.8905 55.1433 73.8972 53.9039 74.4296 54.218C76.343 55.3434 78.7934 57.0234 80.9253 57.4688C82.7992 57.8601 85.5122 57.7739 87.1327 57.035C88.7508 56.2959 90.1923 54.2559 91.0827 52.5113C92.1242 50.4649 93.0588 47.2182 93.1797 44.6697C93.3006 42.1756 92.1126 40.1301 91.7917 38.0647C91.5313 36.3933 91.1849 33.8197 91.3942 32.5694C91.5546 31.5999 92.1893 30.4851 93.0425 30.125C93.8934 29.7651 95.5999 29.8693 96.5089 30.4093C97.4179 30.9492 98.0666 32.2592 98.499 33.365C98.964 34.5492 99.1965 36.1095 99.2941 37.5146C99.3987 39.0114 99.2662 40.8683 99.1244 42.3462C98.9942 43.7042 98.5687 45.0235 98.4432 46.382C98.2804 48.0966 98.3665 50.5586 98.1572 52.6345C97.8457 55.7419 97.2761 61.227 96.567 65.0261C95.9091 68.5448 94.928 72.5859 93.8934 75.4281C93.0379 77.7862 91.715 80.3259 90.3713 82.0786C89.16 83.6568 87.4233 85.0912 85.8238 85.9437C84.2894 86.7602 82.483 86.95 80.7649 87.1943C78.8306 87.4691 76.4057 87.4786 74.2273 87.5923C72.0489 87.7058 69.7472 87.7344 67.6897 87.8764C65.7531 88.0103 63.8142 88.1703 61.8938 88.4449C59.7712 88.748 56.7395 89.2216 54.9587 89.6954C53.6451 90.0446 52.22 91.8743 51.2063 91.287C50.1927 90.6995 48.5072 88.0087 48.8768 86.1711C49.4906 83.0923 54.1519 75.8028 54.9005 72.8133C55.2911 71.2517 54.0194 69.7865 52.9244 68.6069C51.569 67.148 48.2979 65.4185 46.7728 64.0597C45.5964 63.0109 44.5176 61.5018 44.2154 60.0808C43.9109 58.6597 43.404 57.0859 44.5177 55.6208Z" fill="black"/>
<path fill-rule="evenodd" clip-rule="evenodd" d="M45.3566 56.3029C46.4469 55.3274 47.4235 56.5605 48.3292 57.5364C49.5955 58.9016 51.3962 60.6416 53.0897 61.6163C55.0814 62.7626 55.9592 63.0848 58.288 63.2631C59.5607 63.3608 60.6746 63.0161 61.7628 62.1771C62.7672 61.4027 62.9755 60.0415 63.6558 59.6728C64.4328 59.253 66.6542 59.2481 67.6522 58.6269C68.6481 58.006 68.6095 55.6376 69.7212 55.034C70.3887 54.6732 71.1335 55.7408 72.1401 55.714C72.8183 55.6959 73.8915 54.4895 74.383 54.7793C76.1494 55.8183 78.0273 57.6107 79.9225 58.2844C82.3993 59.1652 85.7261 59.0669 88.4111 57.2994C91.3193 55.3867 93.0363 50.0901 93.6802 47.8242C94.3434 45.4891 93.9528 43.059 93.4119 41.207C92.8475 39.2745 92.2444 38.0007 91.989 35.1504C91.886 33.9895 91.7207 31.4968 93.0171 30.7003C93.9249 30.142 95.5067 30.3075 96.4876 31.1283C97.7217 32.1595 98.2562 34.3616 98.4493 35.441C98.694 36.817 98.6338 39.7649 98.4922 41.2615C98.3613 42.6405 98.2862 43.4147 97.9213 44.8789C97.6166 46.1012 97.696 47.615 97.5779 48.869C97.4298 50.4521 97.3805 52.4164 97.1873 54.3328C96.8976 57.2016 96.2022 61.9408 95.5475 65.4478C94.9401 68.6964 93.9121 72.4271 92.9591 75.0507C92.1671 77.2277 90.6218 80.1812 89.3813 81.7993C88.263 83.2562 86.3828 84.5399 84.904 85.327C83.4875 86.0807 81.6138 86.2559 80.0255 86.4814C78.2419 86.7351 76.2459 86.5815 74.2348 86.6864C72.2238 86.7914 70.4209 86.8583 68.5236 86.9895C66.7357 87.1131 64.5658 87.3824 62.7909 87.6359C60.8313 87.9158 56.425 88.556 54.7809 88.9932C53.5682 89.3156 52.6582 91.0049 51.7224 90.4626C50.7867 89.9204 49.5161 87.9233 49.8552 86.2269C50.4239 83.3846 55.1114 75.6551 55.8004 72.8952C56.1631 71.4538 55.2359 69.9349 54.225 68.8458C52.9759 67.4988 51.3404 66.4566 49.5161 65.3128C48.2841 64.5395 46.361 63.103 45.5476 61.5287C44.6375 59.7638 44.0903 57.4357 45.3566 56.3029Z" fill="#A84F46"/>
<path fill-rule="evenodd" clip-rule="evenodd" d="M63.1386 87.5873C61.179 87.8672 56.425 88.5566 54.7809 88.9938C53.5682 89.3162 52.6582 91.0055 51.7224 90.4632C50.7867 89.921 49.5161 87.9239 49.8552 86.2275C50.4239 83.3851 55.1114 75.6557 55.8004 72.8958C56.1631 71.4543 55.2359 69.9354 54.225 68.8464C52.9759 67.4994 51.3404 66.4571 49.516 65.3134C48.2841 64.5401 46.361 63.1036 45.5476 61.5293C44.6375 59.7644 44.0903 57.4363 45.3566 56.3035C46.4469 55.328 47.4235 56.561 48.3292 57.5369C49.5955 58.9022 51.3962 60.6422 53.0896 61.6168C55.0814 62.7632 55.9592 63.0853 58.288 63.2637C59.5607 63.3613 60.6746 63.0166 61.7628 62.1777C62.7672 61.4033 62.9754 60.0421 63.6558 59.6734C64.4328 59.2536 66.6542 59.2486 67.6522 58.6275C68.6481 58.0066 68.5901 55.6547 69.704 55.0513C69.146 56.5582 69.1889 57.6213 69.3434 58.5223C69.6246 60.1548 71.0841 61.9961 69.9981 64.2115C68.2832 67.7095 67.5599 73.0254 67.356 78.3761C67.2144 82.0521 65.83 82.3858 63.3789 86.3854C62.9883 86.8033 62.924 87.2032 63.1386 87.5873Z" fill="#7F342C"/>
<path fill-rule="evenodd" clip-rule="evenodd" d="M46.3966 46.2904C44.6413 40.6189 44.4368 35.7266 44.2763 31.8992C44.1578 29.1121 44.1043 23.7477 45.5945 23.5505C46.5012 23.4306 48.045 25.2893 48.4751 26.1797C49.3516 27.9945 51.8345 32.5901 52.6506 34.3931C54.8964 39.3555 55.2196 41.0531 57.4189 46.0365C58.1652 47.7288 58.5186 49.5773 59.2742 51.2661C60.3087 53.5805 62.2663 55.9363 62.4825 58.5441C62.6359 60.3959 61.4037 62.0096 59.8019 62.4837C57.3817 63.1999 55.5753 61.4309 53.9386 59.7454C49.8607 55.5464 48.1007 51.7911 46.3966 46.2904Z" fill="black"/>
<path fill-rule="evenodd" clip-rule="evenodd" d="M46.8982 47.4765C45.2702 42.2161 45.0804 37.6785 44.9316 34.1286C44.8217 31.5436 44.772 26.5681 46.1543 26.3852C46.9952 26.2739 48.4271 27.9979 48.826 28.8238C49.6389 30.507 51.9419 34.7694 52.6987 36.4417C54.7817 41.0444 55.0815 42.6189 57.1214 47.241C57.8135 48.8106 58.1413 50.5251 58.8421 52.0914C59.8017 54.2381 61.6173 56.4231 61.8179 58.8418C61.9602 60.5593 60.8173 62.0561 59.3316 62.4957C57.0869 63.1601 55.4114 61.5193 53.8933 59.956C50.1111 56.0615 48.4788 52.5783 46.8982 47.4765Z" fill="#FFDA53"/>
<path fill-rule="evenodd" clip-rule="evenodd" d="M49.0491 50.1117C49.4033 49.5211 51.8103 51.3555 54.6328 55.072C57.5657 58.9286 58.8984 63.2364 58.1457 63.0192C56.1318 62.4381 54.8215 61.7575 51.9563 58.0768C49.7916 55.2941 48.6261 50.8195 49.0491 50.1117Z" fill="black"/>
<path fill-rule="evenodd" clip-rule="evenodd" d="M74.8893 19.8734C75.8821 16.7741 79.1043 9.90668 79.1043 9.90668C79.1043 9.90668 77.6536 10.0569 75.4333 14.0977C73.685 17.2763 70.0698 25.4339 69.1794 30.4947C68.6331 33.5854 70.8975 39.7712 69.9652 44.2677C69.5746 46.1441 67.3544 48.2874 67.1172 49.2767C66.4988 51.867 66.8638 51.8115 66.8638 51.8115L68.9492 53.2359C68.9492 53.2359 67.8914 49.5673 68.4796 48.6257C69.1863 47.4995 71.0439 46.4468 71.3555 44.9131C71.9692 41.9094 71.5694 34.7769 72.1576 30.6035C72.6737 26.949 73.8315 23.1734 74.8893 19.8734Z" fill="#9F9F9F"/>
<path fill-rule="evenodd" clip-rule="evenodd" d="M77.8597 51.2012C77.8597 51.2012 77.783 48.2412 78.9478 46.3506C80.1335 44.4267 80.9332 44.7882 82.2305 43.4447C82.7722 42.8818 83.0233 40.2684 83.6069 37.9457C83.9184 36.7065 84.2462 35.9351 84.8949 34.8105C83.4907 39.6061 84.3206 40.6267 83.7696 43.0409C83.4255 44.5511 82.1723 45.2609 80.3706 46.3255C79.0152 47.1264 77.6644 50.7358 77.8597 51.2012Z" fill="black"/>
<path fill-rule="evenodd" clip-rule="evenodd" d="M47.3965 16.1246C47.3965 16.1246 49.5586 17.4575 50.4095 19.004C52.6019 22.9898 56.7774 35.3649 59.279 40.7005C60.8831 44.1248 63.3219 48.3365 65.0539 50.4661C66.2954 51.9936 68.0321 52.5399 68.6575 53.3434C68.9039 53.6596 68.8039 55.2875 68.8039 55.2875C68.8039 55.2875 69.2968 53.8523 68.9295 53.1793C68.504 52.4032 66.5442 51.6172 65.577 50.5752C63.8566 48.7206 61.5364 43.9483 59.9439 40.5712C58.8349 38.2201 57.2354 34.636 55.7684 30.7946C53.8992 25.9012 52.1393 20.7223 50.7374 18.5734C49.6749 16.9465 47.3965 16.1246 47.3965 16.1246Z" fill="black"/>
<path fill-rule="evenodd" clip-rule="evenodd" d="M72.7183 13.4967C73.6687 13.1493 76.9779 14.3396 79.5236 16.3249C83.9522 19.7793 87.9906 25.1299 87.9906 25.1299C87.9906 25.1299 83.4254 20.334 79.0996 16.9579C77.2269 15.4946 75.8471 15.0824 74.3167 14.6885C73.5819 14.5002 73.2954 14.8907 73.1073 15.1851C72.6473 15.9041 72.8621 17.3843 72.9218 18.1171C73.1043 20.365 73.7541 23.7591 74.7777 28.1385C75.5922 31.6232 76.506 34.801 77.2508 37.0257C78.4764 40.681 80.403 44.1328 80.3632 46.5352C80.335 48.2577 80.1982 49.4257 80.2799 50.329C80.3709 51.3461 81.7234 53.0606 81.7234 53.0606C81.7234 53.0606 80.2484 51.7429 79.9092 50.3567C79.7578 49.7356 79.8621 47.7892 79.9455 46.5617C80.0934 44.3774 77.5987 39.8908 76.6581 37.082C75.9154 34.8678 74.844 31.8354 74.0309 28.2236C72.9954 23.6227 71.9725 18.8323 71.828 16.5588C71.7192 14.8371 71.8615 13.8091 72.7183 13.4967Z" fill="black"/>
<path fill-rule="evenodd" clip-rule="evenodd" d="M81.1367 51.7451C81.1367 51.7451 85.6355 48.4761 86.4166 46.0261C87.2071 43.5422 86.6235 37.1284 86.6235 37.1284C86.6235 37.1284 86.133 43.1798 85.3425 45.6637C84.566 48.103 81.1367 51.7451 81.1367 51.7451Z" fill="#9F9F9F"/>
<path fill-rule="evenodd" clip-rule="evenodd" d="M46.5813 58.7133C46.5813 58.7133 46.2897 61.4365 47.0756 62.5922C48.5707 64.7885 53.7546 68.5252 53.7546 68.5252C53.7546 68.5252 48.9581 64.1298 47.7123 62.3827C46.9048 61.2495 46.5813 58.7133 46.5813 58.7133Z" fill="black"/>
<path fill-rule="evenodd" clip-rule="evenodd" d="M86.5168 21.5951C86.5168 21.5951 83.0806 16.665 82.0879 17.9765C80.5721 19.9859 78.4425 27.6838 77.5544 32.861C76.6174 38.3234 78.0333 47.6719 76.7848 50.9558C76.2826 52.2761 73.9346 54.2918 73.9346 54.2918C73.9346 54.2918 75.8363 52.6597 76.3478 50.9605C77.3707 47.5531 76.2107 38.1548 77.1546 32.6451C78.0636 27.3436 80.3838 19.6199 81.988 17.6661C83.1853 16.2072 86.5168 21.5951 86.5168 21.5951Z" fill="#9F9F9F"/>
<path d="M78.2387 62.9565C78.4621 62.8151 78.306 62.1424 77.8899 61.454C77.4738 60.7656 76.9553 60.3222 76.7319 60.4636C76.5085 60.6051 76.6647 61.2778 77.0808 61.9662C77.4969 62.6546 78.0153 63.098 78.2387 62.9565Z" fill="black"/>
<path d="M61.6502 65.3816C61.7766 65.3805 61.7673 65.3805 61.6293 65.3816C61.4914 65.3828 61.2771 65.3846 61.1507 65.3858C61.0243 65.3869 61.0337 65.3869 61.1716 65.3857C61.3096 65.3846 61.5238 65.3827 61.6502 65.3816Z" fill="black"/>
<path fill-rule="evenodd" clip-rule="evenodd" d="M50.6249 90.1216L50.3018 89.3704C50.3018 89.3704 51.7153 88.2491 53.7612 87.6374C56.7998 86.73 60.9985 86.2028 62.1749 86.1158C70.4701 85.5023 69.1566 85.6039 77.3146 84.9504C79.672 84.7613 83.522 84.3647 84.7077 83.7158C87.186 82.3602 88.553 80.1095 90.2618 76.7496C91.0523 75.1942 92.052 72.5857 92.7355 69.645C93.7445 65.304 94.807 60.6656 95.3277 56.1923C95.8485 51.702 96.2019 47.3459 96.2786 42.8261C96.3321 39.5178 96.3461 35.4578 94.0002 32.6926C95.4905 33.3915 96.1972 35.4248 96.5901 37.1641C97.0062 39.0121 96.8017 44.9817 96.6134 47.8983C96.432 50.7388 96.2089 53.365 95.8602 56.1902C95.3673 60.2085 94.5535 65.5662 93.6236 69.5066C92.8192 72.9251 92.3868 74.1769 91.2057 76.8098C89.6388 80.2966 87.6138 83.0314 85.0634 84.3166C82.7734 85.4702 80.7507 85.4146 77.568 85.6399C72.788 85.9782 67.2478 86.303 62.8701 86.6656C61.052 86.8163 56.6348 87.3029 54.0448 88.0827C51.7967 88.7594 50.9946 89.8005 50.6249 90.1216Z" fill="black"/>
<path fill-rule="evenodd" clip-rule="evenodd" d="M70.8976 76.6811L69.1405 75.4035C69.1405 75.4035 66.7024 74.7704 64.9335 75.1427C62.6775 75.6203 61.7172 76.85 61.7172 76.85L61.0362 78.5291C61.0362 78.5291 62.7941 76.5485 65.0243 75.9955C67.3243 75.4281 70.8976 76.6811 70.8976 76.6811Z" fill="black"/>
<path d="M73.4568 74.863C77.3729 77.3678 82.2964 78.1183 84.4539 76.5392C86.6113 74.9602 85.1856 71.6496 81.2695 69.1448C77.3533 66.64 72.4298 65.8895 70.2724 67.4686C68.1149 69.0476 69.5406 72.3582 73.4568 74.863Z" fill="black"/>
<path d="M47.9929 78.0109C51.909 80.5157 56.8326 81.2662 58.99 79.6871C61.1474 78.1081 59.7217 74.7975 55.8056 72.2927C51.8895 69.7879 46.9659 69.0374 44.8085 70.6165C42.6511 72.1955 44.0768 75.5061 47.9929 78.0109Z" fill="black"/>
<path d="M73.9179 74.5977C77.4559 76.832 81.8732 77.5353 83.7842 76.1686C85.6952 74.8018 84.3761 71.8826 80.8381 69.6483C77.3 67.414 72.8827 66.7107 70.9718 68.0775C69.0608 69.4442 70.3798 72.3635 73.9179 74.5977Z" fill="#B9D1DB"/>
<path d="M48.4543 77.7456C51.9923 79.9799 56.4096 80.6832 58.3206 79.3164C60.2315 77.9497 58.9125 75.0305 55.3745 72.7962C51.8364 70.5619 47.4191 69.8586 45.5082 71.2254C43.5972 72.5921 44.9162 75.5114 48.4543 77.7456Z" fill="#B9D1DB"/>
<path fill-rule="evenodd" clip-rule="evenodd" d="M10.1406 49.1539C10.1406 49.1539 17.9429 45.4994 18.9217 45.5471C25.4825 45.867 39.5248 60.5426 44.2931 69.3062C48.5988 77.2189 53.0463 90.2562 51.8978 96.3329C51.3166 99.4043 47.8874 100.962 47.8874 100.962L42.5913 103.902L10.1406 49.1539Z" fill="#4D4D4D"/>
<path fill-rule="evenodd" clip-rule="evenodd" d="M49.271 98.4665C48.1126 98.0536 46.5318 99.2808 46.7573 100.514L52.8848 108.061L55.3984 106.014L49.271 98.4665Z" fill="black"/>
<path fill-rule="evenodd" clip-rule="evenodd" d="M54.4957 102.577C52.6602 102.174 49.7768 104.439 49.8903 106.329L58.4653 116.885L63.0707 113.133L54.4957 102.577Z" fill="#4D4D4D"/>
<path fill-rule="evenodd" clip-rule="evenodd" d="M9.84784 49.365C12.6971 47.5302 26.7743 55.0086 35.9714 69.8673C45.1687 84.7261 49.1681 97.6085 43.3469 103.401C40.9347 105.801 27.3754 98.9206 18.1781 84.0617C8.98097 69.2031 6.9986 51.1997 9.84784 49.365Z" fill="black"/>
<path fill-rule="evenodd" clip-rule="evenodd" d="M14.5729 51.1866C17.8923 49.069 29.3785 59.5954 36.0268 69.3785C45.2813 82.9967 48.0389 97.3063 45.1881 99.1384C42.3373 100.971 30.0854 94.205 22.2428 81.4948C14.4001 68.7847 11.7162 53.009 14.5729 51.1866Z" fill="#CFFEFF"/>
<path d="M61.7723 116.247C63.0409 115.206 63.6117 113.806 63.0471 113.119C62.4825 112.433 60.9963 112.721 59.7277 113.762C58.4591 114.803 57.8884 116.203 58.453 116.89C59.0176 117.576 60.5037 117.289 61.7723 116.247Z" fill="#CCCCCC"/>
</svg>
