<svg width="152" height="130" viewBox="0 0 152 130" fill="none" xmlns="http://www.w3.org/2000/svg">
<path fill-rule="evenodd" clip-rule="evenodd" d="M11.377 86.8458C11.377 86.8458 12.7506 91.9786 14.4273 94.1815C16.2289 96.5483 17.2113 97.3743 19.0565 98.6571C22.2621 100.885 23.5957 101.405 29.4663 101.992C29.4663 101.992 27.5313 88.2966 27.2693 87.1625C26.8791 85.4732 25.3182 80.1241 25.3182 80.1241C21.7617 86.7224 17.8659 88.4121 11.377 86.8458Z" fill="black"/>
<path fill-rule="evenodd" clip-rule="evenodd" d="M11.7432 86.9992C11.7432 86.9992 13.1217 91.1079 14.8569 93.7538C16.3124 95.9733 17.7262 97.0402 19.5614 98.3889C21.6149 99.898 26.0902 102.559 28.8928 99.6378C31.6952 96.7168 27.1128 87.9376 26.8509 86.8036C26.4606 85.1143 25.1652 80.3942 25.1652 80.3942C21.6087 86.9927 18.2323 88.5655 11.7432 86.9992Z" fill="#A84F46"/>
<path fill-rule="evenodd" clip-rule="evenodd" d="M22.5477 72.7756C23.235 72.7756 24.1137 73.3953 24.1137 74.9028C24.1137 76.4101 23.5803 78.3264 22.8929 78.3264C22.2054 78.3264 21.82 76.3851 21.82 74.8776C21.82 74.2002 21.3719 73.4554 21.4432 73.1179C21.5306 72.7042 22.1692 72.7756 22.5477 72.7756Z" fill="#141414"/>
<path fill-rule="evenodd" clip-rule="evenodd" d="M11.1152 60.9026C11.1152 60.9026 12.2066 58.8119 13.2979 58.8492C14.3892 58.8866 14.8408 60.1933 15.1041 61.2387C15.3677 62.284 15.1041 63.852 15.4429 64.6359C15.7816 65.42 16.6096 67.7719 17.6256 68.444C18.6417 69.116 20.2222 69.3401 20.8996 70.7214C21.577 72.1027 22.3672 75.0521 22.4425 76.0228C22.5178 76.9934 23.4962 80.9882 23.4962 80.9882L22.8941 85.9536L16.4966 88.5296L11.2827 86.5513L9.49707 84.4977L11.1152 60.9026Z" fill="black"/>
<path fill-rule="evenodd" clip-rule="evenodd" d="M11.3876 61.191C11.3876 61.191 12.1885 59.1003 13.2798 59.1376C14.3711 59.175 14.5864 60.4816 14.85 61.5269C15.1133 62.5724 14.8318 63.8881 15.1704 64.6722C15.5091 65.4561 16.5006 68.1684 17.5166 68.8405C18.5327 69.5125 20.0405 69.6465 20.7179 71.0278C21.3954 72.4092 22.0331 75.2125 22.0792 76.1851C22.1363 77.3899 23.3145 81.1865 23.3145 81.1865L22.8941 85.9537L16.4966 88.5297L11.2827 86.5514L9.49707 84.4977L11.3876 61.191Z" fill="#939393"/>
<path fill-rule="evenodd" clip-rule="evenodd" d="M10.9803 83.8865C10.9803 83.8865 9.97767 85.3198 11.9915 85.9585C15.1489 86.9601 16.8431 86.7361 18.4562 85.5561C19.3966 84.8681 22.0323 81.4737 22.5967 79.2339C23.1612 76.9938 23.3629 76.3596 23.4337 75.2319C23.4919 74.3017 23.586 73.6915 23.0079 73.2901C22.4299 72.8887 21.7382 73.0528 21.7382 73.0528L21.5762 72.4873C21.5762 72.4873 22.6772 72.2292 23.6263 72.8616C24.5674 73.4888 24.6406 75.2799 25.0225 76.9232C25.3736 78.4328 26.9747 81.6536 26.9747 81.6536C26.9747 81.6536 25.9469 87.2443 21.3909 90.6481C17.7394 93.376 11.3857 93.2724 11.3857 93.2724C11.3857 93.2724 11.8834 89.5039 9.50316 86.395C8.46777 85.0428 10.9803 83.8865 10.9803 83.8865Z" fill="black"/>
<path fill-rule="evenodd" clip-rule="evenodd" d="M0.833856 57.5166C0.545654 57.53 0.149183 57.777 0.0397039 58.2362C-0.077718 58.7273 0.0866719 59.0853 0.254689 59.3971L15.2983 84.5099C15.3816 84.6476 15.8349 85.5533 17.1234 85.4802C17.9676 85.4322 18.9719 84.3545 18.9719 84.3545L0.833856 57.5166Z" fill="#333333"/>
<path fill-rule="evenodd" clip-rule="evenodd" d="M9.28073 57.4011C8.98976 56.915 8.51677 56.7058 7.86589 56.767L0.855438 57.6532C0.459072 57.7007 0.373698 58.084 0.487653 58.322L16.6721 84.2868C17.2241 85.2769 18.5821 85.0223 19.284 84.151L22.4172 80.1839C22.9357 79.533 22.9444 78.6722 22.4962 77.9569L9.28073 57.4011Z" fill="black"/>
<path fill-rule="evenodd" clip-rule="evenodd" d="M9.39188 57.777C8.98652 57.1188 8.58665 56.8703 7.96873 56.9214L1.38469 57.919C1.00839 57.9601 0.931426 58.3279 1.04237 58.5584L16.7136 83.742C17.2492 84.7015 18.5374 84.4727 19.1952 83.6425L22.3539 80.0103C22.9523 79.2494 22.6412 78.3571 22.1812 77.7193L9.39188 57.777Z" fill="#FFFCE7"/>
<path fill-rule="evenodd" clip-rule="evenodd" d="M7.08763 56.9611L2.92969 58.1112L3.56975 58.239C3.77546 58.2812 4.11667 58.2562 4.30899 58.1879L7.45593 57.2512C7.63724 57.1933 7.64026 57.1072 7.49889 57.0608L7.08763 56.9611Z" fill="black"/>
<path fill-rule="evenodd" clip-rule="evenodd" d="M21.4352 80.4337L19.3269 80.4191C19.2049 80.4183 19.3257 80.4201 19.444 80.4209L21.5523 80.4356C21.6634 80.4363 21.5539 80.4346 21.4352 80.4337Z" fill="black"/>
<path d="M18.8233 79.4228C19.5673 78.9935 19.614 77.6352 18.9276 76.3888C18.2413 75.1425 17.0817 74.4801 16.3377 74.9094C15.5936 75.3386 15.5469 76.697 16.2333 77.9433C16.9197 79.1897 18.0792 79.852 18.8233 79.4228Z" fill="#A84F46"/>
<path fill-rule="evenodd" clip-rule="evenodd" d="M15.0163 70.2144L14.5815 70.4718L15.7312 72.7228L16.1296 72.3465L15.0163 70.2144Z" fill="#A84F46"/>
<path fill-rule="evenodd" clip-rule="evenodd" d="M13.823 70.1209L13.3871 70.3794L14.9051 73.3867L15.3149 72.9947L13.823 70.1209Z" fill="#D5D5D5"/>
<path fill-rule="evenodd" clip-rule="evenodd" d="M13.647 72.096L13.2129 72.353L14.169 74.1315L14.5198 73.731L13.647 72.096Z" fill="#FFDA53"/>
<path fill-rule="evenodd" clip-rule="evenodd" d="M7.02643 76.048C6.95891 76.047 3.29759 75.754 3.52587 73.2216C3.69527 71.3418 5.89348 71.9998 8.00017 72.0991C10.1067 72.1985 11.948 72.2944 12.0286 73.9022C12.0868 75.0654 11.1984 75.2012 10.1065 75.5618C10.392 75.5284 10.6646 75.4957 10.9136 75.4585C13.122 75.13 16.6153 73.9065 17.1898 76.4131C18.0009 79.9522 14.9307 79.0867 13.2786 79.6411C15.4021 79.5258 17.2979 79.08 17.4369 81.1289C17.5891 83.3707 15.0474 83.5691 13.4168 83.9269C11.5751 84.331 10.5002 85.0819 8.565 84.6658C7.18115 84.3682 6.4742 82.3041 8.47762 80.7089C5.75533 80.707 5.36474 79.0221 5.57523 78.0338C5.75534 77.1883 5.95806 76.2923 7.02643 76.048Z" fill="black"/>
<path fill-rule="evenodd" clip-rule="evenodd" d="M7.85905 75.9489C7.79136 75.9479 3.77811 75.8456 3.96115 73.3094C4.08065 71.6525 5.92193 72.3315 8.02844 72.4309C10.135 72.5303 11.4618 72.2942 11.5425 73.9019C11.6008 75.0651 10.317 75.3646 9.22511 75.7252C9.51055 75.6918 10.5808 75.6757 11.0367 75.6615C13.2687 75.5917 16.291 74.0546 16.8655 76.5612C17.6766 80.1005 13.8731 78.5371 12.5953 79.715C14.5989 80.0897 16.9586 79.0502 17.0976 81.099C17.2497 83.3408 14.8878 83.3165 13.2572 83.6742C11.4156 84.0783 10.5352 84.6957 8.59984 84.2796C7.21599 83.982 7.13776 81.8139 9.3206 80.4117C6.17939 80.4542 5.8102 79.2749 5.93937 78.0632C6.06611 76.8752 6.79068 76.1934 7.85905 75.9489Z" fill="#CCCCCC"/>
<path fill-rule="evenodd" clip-rule="evenodd" d="M7.17773 75.8972C8.07135 75.8537 8.97394 75.7257 9.88466 75.5235L9.92955 75.6832C9.02247 75.7796 8.13421 75.9347 7.26149 76.1389L7.17773 75.8972Z" fill="black"/>
<path fill-rule="evenodd" clip-rule="evenodd" d="M8.90324 80.606C10.2163 80.284 11.7005 79.8606 12.856 79.399L13.2018 79.5515C13.1359 79.5715 12.9146 79.6026 12.8104 79.6296C11.532 79.961 10.255 80.3246 9.17533 80.7159L8.90324 80.606Z" fill="black"/>
<path fill-rule="evenodd" clip-rule="evenodd" d="M151.835 76.1238C151.835 66.3732 143.919 58.4566 134.168 58.4566H42.3005C32.5499 58.4566 24.6338 66.3732 24.6338 76.1238V111.458C24.6338 121.208 32.5499 129.124 42.3005 129.124H134.168C143.919 129.124 151.835 121.208 151.835 111.458V76.1238Z" fill="black"/>
<path fill-rule="evenodd" clip-rule="evenodd" d="M148.725 75.5838C148.725 66.9717 141.733 59.9794 133.121 59.9794H42.6061C33.9938 59.9794 27.002 66.9717 27.002 75.5838V106.792C27.002 115.404 33.9938 122.396 42.6061 122.396H133.121C141.733 122.396 148.725 115.404 148.725 106.792V75.5838Z" fill="#FFFCE7"/>
<path d="M134.574 66.4293H41.1377V72.2084H134.574V66.4293Z" fill="#D5D5D5"/>
<path d="M58.7798 67.8377H43.3105V71.0221H58.7798V67.8377Z" fill="#A84F46"/>
<path d="M121.807 68.2878H116.821V69.1017H121.807V68.2878Z" fill="#A84F46"/>
<path d="M121.807 69.5406H116.821V70.3544H121.807V69.5406Z" fill="#A84F46"/>
<path d="M80.985 68.9119H70.9473V69.7257H80.985V68.9119Z" fill="#A84F46"/>
<path d="M94.0221 68.9119H83.9844V69.7257H94.0221V68.9119Z" fill="#A84F46"/>
<path d="M106.766 68.9119H96.7285V69.7257H106.766V68.9119Z" fill="#A84F46"/>
<path d="M134.574 99.3883H41.1377V102.013H134.574V99.3883Z" fill="#B7B7B7"/>
<path d="M70.7608 106.581H46.8018V115.106H70.7608V106.581Z" fill="#FFECA8"/>
<path d="M100.326 106.581H76.3672V115.106H100.326V106.581Z" fill="#FFECA8"/>
<path d="M128.915 106.581H104.956V115.106H128.915V106.581Z" fill="#FFECA8"/>
<path d="M124.805 76.671H91.9189V78.9294H124.805V76.671Z" fill="#ABABAB"/>
<path d="M124.805 80.3102H91.9189V82.5686H124.805V80.3102Z" fill="#ABABAB"/>
<path d="M112.838 84.1448H91.9189V86.4031H112.838V84.1448Z" fill="#ABABAB"/>
<path d="M66.1094 116.295H46.8018V117.163H66.1094V116.295Z" fill="#ABABAB"/>
<path d="M95.6748 116.295H76.3672V117.163H95.6748V116.295Z" fill="#ABABAB"/>
<path d="M124.264 116.295H104.956V117.163H124.264V116.295Z" fill="#ABABAB"/>
<path fill-rule="evenodd" clip-rule="evenodd" d="M88.2981 38.5941C88.2981 38.5941 89.9236 43.8009 91.5135 43.6069C93.1033 43.413 94.2501 40.6368 94.2501 40.6368C94.1701 43.3106 93.7718 45.772 91.4255 46.9328C92.1155 47.2327 93.3884 47.1412 95.9083 46.2023C95.0342 46.8743 94.1155 47.5137 92.5852 47.7084C94.3459 48.8586 95.7179 51.0192 96.1193 54.3272C94.4013 52.6473 92.7601 51.9556 91.1779 52.0263C92.6256 54.0544 93.4651 56.2448 93.1479 58.7441C90.229 55.566 86.9112 54.3278 83.8565 55.3243L65.3545 53.5605L56.9602 56.4512L54.415 56.0566C54.7072 55.5848 55.0754 55.161 55.8466 54.9914C54.5036 54.6956 53.8405 53.7536 53.54 52.4665C54.4533 53.0877 55.5816 52.7426 56.1648 52.5059C56.4326 52.3973 56.4304 52.1498 56.4902 51.9298C56.5483 51.7158 56.6717 51.5318 56.6852 51.253C56.7009 50.9324 56.5435 49.953 56.4733 49.3595C56.3648 48.4435 56.5334 48.0615 56.3096 47.593C56.0858 47.1245 55.4657 47.2605 55.3497 46.5691C55.1982 45.6658 56.0733 45.6978 56.0502 45.2933C56.0268 44.8886 55.2104 44.1418 55.2104 44.1418L75.2916 29.4954L85.9329 31.8072L88.2981 38.5941Z" fill="black"/>
<path fill-rule="evenodd" clip-rule="evenodd" d="M87.6717 38.5738C87.6717 38.5738 89.6638 44.6089 91.2537 44.4149C92.8434 44.221 93.5219 42.8183 93.5219 42.8183C93.4419 45.4922 92.7179 45.8933 90.3715 47.0539C91.0616 47.354 92.3955 47.6664 94.9154 46.7275C94.0413 47.3994 92.3284 47.6147 90.7983 47.8095C92.5588 48.9596 94.9695 49.7871 95.3708 53.0949C93.6528 51.415 91.7265 51.3294 90.1443 51.4001C91.592 53.4282 92.9813 55.1338 92.664 57.6331C89.7452 54.455 87.0663 53.5659 84.0117 54.5624L65.3593 53.5605L57.0605 56.4184L55.2289 55.8565C55.5209 55.3845 55.8624 55.0732 56.6338 54.9038C55.2908 54.608 54.4507 54.2946 54.1504 53.0076C55.0637 53.6289 56.0237 52.913 56.607 52.6764C56.8747 52.5677 56.662 52.1238 56.7218 51.904C56.7799 51.6898 57.0682 51.4815 57.0819 51.2027C57.0975 50.8821 56.8436 49.8984 56.7733 49.3048C56.6649 48.3889 56.825 47.7917 56.6014 47.3234C56.3776 46.8548 55.7258 47.2423 55.6097 46.5509C55.4582 45.6475 56.5169 45.7457 56.4936 45.3412C56.4705 44.9367 55.4103 43.9516 55.4103 43.9516L75.2964 29.4954L85.9377 31.8072L87.6717 38.5738Z" fill="#CCCCCC"/>
<path fill-rule="evenodd" clip-rule="evenodd" d="M67.1543 50.1583L67.5977 52.431L57.0605 56.4186L55.2289 55.8568C55.5209 55.3847 55.8624 55.0734 56.6338 54.904C55.2908 54.6082 54.4507 54.2949 54.1504 53.0078C55.0637 53.6291 56.0237 52.9133 56.607 52.6767C56.8747 52.5679 56.662 52.124 56.7218 51.9042C56.7799 51.69 57.0682 51.4818 57.0819 51.2029C57.0975 50.8824 56.8436 49.8986 56.7733 49.3051C56.6649 48.3891 56.825 47.7919 56.6014 47.3236C56.3776 46.8551 55.7258 47.2425 55.6097 46.5511C55.4582 45.6477 56.5169 45.7459 56.4936 45.3414C56.4705 44.9369 55.4103 43.9518 55.4103 43.9518L73.0012 31.2257C65.8286 31.7606 63.6559 50.5394 64.8555 51.711C65.4004 52.2432 66.9952 51.2907 67.1543 50.1583Z" fill="#939393"/>
<path fill-rule="evenodd" clip-rule="evenodd" d="M56.4492 45.2209C59.6495 44.6127 61.8372 46.3761 63.7973 49.0076L63.6975 50.779C61.5213 47.5784 57.987 45.6107 55.7373 45.9349C55.7373 45.9349 55.9471 45.7592 56.3226 45.5688C56.5567 45.4502 56.4492 45.2209 56.4492 45.2209Z" fill="#A6A6A6"/>
<path fill-rule="evenodd" clip-rule="evenodd" d="M87.6519 38.5744C87.6519 38.5744 89.644 44.6095 91.2339 44.4154C92.8236 44.2216 93.5021 42.8189 93.5021 42.8189C93.4221 45.4927 92.6981 45.8939 90.3517 47.0544C91.0418 47.3546 92.3757 47.6669 94.8956 46.728C94.0215 47.4 92.3086 47.6153 90.7785 47.81C92.539 48.9602 94.9496 49.7876 95.351 53.0954C93.633 51.4155 91.7066 51.3299 90.1245 51.4006C91.5722 53.4287 92.9614 55.1344 92.6442 57.6336C89.7254 54.4555 86.917 53.6842 83.8623 54.6808C88.0848 53.488 90.4236 48.5145 87.6519 38.5744Z" fill="#B9B9B9"/>
<path fill-rule="evenodd" clip-rule="evenodd" d="M57.1841 55.7707C57.1841 55.7707 55.4768 54.4544 55.8744 53.6803C56.2721 52.9061 57.9654 52.4532 59.5275 53.6742C60.9032 54.7497 63.3306 52.6068 64.0386 52.1658C64.1585 52.0912 64.4327 52.3873 65.0171 52.3325C65.3135 52.3049 65.7751 51.9448 66.2683 51.744C66.9144 51.4813 68.2616 52.1521 69.8708 52.6263C73.8874 53.81 77.2952 51.806 78.7385 50.7601C80.5566 49.4425 81.7971 47.9218 83.8533 48.1176C85.7257 48.2957 87.0104 48.9847 87.0502 50.405C87.0899 51.8253 85.6981 53.8375 84.3062 55.021C82.9142 56.2047 80.727 57.6146 78.6988 58.7441C76.6706 59.8737 75.9945 61.2027 74.0061 62.189C72.0177 63.1753 69.3524 62.307 67.7616 62.3857C66.1709 62.4646 62.5527 62.5171 59.9281 63.3457C57.3033 64.1742 54.5734 64.2589 53.5907 63.6485C51.9561 62.633 52.9685 61.4914 52.9685 61.4914C52.9685 61.4914 48.5786 62.7641 47.261 60.8206C46.3793 59.5202 46.9438 58.2436 48.0133 57.3882C48.8526 56.7168 50.82 56.0222 52.7746 55.7896C55.0013 55.5247 57.1841 55.7707 57.1841 55.7707Z" fill="black"/>
<path fill-rule="evenodd" clip-rule="evenodd" d="M53.086 61.2544C53.086 61.2544 48.602 62.0982 47.6008 60.6215C46.7191 59.321 47.291 58.3672 48.3605 57.5117C49.2 56.8403 51.1049 56.2905 53.0595 56.0579C53.6525 55.9874 57.0376 55.7744 59.9706 56.28C63.5806 56.9025 66.9635 58.2603 69.1275 58.4449C72.4001 58.7241 73.968 57.6657 74.8911 56.7032C74.8911 56.7032 73.3894 58.4262 69.1811 58.2293C66.9358 58.1242 62.2356 56.3812 60.1799 56.1126C59.0888 55.9701 57.6174 55.7764 57.6174 55.7764C57.6174 55.7764 55.8679 54.3896 56.2141 53.7591C56.6332 52.9962 58.1851 53.0218 59.7472 54.2428C61.1231 55.3183 63.5784 52.2093 64.3554 52.5156C64.4919 52.5692 64.823 52.7198 65.0866 52.6379C65.2712 52.5806 65.6043 52.3039 65.9072 52.1647C66.6993 51.8002 67.8829 52.3738 70.1305 53.036C74.1471 54.2197 77.595 52.0305 79.0383 50.9845C80.8564 49.6669 81.8299 48.2124 83.8862 48.4082C85.7585 48.5863 86.683 49.1694 86.7228 50.5897C86.7625 52.01 85.3574 53.7442 83.9654 54.9277C82.5735 56.1114 80.2796 57.4683 78.2513 58.5979C76.2231 59.7275 75.6938 60.9638 73.7054 61.9501C71.717 62.9364 69.452 61.9885 67.8612 62.0674C66.2705 62.1463 62.5723 62.1723 59.9476 63.0009C57.3228 63.8294 54.8598 64.02 53.8772 63.4096C52.2425 62.3941 53.5655 61.132 53.8444 60.8085C54.8717 59.6167 57.1158 58.6924 59.3995 58.5324C59.3995 58.5324 55.3723 57.7815 52.6223 57.9139C50.7254 58.0052 48.0845 58.6738 48.1972 59.79C48.2784 60.5943 49.4721 61.0372 51.3714 61.0372C51.9862 61.0372 53.3689 60.8681 53.3689 60.8681" fill="#A84F46"/>
<path fill-rule="evenodd" clip-rule="evenodd" d="M59.2704 58.5074C59.2704 58.5074 70.6437 60.4445 73.6386 60.2123C75.8383 60.0415 82.9482 51.266 82.9482 51.266L79.8467 52.4554C79.8467 52.4554 84.5972 49.6148 85.1376 50.6197C85.1999 50.7357 84.3353 50.3573 83.4652 51.283C80.8448 54.0713 75.4836 60.3423 73.6698 60.6518C71.4553 61.0297 57.5684 58.7256 57.5684 58.7256L59.2704 58.5074Z" fill="black"/>
<path fill-rule="evenodd" clip-rule="evenodd" d="M57.9248 58.64C56.1565 58.9822 53.5697 60.9491 54.4887 61.5865C55.3407 62.1774 60.1131 61.1716 62.1655 60.6545C64.2179 60.1374 66.4373 60.4932 68.1987 60.6662C70.038 60.8469 72.5374 61.5704 73.9057 61.021C75.274 60.4715 81.3173 56.2567 82.6898 55.3864C84.0035 54.5534 85.5835 52.2174 85.3295 50.9737C85.4766 52.276 83.9318 54.4425 82.6471 55.2749C80.2778 56.8104 74.9872 60.188 73.8763 60.5C72.395 60.9158 69.6955 60.2829 68.4686 60.1585C67.2232 60.0323 59.9018 58.8436 57.9248 58.64Z" fill="black"/>
<path d="M66.7449 53.0725C66.7928 53.0717 66.7369 53.0725 66.6202 53.0743C66.5034 53.0761 66.3699 53.0782 66.322 53.079C66.2742 53.0798 66.33 53.079 66.4468 53.0772C66.5636 53.0754 66.6971 53.0733 66.7449 53.0725Z" fill="black"/>
<path d="M63.6262 53.1564C63.5783 53.1556 63.6342 53.1565 63.7509 53.1583C63.8677 53.1601 64.0012 53.1622 64.0491 53.1629C64.0969 53.1637 64.0411 53.1629 63.9243 53.1611C63.8075 53.1593 63.674 53.1572 63.6262 53.1564Z" fill="black"/>
<path fill-rule="evenodd" clip-rule="evenodd" d="M67.365 52.0351C67.365 52.0351 66.2469 46.5305 66.9086 42.9955C67.5704 39.4606 69.0115 37.1036 70.0295 36.2451C71.0475 35.3867 72.7599 34.7301 73.5743 35.0331C74.3888 35.3361 76.0144 35.856 76.5233 39.0879C77.0324 42.3199 77.2562 44.5611 76.6285 47.1026C76.0059 49.6247 74.5925 52.7587 74.5925 52.7587C72.1628 53.3877 69.7235 53.0651 67.365 52.0351Z" fill="black"/>
<path fill-rule="evenodd" clip-rule="evenodd" d="M67.6345 51.8816C67.6345 51.8816 66.6004 46.6817 67.2622 43.1467C67.924 39.6117 69.2609 37.3064 70.2789 36.448C71.2969 35.5894 72.8008 35.0364 73.6153 35.3394C74.4297 35.6423 75.7945 36.3433 76.3036 39.5751C76.8127 42.8072 76.8799 45.0224 76.2524 47.5641C75.6297 50.0861 74.1433 52.8064 74.1433 52.8064C71.6512 53.0217 69.9929 52.9118 67.6345 51.8816Z" fill="#FFDA53"/>
<path fill-rule="evenodd" clip-rule="evenodd" d="M73.2967 44.5299C74.4204 44.5299 75.3462 46.1791 75.1061 48.8196C74.9028 51.0538 74.2951 53.0794 73.1712 53.0794C72.0476 53.0794 71.0205 51.01 71.0205 48.7665C71.0205 46.5232 72.173 44.5299 73.2967 44.5299Z" fill="black"/>
<path fill-rule="evenodd" clip-rule="evenodd" d="M60.1339 54.066C60.1339 54.066 58.2499 52.9726 57.9445 50.8081C57.6343 48.6091 57.3486 47.1917 57.3486 47.1917C57.3486 47.1917 60.1292 46.965 61.5887 49.1368C63.0482 51.3088 63.7826 52.463 63.7826 52.463C62.1388 53.0161 61.7321 54.3543 60.1339 54.066Z" fill="black"/>
<path fill-rule="evenodd" clip-rule="evenodd" d="M60.3917 54.0356C60.3917 54.0356 58.5033 53.0253 58.1979 50.8608C57.8876 48.6619 57.666 47.4351 57.666 47.4351C57.666 47.4351 59.9234 47.166 61.383 49.3378C62.8425 51.5098 63.5129 52.3991 63.5129 52.3991C61.8691 52.9524 61.9898 54.3239 60.3917 54.0356Z" fill="#FFDA53"/>
<path fill-rule="evenodd" clip-rule="evenodd" d="M61.2428 48.9824C59.7676 49.2981 60.2356 52.6761 61.5093 53.9627C62.529 53.5598 63.2352 52.9234 63.6582 52.3977L61.2428 48.9824Z" fill="black"/>
<path fill-rule="evenodd" clip-rule="evenodd" d="M76.1809 31.546C77.5859 32.9266 78.1997 34.3134 78.435 38.7115C78.8748 46.9289 74.8736 52.6382 74.8736 52.6382C74.8736 52.6382 78.5839 47.4585 78.0789 38.5463C77.9161 35.6722 77.1246 32.0967 75.0477 31.4083C72.9709 30.7199 70.3126 31.0227 70.3126 31.0227C70.3126 31.0227 66.8081 34.5234 65.4643 38.644C64.1205 42.7648 63.808 48.4561 63.9908 50.8801C64.1219 52.6193 65.2272 52.3448 65.6572 52.0278L65.8352 52.0666C65.529 52.5223 63.8638 53.4025 63.6341 50.6974C63.2569 46.2564 64.763 39.8659 65.3444 38.3754C67.4 33.1058 69.9054 30.2955 69.9054 30.2955C69.9054 30.2955 74.7983 30.1872 76.1809 31.546Z" fill="black"/>
<path fill-rule="evenodd" clip-rule="evenodd" d="M63.9637 51.1253C63.9637 51.1253 63.1315 49.184 61.2379 47.7436C59.7013 46.5747 58.1629 46.0755 57.1571 45.9072C54.0173 45.3818 55.9518 47.8281 56.6671 47.5174C55.7763 47.3666 55.029 45.9191 56.9686 46.2511C58.9586 46.5914 60.0636 47.2407 60.9772 48.0022C62.5634 49.3241 64.1118 52.1825 64.1118 52.1825L63.9637 51.1253Z" fill="black"/>
<path fill-rule="evenodd" clip-rule="evenodd" d="M50.7784 17.2893C53.8406 23.0567 56.1763 29.538 56.1237 36.1544C56.1237 36.1544 49.7168 35.0392 45.8125 39.5064C42.3601 43.4564 44.0039 44.9684 44.7667 45.7534C45.4527 46.4594 48.4922 48.0597 52.5701 46.2102C56.648 44.361 63.522 39.0439 65.2697 37.7726C67.0173 36.5011 73.6001 31.5887 73.6001 31.5887C73.6001 31.5887 74.8818 30.7217 76.3964 31.8776C77.9109 33.0334 78.9014 31.9932 80.9403 32.5711C82.9791 33.1491 84.9599 33.7848 85.7171 34.7094C86.4745 35.6342 88.2804 38.6394 88.2804 38.6394C88.2804 38.6394 95.504 36.0387 96.9604 34.4784C98.4168 32.918 99.4085 31.2993 99.2205 29.5025C99.0688 28.0543 98.3586 25.2892 94.8049 24.1333C91.2513 22.9776 86.7745 23.7206 85.6676 24.0094C84.5608 24.2985 82.2219 25.0003 82.2219 25.0003C82.2219 25.0003 80.7072 19.5677 81.6977 16.1001C82.3724 13.7369 83.7257 8.70823 84.3733 5.78083C84.676 4.41265 84.6456 3.54783 84.6456 3.54783C84.6456 3.54783 72.8801 10.2421 69.6761 12.1494C66.4721 14.0565 59.9756 16.6817 56.9999 17.1127C52.9838 17.694 52.1073 17.4428 50.7784 17.2893Z" fill="black"/>
<path d="M69.3025 12.9943C78.4467 8.90622 85.1412 4.41943 84.255 2.97281C83.3688 1.52619 75.2375 3.66754 66.0932 7.75564C56.949 11.8438 50.2546 16.3305 51.1408 17.7772C52.027 19.2238 60.1583 17.0824 69.3025 12.9943Z" fill="#A84F46"/>
<path fill-rule="evenodd" clip-rule="evenodd" d="M66.309 7.90384C75.4654 3.83863 83.0789 1.88292 83.7549 3.13996C84.5533 4.62438 77.8517 8.81336 69.2207 12.5672C60.704 16.271 52.5412 18.9051 51.7787 17.4071C51.0927 16.0593 57.1527 11.9691 66.309 7.90384Z" fill="black"/>
<path fill-rule="evenodd" clip-rule="evenodd" d="M55.6152 30.5303C55.6152 30.5303 57.1053 31.4289 59.6139 31.0249C62.1223 30.6209 66.5531 28.6495 67.8888 27.7121C69.2245 26.7749 71.9449 25.3204 73.4597 24.5448C74.9746 23.7691 76.6361 22.9611 77.7276 22.751C78.8189 22.5408 81.5888 21.8828 81.5888 21.8828L82.2166 25.0011C82.2166 25.0011 76.6851 28.31 75.9357 28.811C75.1864 29.3121 66.2636 34.9581 64.991 35.6288C63.7185 36.2996 62.0291 37.3306 60.2372 37.775C58.4454 38.2196 55.8107 38.2114 55.8107 38.2114C56.3713 35.7007 55.8365 33.0302 55.6152 30.5303Z" fill="#A84F46"/>
<path fill-rule="evenodd" clip-rule="evenodd" d="M56.1181 36.1806C53.6674 36.2015 51.1585 36.2717 49.0853 37.7719C46.9377 39.3261 46.3634 40.7774 46.3879 42.1449C46.4154 43.6743 47.0588 44.2663 47.8542 44.6214C48.6494 44.9765 51.1215 45.312 53.8573 43.8591C55.3256 43.0795 58.8738 40.7184 60.1465 39.8898C61.419 39.0614 63.7256 37.54 65.6984 36.1206C67.574 34.7713 76.7226 28.6439 77.9156 27.8942C79.1086 27.1447 81.0214 25.9134 82.3735 25.2032C83.742 24.8324 84.0704 24.6236 85.8652 24.1787C87.7427 23.7134 89.5698 23.6058 91.3196 23.7637C93.0695 23.9214 94.9006 24.1896 96.2527 25.0576C97.605 25.9256 98.5 27.6424 98.7385 28.7076C98.9772 29.7728 99.2491 30.8509 97.9257 32.9026C96.9699 34.3847 95.8614 35.1189 93.663 36.1762C92.3947 36.786 88.2302 38.4251 88.2302 38.4251L87.8704 37.8569C87.8704 37.8569 91.9698 36.1916 92.8712 35.6268C94.1093 34.8511 95.5833 33.8923 96.1586 32.0985C96.6147 30.6765 96.5961 29.5682 96.3681 28.8249C96.1401 28.0815 95.3085 26.891 94.0054 26.39C92.7023 25.8889 90.0854 25.4268 88.0109 25.6197C85.5449 25.8489 83.9886 26.4342 83.0466 26.6884C81.0216 27.2348 78.9707 27.8914 77.7001 28.6509C76.4295 29.4104 72.2115 32.2769 71.1933 33.0633C70.0532 33.944 67.2738 35.9761 66.3778 36.6065C65.4819 37.2367 61.8847 40.0338 59.8565 41.4542C57.8282 42.8745 55.3245 44.4753 53.7299 45.3497C52.1657 46.2076 49.9248 47.0922 48.0065 46.847C45.8589 46.5726 44.6088 45.2426 44.2826 44.5814C43.792 43.5865 44.1985 42.3628 44.9144 41.258C45.6302 40.1534 45.9692 39.5059 47.2417 38.5592C48.5142 37.6123 48.9936 37.3096 49.5736 37.0266C50.6705 36.4909 51.5221 36.3865 52.5398 36.2228C53.4458 36.0772 56.1181 36.1806 56.1181 36.1806Z" fill="#A84F46"/>
<path d="M125.063 70.5665C125.758 70.5665 126.322 70.0072 126.322 69.3173C126.322 68.6274 125.758 68.0681 125.063 68.0681C124.367 68.0681 123.804 68.6274 123.804 69.3173C123.804 70.0072 124.367 70.5665 125.063 70.5665Z" fill="#A84F46"/>
<path d="M128.212 70.5665C128.908 70.5665 129.471 70.0072 129.471 69.3173C129.471 68.6274 128.908 68.0681 128.212 68.0681C127.517 68.0681 126.953 68.6274 126.953 69.3173C126.953 70.0072 127.517 70.5665 128.212 70.5665Z" fill="#A84F46"/>
<path d="M131.313 70.571C132.008 70.571 132.572 70.0118 132.572 69.3219C132.572 68.632 132.008 68.0727 131.313 68.0727C130.617 68.0727 130.054 68.632 130.054 69.3219C130.054 70.0118 130.617 70.571 131.313 70.571Z" fill="#A84F46"/>
<path fill-rule="evenodd" clip-rule="evenodd" d="M105.194 92.4713C105.194 91.7623 104.618 91.1867 103.909 91.1867H93.2034C92.4944 91.1867 91.9189 91.7623 91.9189 92.4713C91.9189 93.1803 92.4944 93.7559 93.2034 93.7559H103.909C104.618 93.7559 105.194 93.1803 105.194 92.4713Z" fill="#A84F46"/>
<path d="M65.8095 95.485C71.4936 95.485 76.1014 90.9137 76.1014 85.2746C76.1014 79.6356 71.4936 75.0643 65.8095 75.0643C60.1254 75.0643 55.5176 79.6356 55.5176 85.2746C55.5176 90.9137 60.1254 95.485 65.8095 95.485Z" fill="#FFDA53"/>
<path fill-rule="evenodd" clip-rule="evenodd" d="M65.808 76.256L67.7818 82.2829H74.1696L69.0019 86.0078L70.9757 92.0348L65.808 88.3098L60.6402 92.0348L62.6141 86.0078L57.4463 82.2829H63.8341L65.808 76.256Z" fill="#A84F46"/>
<path fill-rule="evenodd" clip-rule="evenodd" d="M8.7016 58.5234L2.49023 60.7974L4.99332 62.2554L10.7264 59.6443L8.7016 58.5234Z" fill="#FFDA53"/>
<path fill-rule="evenodd" clip-rule="evenodd" d="M11.7503 64.6572L7.29671 67.9521L10.1515 69.939L14.0967 66.2584L11.7503 64.6572Z" fill="#FFDA53"/>
<path fill-rule="evenodd" clip-rule="evenodd" d="M10.0545 61.5236L4.68537 64.2667L7.39361 65.9018L12.2008 62.8378L10.0545 61.5236Z" fill="#FFDA53"/>
<path d="M4.99038 59.8902C5.17852 59.8882 5.10995 59.8888 4.83723 59.8915C4.56451 59.8942 4.1909 59.898 4.00276 59.9C3.81463 59.902 3.8832 59.9014 4.15592 59.8987C4.42864 59.896 4.80224 59.8922 4.99038 59.8902Z" fill="black"/>
<path d="M7.22498 63.2148C7.42394 63.2128 7.34377 63.2134 7.04593 63.2162C6.74808 63.2191 6.34534 63.223 6.14638 63.225C5.94742 63.227 6.02759 63.2264 6.32543 63.2236C6.62328 63.2207 7.02602 63.2168 7.22498 63.2148Z" fill="black"/>
<path d="M9.78158 68.8559C10.0701 68.682 10.0786 68.1578 9.80043 67.6849C9.5223 67.2121 9.06292 66.9698 8.77439 67.1437C8.48586 67.3176 8.47742 67.8419 8.75555 68.3147C9.03368 68.7875 9.49305 69.0298 9.78158 68.8559Z" fill="black"/>
<path fill-rule="evenodd" clip-rule="evenodd" d="M9.04496 58.9542L5.12695 58.9671L5.63932 58.9655L9.38112 58.9531L9.04496 58.9542Z" fill="black"/>
<path fill-rule="evenodd" clip-rule="evenodd" d="M10.7833 61.9933L7.22656 62.0044L7.64562 62.0031L11.0934 61.9924L10.7833 61.9933Z" fill="black"/>
<path fill-rule="evenodd" clip-rule="evenodd" d="M12.7639 65.1884L9.57031 65.1999L10.0577 65.1982L13.0948 65.1872L12.7639 65.1884Z" fill="black"/>
<path fill-rule="evenodd" clip-rule="evenodd" d="M8.18078 59.6836L5.50289 59.6951L5.95794 59.6932L8.47181 59.6824L8.18078 59.6836Z" fill="black"/>
<path fill-rule="evenodd" clip-rule="evenodd" d="M10.1044 62.7307L7.56503 62.7401L7.95285 62.7387L10.4497 62.7295L10.1044 62.7307Z" fill="black"/>
<path fill-rule="evenodd" clip-rule="evenodd" d="M12.3567 65.9244L10.0166 65.9342L10.4249 65.9325L12.6233 65.9234L12.3567 65.9244Z" fill="black"/>
</svg>
