<svg width="135" height="126" viewBox="0 0 135 126" fill="none" xmlns="http://www.w3.org/2000/svg">
<path fill-rule="evenodd" clip-rule="evenodd" d="M29.8447 90.8941C29.8447 90.8941 42.946 88.3765 56.1041 90.3906C67.3849 92.1193 79.4274 94.4114 83.8791 95.9339C86.3401 96.7731 90.9395 97.5356 90.9395 97.5356L95.4924 87.0267C95.4924 87.0267 79.8908 84.3125 74.2065 83.9696C70.733 83.7586 63.873 82.4855 63.873 82.4855L32.1947 78.5245L29.8447 90.8941Z" fill="black"/>
<path fill-rule="evenodd" clip-rule="evenodd" d="M29.8447 90.3792C29.8447 90.3792 43.2407 87.9336 56.3988 89.9501C67.6796 91.6788 79.7957 93.9326 84.2474 95.4551C86.7084 96.2967 91.308 96.9848 91.308 96.9848L95.4924 87.7274C95.4924 87.7274 79.8172 85.0636 74.1329 84.7232C70.6594 84.5122 63.4312 82.9633 63.4312 82.9633L31.1632 78.964L29.8447 90.3792Z" fill="#6F211A"/>
<path fill-rule="evenodd" clip-rule="evenodd" d="M99.1727 84.5638C99.1727 84.5638 96.9168 83.8733 94.845 84.794C92.7731 85.7147 88.2152 88.9851 88.1231 94.3247C88.031 99.6643 91.1159 101.46 93.2337 101.276C95.3516 101.093 99.2188 100.079 101.705 94.2336C104.191 88.3857 99.1727 84.5638 99.1727 84.5638Z" fill="black"/>
<path fill-rule="evenodd" clip-rule="evenodd" d="M99.3379 85.0814C99.3379 85.0814 97.3373 84.2278 95.2655 85.1485C93.1937 86.0692 88.899 88.9847 88.8069 94.3243C88.7148 99.6639 91.5167 100.848 93.6346 100.664C95.7524 100.479 99.0068 99.3474 101.493 93.502C103.979 87.6541 99.3379 85.0814 99.3379 85.0814Z" fill="#A84F46"/>
<path fill-rule="evenodd" clip-rule="evenodd" d="M97.5569 97.5356C94.4277 96.6005 95.0587 88.3094 98.1047 86.9787C98.1047 86.9787 98.1227 81.0732 99.7912 79.4212C101.036 78.1864 103.318 78.0042 103.318 78.0042L103.954 80.9509C105.53 81.3753 107.012 81.3705 108.427 81.0517L109.044 78.6852C109.044 78.6852 112.908 79.5339 113.437 79.8456C115.476 81.0421 114.418 84.0799 112.349 84.3532C113.719 85.1517 113.372 87.3935 111.417 88.8321C113.831 89.1485 113.668 92.4381 110.039 93.848C106.256 95.3177 105.484 95.8212 103.132 96.0466C100.755 96.2768 99.9097 95.1379 98.5754 95.0588C97.7758 95.0108 96.5381 95.3681 96.5381 95.3681C96.2437 96.1665 96.951 97.1591 97.5569 97.5356Z" fill="black"/>
<path fill-rule="evenodd" clip-rule="evenodd" d="M97.4809 87.8898C98.3347 87.0938 98.504 88.7769 98.504 88.7769C98.504 88.7769 98.568 81.3825 100.237 79.7306C101.481 78.4958 103.322 78.4406 103.322 78.4406V80.7304C103.003 80.8335 102.579 80.704 102.099 80.4523C103.148 81.9987 108.31 82.3416 110.775 80.5386C110.211 80.7112 109.644 80.855 109.047 80.6728V79.1503C109.047 79.1503 112.524 79.7545 113.144 80.4115C114.825 82.1953 113.221 83.9001 109.945 84.5523C113.178 83.8425 114.554 87.3167 109.288 89.4027C113.204 88.0816 113.691 91.8172 110.183 93.5075C106.231 95.4137 105.674 95.3489 103.322 95.5767C100.945 95.8069 99.8894 94.6919 98.5553 94.6104C97.3152 94.5361 96.3365 94.9101 96.3365 94.9101C95.5832 92.3087 96.4751 88.8273 97.4809 87.8898Z" fill="#CCCCCC"/>
<path fill-rule="evenodd" clip-rule="evenodd" d="M109.056 60.3055H103.331L103.504 123.875C105.355 126.213 107.058 126.209 108.997 125.665L109.056 60.3055Z" fill="black"/>
<path fill-rule="evenodd" clip-rule="evenodd" d="M108.439 61.0822H103.966L104.081 123.601C104.965 125.272 106.481 125.767 108.439 125.444V61.0822Z" fill="#D9CC9E"/>
<path d="M109.953 80.9813L107.604 82.1118L108.269 83.0767L110.618 81.9462L109.953 80.9813Z" fill="#CCCCCC"/>
<path d="M109.283 80.937L106.847 80.9448L107.066 80.9441L109.502 80.9363L109.283 80.937Z" fill="black"/>
<path fill-rule="evenodd" clip-rule="evenodd" d="M28.9079 43.2817C26.9833 46.9597 25.6387 51.2611 25.029 56.3561C25.029 56.3561 22.6512 52.2657 20.6559 51.2395C19.6196 50.7072 17.5605 50.5993 15.6117 50.2061C13.0534 49.6882 10.6502 48.9641 10.6502 48.9641C11.2096 51.5584 13.2932 53.8889 16.8309 55.9653C13.549 54.9271 10.3407 53.3758 7.18848 51.4313C7.38413 52.1194 8.49568 54.1742 8.49568 54.1742L7.80539 54.0399C7.80539 54.0399 13.3752 64.0694 15.7241 66.6061C17.6809 68.7184 21.7133 69.6823 23.7446 69.9748C25.1223 70.1738 28.3773 68.8839 28.3773 68.8839L40.0033 76.705L56.5532 76.1368L61.1226 71.5645C63.2539 68.6489 64.4014 65.9827 64.5825 62.7578C64.5825 62.7578 67.392 62.566 67.587 60.9668C67.8955 58.4373 65.25 56.687 65.25 56.687C65.5307 54.2414 65.6434 51.7406 65.3411 49.1008L47.4958 41.879L28.9079 43.2817Z" fill="black"/>
<path fill-rule="evenodd" clip-rule="evenodd" d="M29.8317 43.1834C27.9071 46.8614 25.9858 52.949 25.3761 58.0441C25.3761 58.0441 22.2881 52.8123 20.2928 51.7861C19.2568 51.2539 17.501 51.2371 15.5521 50.8439C12.9938 50.326 11.6833 49.844 11.6833 49.844C12.2427 52.4383 15.9269 55.1789 19.4647 57.2552C16.183 56.217 11.3661 54.7017 8.21387 52.7572C8.54882 53.8146 14.8005 59.7848 17.7765 61.7556C14.8372 60.1037 11.199 57.7395 8.97465 54.9415C8.97465 54.9415 13.9822 63.8392 16.0667 66.0882C18.0234 68.2005 22.0939 69.2411 24.125 69.5336C25.5027 69.7326 28.5909 68.155 28.5909 68.155L40.3384 76.3118L56.4121 75.6141L60.7444 71.1856C62.8757 68.2701 63.8928 65.5943 64.0736 62.3694C64.0736 62.3694 66.9767 62.204 67.151 60.6024C67.3867 58.4373 64.6685 56.9315 64.6685 56.9315C64.9492 54.4859 64.5622 52.0571 64.2599 49.4173L47.4969 41.879L29.8317 43.1834Z" fill="#CCCCCC"/>
<path fill-rule="evenodd" clip-rule="evenodd" d="M49.4234 42.1644L29.8317 43.1834C27.9071 46.8614 25.9858 52.949 25.3761 58.0441C25.3761 58.0441 22.2881 52.8123 20.2928 51.7861C19.2568 51.2539 17.501 51.2371 15.5522 50.8439C12.9938 50.326 11.6833 49.8441 11.6833 49.8441C12.2427 52.4383 15.9269 55.1789 19.4647 57.2552C16.183 56.217 11.3661 54.7017 8.21387 52.7572C8.54882 53.8146 14.8005 59.7848 17.7765 61.7556C14.8372 60.1037 11.199 57.7395 8.97465 54.9415C8.97465 54.9415 13.9822 63.8392 16.0667 66.0882C18.0234 68.2005 22.0939 69.2411 24.125 69.5336C25.5027 69.7326 28.5909 68.155 28.5909 68.155L38.3625 75.571C32.6619 69.3874 29.156 47.3361 49.4234 42.1644Z" fill="#939393"/>
<path fill-rule="evenodd" clip-rule="evenodd" d="M28.6852 38.3803C28.7296 28.2838 28.9444 18.1872 29.6215 8.08826C29.6215 8.08826 38.0514 -1.18589 51.8528 0.957622C65.7758 3.12271 72.004 11.9845 73.192 15.4203C69.7981 22.9058 66.8346 30.5807 64.3514 38.469C64.3514 38.469 65.2493 38.5889 65.601 39.2459C66.1568 40.2841 66.3098 43.2044 67.1242 45.5301C67.8292 47.5442 68.8649 48.3186 68.8649 48.3186C68.8649 48.3186 79.7904 50.4046 79.8738 51.2485C79.9963 52.4809 67.4642 55.1064 64.9527 54.8978L64.5377 51.402C64.5377 51.402 57.2483 46.9927 48.9483 45.475C41.0097 44.0196 33.5004 44.8468 28.9132 45.4151C27.9211 47.6017 27.2653 49.4335 26.716 51.5267C24.4785 51.2294 14.7783 49.2225 15.0049 45.3143C15.1979 41.9864 24.9947 38.9438 28.6852 38.3803Z" fill="black"/>
<path fill-rule="evenodd" clip-rule="evenodd" d="M35.786 4.41821C39.2492 2.2771 46.4559 0.76657 50.6494 1.6585C50.6494 1.6585 45.8267 6.03903 41.5956 11.9421C38.8975 15.7088 32.5111 26.5342 34.2966 27.968C36.4229 29.6775 39.5405 26.2705 39.5405 26.2705C39.8669 28.5866 39.7285 30.8644 39.019 33.099C37.3066 33.3004 35.6158 33.7152 33.9449 34.3314C33.9449 34.3314 36.6372 30.6702 35.3569 29.7687C34.0765 28.8695 31.4316 31.3439 31.4316 31.3439C31.6546 22.3695 33.034 13.395 35.786 4.41821Z" fill="#A84F46"/>
<path fill-rule="evenodd" clip-rule="evenodd" d="M29.3076 38.2385C34.042 37.2267 36.2321 36.6777 43.5759 36.366C50.9827 36.0519 59.0671 37.2219 62.6579 38.0731C62.6579 38.0731 51.6183 32.9901 43.0827 33.4073C34.547 33.8245 29.3117 37.2771 29.3117 37.2771L29.3076 38.2385Z" fill="#A84F46"/>
<path fill-rule="evenodd" clip-rule="evenodd" d="M67.7842 47.6545C71.033 51.4356 74.7688 53.0348 79.2088 51.4812C79.2088 51.4812 77.0447 53.0852 73.3211 52.2412C69.1722 51.3013 67.7842 47.6545 67.7842 47.6545Z" fill="#A84F46"/>
<path fill-rule="evenodd" clip-rule="evenodd" d="M46.653 75.4517C43.3181 67.2949 43.3444 59.0277 50.6868 52.0002C55.0055 53.3069 59.1047 55.2562 62.2941 59.8837C62.5993 64.2786 60.9517 68.6472 57.8757 73.0421C54.1612 74.6845 50.6329 75.2671 46.653 75.4517Z" fill="#FFDA53"/>
<path fill-rule="evenodd" clip-rule="evenodd" d="M43.7471 52.6085C43.7471 52.6085 43.1757 48.0409 44.6567 46.8949C45.9692 45.8807 52.1794 48.3311 52.1794 48.3311C52.1794 48.3311 46.1509 46.763 45.2171 47.6717C44.3316 48.5325 43.7471 52.6085 43.7471 52.6085Z" fill="black"/>
<path fill-rule="evenodd" clip-rule="evenodd" d="M46.2952 75.2836C42.3103 65.8847 43.8529 58.1859 50.1424 51.9472C49.3476 51.5515 48.5101 51.2854 47.6621 51.048C55.2802 52.2349 61.9274 56.9103 63.438 61.6961C63.1697 61.1662 62.8927 60.7226 62.6031 60.4061C62.7174 65.1655 60.9943 69.3566 58.1041 72.9243L57.5903 73.2216C60.3764 69.1384 62.2437 64.8178 62.2945 60.0297C60.356 56.9702 56.3577 54.4072 50.7419 52.2301C44.5859 58.639 43.3496 66.3355 46.8358 75.274L46.2952 75.2836Z" fill="black"/>
<path fill-rule="evenodd" clip-rule="evenodd" d="M62.164 59.1954C62.6815 59.5082 62.2829 61.9239 61.3942 64.4183C60.7248 66.2973 59.5163 68.7017 59.5163 68.7017C59.5163 68.7017 59.126 68.6449 58.8665 68.4722C58.3574 68.1359 58.5525 65.8101 59.4412 63.3158C60.3299 60.8214 61.4199 58.745 62.164 59.1954Z" fill="black"/>
<path fill-rule="evenodd" clip-rule="evenodd" d="M60.176 59.9821C60.176 59.9821 61.359 62.5044 61.1053 62.6818C60.821 62.8832 59.8252 60.6366 59.8252 60.6366C59.9266 60.3873 60.0417 60.1643 60.176 59.9821Z" fill="white"/>
<path d="M69.2889 79.0662C69.7873 79.3403 70.8853 77.7754 71.7414 75.5709C72.5976 73.3664 72.8876 71.3572 72.3892 71.0831C71.8908 70.8091 70.7928 72.374 69.9367 74.5785C69.0806 76.7829 68.7905 78.7922 69.2889 79.0662Z" fill="black"/>
<path d="M69.6031 78.7372C69.9932 78.9465 70.9183 77.4925 71.6695 75.4897C72.4207 73.4869 72.7134 71.6937 72.3234 71.4845C71.9334 71.2753 71.0082 72.7293 70.2571 74.7321C69.5059 76.7348 69.2131 78.528 69.6031 78.7372Z" fill="#CFF1FF"/>
<path fill-rule="evenodd" clip-rule="evenodd" d="M30.6472 74.6229C29.6421 73.6255 27.1975 70.5253 26.8894 68.5592C26.4765 65.9218 26.9678 63.9629 28.0613 63.9893C29.4563 64.0228 29.9687 65.5286 31.0433 66.8497C32.3225 68.4226 33.7819 69.758 34.4957 70.5541C35.7015 71.8944 38.8626 74.4191 46.0308 75.0185C51.7164 75.4957 59.8987 72.5034 62.0712 69.9355C62.0712 69.9355 64.4518 75.3758 69.082 76.4523C71.9222 77.1117 77.3047 75.3134 77.8485 75.6251C78.3923 75.9344 77.4479 78.7373 76.5022 79.7251C75.5293 80.7417 71.4192 82.8037 71.4192 82.8037C71.4192 82.8037 71.4168 83.6909 70.2945 84.578C69.3563 85.3213 64.5403 87.81 61.8098 87.4624C59.535 87.1723 48.9675 83.8803 45.4638 82.6071C42.1169 81.3891 31.9556 75.92 30.6472 74.6229Z" fill="black"/>
<path fill-rule="evenodd" clip-rule="evenodd" d="M31.1526 74.225C30.1475 73.2276 27.7486 70.4846 27.4942 68.509C27.2056 66.2695 27.2492 64.7351 28.0198 64.7614C29.4143 64.807 29.6785 66.049 30.7529 67.3725C32.0323 68.9453 33.5661 70.4798 34.2799 71.2735C35.4859 72.6162 39.4576 75.22 46.6439 75.5365C51.5785 75.7523 58.3881 73.7383 61.8556 70.8059C61.8556 70.8059 64.4846 75.9225 69.1147 76.9991C71.9552 77.6584 76.7906 76.0352 77.3344 76.3445C77.8784 76.6562 76.735 78.7134 75.7894 79.7012C74.8164 80.7155 70.5922 82.5425 70.5922 82.5425C70.5922 82.5425 71.0022 83.3912 69.8801 84.2808C68.9416 85.024 64.5731 87.1891 61.8426 86.8415C59.5677 86.5514 49.1993 83.3337 45.6956 82.0605C42.3487 80.8425 32.461 75.5221 31.1526 74.225Z" fill="#A84F46"/>
<path fill-rule="evenodd" clip-rule="evenodd" d="M28.3755 67.0577C28.5056 67.0217 32.0796 73.1478 35.5224 75.145C37.8237 76.4805 41.7719 78.7127 48.9932 81.3478C54.4215 83.3282 59.915 84.9251 62.6999 84.8771C65.157 84.8363 70.8222 82.4435 70.8222 82.4435L71.0471 82.9014C71.0471 82.9014 66.128 85.1384 62.9751 85.4214C60.3756 85.6539 54.3085 83.8102 48.7352 81.8033C39.9281 78.6312 37.5897 76.9792 35.1292 75.5574C31.7902 73.6273 28.0487 67.1512 28.3755 67.0577Z" fill="black"/>
<path d="M65.0778 79.6669C65.8527 80.1105 67.3291 78.4585 68.3755 75.977C69.4218 73.4955 69.6418 71.1242 68.8669 70.6806C68.092 70.237 66.6157 71.889 65.5693 74.3705C64.523 76.852 64.3029 79.2233 65.0778 79.6669Z" fill="black"/>
<path d="M65.508 79.3271C66.111 79.6664 67.3418 78.1073 68.2571 75.8449C69.1724 73.5824 69.4255 71.4733 68.8225 71.1341C68.2195 70.7948 66.9887 72.3538 66.0735 74.6163C65.1582 76.8788 64.905 78.9879 65.508 79.3271Z" fill="#CFF1FF"/>
<path fill-rule="evenodd" clip-rule="evenodd" d="M67.2715 70.8876C68.9278 69.4706 71.302 69.5905 72.297 71.1274L71.9709 71.2257C70.8236 69.8518 69.9144 69.7032 68.4171 70.8349L67.2715 70.8876Z" fill="black"/>
<path fill-rule="evenodd" clip-rule="evenodd" d="M33.2659 85.0621C33.333 85.1461 30.5309 92.5956 29.4548 93.1686C24.9774 95.5495 17.7605 96.0458 15.6318 95.9571C18.0571 94.3315 20.3164 92.6747 22.2995 90.9604C22.2995 90.9604 19.0183 89.5698 16.763 88.1C13.9225 86.2466 13.7322 83.2951 11.1393 81.0197C7.41313 77.7493 3.82695 76.174 3.82695 76.174C5.75299 72.5847 4.53114 69.0722 0.791992 65.6171C4.91693 65.701 8.21994 66.4084 10.8861 67.6C14.9061 69.9641 19.0502 73.8579 23.3938 80.2165L29.9967 82.4463L33.2659 85.0621Z" fill="black"/>
<path fill-rule="evenodd" clip-rule="evenodd" d="M32.9108 84.9018C32.9779 84.9857 30.2731 92.2074 29.1968 92.7805C24.7197 95.1613 19.1593 95.5929 17.0306 95.5042C19.4559 93.8786 21.0944 92.5455 23.0778 90.8312C23.0778 90.8312 19.3108 89.2127 17.0556 87.743C14.2151 85.892 14.0571 82.9381 11.4642 80.6627C7.73802 77.3947 4.44987 76.2246 4.11612 76.1095C6.04216 72.5202 5.36098 69.4033 1.62207 65.9482C5.74676 66.0322 8.69421 66.9073 11.3606 68.0965C15.3806 70.463 19.3365 74.4336 23.6801 80.7922L29.9979 82.4465L32.9108 84.9018Z" fill="#A84F46"/>
<path fill-rule="evenodd" clip-rule="evenodd" d="M10.7953 67.7944C10.0067 67.1997 10.227 62.7137 12.025 62.5339C14.8809 62.2534 16.6122 63.5937 18.5116 65.3823C20.2615 67.0295 21.2179 68.5832 22.0225 69.3265C23.0099 70.24 27.1332 68.8565 27.1332 68.8565C28.571 72.3595 30.9936 75.1576 36.5917 77.9916C37.2321 82.9859 36.5802 86.3643 34.5685 88.0426C33.2889 86.0981 31.8709 84.2735 30.0161 82.8181C26.035 85.3357 22.6239 86.8414 20.5434 86.5753C21.6631 84.216 22.6869 82.0149 23.1878 80.1879C19.3947 75.3326 15.5637 70.5589 10.7953 67.7944Z" fill="black"/>
<path fill-rule="evenodd" clip-rule="evenodd" d="M11.3141 67.5884C10.5255 66.9937 10.5001 63.1119 12.2952 62.9081C14.5917 62.6468 16.4473 64.1333 18.3469 65.9196C20.0967 67.5668 21.0947 68.8927 21.7542 69.8446C22.1209 70.3744 23.8066 73.1725 24.0912 74.0908C24.5789 75.6637 23.7299 78.6799 23.3751 79.8548C19.5822 75.0019 16.0826 70.3529 11.3141 67.5884Z" fill="#A84F46"/>
<path fill-rule="evenodd" clip-rule="evenodd" d="M27.695 70.7456C29.1161 73.3758 30.5372 75.7615 31.9585 76.3106C31.9585 76.3106 30.3171 78.502 28.294 75.4762C26.2706 72.4503 27.695 70.7456 27.695 70.7456Z" fill="#939393"/>
<path fill-rule="evenodd" clip-rule="evenodd" d="M4.16854 75.9036C4.23232 75.7358 6.16771 75.6974 8.64306 75.8724C10.7851 76.0259 12.2995 76.4622 12.6488 76.6924C12.8716 76.8387 10.6063 76.34 8.29468 76.2249C5.77857 76.0954 4.25485 76.093 4.03906 76.2153L4.16854 75.9036Z" fill="black"/>
<path fill-rule="evenodd" clip-rule="evenodd" d="M15.7685 95.6971C15.7685 95.6971 22.66 92.4388 26.195 88.2896C29.7254 84.1492 30.3784 82.5419 30.6107 81.933C30.7574 81.5435 28.5633 84.9899 25.8427 87.9714C22.6709 91.4472 16.1101 95.4962 15.7685 95.6971Z" fill="black"/>
<path d="M109.105 89.5958C110.697 88.6865 111.51 87.1681 110.92 86.2044C110.33 85.2407 108.562 85.1966 106.97 86.1059C105.378 87.0153 104.566 88.5336 105.156 89.4973C105.745 90.461 107.514 90.5051 109.105 89.5958Z" fill="black"/>
<path fill-rule="evenodd" clip-rule="evenodd" d="M107.819 85.9689C109.541 84.9986 111.774 84.8364 112.322 85.7247C112.87 86.6129 112.133 88.2505 109.803 89.1852C107.96 89.9249 106.239 90.2236 105.691 89.3354C105.142 88.4472 106.096 86.9394 107.819 85.9689Z" fill="#CCCCCC"/>
<path fill-rule="evenodd" clip-rule="evenodd" d="M107.771 82.0987C108.445 82.3729 109.932 82.4886 110.447 82.9542C112.02 84.3712 111.996 87.1557 111.364 88.1656C110.637 89.329 109.218 88.9536 108.748 88.6569C108.218 88.3237 108.115 87.031 108.115 87.031C107.618 87.7135 103.893 87.0341 103.912 86.6696C103.912 86.6696 102.205 91.0292 101.878 90.7991C100.077 89.56 101.429 82.9341 102.12 81.7911C102.941 80.4347 106.119 81.4233 107.771 82.0987Z" fill="black"/>
<path fill-rule="evenodd" clip-rule="evenodd" d="M107.74 82.578C108.36 82.8252 109.614 82.7654 110.072 83.2529C111.456 84.7335 111.565 87.1698 111.013 88.0837C110.538 88.8706 109.531 88.8379 108.951 88.3277C108.375 87.8238 108.619 86.4754 108.619 86.4754C108.619 86.4754 107.715 87.0584 105.844 86.814C105.053 86.709 103.638 86.2232 103.638 86.2232C103.638 86.2232 101.654 92.8104 101.085 92.2902C99.8906 91.2023 100.571 81.983 100.932 81.3852C101.26 80.843 102.065 80.9017 103.272 81.1435C104.784 81.4426 106.303 82.0032 107.74 82.578Z" fill="#CCCCCC"/>
<path d="M110.31 93.5781C112.116 92.549 113.055 90.8594 112.408 89.8042C111.761 88.749 109.773 88.7278 107.967 89.7569C106.162 90.7859 105.222 92.4755 105.869 93.5307C106.516 94.5859 108.504 94.6071 110.31 93.5781Z" fill="black"/>
<path d="M110.378 93.2206C112.107 92.242 113.053 90.7085 112.491 89.7954C111.929 88.8822 110.071 88.9353 108.342 89.9138C106.613 90.8924 105.666 92.4259 106.229 93.3391C106.791 94.2522 108.648 94.1992 110.378 93.2206Z" fill="#CCCCCC"/>
<path fill-rule="evenodd" clip-rule="evenodd" d="M134.163 44.8886L81.334 40.3043L81.5543 59.0732L134.267 64.0604L134.163 44.8886Z" fill="black"/>
<path fill-rule="evenodd" clip-rule="evenodd" d="M133.295 45.5215L82.042 41.0642L82.2688 58.6079L133.402 63.197L133.295 45.5215Z" fill="#D9CC9E"/>
<path fill-rule="evenodd" clip-rule="evenodd" d="M131.786 46.8506L83.7266 42.6633L83.7406 57.2367L131.836 61.6982L131.786 46.8506Z" fill="white"/>
<path d="M94.8729 53.4743C94.6415 53.8972 94.3367 54.1933 93.9395 54.3753C93.5472 54.5482 93.1043 54.596 92.6157 54.5096C92.1272 54.4232 91.602 54.2079 91.0351 53.8728C90.3784 53.4845 89.8346 53.0201 89.4089 52.4706L90.354 50.7429C90.5066 51.0951 90.7108 51.4183 90.9707 51.7268C91.2216 52.03 91.4841 52.2685 91.763 52.4334C91.9699 52.5558 92.1516 52.6155 92.3079 52.6127C92.4692 52.6009 92.5822 52.5248 92.661 52.3808C92.7151 52.2818 92.7374 52.1759 92.7187 52.0577C92.709 51.9448 92.6584 51.8196 92.5849 51.6928C92.5073 51.5516 92.3406 51.334 92.0897 51.0308C91.2847 50.0427 91.1255 49.115 91.603 48.2421C91.9328 47.6392 92.4374 47.2826 93.0932 47.1939C93.7629 47.1016 94.4821 47.2887 95.2558 47.7462C95.4808 47.8792 95.6738 48.0052 95.8529 48.1349C96.023 48.2593 96.1841 48.3784 96.3222 48.4958C96.4514 48.6079 96.6378 48.7896 96.8684 49.0212L95.9921 50.6229C95.6188 50.0211 95.1758 49.5686 94.6629 49.2654C94.456 49.143 94.2654 49.0779 94.0951 49.0844C93.9159 49.0856 93.7938 49.1564 93.72 49.2914C93.6461 49.4263 93.641 49.5662 93.6908 49.7147C93.7544 49.8596 93.9064 50.1042 94.1654 50.436C94.6795 51.0853 94.9808 51.6445 95.0784 52.1191C95.176 52.5936 95.1092 53.0424 94.8729 53.4743Z" fill="#A84F46"/>
<path d="M101.03 55.2387L101.51 54.034L99.5506 53.0227L98.4711 53.9177L96.3341 52.8145L102.772 48.2576L105.228 49.5253L103.176 56.3467L101.03 55.2387ZM103.055 50.1148L103.008 50.0906C102.951 50.1512 102.855 50.2478 102.71 50.3756C102.565 50.5034 101.933 51.0328 100.784 51.9705L102.039 52.6189L102.715 50.8284C102.816 50.5656 102.934 50.3337 103.055 50.1148Z" fill="#A84F46"/>
<path d="M107.174 54.5975L110.454 48.1672L112.337 49.314L109.83 54.2285L111.98 55.5384L111.207 57.0541L107.174 54.5975Z" fill="#A84F46"/>
<path d="M114.4 55.3161L117.681 48.8859L121.571 51.2555L120.798 52.7712L118.79 51.5484L118.312 52.4853L120.195 53.6321L119.421 55.1478L117.539 54.001L117.056 54.9472L119.206 56.257L118.433 57.7728L114.4 55.3161Z" fill="#A84F46"/>
<path d="M124.244 55.5953L122.807 54.5694L124.15 49.6444L126.034 50.9898L124.244 55.5953ZM124.034 57.3344C123.936 57.6322 123.76 57.8112 123.518 57.867C123.274 57.9331 123.002 57.8536 122.701 57.6386C122.408 57.4297 122.198 57.1652 122.073 56.835C121.956 56.5108 121.942 56.1968 122.037 55.9092C122.135 55.6114 122.299 55.4366 122.537 55.391C122.778 55.3352 123.058 55.4209 123.359 55.6359C123.661 55.8509 123.871 56.1153 123.991 56.4292C124.114 56.7328 124.131 57.0366 124.034 57.3344Z" fill="#A84F46"/>
</svg>
