<?xml version="1.0" encoding="UTF-8" standalone="no"?>
<!DOCTYPE svg PUBLIC "-//W3C//DTD SVG 1.1//EN" "http://www.w3.org/Graphics/SVG/1.1/DTD/svg11.dtd">
<svg width="100%" height="100%" viewBox="0 0 783 1000" version="1.1" xmlns="http://www.w3.org/2000/svg" xmlns:xlink="http://www.w3.org/1999/xlink" xml:space="preserve" xmlns:serif="http://www.serif.com/" style="fill-rule:evenodd;clip-rule:evenodd;stroke-linejoin:round;stroke-miterlimit:2;">
    <g transform="matrix(1,0,0,1,-108.815,5.61329e-13)">
        <g id="Head" transform="matrix(1.02977,0,0,1.03304,-14.8829,-16.5211)">
            <path id="Шляпа" d="M147.584,426.628L243.068,429.522L320.468,423.011L385.57,385.397L490.458,331.868L543.264,302.21L630.791,284.849L682.873,293.53L727.721,331.144L739.295,328.251L732.066,306.513L703.148,276.885L665.223,256.737L613.076,252.233L569.417,213.479L372.015,34.223C323.304,45.684 277.261,64.258 234.24,90.889L255.721,339.031L259.095,347.879L264.92,355.181L281.686,401.929L220.057,402.403L162.459,405.485L149.185,416.388L147.584,426.628Z" style="fill:rgb(168,79,70);"/>
            <g id="Лицо-R" serif:id="Лицо R" transform="matrix(1.79713,0,0,1.79713,-513.211,-136.45)">
                <path d="M667.191,430.357C675.798,425.629 684.27,424.94 692.542,430.262L696.334,439.47L691.459,459.239L678.189,490.924C684.253,490.711 690.029,491.007 695.521,489.57L703.646,484.966L709.333,477.925L716.916,466.551L715.291,476.571L714.478,482.258L722.061,481.446L730.456,474.405L735.602,458.968L739.393,438.657L743.997,442.178L745.893,456.26L748.059,461.676L755.642,456.531L761.871,440.824L761.871,424.575C764.39,424.271 766.991,423.171 768.922,428.604L773.549,412.913L773.771,403.595L769.778,392.947L762.124,383.185L744.709,365.992L750.588,363.773L758.242,363.44L768.225,360.113L763.788,353.568L754.803,350.462L743.267,351.017L730.51,353.346L718.53,354.788L720.749,342.476L725.186,326.059L720.527,330.163L714.87,337.484L707.882,345.914L697.122,353.79L690.245,359.336L648.801,354.763L667.191,430.357Z" style="fill:rgb(159,159,159);"/>
            </g>
            <g id="Лицо-R1" serif:id="Лицо R" transform="matrix(1.79713,0,0,1.79713,-513.211,-136.45)">
                <path d="M667.279,362.504L666.063,340.146L618.732,294.43L467.433,301.252L461.94,329.314L524.342,547.727L625.415,497.331L635.672,480.092L641.9,462.218L660.045,436.22L685.357,424.806L667.924,414.451C712.447,405.595 686.696,381.702 649.547,355.37L667.279,362.504Z" style="fill:rgb(204,204,204);"/>
            </g>
            <g id="Лицо-L" serif:id="Лицо L" transform="matrix(1.79713,0,0,1.79713,-513.211,-136.45)">
                <path d="M468.818,350.286L470.65,334.798L453.354,338.285L443.334,321.494L421.398,322.848L415.982,347.492L417.607,374.844L418.148,387.302L417.607,405.988L417.607,424.132L419.231,439.84L420.044,446.881L413.544,451.484L404.337,452.839L393.233,450.401L383.484,446.339L382.672,453.38L386.734,460.421L392.692,465.025L377.255,470.983L365.34,476.399L357.215,486.69L353.493,500.964C357.79,498.892 361.666,497.8 364.506,499.117L359.28,512.906L357.478,522.612L357.755,531.347L361.083,547.431L363.994,551.868L368.154,551.314L372.868,545.213L376.751,542.717L380.356,549.234L382.158,555.473L386.873,565.457L393.251,573.083L399.352,576.41L402.68,575.301L406.146,568.784L412.247,571.141L418.764,575.856L426.806,580.986L434.293,583.205L439.944,584.43C438.809,589.142 436.569,591.958 434.293,594.713L528.234,546.522L522.942,481.496C517.676,469.899 514.671,455.056 515.293,438.061C503.925,411.471 498.49,388.783 510.245,343.117C504.983,356.697 497.022,367.62 490.085,377.432L482.528,371.333L485.764,345.882L468.818,350.286Z" style="fill:rgb(147,147,147);"/>
            </g>
            <g id="Клюв" transform="matrix(1.79713,0,0,1.79713,-513.211,-136.45)">
                <path d="M684.884,426.436L693.018,429.949L697.455,438.638L696.346,448.991L687.657,467.478L676.749,494.655L668.615,534.773L663.808,558.991L651.052,582.84L637.925,595.042L621.472,601.328L581.169,605.765L554.177,607.059L531.068,610.386L505,614.823L472.832,620L449.908,614.639L438.076,610.202L433.639,600.588L440.849,590.79L458.344,582.185L468.935,573.708L470.826,563.771L442.328,533.294L431.235,523.865L427.353,513.142L430.681,503.714L438.076,495.949L442.328,496.873L446.395,502.604L452.126,509.075L458.227,514.067L497.975,506.857L503.521,500.941L508.328,493.73L515.168,487.445L525.706,483.377L536.799,481.159L545.858,481.898L552.698,484.856L571.186,494.1L609.455,503.899L618.514,502.05L625.724,496.873L630.9,487.63L636.077,474.688L640.883,463.226L648.094,451.764L656.968,440.671L665.657,432.352L676.01,427.73L684.884,426.436Z" style="fill:rgb(168,79,70);"/>
            </g>
            <path id="Глаза" d="M320.426,782.03L304.478,759.77L287.534,727.21L270.921,686.344L261.619,648.468L258.296,609.263L261.951,580.69L267.599,563.413L276.237,550.456L282.882,545.472L292.185,555.772L299.494,573.713L315.11,607.602L336.373,651.458L353.982,682.025L368.269,701.959L379.897,713.588L389.533,721.229L399.38,727.21L411.075,734.014L414.052,739.33L407.035,745.284L401.081,750.387L393.001,762.507L384.708,771.438L376.628,775.691L359.405,773.352L338.992,775.266L320.426,782.03ZM460.49,723.686L474.098,709.226L487.282,695.192L499.615,675.63L514.499,650.539L529.384,627.999L542.993,602.483L557.877,574.415L580.417,539.117L585.945,545.922L593.6,556.554L604.521,573.003L615.408,596.138L624.662,623.628L628.2,648.123L631.194,676.157L630.105,696.842L628.2,716.439L624.39,731.136L616.225,748.556L601.255,764.614L586.285,768.152L577.031,767.88L551.991,755.36L535.389,752.094L512.254,752.094L502.456,745.834L477.688,734.13L460.49,723.686Z" style="fill:rgb(255,218,83);"/>
            <g id="Стёкла" transform="matrix(1.79713,0,0,1.79713,-513.211,-136.45)">
                <g transform="matrix(1.00644,-0.0886309,0.0983233,1.1165,-58.5813,-26)">
                    <ellipse cx="486.004" cy="546.328" rx="39.141" ry="30.043" style="fill:rgb(207,241,255);"/>
                </g>
                <g transform="matrix(1.01754,-0.0896082,0.0918259,1.04272,31.8904,0.612893)">
                    <ellipse cx="486.004" cy="546.328" rx="39.141" ry="30.043" style="fill:rgb(207,241,255);"/>
                </g>
            </g>
            <g id="Голова" transform="matrix(1.79713,0,0,1.79713,-513.211,-136.45)">
                <path d="M749.503,398.17C749.503,398.17 772.477,435.083 749.614,458.516C747.727,460.45 747.708,452.584 746.133,444.242C744.582,436.03 740.015,429.779 737.805,431.417C733.351,434.717 736.779,478.026 717.371,481.008C712.943,481.688 726.693,451.438 718.83,455.888C715.279,457.898 713.711,468.081 704.689,481.399C697.934,491.369 680.529,490.807 680.529,490.807C680.529,490.807 695.496,493.103 702.796,487.292C712.336,479.698 712.829,471.689 714.197,472.203C715.731,472.781 708.519,483.056 713.194,485.362C716.849,487.165 728.429,483.19 733.201,475.253C743.321,458.421 738.665,451.846 741.155,446.486C744.009,440.343 740.739,468.667 748.469,465.483C759.033,461.132 767.088,439.823 763.319,425.211C759.451,410.216 749.503,398.17 749.503,398.17Z"/>
                <path d="M634.876,355.754C634.876,355.754 622.35,308.415 595.879,308.429C586.412,308.434 579.128,337.618 568.401,372.896C558.131,406.666 543.882,438.015 543.882,438.015C543.882,438.015 557.24,422.361 570.801,380.968C579.438,354.604 588.922,324.872 595.792,318.648C608.766,306.894 634.876,355.754 634.876,355.754Z"/>
                <path d="M444.842,376.777C438.916,369.629 429.083,366.703 429.083,366.703C429.083,366.703 441.48,377.05 437.943,381.467C410.43,415.822 441.388,488.894 461.019,511.299C461.019,511.299 472.072,507.356 482.026,506.505C490.149,505.811 497.154,508.392 500,506.841C509.927,501.431 503.262,490.646 529.887,484.445C546.538,480.568 552.733,487.775 572.072,495.273C574.634,496.266 577.366,495.625 578.829,495.695C581.719,495.834 582.75,495.869 589.379,496.58C595.703,497.259 605.54,506.328 613.564,506.134C621.555,505.94 629.609,494.941 632.86,489.842C645.23,470.442 639.939,422.106 626.549,398.89C620.063,387.644 612.936,380.814 611.478,376.932C610.278,373.736 612.075,364.082 612.075,364.082C612.075,364.082 597.001,388.428 581.792,414.553C576.954,422.864 571.582,433.917 566.736,441.927C553.829,463.265 541.96,478.563 533.551,480.019C526.853,481.18 521.705,474.984 519.068,464.662C516.083,452.975 515.292,438.015 515.292,438.015C515.292,438.015 512.46,448.084 514.111,460.983C515.045,468.275 521.317,480.101 518.73,481.85C514.356,484.808 495.354,475.522 482.466,451.378C467.333,423.027 450.906,384.092 444.842,376.777ZM633.143,468.824C638.943,418.785 612.476,378.525 608.404,380.672C605.375,382.269 597.973,398.297 589.379,414.687C585.051,422.942 578.549,432.721 572.987,443.339C568.102,452.664 553.644,470.203 546.222,476.109C541.768,479.652 555.734,484.61 565.457,489.642C577.529,495.889 579.555,492.179 589.379,493.735C593.926,494.455 596.711,493.649 605.808,500C609.459,502.549 628.957,504.942 633.143,468.824ZM513.332,486.398C513.223,484.455 500.295,479.074 491.711,470.238C481.111,459.326 473.187,446.613 465.34,430.772C454.852,409.6 448.25,386.708 442.621,382.926C437.914,379.763 428.031,402.761 431.771,426.77C434.443,443.921 436.144,454.295 446.271,477.136C454.623,495.974 460.494,507.421 464.887,508.596C465.889,508.864 473.33,505.392 480.549,504.68C487.767,503.967 494.593,505.615 496.904,504.536C500.936,502.654 504.554,495.803 507.717,492.241C510.782,488.789 513.458,488.63 513.332,486.398Z"/>
                <g transform="matrix(1.01609,0,0,1.00371,-7.10437,-2.14261)">
                    <path d="M478.873,504.47C501.946,501.387 522.835,515.028 525.492,534.912C528.149,554.797 511.574,573.443 488.501,576.526C465.428,579.608 444.539,565.968 441.882,546.084C439.226,526.199 455.801,507.553 478.873,504.47ZM478,509.32C498.105,506.633 516.307,518.52 518.623,535.846C520.938,553.173 506.494,569.421 486.389,572.108C466.284,574.794 448.082,562.908 445.767,545.581C443.452,528.254 457.895,512.006 478,509.32Z"/>
                </g>
                <g transform="matrix(0.765104,0,0,0.755787,114.13,132.007)">
                    <path d="M520.563,525.372C520.563,525.372 504.783,506.012 479.493,509.104C455.282,512.063 443.622,533.902 443.622,533.902C445.895,525.172 455.801,507.553 478.873,504.47C501.946,501.387 520.225,517.083 520.563,525.372Z" style="fill-opacity:0.35;"/>
                </g>
                <g transform="matrix(0.764444,-0.0317879,0.0314008,0.755134,192.26,136.838)">
                    <path d="M520.563,525.372C520.563,525.372 504.783,506.012 479.493,509.104C455.282,512.063 443.622,533.902 443.622,533.902C445.895,525.172 455.801,507.553 478.873,504.47C501.946,501.387 520.225,517.083 520.563,525.372Z" style="fill-opacity:0.35;"/>
                </g>
                <g transform="matrix(1.03165,-0.0554069,0.0509182,0.94807,50.3091,41.0476)">
                    <path d="M478.873,504.47C501.946,501.387 522.835,515.028 525.492,534.912C528.149,554.797 511.574,573.443 488.501,576.526C465.428,579.608 444.539,565.968 441.882,546.084C439.226,526.199 455.801,507.553 478.873,504.47ZM478.236,509.03C498.341,506.344 516.544,518.23 518.859,535.557C521.174,552.884 506.731,569.132 486.625,571.819C466.52,574.505 448.318,562.619 446.003,545.292C443.688,527.965 458.131,511.717 478.236,509.03Z"/>
                </g>
                <g transform="matrix(0.952649,0.304071,-0.121232,0.379819,87.4282,20.7353)">
                    <path d="M667.967,421.581C663.869,421.576 656.123,415.948 655.497,422.667C655.126,426.653 664.338,432.335 668.341,432.335C672.194,432.335 679.423,425.63 679.78,421.793C680.337,415.804 671.664,421.585 667.967,421.581Z"/>
                </g>
                <g transform="matrix(0.435678,0.900102,-0.358869,0.173704,296.307,-150.049)">
                    <path d="M669.4,420.564C663.404,427.395 657.907,427.768 653.659,419.998C645.824,405.666 645.946,379.674 645.946,379.674L640.277,379.795C640.277,379.795 642.898,402.83 645.86,416.78C647.713,425.502 651.223,433.502 653.861,436.909C658.053,442.322 663.437,440.51 664.859,440.162C674.207,437.869 682.892,419.08 682.892,419.08L678.593,405.201C678.593,405.201 674.982,414.204 669.4,420.564Z"/>
                </g>
                <g transform="matrix(0.783114,0.130208,-0.0552264,0.332151,173.539,169.087)">
                    <path d="M667.967,421.581C663.869,421.576 656.123,415.948 655.497,422.667C655.126,426.653 664.338,432.335 668.341,432.335C672.194,432.335 679.423,425.63 679.78,421.793C680.337,415.804 671.664,421.585 667.967,421.581Z"/>
                </g>
                <g transform="matrix(0.399659,0.066451,-0.0552264,0.332151,430.48,221.084)">
                    <path d="M667.967,421.581C663.869,421.576 656.123,415.948 655.497,422.667C655.126,426.653 664.338,432.335 668.341,432.335C672.194,432.335 679.423,425.63 679.78,421.793C680.337,415.804 671.664,421.585 667.967,421.581Z"/>
                </g>
                <g transform="matrix(0.399659,0.066451,-0.0552264,0.332151,199.888,332.154)">
                    <path d="M670.475,415.308C666.377,415.303 652.206,413.312 651.58,420.031C651.209,424.017 664.656,430.775 668.659,430.775C670.442,430.775 679.294,436.694 683.901,435.522C689.247,434.161 689.987,427.117 690.178,425.056C690.736,419.067 674.172,415.312 670.475,415.308Z"/>
                </g>
                <g transform="matrix(0.315959,-0.105717,0.0208799,0.0624044,138.805,543.637)">
                    <path d="M671.562,400.33C667.464,400.326 651.58,420.031 651.58,420.031C651.58,420.031 664.73,426.892 668.659,430.775C674.832,436.875 685.999,454.727 685.999,454.727L701.569,372.699C701.569,372.699 675.259,400.335 671.562,400.33Z"/>
                </g>
                <g transform="matrix(0.26324,-0.204233,-0.0403376,-0.0519919,304.724,736.265)">
                    <path d="M670.475,415.308C666.377,415.303 651.58,420.031 651.58,420.031C651.58,420.031 664.73,426.892 668.659,430.775C674.832,436.875 685.999,454.727 685.999,454.727L696.756,399.329C696.756,399.329 674.172,415.312 670.475,415.308Z"/>
                </g>
                <g transform="matrix(-0.315959,-0.105717,-0.0208799,0.0624044,987.065,468.354)">
                    <path d="M671.714,401.175C664.502,415.398 658.78,479.371 658.78,479.371C658.78,479.371 664.285,450.256 668.289,443.754C674.278,434.029 685.999,454.727 685.999,454.727L700.015,361.564C700.015,361.564 682.511,379.882 671.714,401.175Z"/>
                </g>
                <g transform="matrix(-0.109763,0.314576,-0.0621313,-0.0216791,537.599,388.728)">
                    <path d="M669.952,387.214C665.854,387.209 651.17,420.641 651.17,420.641C651.17,420.641 664.73,426.892 668.659,430.775C674.832,436.875 685.999,454.727 685.999,454.727L696.756,399.329C696.756,399.329 673.649,387.219 669.952,387.214Z"/>
                </g>
                <path d="M678.534,423.166C670.554,425.051 663.558,429.279 657.64,435.167C649.93,442.837 637.395,464.162 637.395,464.162L636.813,479.081C639.008,472.728 653.082,444.295 663.947,437.209C670.611,432.863 674.882,430.949 682.825,430.501C687.297,430.249 693.566,434.582 693.62,439.06C693.778,452.145 689.522,455.545 681.975,472.164C676.222,484.835 674.009,489.035 669.898,507.607C667.216,519.724 666.111,540.101 661.505,555.416C656.777,571.133 648.472,581.741 639.755,590.154C625.64,603.775 565.14,602.856 556.099,603.917C527.79,607.239 499.977,614.501 471.568,616.806C466.166,617.245 451.174,614.462 456.023,612.039C487.942,596.083 549.499,596.92 574.787,594.591C605.47,591.765 624.781,601.027 647.54,566.154C657.746,550.514 660.487,525.975 662.41,506.312C663.79,492.2 665.45,478.546 668.856,470.465C675.319,455.13 676.981,455.334 685.698,441.194C689.193,435.524 673.455,450.179 669.9,455.811C664.582,464.235 661.485,478.462 659.276,488.176C658.165,493.061 657.04,511.444 656.029,519.721C653.817,537.84 651.328,549.431 644.919,560.801C627.916,590.967 606.433,587.37 574.734,589.355C548.111,591.021 507.257,592.352 481.034,598.529C465.079,602.287 463.947,605.568 447.215,609.786C443.263,610.782 436.086,604.583 437.681,600.832C440.68,593.781 448.872,589.624 456.099,587.079C472.542,581.288 493.808,577.034 511.092,574.763C525.95,572.81 538.685,570.797 555.852,570.467C565.055,570.29 575.871,570.614 584.076,571.446C589.822,572.029 592.79,571.923 599.033,572.138C606.064,572.381 586.211,566.367 562.741,565.633C547.925,565.169 534.009,565.795 520.629,567.2C513.588,567.939 464.88,576.521 448.419,583.827C435.473,589.572 419.631,602.654 439.037,614.689C444.341,617.979 447.774,616.92 451.392,618.093C454.936,619.242 454.787,622.718 461.551,623.261C481.686,624.877 505.841,616.703 527.63,613.303C552.038,609.495 559.102,609.728 583.581,609.137C604.981,608.621 632.827,604.075 642.882,595.483C661.664,579.432 668.577,557.554 671.973,532.262C673.986,517.275 677.351,502.537 680.654,490.835C685.22,474.656 694.442,462.629 700.111,446.802C708.98,422.036 675.597,412.609 666.723,413.824C662.273,414.433 684.501,421.756 678.534,423.166Z"/>
                <path d="M360.963,515.034C363.627,500.331 373.947,485.217 373.947,485.217C373.947,485.217 362.317,497.356 359.532,504.005C357.181,509.618 355.639,515.66 355.145,521.725C354.689,527.33 356.434,551.754 362.943,555.516C368.205,558.557 375.325,541.254 377.253,547.069C379.41,553.577 381.224,557.939 382.823,562.07C386.079,570.48 393.03,577.918 401.553,579.236C405.771,579.888 404.866,568.158 409.631,572.045C428.699,587.599 440.178,584.441 440.178,584.441C440.178,584.441 427.726,579.847 417.111,570.405C407.983,562.285 400.125,552.736 395.768,551.666C391.628,550.65 410.619,568.523 399.915,571.964C396.359,573.107 392.761,570.696 389.809,566.012C382.715,554.753 377.663,532.479 373.662,530.186C369.889,528.023 371.726,554.476 364.976,549.3C357.407,543.497 359.263,524.419 360.963,515.034Z"/>
                <g transform="matrix(1,0,0,1,0.831944,0.970601)">
                    <path d="M542.693,545.569C535.072,543.512 527.831,543.299 522.643,546.944L521.156,553.042C526.428,547.59 533.783,545.447 545.444,551.356L542.693,545.569Z"/>
                </g>
                <g transform="matrix(0.857516,0,0,0.857516,75.0885,71.8636)">
                    <path d="M540.044,544.823C532.407,542.437 527.878,543.328 522.643,546.944L521.156,553.042C527.16,547.717 533.249,545.352 543.954,550.942L540.044,544.823Z"/>
                </g>
                <path d="M424.24,470.825C421.753,464.784 419.647,458.326 417.976,451.39C413.962,455.415 407.896,456.926 402.893,456.29C396.23,455.441 390.783,451.377 386.668,451.398C383.662,451.414 386.238,456.07 390.16,459.414C393.175,461.985 397.497,462.986 397.573,465.361C397.687,468.935 390.34,469.255 385.639,471.034C379.139,473.494 371.467,475.301 367.094,478.429C356.86,485.75 353.476,501.233 353.476,501.233C350.726,487.614 357.521,471.621 383.29,465.174C389.993,463.498 383.228,462.263 380.655,456.246C378.399,450.968 378.845,440.699 382.274,441.52C387.488,442.768 393.55,447.911 400.223,449.593C405.325,450.879 410.745,449.869 416.726,445.71C413.449,429.283 412.505,410.266 414.521,387.942C369.633,378.942 344.239,300.313 379.57,297.693C405.23,295.79 416.934,300.962 439.148,298.109C435.51,268.975 393.939,217.553 361.162,186.666L360.986,186.92L352.413,178.85L352.471,178.779L352.413,178.729L352.525,178.712C423.78,91.022 555.652,53.232 671.515,115.885L671.455,115.994L671.515,116.013C656.878,144.192 645.887,176.22 638.833,212.4C643.613,212.403 648.478,212.888 653.467,213.925C701.53,223.908 729.752,304.168 684.981,356.689C690.653,355.296 696.635,352.306 701.941,348.039C714.357,338.055 723.227,323.03 725.406,323.172C729.969,323.471 720.271,342.531 721.727,351.657C722.16,354.372 740.827,349.488 750.644,349.279C765.215,348.967 771.777,355.579 772.106,359.014C773.017,368.536 748.618,363.922 750.222,367.454C755.214,378.441 789.028,387.371 768.764,428.979C772.159,417.709 775.206,407.249 768.971,396.078C760.743,381.337 742.394,370.147 742.13,365.057C741.819,359.062 759.471,365.41 763.221,358.349C765.021,354.959 758.477,349.295 741.55,352.648C732.681,354.405 716.856,360.709 714.717,357.126C712.417,353.275 723.903,332.204 722.915,329.509C722.664,328.823 716.116,340.826 707.445,349.394C699.936,356.814 684.518,367.631 670.746,365.49C660.787,364.524 646.344,356.477 648.087,354.002C649.588,351.871 669.298,364.262 664.713,355.981C661.062,349.387 641.133,332.127 627.352,317.276C622.704,312.268 622.599,310.289 620.455,304.536C619.556,302.126 604.549,305.8 597.002,305.063C574.506,302.866 559.735,305.729 545.562,306.943C534.26,307.91 521.939,312.841 511.964,312.343C502.789,311.886 491.96,303.278 485.711,303.958C474.046,305.227 502.719,317.708 500,321.244C496.904,325.272 490.426,325.155 484.098,329.677C478.6,333.607 468.492,339.392 472.094,347.382C474.162,351.967 490.156,332.731 492.793,336.88C494.031,338.827 487.38,349.5 486.008,356.897C484.464,365.214 485.72,371.297 486.918,372.776C490.319,376.975 502.552,357.706 510.373,342.463C509.59,352.157 491.653,388.223 484.966,381.111C473.383,368.791 485.88,353.215 483.006,350.368C480.681,348.065 470.227,356.296 467.538,354.927C464.849,353.558 468.648,342.933 466.872,342.154C465.097,341.376 456.167,346.96 457.466,350.342C462.531,363.531 474.47,389.707 475.319,402.639C475.319,402.639 469.039,391.975 459.496,369.914C451.216,350.773 440.072,328.997 432.308,331.583C421.348,335.233 424.594,352.95 422.744,370.238C420.134,394.635 419.096,421.188 421.964,442.059C427.804,484.551 454.157,508.714 459.597,512.486L455.334,515.362C447.052,507.493 438.715,497.236 432.476,487.17C430.207,488.865 428.45,490.288 426.789,491.058C423.619,492.526 416.269,497.529 415.665,495.456C414.648,491.961 420.551,489.855 423.517,487.855C426.667,485.73 428.086,484.566 429.807,482.549C428.824,480.734 427.878,478.878 426.973,476.979C424.811,478.849 421.3,479.544 419.53,480.364C416.36,481.833 405.832,483.153 406.294,481.044C406.963,477.994 414.15,476.945 417.411,475.476C420.98,473.868 422.923,472.592 424.24,470.825ZM371.354,308.359C386.249,301.974 402.286,306.823 417.623,307.267C434.158,307.746 451.459,307.274 466.855,300.405C478.271,295.312 490.652,288.103 501.661,282.181C512.7,276.244 523.796,269.535 534.671,263.301C561.25,248.063 586.658,232.52 617.334,226.653C636.016,223.08 654.723,223.052 671.053,233.691C679.669,239.305 687.734,248.135 693.983,255.7C692.341,251.275 689.7,247.205 686.724,243.542C656.815,206.72 606.288,220.836 569.628,237.546C559.943,241.961 550.67,247.24 541.393,252.459C524.718,261.84 511.617,270.822 495.117,280.507C483.113,287.553 475.534,291.924 462.592,297.246C447.914,303.283 431.661,303.189 416.112,302.923C401.701,302.676 383.984,298.023 371.354,308.359ZM528.135,223.407C515.622,225.201 492.224,234.666 482.235,241.294L496.189,272.78C515.567,261.465 524,256.555 535.628,250.423L528.135,223.407ZM610.791,212.345C553.627,205.617 494.948,210.686 429.681,267.051L431.81,270.723C480.48,225.618 541.323,208.919 610.791,212.345ZM490.552,98.981C469.387,101.528 433.347,117.394 420.973,128.202L476.631,228.392C491.928,220.175 507.898,214.317 524.674,211.277L490.552,98.981Z"/>
            </g>
            <g transform="matrix(68.4775,-14.7361,24.3935,113.354,317.712,766.593)">
                <path d="M0.036,-0.233L0.177,-0.247C0.185,-0.199 0.202,-0.165 0.228,-0.143C0.254,-0.12 0.289,-0.109 0.333,-0.109C0.38,-0.109 0.415,-0.119 0.438,-0.139C0.462,-0.159 0.474,-0.182 0.474,-0.208C0.474,-0.225 0.469,-0.239 0.459,-0.251C0.449,-0.263 0.431,-0.273 0.407,-0.282C0.39,-0.288 0.351,-0.299 0.291,-0.313C0.214,-0.333 0.159,-0.356 0.128,-0.384C0.084,-0.424 0.062,-0.472 0.062,-0.528C0.062,-0.565 0.072,-0.599 0.093,-0.631C0.114,-0.662 0.143,-0.687 0.182,-0.703C0.221,-0.72 0.268,-0.728 0.323,-0.728C0.413,-0.728 0.481,-0.708 0.526,-0.669C0.572,-0.63 0.595,-0.577 0.598,-0.511L0.453,-0.505C0.447,-0.542 0.434,-0.568 0.413,-0.584C0.393,-0.6 0.362,-0.608 0.322,-0.608C0.28,-0.608 0.247,-0.6 0.223,-0.583C0.208,-0.571 0.2,-0.557 0.2,-0.538C0.2,-0.521 0.207,-0.507 0.222,-0.495C0.24,-0.479 0.284,-0.463 0.354,-0.447C0.425,-0.43 0.477,-0.413 0.51,-0.395C0.544,-0.378 0.571,-0.353 0.59,-0.323C0.609,-0.292 0.618,-0.254 0.618,-0.208C0.618,-0.167 0.607,-0.129 0.584,-0.093C0.561,-0.057 0.529,-0.031 0.487,-0.013C0.446,0.004 0.394,0.013 0.332,0.013C0.241,0.013 0.172,-0.008 0.123,-0.05C0.075,-0.092 0.046,-0.153 0.036,-0.233Z" style="fill-rule:nonzero;"/>
            </g>
            <g transform="matrix(76.1116,-13.4048,21.2662,120.748,525.785,746.66)">
                <path d="M0.036,-0.233L0.177,-0.247C0.185,-0.199 0.202,-0.165 0.228,-0.143C0.254,-0.12 0.289,-0.109 0.333,-0.109C0.38,-0.109 0.415,-0.119 0.438,-0.139C0.462,-0.159 0.474,-0.182 0.474,-0.208C0.474,-0.225 0.469,-0.239 0.459,-0.251C0.449,-0.263 0.431,-0.273 0.407,-0.282C0.39,-0.288 0.351,-0.299 0.291,-0.313C0.214,-0.333 0.159,-0.356 0.128,-0.384C0.084,-0.424 0.062,-0.472 0.062,-0.528C0.062,-0.565 0.072,-0.599 0.093,-0.631C0.114,-0.662 0.143,-0.687 0.182,-0.703C0.221,-0.72 0.268,-0.728 0.323,-0.728C0.413,-0.728 0.481,-0.708 0.526,-0.669C0.572,-0.63 0.595,-0.577 0.598,-0.511L0.453,-0.505C0.447,-0.542 0.434,-0.568 0.413,-0.584C0.393,-0.6 0.362,-0.608 0.322,-0.608C0.28,-0.608 0.247,-0.6 0.223,-0.583C0.208,-0.571 0.2,-0.557 0.2,-0.538C0.2,-0.521 0.207,-0.507 0.222,-0.495C0.24,-0.479 0.284,-0.463 0.354,-0.447C0.425,-0.43 0.477,-0.413 0.51,-0.395C0.544,-0.378 0.571,-0.353 0.59,-0.323C0.609,-0.292 0.618,-0.254 0.618,-0.208C0.618,-0.167 0.607,-0.129 0.584,-0.093C0.561,-0.057 0.529,-0.031 0.487,-0.013C0.446,0.004 0.394,0.013 0.332,0.013C0.241,0.013 0.172,-0.008 0.123,-0.05C0.075,-0.092 0.046,-0.153 0.036,-0.233Z" style="fill-rule:nonzero;"/>
            </g>
            <g transform="matrix(0.324356,-0.0813615,0.255871,1.02006,264.596,-9.40945)">
                <rect x="301.764" y="668.954" width="12.345" height="96.911"/>
            </g>
            <g transform="matrix(0.324356,-0.0813615,0.255871,1.02006,257.228,-7.24227)">
                <rect x="301.764" y="668.954" width="12.345" height="96.911"/>
            </g>
            <g transform="matrix(0.288934,-0.085009,0.292054,0.992651,36.1662,31.8618)">
                <rect x="301.764" y="668.954" width="12.345" height="96.911"/>
            </g>
            <g transform="matrix(0.288934,-0.085009,0.292054,0.992651,29.6647,33.5955)">
                <rect x="301.764" y="668.954" width="12.345" height="96.911"/>
            </g>
        </g>
    </g>
</svg>
