<svg width="137" height="119" viewBox="0 0 137 119" fill="none" xmlns="http://www.w3.org/2000/svg">
<path fill-rule="evenodd" clip-rule="evenodd" d="M80.168 46.8243C80.0771 45.5881 80.7381 44.7156 81.8506 44.0643L88.7074 45.5561C90.4304 45.6102 91.9137 45.9567 92.2543 47.5321C92.2543 47.5321 95.8265 45.738 99.4491 46.3254C103.074 46.9128 106.916 49.4098 108.223 52.155C109.532 54.9002 110.198 58.4344 106.664 62.3052C102.343 67.0363 96.2755 66.0311 93.3769 64.4631C93.3769 64.4631 94.8073 62.1479 96.2452 60.8331C97.4688 59.7173 98.6847 58.8424 98.44 58.2476C98.1246 57.4808 94.3053 55.5761 92.3426 55.527C90.3799 55.4778 89.7846 56.6599 89.7846 56.6599C89.7846 56.6599 89.0883 55.2959 88.1826 54.8044C87.277 54.3153 86.1039 54.5955 86.1039 54.5955C86.1039 54.5955 86.3966 52.8874 85.2386 52.0518C84.0807 51.2186 82.731 51.344 82.731 51.344C82.731 51.344 82.6705 49.0411 82.3198 48.1097C81.9667 47.1782 80.168 46.8243 80.168 46.8243Z" fill="black"/>
<path fill-rule="evenodd" clip-rule="evenodd" d="M89.7404 55.7722C89.7404 55.7722 89.5588 55.0079 89.0366 54.536C88.5144 54.0666 87.8257 54.0519 87.8257 54.0519C87.8257 54.0519 89.0063 48.5098 94.3872 47.2097C99.2006 46.0472 103.512 47.5463 106.37 50.6455C109.758 54.3173 109.256 59.5128 105.588 62.6562C101.486 66.1682 96.8746 65.7037 94.2989 64.2783L95.5805 62.6095C95.5805 62.6095 99.2712 63.482 100.273 61.4396C100.671 60.6261 100.207 59.1589 99.2006 58.0284C97.6592 56.2957 95.7167 55.4208 93.7061 54.9882C91.6451 54.5434 89.7404 55.7722 89.7404 55.7722Z" fill="#571008"/>
<path fill-rule="evenodd" clip-rule="evenodd" d="M80.8601 45.7269C80.3152 47.3982 82.4015 46.4052 82.8329 47.8528C83.1205 48.8162 83.07 50.979 83.07 50.979C83.07 50.979 84.3516 51.0601 85.4666 51.7138C86.564 52.3553 86.4505 54.233 87.2048 54.1642C87.8405 54.1027 87.7295 52.0727 89.1372 50.2982C90.0756 49.1112 91.8844 47.7717 91.8844 47.7717C91.3244 46.683 90.56 46.1963 89.45 46.1251C89.45 46.1251 87.3032 46.3757 85.7391 46.2258C84.0589 46.0636 81.0922 45.0117 80.8601 45.7269Z" fill="#571008"/>
<path fill-rule="evenodd" clip-rule="evenodd" d="M98.7144 46.8434C98.7144 46.8434 102.314 46.8704 105.072 48.9324C107.516 50.761 109.052 55.0766 109.052 55.0766C109.052 55.0766 120.271 42.5621 121.744 40.9622C123.177 39.4065 124.648 36.0812 126.174 35.0195C127.698 33.9602 133.331 31.1831 135.001 28.2117C136.671 25.2404 136.931 22.9818 136.129 19.5238C135.821 18.1918 133.008 11.5536 124.963 7.6139C118.084 4.24687 114.105 4.71874 112.001 7.17642C109.524 10.0691 108.984 13.1265 108.984 13.1265L98.7144 46.8434Z" fill="black"/>
<path fill-rule="evenodd" clip-rule="evenodd" d="M110.747 39.3531C110.747 39.3531 107.969 39.0828 106.112 39.7168C104.437 40.2919 99.2759 46.2666 99.2759 46.2666C99.2759 46.2666 102.041 46.5689 104.622 48.2106C107.311 49.9187 109.329 54.0402 109.329 54.0402C109.329 54.0402 113.711 49.1912 117.679 44.5929C119.339 42.671 120.805 41.4471 121.92 40.0708C123.244 38.4364 124.104 36.7554 124.692 35.8681C126.08 33.7717 127.248 31.5942 127.248 31.5942C126.897 32.8747 126.811 33.6734 127.086 33.8061C127.086 33.8061 132.462 31.4836 134.564 27.9249C136.42 24.7791 136.193 20.9967 135.247 18.829C133.499 14.8205 130.391 11.4633 126.226 9.01303C122.407 6.76671 119.006 5.49607 116.279 5.86227C113.898 6.18177 112.881 6.77407 112.079 8.07664C111.143 9.59057 110.023 11.3749 110.023 11.3749L110.825 22.2624L116.953 21.0999C124.17 19.7261 126.731 23.0562 127.47 24.5431C125.426 22.5917 124.205 22.0879 121.857 21.5128C120.381 21.1515 117.803 21.4858 117.275 22.0437C116.829 22.5205 116.965 23.4912 117.561 23.3536C121.811 22.373 123.408 26.3028 123.408 26.3028C123.408 26.3028 119.76 22.7711 117.709 24.2826C117.056 24.7619 117.094 25.128 116.403 25.8359C115.699 26.5535 114.879 27.1925 114.919 27.5906C115 28.382 115.469 28.1952 115.469 28.1952C115.469 28.1952 111.604 31.7294 112.132 32.5601C112.659 33.3932 115.933 33.2777 115.933 33.2777C115.933 33.2777 111.534 33.2802 110.282 35.035C109.167 36.6005 117.407 36.5833 117.407 36.5833C117.407 36.5833 108.872 36.5882 107.553 37.9793C106.736 38.8419 110.747 39.3531 110.747 39.3531Z" fill="#D95446"/>
<path fill-rule="evenodd" clip-rule="evenodd" d="M90.438 45.7676C90.438 45.7676 92.7664 44.9836 93.7427 44.5068C94.7266 44.0275 96.1141 43.042 96.1141 43.042C97.0147 43.5851 97.4764 44.6763 97.5621 46.2345C97.5621 46.2345 95.9097 46.3722 94.9335 46.64C93.7654 46.9571 92.272 47.542 92.272 47.542C91.9264 46.6401 91.2932 46.0748 90.438 45.7676Z" fill="#D95446"/>
<path fill-rule="evenodd" clip-rule="evenodd" d="M82.9611 39.2689C82.9611 39.2689 77.7517 34.0586 76.3315 31.6156C75.0928 29.4873 73.1024 25.2428 73.7028 18.1156C74.3461 10.4968 75.4762 5.69445 76.9671 5.6797C79.4722 5.65758 79.1745 11.2783 80.2921 10.6885C81.4071 10.1011 81.7704 3.52431 81.7704 3.52431C82.285 4.5467 82.7114 5.74115 82.8602 7.43695C83.5237 6.13929 84.3158 4.98173 85.4258 4.15841C85.2871 4.6819 85.393 5.05544 85.7033 5.30121C85.7033 5.30121 87.6054 1.82607 89.278 2.09887C90.9531 2.36922 92.3053 4.80232 92.3053 4.80232C93.7558 3.49729 94.5328 1.82114 95.0474 0C95.3905 1.27799 95.4485 2.59039 94.8153 3.98635C97.7922 2.30776 100.555 2.33725 103.044 4.5762C101.372 4.30094 99.7725 4.55407 98.2614 5.42409C102.31 6.67751 105.262 8.99512 106.67 12.8193C107.769 10.1478 108.186 7.46645 105.295 4.71631C109.303 4.70402 110.194 7.08795 110.544 10.2584C110.779 8.91893 110.928 9.45717 111.324 8.39299C111.195 10.6172 111.258 11.5634 111.412 12.9544C112.045 12.7234 112.828 11.6371 113.34 10.8113C113.637 12.4285 113.269 14.348 112.714 15.4908C113.277 15.7095 114.288 15.5498 114.808 15.2942C114.407 16.7221 113.231 18.0296 112.343 19.0225C113.259 18.9905 114.046 18.6759 114.76 18.209C114.286 19.2584 113.658 20.153 112.901 20.9247C114.129 20.588 115.338 20.0301 116.526 19.2953C115.623 20.8878 114.374 22.215 112.901 23.3726C114.586 22.8589 116.147 22.0036 117.548 20.6986C117.03 23.0653 116.067 24.7513 114.248 25.1372C114.621 25.4542 115.141 25.7 115.923 25.818C114.911 27.3589 113.594 28.0888 112.018 28.1282C112.04 28.7254 112.371 29.2169 113.085 29.5757C111.927 29.9837 110.817 29.8633 109.74 29.4406C109.697 30.2 110.153 30.866 111.412 31.3871C108.039 32.2448 105.956 30.7776 103.973 29.1235L91.9798 36.8677L82.9611 39.2689Z" fill="black"/>
<path fill-rule="evenodd" clip-rule="evenodd" d="M83.1567 38.8049C83.1567 38.8049 78.3232 34.1574 76.9029 31.7145C75.6643 29.5862 73.689 25.2754 74.2894 18.1456C74.9301 10.5293 75.7399 6.81328 77.2309 6.73955C79.2591 6.64124 78.7773 11.5492 80.2505 11.4239C81.5144 11.3157 81.9282 5.03144 81.9282 5.03144C82.4428 6.05384 82.3696 7.43015 82.521 9.12595C83.1819 7.83075 84.0649 5.93589 85.1749 5.11256C85.0387 5.63605 85.5382 5.85476 85.8485 6.10053C85.8485 6.10053 87.6043 2.72613 89.2793 2.99893C90.9519 3.26928 92.2637 5.45908 92.2637 5.45908C93.7143 4.15405 94.4055 3.25699 94.9201 1.43585C95.0841 2.56639 94.4534 3.86898 93.8202 5.26494C96.797 3.58634 99.9958 2.31325 102.206 4.32855C100.531 4.05329 98.7168 4.83483 97.2057 5.7073C101.255 6.95581 105.468 10.1508 106.875 13.9749C107.978 11.3059 109.471 8.27066 106.58 5.52052C109.39 5.4173 110.099 9.57817 110.261 13.3778C110.632 12.0752 110.571 11.3501 110.967 10.286C111 12.3775 110.975 12.3996 111.129 13.7906C111.764 13.5571 112.511 12.7215 113.023 11.8982C113.321 13.5154 112.44 14.6508 111.883 15.7912C112.445 16.0124 113.344 16.1893 113.866 15.9337C113.465 17.3641 112.12 18.4996 111.232 19.4925C112.148 19.4605 112.521 19.9963 113.235 19.5268C112.763 20.5763 111.557 21.3111 111.573 21.8592C112.801 21.5201 113.366 21.611 114.554 20.8786C113.651 22.4711 112.723 22.7096 111.547 24.0367C113.021 23.8843 114.423 23.7049 116.035 22.658C114.88 24.3513 114.981 24.7519 113.162 25.1378C113.538 25.4548 113.871 26.1626 114.65 26.2806C113.641 27.824 112.932 27.7281 111.353 27.7675C111.378 28.3647 111.285 28.8562 112.001 29.2175C110.841 29.623 110.314 29.1438 109.234 28.7186C109.194 29.478 108.644 30.5569 109.903 31.0804C106.85 31.7292 105.717 29.5665 103.734 27.9125L91.9786 36.8683L83.1567 38.8049Z" fill="#CCCCCC"/>
<path fill-rule="evenodd" clip-rule="evenodd" d="M90.5432 36.4086L83.1567 38.8049C83.1567 38.8049 78.3232 34.1574 76.9029 31.7145C75.6643 29.5861 73.689 25.2753 74.2894 18.1456C74.9301 10.5292 75.7399 6.81323 77.2309 6.7395C79.2591 6.64119 78.7773 11.5492 80.2506 11.4238C81.5144 11.3157 81.9282 5.03139 81.9282 5.03139C82.4428 6.05379 82.3696 7.4301 82.521 9.1259C83.1819 7.8307 84.0649 5.93584 85.1749 5.11251C85.1144 5.34353 85.9443 6.20371 85.9443 6.20371C87.2688 -0.341097 91.7264 2.44836 93.7294 9.26597C91.3455 4.11467 90.1396 4.80282 89.3374 6.74931C84.8924 17.541 85.4373 29.3919 90.5432 36.4086Z" fill="#939393"/>
<path fill-rule="evenodd" clip-rule="evenodd" d="M102.157 15.9239C106.07 15.9263 106.372 13.5841 106.665 12.8911C106.665 12.8911 107.828 10.6104 107.926 10.6079C107.926 10.6079 107.311 13.8373 106.319 14.8228C104.601 16.5334 102.157 15.9239 102.157 15.9239Z" fill="black"/>
<path fill-rule="evenodd" clip-rule="evenodd" d="M83.7976 13.3087C83.7976 13.3087 84.6679 2.66198 88.5882 1.93205C91.8097 1.33238 93.7371 9.27315 93.7371 9.27315C89.393 -1.5554 86.3127 2.40639 83.7976 13.3087Z" fill="black"/>
<path fill-rule="evenodd" clip-rule="evenodd" d="M82.4965 36.4649C82.4965 36.4649 75.7584 31.6208 75.3901 24.5353C75.0192 17.4523 76.3159 13.1145 77.7513 13.0408C79.1615 12.9695 81.3865 19.1899 82.5016 23.8939C83.7125 29.0009 85.8871 35.2262 85.8871 35.2262L82.4965 36.4649Z" fill="black"/>
<path fill-rule="evenodd" clip-rule="evenodd" d="M82.7587 35.9737C82.7587 35.9737 76.2451 31.7023 75.8768 24.6192C75.506 17.5337 76.3536 14.0438 77.789 13.9701C79.1992 13.8988 80.8011 19.8636 82.1811 24.4988C83.6997 29.6059 85.4757 35.1455 85.4757 35.1455L82.7587 35.9737Z" fill="#FFDA53"/>
<path fill-rule="evenodd" clip-rule="evenodd" d="M81.0913 29.4047C82.0524 28.9056 83.1645 29.8745 83.1645 29.8745L85.7259 34.4983L83.5943 35.967L82.4849 35.3815C82.4849 35.3815 81.5974 34.2266 80.8496 32.5249C80.256 31.1687 80.2928 29.8203 81.0913 29.4047Z" fill="black"/>
<path d="M83.0521 32.0693C83.355 32.0693 83.6005 31.8753 83.6005 31.636C83.6005 31.3967 83.355 31.2027 83.0521 31.2027C82.7492 31.2027 82.5037 31.3967 82.5037 31.636C82.5037 31.8753 82.7492 32.0693 83.0521 32.0693Z" fill="#FFDA53"/>
<path fill-rule="evenodd" clip-rule="evenodd" d="M88.7623 33.9133C88.7623 33.9133 85.0968 27.6732 85.0917 21.9198C85.0842 16.5473 85.291 9.59205 87.7557 9.34628C90.6922 9.05381 94.118 13.3474 95.8284 21.8043C97.4202 29.686 96.9535 34.6162 96.9535 34.6162C96.9535 34.6162 94.7916 35.877 93.0257 35.582C90.6291 35.1814 88.7623 33.9133 88.7623 33.9133Z" fill="black"/>
<path fill-rule="evenodd" clip-rule="evenodd" d="M89.0767 33.5874C89.0767 33.5874 85.6231 27.8413 85.6155 22.0879C85.6104 16.7154 85.338 10.8391 87.8027 10.5957C90.7417 10.3033 93.4637 14.2061 95.1791 22.0191C96.6726 28.8219 96.5136 34.187 96.5136 34.187C96.5136 34.187 94.8183 35.4872 93.0524 35.1923C90.6559 34.7917 89.0767 33.5874 89.0767 33.5874Z" fill="#FFDA53"/>
<path fill-rule="evenodd" clip-rule="evenodd" d="M88.1536 28.2354C88.763 27.7918 90.075 28.9238 90.8417 30.6337C91.6609 32.4585 91.5832 34.0978 91.5832 34.0978L89.9461 33.7204L88.1947 31.4557C88.1947 31.4557 87.2029 28.9316 88.1536 28.2354Z" fill="black"/>
<path d="M91.4357 31.6266C91.8382 31.6266 92.1646 31.4094 92.1646 31.1415C92.1646 30.8736 91.8382 30.6564 91.4357 30.6564C91.0331 30.6564 90.7068 30.8736 90.7068 31.1415C90.7068 31.4094 91.0331 31.6266 91.4357 31.6266Z" fill="#FFDA53"/>
<path fill-rule="evenodd" clip-rule="evenodd" d="M73.7514 34.0122C75.6336 32.8249 77.4169 33.0877 79.1202 34.8582C81.468 37.2953 80.113 40.1608 78.6325 41.3042C77.154 42.4461 74.6973 41.8282 73.1521 39.928C71.605 38.0254 71.7931 35.2507 73.7514 34.0122Z" fill="black"/>
<path d="M78.3099 41.002C79.6106 39.9971 79.5624 37.8256 78.2022 36.1519C76.8421 34.4782 74.6851 33.936 73.3844 34.9409C72.0837 35.9458 72.1319 38.1172 73.4921 39.7909C74.8522 41.4647 77.0092 42.0069 78.3099 41.002Z" fill="#CFF1FF"/>
<path fill-rule="evenodd" clip-rule="evenodd" d="M81.8632 35.8158C81.8632 35.8158 81.4571 36.7547 79.8602 37.9245C78.2608 39.0919 78.2331 39.7137 76.8607 39.9939C75.4909 40.2716 70.236 38.7577 69.5347 40.8664C69.0378 42.3656 69.893 44.4669 71.4369 45.1894C72.9782 45.912 76.283 46.1037 78.281 45.7129C80.279 45.3246 80.5085 44.7692 80.5085 44.7692C80.5085 44.7692 84.5625 46.9368 89.0176 46.1037C93.4727 45.2681 96.0989 43.0439 96.0989 43.0439C97.2316 43.8598 97.499 45.096 97.5116 46.4551L99.2018 46.4846C99.2018 46.4846 99.3078 45.3148 99.6282 44.9904C101.114 43.4887 108.14 37.2757 108.14 37.2757C108.14 37.2757 105.531 33.7268 105.577 30.5662C105.622 27.4056 106.318 22.2863 105.451 20.7724C104.583 19.2584 102.459 17.1473 100.678 17.4152C98.8941 17.683 98.4324 19.2584 98.7528 21.5711C99.0732 23.8862 99.9914 27.789 99.4894 29.7478C98.9874 31.7041 97.7689 33.9111 95.5565 34.7517C92.5722 35.8822 89.2119 33.9529 89.2119 33.9529L84.3304 34.2724L81.8632 35.8158Z" fill="black"/>
<path fill-rule="evenodd" clip-rule="evenodd" d="M82.2382 36.1007C82.2382 36.1007 81.8018 37.0125 80.2049 38.1799C78.6055 39.3473 78.5475 40.1141 77.1777 40.3918C75.8053 40.6696 70.6186 39.399 69.998 41.1513C69.5616 42.3777 70.7649 44.3807 71.7816 44.8181C73.3456 45.494 76.0727 45.7324 78.0707 45.3441C80.0687 44.9533 80.4925 44.2676 80.4925 44.2676C80.4925 44.2676 84.4405 46.482 88.8956 45.6464C93.3482 44.8132 96.1232 42.444 96.1232 42.444C97.2534 43.26 98.0178 44.6117 98.0329 45.9708L98.7872 46.0298C98.7872 46.0298 99.0092 44.9165 99.3296 44.592C100.818 43.0904 107.491 37.1059 107.491 37.1059C107.491 37.1059 105.028 33.7536 105.074 30.5931C105.119 27.4349 106.022 22.5417 105.152 21.0278C104.284 19.5138 102.248 17.7173 100.904 17.8991C99.1177 18.14 98.9234 19.3418 99.2438 21.6569C99.5642 23.9721 100.424 28.0444 99.9224 30.0032C99.4204 31.962 97.9673 34.3951 95.7549 35.2356C92.7705 36.3662 89.1176 34.2943 89.1176 34.2943L84.4431 34.6703L82.2382 36.1007Z" fill="#A84F46"/>
<path fill-rule="evenodd" clip-rule="evenodd" d="M100.955 20.1435C101.446 19.8707 103.048 23.2402 103.422 24.8598C103.666 25.9166 103.843 29.0108 103.979 30.9352C104.128 33.0439 106.401 38.5982 106.401 38.5982L105.717 39.1217C105.412 39.1512 103.987 32.341 103.548 32.3557C103.081 32.3729 103.258 34.226 101.224 37.3251C99.4308 40.0556 98.5226 40.4022 98.394 41.3115C98.3309 41.7539 98.5756 42.9876 98.896 43.838C99.1584 44.5335 99.4989 44.9071 99.4989 44.9071L98.8128 46.0671C98.8128 46.0671 98.3032 41.658 97.2234 42.1545C96.174 42.6411 96.7921 42.9778 96.8526 43.0958L95.5408 42.8943C95.5408 42.8943 96.9535 41.7613 98.568 40.1023C99.7234 38.9153 100.511 37.8757 101.232 36.5829C102.347 34.5848 103.043 31.9305 103.154 28.8338C103.361 23.1664 100.465 20.4187 100.955 20.1435Z" fill="black"/>
<path fill-rule="evenodd" clip-rule="evenodd" d="M85.7776 42.6333C85.7599 42.7734 83.3457 42.449 81.2115 41.8985C79.3749 41.4241 77.4829 40.7851 76.2468 40.5148C75.5656 40.3649 75.3235 40.3821 74.6423 40.2764L78.5904 39.5981C78.2372 40.1191 77.4602 40.2223 77.9294 40.4091C78.7064 40.7163 79.988 41.1735 81.3351 41.5618C83.3911 42.1516 85.7952 42.4687 85.7776 42.6333Z" fill="black"/>
<path fill-rule="evenodd" clip-rule="evenodd" d="M72.6651 42.8128C72.6953 42.3901 75.2634 42.3533 76.8099 42.862C79.6202 43.7885 80.5258 44.2826 80.5258 44.2826L80.4779 44.7544C80.4779 44.7544 77.7963 43.6804 76.4214 43.238C74.3704 42.5745 72.6398 43.1323 72.6651 42.8128Z" fill="black"/>
<path fill-rule="evenodd" clip-rule="evenodd" d="M84.396 34.2044C86.2781 33.0171 88.0614 33.2799 89.7648 35.0504C92.1126 37.4875 90.7575 40.353 89.2771 41.4964C87.7985 42.6384 85.3418 42.0204 83.7966 40.1202C82.2495 38.2176 82.4376 35.443 84.396 34.2044Z" fill="black"/>
<path d="M88.9544 41.1943C90.2551 40.1894 90.2069 38.0179 88.8468 36.3442C87.4866 34.6704 85.3296 34.1282 84.0289 35.1331C82.7282 36.138 82.7764 38.3094 84.1366 39.9832C85.4967 41.6569 87.6538 42.1991 88.9544 41.1943Z" fill="#CFF1FF"/>
<path fill-rule="evenodd" clip-rule="evenodd" d="M79.386 38.8613C80.0444 38.0995 82.5772 38.5492 83.7654 40.0607L82.9834 38.0749L82.9052 37.5022C82.0096 36.7109 81.0712 36.6273 80.105 36.9739L79.1589 37.5735L79.386 38.8613Z" fill="black"/>
<path fill-rule="evenodd" clip-rule="evenodd" d="M98.9817 58.6764C98.9817 58.6764 97.8818 59.6226 96.5397 61.1931C95.1976 62.7611 95.1169 63.2035 93.6714 64.7739C91.8828 66.7179 87.6093 69.9154 86.0528 70.9083C84.4963 71.9036 79.3953 76.8706 78.0532 78.0233C76.7112 79.1735 75.0361 79.8297 74.0043 79.9501C71.6582 80.2229 71.5724 77.7972 71.5724 77.7972C71.5724 77.7972 69.8822 79.112 68.8908 78.9891C66.5673 78.6991 66.532 76.8436 66.5976 76.1751C66.5976 76.1751 65.1849 76.3963 64.365 75.6688C63.5956 74.988 63.9563 73.4126 63.9563 73.4126C63.9563 73.4126 62.7353 73.3537 61.9709 72.2182C61.2974 71.213 61.7994 70.0555 62.5209 69.1412C64.0446 67.2144 67.7555 63.6262 69.5895 61.7559C70.8761 60.4459 74.0623 56.988 73.8479 55.2553C73.6082 53.2965 72.1349 52.3012 70.9568 51.8883C69.8014 51.4852 68.5224 50.3301 68.6789 49.0988C68.8832 47.4915 70.7374 46.8304 72.0568 46.9311C74.6779 47.1327 76.4715 48.7965 76.4715 48.7965C76.4715 48.7965 78.1895 46.7665 79.799 46.6411C81.0704 46.5453 82.7581 47.4202 82.8136 48.2755C82.8691 49.1332 82.8893 51.1461 82.8893 51.1461C82.8893 51.1461 84.9503 51.3894 85.5558 52.0062C86.1587 52.6207 86.6935 54.2427 86.6935 54.2427C86.6935 54.2427 87.8313 54.1149 88.6562 54.5696C89.4811 55.0267 89.5745 56.0516 89.5745 56.0516C89.5745 56.0516 90.856 55.5994 91.8424 55.1816C93.7117 54.3951 99.741 57.8482 98.9817 58.6764Z" fill="black"/>
<path fill-rule="evenodd" clip-rule="evenodd" d="M98.294 58.6104C98.2789 57.7257 94.7824 55.5359 91.9141 55.4843C89.6613 55.445 89.8202 57.2464 89.8202 57.2464C89.8202 57.2464 88.8717 54.7887 87.4968 54.7322C85.7814 54.6634 83.5033 56.8876 81.9973 55.8677C80.4938 54.8477 81.7627 52.1689 82.1083 50.6967C82.3353 49.7333 82.4236 47.4526 80.8192 47.197C79.2172 46.9414 77.3782 47.8655 76.5987 50.2248C75.2364 54.3439 77.3858 57.0326 77.194 58.1705C76.9619 59.5468 76.2379 60.3947 75.5845 61.1591C74.9312 61.9258 67.194 69.697 66.359 70.7981C65.6022 71.7959 63.6017 74.2732 64.9867 75.3202C66.248 76.2713 68.579 73.9513 69.53 73.0837C71.3691 71.4051 76.7299 65.7819 77.1562 66.1334C77.358 66.3005 75.0548 68.4068 73.2485 70.1493C71.2657 72.0663 69.7344 73.6416 69.2853 74.0348C68.3797 74.8287 66.1799 76.146 67.8348 77.8271C68.9473 78.9551 70.0043 78.1564 71.5079 77.0086C73.0139 75.8609 80.1709 68.7115 80.5947 68.8713C81.021 69.031 76.9241 72.7421 76.0084 73.5728C75.0926 74.401 71.248 77.3822 72.5724 78.8249C73.3494 79.6728 74.969 79.7367 77.2344 78.0532C80.3676 75.7233 84.1492 71.6829 85.5896 70.7342C87.7264 69.3235 91.4095 66.5438 92.903 64.9169C94.3132 63.3808 95.3122 61.8595 96.0538 60.842C96.9393 59.6255 98.3041 59.1855 98.294 58.6104Z" fill="#CCCCCC"/>
<path fill-rule="evenodd" clip-rule="evenodd" d="M82.8859 51.6721C81.9928 51.9818 81.4858 54.6312 82.404 55.2997C83.3198 55.9706 85.9358 54.6902 85.9938 53.8152C86.0721 52.6626 83.8546 51.3354 82.8859 51.6721Z" fill="#B5B5B5"/>
<path fill-rule="evenodd" clip-rule="evenodd" d="M75.9243 49.4645C75.8915 48.9239 74.1105 47.4197 72.4102 47.4197C70.7074 47.4197 69.3627 48.0342 69.282 49.1794C69.1307 51.2709 71.3355 51.0055 72.5086 52.168C73.3537 53.0085 74.6024 54.2103 74.2745 55.8029C73.9465 57.398 71.7871 60.2021 70.1524 61.7652C68.5151 63.3259 62.4429 69.3398 62.226 70.8464C62.0872 71.8024 63.336 72.9428 64.0373 72.5987C64.9253 72.1637 65.8663 70.6596 67.3395 69.0056C69.4056 66.6855 69.9178 66.4078 71.6383 64.5818C73.6034 62.4952 76.3355 59.9146 76.4995 58.3859C76.6635 56.8548 75.5838 55.8668 75.3214 53.9547C75.059 52.0427 75.9571 50.0077 75.9243 49.4645Z" fill="#B5B5B5"/>
<path d="M43.9467 100.963C66.8168 109.436 88.4337 112.988 92.2292 108.897C96.0247 104.806 80.5617 94.6202 57.6916 86.1471C34.8214 77.6741 13.2046 74.122 9.40905 78.2132C5.6135 82.3044 21.0765 92.4898 43.9467 100.963Z" fill="black"/>
<path d="M44.4682 99.7731C65.5301 107.576 85.4377 110.847 88.9332 107.08C92.4286 103.312 78.1882 93.932 57.1264 86.1289C36.0645 78.3258 16.1569 75.0545 12.6614 78.8222C9.16598 82.59 23.4064 91.97 44.4682 99.7731Z" fill="#EDDD9F"/>
<path d="M46.0263 98.3044C63.4726 104.768 79.9628 107.478 82.8582 104.357C85.7536 101.236 73.9578 93.466 56.5115 87.0024C39.0651 80.5388 22.5749 77.8291 19.6795 80.9501C16.7841 84.071 28.58 91.8408 46.0263 98.3044Z" fill="#CE2514"/>
<path d="M48.3917 96.5139C62.0026 101.557 74.8677 103.671 77.1266 101.236C79.3855 98.8009 70.1828 92.7391 56.5718 87.6965C42.9609 82.6539 30.0958 80.5398 27.8369 82.9747C25.578 85.4095 34.7807 91.4712 48.3917 96.5139Z" fill="#F0EAD1"/>
<path d="M48.6698 95.4013C59.3842 99.3709 69.5115 101.035 71.2896 99.1183C73.0678 97.2016 65.8236 92.4299 55.1091 88.4604C44.3947 84.4908 34.2675 82.8267 32.4893 84.7434C30.7111 86.6601 37.9554 91.4318 48.6698 95.4013Z" fill="#CE2514"/>
<path d="M49.8256 93.961C57.69 96.8747 65.1234 98.0961 66.4286 96.6893C67.7338 95.2824 62.4165 91.78 54.5521 88.8663C46.6876 85.9527 39.2542 84.7312 37.949 86.138C36.6438 87.5449 41.9611 91.0474 49.8256 93.961Z" fill="#F0EAD1"/>
<path fill-rule="evenodd" clip-rule="evenodd" d="M55.5646 72.9148C55.5646 72.9148 53.4114 58.7679 51.741 53.3401C50.9675 50.8266 49.558 49.4518 48.5959 50.2705C47.6338 51.0893 47.4809 53.7936 48.2544 56.3072C49.9248 61.735 55.5646 72.9148 55.5646 72.9148Z" fill="black"/>
<path fill-rule="evenodd" clip-rule="evenodd" d="M55.2063 71.0649C55.2063 71.0649 53.274 58.3692 51.775 53.4982C51.0809 51.2425 49.816 50.0087 48.9526 50.7434C48.0892 51.4782 47.9519 53.9051 48.6461 56.1608C50.1451 61.0319 55.2063 71.0649 55.2063 71.0649Z" fill="#CE2514"/>
<path d="M50.855 92.162C54.1313 93.3758 57.228 93.8847 57.7718 93.2986C58.3155 92.7125 56.1003 91.2534 52.8241 90.0396C49.5478 88.8258 46.4511 88.3169 45.9073 88.903C45.3636 89.4891 47.5788 90.9482 50.855 92.162Z" fill="#CE2514"/>
<path fill-rule="evenodd" clip-rule="evenodd" d="M53.5547 48.1812C52.5257 48.9781 51.5471 48.9538 50.6189 48.1812V91.345C50.8729 92.1226 53.1494 92.4385 53.5547 91.345V48.1812Z" fill="black"/>
<path fill-rule="evenodd" clip-rule="evenodd" d="M53.1076 48.7851C52.5231 48.9843 51.8563 49.1107 51.156 48.7122L51.255 91.2928C51.6303 91.7059 52.7098 91.7302 53.0385 91.1859L53.1076 48.7851Z" fill="#A84F46"/>
<path d="M52.0901 48.82C52.9026 48.82 53.5613 48.5452 53.5613 48.2061C53.5613 47.867 52.9026 47.5922 52.0901 47.5922C51.2776 47.5922 50.6189 47.867 50.6189 48.2061C50.6189 48.5452 51.2776 48.82 52.0901 48.82Z" fill="black"/>
<path d="M52.1241 48.6612C52.6992 48.6612 53.1655 48.4666 53.1655 48.2266C53.1655 47.9866 52.6992 47.7921 52.1241 47.7921C51.549 47.7921 51.0828 47.9866 51.0828 48.2266C51.0828 48.4666 51.549 48.6612 52.1241 48.6612Z" fill="#A84F46"/>
</svg>
