<?xml version="1.0" encoding="UTF-8" standalone="no"?>
<svg
   xmlns:dc="http://purl.org/dc/elements/1.1/"
   xmlns:cc="http://creativecommons.org/ns#"
   xmlns:rdf="http://www.w3.org/1999/02/22-rdf-syntax-ns#"
   xmlns:svg="http://www.w3.org/2000/svg"
   xmlns="http://www.w3.org/2000/svg"
   xmlns:sodipodi="http://sodipodi.sourceforge.net/DTD/sodipodi-0.dtd"
   xmlns:inkscape="http://www.inkscape.org/namespaces/inkscape"
   inkscape:version="1.0 (4035a4fb49, 2020-05-01)"
   height="250"
   width="652"
   sodipodi:docname="figma.svg"
   xml:space="preserve"
   viewBox="-153 -46 652 250"
   y="0px"
   x="0px"
   id="layer"
   version="1.1"><metadata
   id="metadata16"><rdf:RDF><cc:Work
       rdf:about=""><dc:format>image/svg+xml</dc:format><dc:type
         rdf:resource="http://purl.org/dc/dcmitype/StillImage" /><dc:title></dc:title></cc:Work></rdf:RDF></metadata><defs
   id="defs14" /><sodipodi:namedview
   inkscape:current-layer="layer"
   inkscape:window-maximized="1"
   inkscape:window-y="-8"
   inkscape:window-x="-8"
   inkscape:cy="619.87304"
   inkscape:cx="421.08749"
   inkscape:zoom="0.29173577"
   showgrid="false"
   id="namedview12"
   inkscape:window-height="705"
   inkscape:window-width="1366"
   inkscape:pageshadow="2"
   inkscape:pageopacity="0"
   guidetolerance="10"
   gridtolerance="10"
   objecttolerance="10"
   borderopacity="1"
   bordercolor="#666666"
   pagecolor="#ffffff" />
<style
   id="style2"
   type="text/css">
	.st0{fill:#1ABCFE;}
	.st1{fill:#0ACF83;}
	.st2{fill:#FF7262;}
	.st3{fill:#F24E1E;}
	.st4{fill:#A259FF;}
</style>
<path
   id="path4"
   d="m 104.6,21.4 v 101.8 l 13.1,0.1 V 74.8 h 31.6 V 62 H 117.7 V 34.2 h 41.1 V 21.4 Z m 77.8,20.7 c 4.7,0 8.6,-3.8 8.6,-8.6 0,-4.8 -3.8,-8.6 -8.6,-8.6 -4.7,0 -8.6,3.8 -8.6,8.6 0,4.8 3.8,8.6 8.6,8.6 z m -6.7,12.8 v 68.4 h 13.1 V 54.9 Z m 61.7,-2 c -17.4,0 -29.5,14.7 -29.5,32.2 0,17.5 12.1,32.2 29.5,32.2 8,0 14.5,-3 19.3,-8.1 v 9.1 c 0.1,11.3 -8.9,20.7 -20.3,20.8 -0.1,0 -0.1,0 -0.2,0 -4.2,0 -8.3,-1.6 -11.6,-3.9 l -6.6,11.4 c 15.6,10.1 36.4,5.6 46.4,-10 3.5,-5.5 5.4,-11.8 5.4,-18.3 V 55 h -13.1 v 6.1 C 251.9,56 245.4,52.9 237.4,52.9 Z M 221,85.1 c 0,-10.9 8.3,-19.4 17.9,-19.4 9.6,0 17.8,8.6 17.8,19.4 0,10.9 -8.3,19.3 -17.8,19.3 -9.6,0 -17.9,-8.5 -17.9,-19.3 z m 96,-19.4 c -7.8,0.1 -14.1,6.5 -14,14.3 v 43.2 H 289.9 V 54.8 H 303 v 6.3 c 4,-5.3 10.2,-8.3 16.9,-8.2 9.2,0 16.3,4.5 20.3,11.5 4.6,-7.1 12.4,-11.4 20.8,-11.5 14.9,0 24.2,12 24.2,26.9 v 43.4 h -13 V 80 c 0,-7.8 -6.2,-14.2 -14,-14.3 -7.8,0.1 -14.1,6.5 -14,14.3 v 43.2 H 331 V 80 c 0,-7.8 -6.2,-14.2 -14,-14.3 z m 138,-3.1 c -6,-6.3 -14.4,-9.8 -23.1,-9.7 -19.5,0 -33.3,16.5 -33.3,36.1 0,19.7 13.8,36.1 33.3,36.1 8.7,0 17,-3.5 23.1,-9.7 v 7.8 h 13.1 V 54.8 H 455 Z M 411.7,89 c 0,-13 10,-23.4 21.7,-23.4 C 445,65.7 455,76 455,89 c 0,13 -10,23.3 -21.7,23.3 -11.5,0.1 -21.6,-10.2 -21.6,-23.3 z" />
<path
   d="m -64.6,76.5 c 0,-18.6 15.1,-33.7 33.7,-33.7 18.6,0 33.7,15.1 33.7,33.7 0,18.6 -15.1,33.7 -33.7,33.7 -18.6,0 -33.7,-15.1 -33.7,-33.7 z"
   class="st0"
   id="b" />
<path
   d="m -131.9,143.8 c 0,-18.6 15.1,-33.7 33.7,-33.7 h 33.7 v 33.7 c 0,18.6 -15.1,33.7 -33.7,33.7 -18.6,0 -33.7,-15.1 -33.7,-33.7 z"
   class="st1"
   id="c" />
<path
   d="m -64.6,-24.5 v 67.3 h 33.7 c 18.6,0 33.7,-15.1 33.7,-33.7 0,-18.6 -15.1,-33.7 -33.7,-33.7 h -33.7 z"
   class="st2"
   id="d" />
<path
   d="m -131.9,9.2 c 0,18.6 15.1,33.7 33.7,33.7 h 33.7 v -67.3 h -33.7 c -18.6,-0.1 -33.7,15 -33.7,33.6 z"
   class="st3"
   id="e" />
<path
   d="m -131.9,76.5 c 0,18.6 15.1,33.7 33.7,33.7 h 33.7 V 42.9 h -33.7 c -18.6,-0.1 -33.7,15 -33.7,33.6 z"
   class="st4"
   id="e_1_" />
</svg>
