<svg id="Logotype" xmlns="http://www.w3.org/2000/svg" viewBox="0 0 632.63 66.89"><defs><style>.cls-1{fill:#9c5b42;}</style></defs><title>semrush-seeklogo</title><path class="cls-1" d="M380.39,322.17a4,4,0,0,0-2.78,1.15,7.88,7.88,0,0,0-2,3.19q-1.55,4.26,1.65,4.26a12.41,12.41,0,0,0,3.5-.67l-.82,2.27a10.93,10.93,0,0,1-3.74.65q-2.78,0-3.64-1.69t.29-4.84a11.29,11.29,0,0,1,2-3.48,8.86,8.86,0,0,1,2.91-2.29,7.85,7.85,0,0,1,3.47-.8,6.65,6.65,0,0,1,3.4.9l-1.67,2.2a9.71,9.71,0,0,0-1.22-.59A3.54,3.54,0,0,0,380.39,322.17Z" transform="translate(-104.63 -266.13)"/><path class="cls-1" d="M400.09,326.46a10.51,10.51,0,0,1-3.34,4.86,8.1,8.1,0,0,1-5.11,1.7q-2.93,0-3.88-1.7t.21-4.88a10.42,10.42,0,0,1,3.34-4.86,8.16,8.16,0,0,1,5.12-1.68q2.94,0,3.88,1.69T400.09,326.46Zm-9.3,0a4.87,4.87,0,0,0-.36,3.22q.42,1.08,2,1.08,3.23,0,4.8-4.3t-1.65-4.3a4.1,4.1,0,0,0-2.83,1.09A7.8,7.8,0,0,0,390.79,326.46Z" transform="translate(-104.63 -266.13)"/><path class="cls-1" d="M409.85,332.85l.57-10h-.08q-.94,3.05-1.31,4.07l-2.16,5.92h-2.41l4.64-12.74h3.68l-.53,9.74h.05l6.74-9.74h3.68l-4.64,12.74h-2.52l2.19-6q.16-.43.37-1t1.2-3h-.08l-6.92,10Z" transform="translate(-104.63 -266.13)"/><path class="cls-1" d="M437.3,324.08a6.11,6.11,0,0,1-2.43,3.15,7.29,7.29,0,0,1-4.05,1.09h-1.16L428,332.85h-2.7l4.64-12.74H434a4,4,0,0,1,3.16,1Q438,322.1,437.3,324.08Zm-6.84,2h.89a3.85,3.85,0,0,0,2-.49,2.72,2.72,0,0,0,1.14-1.43,1.46,1.46,0,0,0,0-1.4,1.8,1.8,0,0,0-1.46-.45h-1.23Z" transform="translate(-104.63 -266.13)"/><path class="cls-1" d="M447.76,332.85h-7.34l4.64-12.74h7.34l-.8,2.21H447l-1,2.8h4.31l-.81,2.21h-4.31l-1.2,3.29h4.64Z" transform="translate(-104.63 -266.13)"/><path class="cls-1" d="M459.73,332.85H457l3.82-10.49h-3.46l.82-2.25h9.62l-.82,2.25h-3.46Z" transform="translate(-104.63 -266.13)"/><path class="cls-1" d="M469.29,332.85l4.64-12.74h2.7L472,332.85Z" transform="translate(-104.63 -266.13)"/><path class="cls-1" d="M484.24,332.85h-2.7l3.82-10.49H481.9l.82-2.25h9.62l-.82,2.25h-3.46Z" transform="translate(-104.63 -266.13)"/><path class="cls-1" d="M493.79,332.85l4.64-12.74h2.7l-4.64,12.74Z" transform="translate(-104.63 -266.13)"/><path class="cls-1" d="M515.91,320.11h2.73l-9,12.74h-2.95l.32-12.74h2.73l-.36,7.58q0,.67-.16,1.57t-.19,1.24a32.37,32.37,0,0,1,1.67-2.81Z" transform="translate(-104.63 -266.13)"/><path class="cls-1" d="M527.25,332.85h-7.34l4.64-12.74h7.34l-.8,2.21h-4.64l-1,2.8h4.31l-.81,2.21h-4.31l-1.2,3.29h4.64Z" transform="translate(-104.63 -266.13)"/><path class="cls-1" d="M547.78,332.85l4.64-12.74h2.7l-4.64,12.74Z" transform="translate(-104.63 -266.13)"/><path class="cls-1" d="M569,332.85h-3.43l-2-9.64h-.08q-.76,2.55-1.16,3.64l-2.18,6h-2.41l4.64-12.74h3.41l2.06,9.54h.06q.77-2.48,1.15-3.51l2.19-6h2.43Z" transform="translate(-104.63 -266.13)"/><path class="cls-1" d="M581.26,332.85h-2.7l3.82-10.49h-3.46l.82-2.25h9.62l-.82,2.25h-3.46Z" transform="translate(-104.63 -266.13)"/><path class="cls-1" d="M598.15,332.85h-7.34l4.64-12.74h7.34l-.81,2.21h-4.63l-1,2.8h4.31l-.81,2.21h-4.31l-1.2,3.29H599Z" transform="translate(-104.63 -266.13)"/><path class="cls-1" d="M605,332.85l4.64-12.74h2.7l-3.82,10.51h5.17l-.81,2.23Z" transform="translate(-104.63 -266.13)"/><path class="cls-1" d="M619,332.85l4.64-12.74h2.7l-3.83,10.51h5.17l-.81,2.23Z" transform="translate(-104.63 -266.13)"/><path class="cls-1" d="M633.12,332.85l4.64-12.74h2.7l-4.64,12.74Z" transform="translate(-104.63 -266.13)"/><path class="cls-1" d="M650.51,325.7h5.05l-2.4,6.6a18.12,18.12,0,0,1-2.52.56,16.31,16.31,0,0,1-2.28.16q-2.88,0-3.79-1.7t.25-4.87a9.94,9.94,0,0,1,3.51-4.81,9.2,9.2,0,0,1,5.52-1.73,7.58,7.58,0,0,1,3.5.78l-1.68,2.16a5,5,0,0,0-2.65-.7,5.1,5.1,0,0,0-3.23,1.18,7,7,0,0,0-2.21,3.16,4.58,4.58,0,0,0-.3,3.17,2,2,0,0,0,2.07,1.09,9.64,9.64,0,0,0,1.78-.17l1-2.66h-2.41Z" transform="translate(-104.63 -266.13)"/><path class="cls-1" d="M667.38,332.85H660l4.64-12.74H672l-.81,2.21h-4.63l-1,2.8h4.31l-.81,2.21h-4.31l-1.2,3.29h4.63Z" transform="translate(-104.63 -266.13)"/><path class="cls-1" d="M685.48,332.85h-3.43l-2-9.64h-.08q-.76,2.55-1.16,3.64l-2.18,6h-2.41l4.64-12.74h3.41l2.06,9.54h.06q.77-2.48,1.15-3.51l2.19-6h2.43Z" transform="translate(-104.63 -266.13)"/><path class="cls-1" d="M702,322.17a4,4,0,0,0-2.78,1.15,7.87,7.87,0,0,0-2,3.19q-1.55,4.26,1.65,4.26a12.4,12.4,0,0,0,3.5-.67l-.82,2.27a10.92,10.92,0,0,1-3.74.65q-2.78,0-3.64-1.69t.29-4.84a11.31,11.31,0,0,1,2-3.48,8.88,8.88,0,0,1,2.91-2.29,7.86,7.86,0,0,1,3.47-.8,6.66,6.66,0,0,1,3.4.9l-1.67,2.2a9.65,9.65,0,0,0-1.22-.59A3.53,3.53,0,0,0,702,322.17Z" transform="translate(-104.63 -266.13)"/><path class="cls-1" d="M715.44,332.85h-7.34l4.64-12.74h7.34l-.8,2.21h-4.64l-1,2.8h4.31l-.81,2.21h-4.31l-1.2,3.29h4.64Z" transform="translate(-104.63 -266.13)"/><path class="cls-1" d="M546.79,269.83H491.41L477.15,309H488l10.82-29.72h13.51c1.49,0,2.26,1.21,1.72,2.7l-9.83,27H515l9.83-27a4.27,4.27,0,0,1,3.68-2.7H539.3c1.49,0,2.26,1.21,1.72,2.7l-9.83,27H542l11.31-31.07C554.93,273.46,552,269.83,546.79,269.83Z" transform="translate(-104.63 -266.13)"/><path class="cls-1" d="M622.06,296.84a4.27,4.27,0,0,1-3.68,2.7H604.87c-1.49,0-2.26-1.21-1.72-2.7l9.83-27H602.18L590.87,300.9c-1.63,4.48,1.28,8.11,6.51,8.11h24.31c3.73,0,7.63-2.42,8.72-5.4l12.29-33.77H631.89Z" transform="translate(-104.63 -266.13)"/><path class="cls-1" d="M442.4,296.84l1-2.7H475.8l3.44-9.46,2.46-6.75c1.63-4.48-1.28-8.11-6.51-8.11h-27c-3.73,0-7.63,2.42-8.72,5.4h0l-9.34,25.67c-1.63,4.48,1.28,8.11,6.51,8.11H470.4l3.44-9.46H444.12C442.63,299.55,441.86,298.34,442.4,296.84ZM447.81,282a4.27,4.27,0,0,1,3.69-2.7H467.7c1.49,0,2.26,1.21,1.72,2.7l-1,2.7H446.83Z" transform="translate(-104.63 -266.13)"/><polygon class="cls-1" points="621.82 3.69 616.41 18.55 616.41 18.55 597.5 18.55 597.5 18.55 602.91 3.69 602.91 3.69 592.11 3.69 592.11 3.69 577.85 42.87 577.85 42.87 588.65 42.87 588.65 42.87 594.06 28.01 594.06 28.01 612.97 28.01 612.97 28.01 607.57 42.87 607.57 42.87 618.37 42.87 618.37 42.87 632.63 3.69 632.63 3.69 621.82 3.69 621.82 3.69"/><path class="cls-1" d="M561,275.23,548.74,309h10.81l9.83-27a4.27,4.27,0,0,1,3.69-2.7H592l3.44-9.46H569.76C566,269.83,562.12,272.25,561,275.23Z" transform="translate(-104.63 -266.13)"/><path class="cls-1" d="M392.18,275.23h0L388.25,286c-1.63,4.48,1.28,8.11,6.51,8.11h17.56c1.49,0,2.26,1.21,1.72,2.7h0a4.27,4.27,0,0,1-3.69,2.7h-27L379.89,309h33.77c3.73,0,7.63-2.42,8.72-5.4l3.93-10.81c1.63-4.48-1.28-8.11-6.51-8.11H402.25c-1.49,0-2.26-1.21-1.72-2.7h0a4.27,4.27,0,0,1,3.68-2.7h27l3.44-9.46H400.9C397.17,269.83,393.27,272.25,392.18,275.23Z" transform="translate(-104.63 -266.13)"/><path class="cls-1" d="M647.49,275.23h0L643.56,286c-1.63,4.48,1.28,8.11,6.51,8.11h17.56c1.49,0,2.26,1.21,1.72,2.7h0a4.27,4.27,0,0,1-3.69,2.7h-27L635.2,309H669c3.73,0,7.63-2.42,8.72-5.4l3.93-10.81c1.63-4.48-1.28-8.11-6.51-8.11H657.56c-1.49,0-2.26-1.21-1.72-2.7h0a4.27,4.27,0,0,1,3.68-2.7h27l3.44-9.46H656.21C652.48,269.83,648.58,272.25,647.49,275.23Z" transform="translate(-104.63 -266.13)"/><path class="cls-1" d="M346.09,275.76c-8.07-8.45-19.13-11.3-33.16-8.69,0,0-16.85,4-31.72,4.26-6.33.11-11.75-1.79-16.26-2.8a20.87,20.87,0,0,0,10.52,8.26c4,1.48,9.54,3.75,7.08,7.58-2.78,4.33-7.07.69-8.22-.24-4-3-5.92-5.33-13.11-9.55-7.94-4.67-19-4.76-30.06-3.67,0,0,9.06,1.92,13.15,6,0,0-17.59-3.58-29,2,16.63.64,35,3.27,38.1,4.65S255,286,252,286.69c-7.44,1.59-21.07,2.14-29.58-.3-12.25-3.5-22.58-13.72-40.08-11,15.46,3.25,23.68,17.72,40.53,21.16s28.18-3.28,32-4.2,7.23.36,8.11,3-2.48,5.89-7.07,6.72c-3.45.62-4.57.71-10.75,1.35a79.53,79.53,0,0,1-30.37-2.5C199,296.77,188.19,286.44,183,283.69A47.38,47.38,0,0,0,167.6,279s8.53,4.43,11.72,9.9c-7.58-2.9-18.82-4.62-33.47-1.64a240.71,240.71,0,0,0-41.23,12.33c9.25,2.75,20.94.66,26,.25,27.59-2.25,36.82,3.82,45.5,6.92,26.86,9.57,36.12,1,37.95,3.78,1.31,2-7.31,5.58-9.67,6-12.11,2.26-18,.11-29.25-2.59,5.58,5.58,16.17,9.56,28.21,9.07,12.3-.62,25.21-2.51,35.51-6.87a185.33,185.33,0,0,1,22.68-8.35c2.38-.65,10.75-2.87,12.5-.56,1,1.3-.63,2.41-3.29,3.53-2.07.88-4.78,1.77-7.4,2.78-6,2.3-17.08,6.43-20.63,9.33a236.66,236.66,0,0,1,31.05-2.4c15.33,0,25.83,3.23,37.38,7.58,12.42,4.6,23.23,3,32.54-4.72,8.32-7,12.3-15.15,12-24.59A32.55,32.55,0,0,0,346.09,275.76Zm-21.74,48.87a26.08,26.08,0,1,1,26.08-26.08A26.08,26.08,0,0,1,324.35,324.63Z" transform="translate(-104.63 -266.13)"/><path class="cls-1" d="M324.35,277.93A20.61,20.61,0,1,0,345,298.55,20.61,20.61,0,0,0,324.35,277.93Zm9.58,34.27a17.2,17.2,0,0,0-10.26-27.56,24.21,24.21,0,0,1,2.49-2.91,17.2,17.2,0,0,1,7.77,30.47Z" transform="translate(-104.63 -266.13)"/></svg>