<?xml version="1.0" encoding="UTF-8" standalone="no"?>
<svg
   xmlns:dc="http://purl.org/dc/elements/1.1/"
   xmlns:cc="http://creativecommons.org/ns#"
   xmlns:rdf="http://www.w3.org/1999/02/22-rdf-syntax-ns#"
   xmlns:svg="http://www.w3.org/2000/svg"
   xmlns="http://www.w3.org/2000/svg"
   xmlns:sodipodi="http://sodipodi.sourceforge.net/DTD/sodipodi-0.dtd"
   xmlns:inkscape="http://www.inkscape.org/namespaces/inkscape"
   inkscape:version="1.0 (4035a4fb49, 2020-05-01)"
   height="75"
   width="652"
   sodipodi:docname="serpstat-seeklogo.com.svg"
   xml:space="preserve"
   viewBox="0 0 652 75"
   y="0px"
   x="0px"
   id="layer"
   version="1.1"><metadata
   id="metadata19"><rdf:RDF><cc:Work
       rdf:about=""><dc:format>image/svg+xml</dc:format><dc:type
         rdf:resource="http://purl.org/dc/dcmitype/StillImage" /><dc:title></dc:title></cc:Work></rdf:RDF></metadata><defs
   id="defs17" /><sodipodi:namedview
   inkscape:current-layer="layer"
   inkscape:window-maximized="1"
   inkscape:window-y="-8"
   inkscape:window-x="-8"
   inkscape:cy="229.04833"
   inkscape:cx="326"
   inkscape:zoom="0.82515337"
   showgrid="false"
   id="namedview15"
   inkscape:window-height="705"
   inkscape:window-width="1366"
   inkscape:pageshadow="2"
   inkscape:pageopacity="0"
   guidetolerance="10"
   gridtolerance="10"
   objecttolerance="10"
   borderopacity="1"
   bordercolor="#666666"
   pagecolor="#ffffff" />
<style
   id="style2"
   type="text/css">
	.st0{fill:#004683;}
	.st1{fill:#006EC2;}
</style>
<g
   transform="translate(1.211896,-282.37175)"
   id="g12">
	<path
   id="path4"
   d="m 154.5,292 c -3.7,1.4 -6.6,3.4 -8.6,6 -2,2.6 -3,5.5 -3,8.9 0,6.7 4.1,12.1 12.2,15.9 2.5,1.2 5.7,2.4 9.6,3.7 3.9,1.3 6.7,2.5 8.2,3.7 1.6,1.2 2.3,2.9 2.3,5 0,1.9 -0.7,3.4 -2.2,4.4 -1.4,1 -3.4,1.6 -5.9,1.6 -3.9,0 -6.7,-0.8 -8.4,-2.3 -1.7,-1.5 -2.6,-3.9 -2.6,-7.2 H 141 c 0,4 1,7.5 3.1,10.6 2.1,3.1 5.2,5.5 9.3,7.2 4.1,1.8 8.7,2.6 13.8,2.6 7.2,0 12.9,-1.5 17,-4.5 4.1,-3 6.2,-7.2 6.2,-12.5 0,-6.6 -3.4,-11.8 -10.1,-15.6 -2.8,-1.6 -6.3,-3 -10.7,-4.4 -4.3,-1.4 -7.3,-2.7 -9.1,-3.9 -1.7,-1.3 -2.6,-2.7 -2.6,-4.2 0,-1.8 0.8,-3.2 2.3,-4.4 1.6,-1.2 3.7,-1.7 6.4,-1.7 2.7,0 4.8,0.7 6.3,2 1.6,1.4 2.3,3.3 2.3,5.7 h 15 c 0,-3.7 -1,-7 -3,-9.9 -2,-2.9 -4.8,-5.1 -8.3,-6.6 -3.6,-1.6 -7.6,-2.3 -12.1,-2.3 -4.5,0 -8.6,0.7 -12.3,2.2 m 54,-2.2 v 62.3 H 250 v -11.6 h -27 v -14.9 h 22.8 V 314.5 H 223 v -13.1 h 27 v -11.6 m 18.3,0 v 62.3 H 283 v -22 h 8 l 10.8,22 h 15.8 v -0.6 l -12.8,-25.2 c 3.7,-1.8 6.4,-4.1 8.1,-6.9 1.7,-2.9 2.6,-6.4 2.6,-10.8 0,-6 -2,-10.6 -6.1,-13.9 -4.1,-3.3 -9.8,-4.9 -17,-4.9 z m 14.7,11.6 h 9.3 c 2.8,0 4.9,0.8 6.3,2.3 1.4,1.5 2.1,3.6 2.1,6.3 0,2.7 -0.7,4.8 -2.1,6.3 -1.4,1.5 -3.5,2.3 -6.3,2.3 H 283 Z m 50.2,-11.6 v 62.3 h 15.1 V 331 h 9.7 c 7.6,0 13.6,-1.8 18,-5.5 4.4,-3.6 6.6,-8.5 6.6,-14.6 0,-4.1 -1,-7.8 -3,-11 -2,-3.2 -4.9,-5.7 -8.6,-7.5 -3.7,-1.8 -7.9,-2.6 -12.7,-2.6 z m 15.1,11.6 h 10.1 c 2.7,0 4.9,0.9 6.5,2.7 1.6,1.7 2.4,4.1 2.4,7 0,2.7 -0.8,4.7 -2.3,6.2 -1.5,1.5 -3.8,2.2 -6.7,2.2 h -9.9 z"
   class="st0" />
	<path
   id="path6"
   d="m 406.4,292 c -3.7,1.4 -6.6,3.4 -8.6,6 -2,2.6 -3,5.5 -3,8.9 0,6.7 4.1,12.1 12.2,15.9 2.5,1.2 5.7,2.4 9.6,3.7 3.9,1.3 6.7,2.5 8.2,3.7 1.6,1.2 2.3,2.9 2.3,5 0,1.9 -0.7,3.4 -2.2,4.4 -1.5,1 -3.4,1.6 -5.9,1.6 -3.9,0 -6.7,-0.8 -8.4,-2.3 -1.7,-1.5 -2.6,-3.9 -2.6,-7.2 h -15.1 c 0,4 1,7.5 3.1,10.6 2.1,3.1 5.2,5.5 9.3,7.2 4.1,1.8 8.7,2.6 13.8,2.6 7.2,0 12.9,-1.5 17,-4.5 4.1,-3 6.2,-7.2 6.2,-12.5 0,-6.6 -3.4,-11.9 -10.1,-15.6 -2.8,-1.6 -6.3,-3 -10.7,-4.4 -4.3,-1.4 -7.4,-2.7 -9.1,-3.9 -1.7,-1.3 -2.6,-2.7 -2.6,-4.2 0,-1.8 0.8,-3.2 2.3,-4.4 1.6,-1.2 3.7,-1.7 6.4,-1.7 2.7,0 4.8,0.7 6.3,2 1.6,1.4 2.3,3.3 2.3,5.7 h 15 c 0,-3.7 -1,-7 -3,-9.9 -2,-2.9 -4.8,-5.1 -8.3,-6.6 -3.6,-1.6 -7.6,-2.3 -12.1,-2.3 -4.4,0 -8.6,0.7 -12.3,2.2 m 46.3,-2.2 v 11.6 H 471 v 50.7 h 15 v -50.7 h 18.7 v -11.6 m 25.3,0 -22.8,62.3 h 16 l 3.6,-11.6 h 20.5 l 3.6,11.6 H 567 l -23,-62.3 z m 7,17.5 6.7,21.6 h -13.3 z m 32.6,-17.5 v 11.6 h 18.3 v 50.7 h 15 v -50.7 h 18.7 v -11.6"
   class="st1" />
	<path
   id="path8"
   d="M 115.7,287.2 H 55 v 0 c -1,0 -1.9,0.9 -1.9,1.9 0,0.6 0.2,1 0.6,1.4 v 0 l 13.1,13.1 c 0.8,0.8 0.8,2 0,2.8 l -21.6,21.5 c -0.6,0.6 -0.4,1.5 0.3,1.9 l 2.7,1.5 c 0.5,0.3 1.3,0.2 1.8,-0.1 0.7,-0.4 1.4,-0.6 2.3,-0.6 0.6,0 1.1,0.1 1.6,0.3 0.3,0.1 0.6,0.1 0.8,-0.1 l 5.1,-4.6 c 0,-0.1 0,-0.2 0,-0.3 0,-2.5 2,-4.5 4.5,-4.5 2.1,0 3.8,1.4 4.3,3.4 l 5,2.1 c 0.2,0.1 0.3,0 0.5,-0.1 0.7,-0.5 1.6,-0.8 2.5,-0.8 0.4,0 0.9,0.1 1.3,0.2 0.2,0 0.3,0 0.4,-0.1 l 8.6,-8.4 c 0.1,-0.1 0.2,-0.3 0.2,-0.5 -0.1,-4.4 3.2,-4.9 4.4,-5 1.9,-0.1 3.6,1.3 4.2,3 0.1,0.2 0.2,0.3 0.4,0.4 l 5.4,1.9 c 0.2,0.1 0.4,0 0.6,-0.1 0.8,-0.7 1.8,-1.2 3,-1.2 0.4,0 1.1,0.3 1.5,-0.2 l 10.8,-11 c 0.2,-0.2 0.3,-0.4 0.3,-0.7 v -15 c -0.1,-1.2 -1,-2.1 -2,-2.1"
   class="st0" />
	<path
   id="path10"
   d="m 117.6,313.9 c 0,-0.6 -0.7,-0.9 -1.1,-0.5 l -7,7.1 c -0.2,0.2 -0.2,0.4 -0.2,0.6 0.2,1.2 -0.1,2.5 -1.6,3.9 -0.8,0.8 -1.9,1.3 -3,1.3 -1.8,0 -3.4,-1.2 -4,-2.8 -0.1,-0.2 -0.2,-0.3 -0.4,-0.4 l -5.8,-2 c -0.2,-0.1 -0.4,0 -0.6,0.1 -0.8,0.6 -1.8,1 -2.8,1 -0.5,0 -0.9,-0.1 -1.4,-0.2 0,0 -6.6,6.4 -8.9,8.7 -0.3,0.3 -0.3,0.3 -0.2,0.9 0,2.5 -2,4.5 -4.5,4.5 -2.1,0 -3.9,-1.5 -4.4,-3.4 -0.1,-0.2 -0.2,-0.4 -0.4,-0.5 L 67,330.4 c -0.2,-0.1 -0.5,0 -0.6,0.1 -0.8,0.6 -1.7,0.9 -2.7,0.9 -0.5,0 -1,-0.1 -1.4,-0.2 -0.3,-0.1 -0.5,0 -0.8,0.1 l -5.2,4.7 c -0.2,0.2 -0.3,0.4 -0.3,0.6 -0.2,2.3 -2.1,4.1 -4.5,4.1 -1.8,0 -3.4,-1.1 -4.1,-2.6 -0.2,-0.4 -0.5,-0.7 -0.9,-0.9 L 40.6,334 c -0.5,-0.2 -1,-0.2 -1.4,0.2 l -17.3,17.2 v 0 0 0 c -0.3,0.4 -0.6,0.8 -0.6,1.4 0,1.1 0.9,2 2,2 h 56.8 c 1.1,0 2.6,-0.6 3.4,-1.4 l 1.1,-1.1 v 0 L 98.1,339 c 0.8,-0.8 2,-0.8 2.8,0 l 13.3,13.2 c 0.4,0.4 0.9,0.6 1.4,0.6 1.1,0 2,-0.9 2,-2 z"
   class="st1" />
</g>
</svg>
