<svg id="Layer_1" data-name="Layer 1" xmlns="http://www.w3.org/2000/svg" viewBox="0 0 381.06 39.01"><defs><style>.cls-1{fill:#ff9700;}.cls-2{fill:#2b3d52;}</style></defs><title>similarweb-pro-seeklogo</title><g id="PRO---Main"><g id="PRO-in-Lite---MOBILE-Features"><g id="pro-logo"><g id="logo-pro"><path id="Shape" class="cls-1" d="M28.47,2.38c-.36-.12-.74-.25-1.12-.36C21.16.24,17.72,3.15,16.8,6.16c-1.25,4.1.88,6.91,6.42,11C30,22.27,32.81,27,30.84,33.43a12.72,12.72,0,0,1-2.88,5A19.78,19.78,0,0,0,39.71,25.89,19.43,19.43,0,0,0,28.47,2.38Z" transform="translate(-0.11 -0.09)"/><path id="Shape-2" data-name="Shape" class="cls-2" d="M18.85,21c-6.61-4.66-10-9.69-8.16-15.87A12.08,12.08,0,0,1,11.8,2.55,19.74,19.74,0,0,0,1,14.77,19.08,19.08,0,0,0,3.61,31.34a15.86,15.86,0,0,0,8.89,5.89c6,1.61,10.87-.63,12.22-5.06C26,28.06,24.27,25,18.85,21Z" transform="translate(-0.11 -0.09)"/><path id="Shape-3" data-name="Shape" class="cls-2" d="M58.8,18.14A15.79,15.79,0,0,1,55.06,15,5,5,0,0,1,54,11.85a4.45,4.45,0,0,1,.89-2.93,3.14,3.14,0,0,1,2.56-1.08,7.38,7.38,0,0,1,2.84.54,21.74,21.74,0,0,1,2.53,1.24l2.27-5.4A15.69,15.69,0,0,0,56.94,1.9a9.38,9.38,0,0,0-7.07,2.72A10.16,10.16,0,0,0,47.23,12a12.39,12.39,0,0,0,.67,4.26,11,11,0,0,0,1.89,3.31,17.28,17.28,0,0,0,3.59,3.08A17.54,17.54,0,0,1,57.29,26a5.21,5.21,0,0,1,1.18,3.31,4.07,4.07,0,0,1-1,2.9,3.86,3.86,0,0,1-3,1.06,14.35,14.35,0,0,1-7.59-2.65v6.66a16.79,16.79,0,0,0,8.19,1.86q4.92,0,7.52-2.7t2.61-7.77A11.12,11.12,0,0,0,63.83,23a15.45,15.45,0,0,0-5-4.85ZM69.44,38.61h6.71V11H69.44V38.61ZM72.84.29a3.7,3.7,0,0,0-2.71,1,3.46,3.46,0,0,0-1,2.59,3.37,3.37,0,0,0,1,2.61,3.79,3.79,0,0,0,2.67.93,3.68,3.68,0,0,0,2.6-.93,3.37,3.37,0,0,0,1-2.61,3.44,3.44,0,0,0-1-2.59,3.61,3.61,0,0,0-2.62-1Zm36.1,10.22q-4.74,0-6.88,4.78h-.25a6.67,6.67,0,0,0-6.86-4.78,7.56,7.56,0,0,0-3.74,1,6.71,6.71,0,0,0-2.76,3.08H88L87.21,11H81.89V38.61H88.6V25.37q0-5,1-7.1a3.28,3.28,0,0,1,3.15-2.15q3.1,0,3.1,6.06V38.61h6.76V25.22a18.41,18.41,0,0,1,1-6.94,3.27,3.27,0,0,1,3.18-2.17q3,0,3.05,6.06V38.61h6.76v-18q0-4.95-1.93-7.52a6.63,6.63,0,0,0-5.66-2.57ZM122,38.61h6.71V11H122V38.61ZM125.4.29a3.7,3.7,0,0,0-2.71,1,3.46,3.46,0,0,0-1,2.59,3.37,3.37,0,0,0,1,2.61,3.79,3.79,0,0,0,2.67.93,3.68,3.68,0,0,0,2.6-.93,3.37,3.37,0,0,0,1-2.61,3.44,3.44,0,0,0-1-2.59,3.61,3.61,0,0,0-2.62-1Zm9,38.32h6.71V.09h-6.71V38.61Zm21.88-28.15a16.92,16.92,0,0,0-9.1,2.6l2.32,4.56a11.78,11.78,0,0,1,5.8-1.93q3.4,0,3.4,3.86v2l-3.73.15q-4.84.22-7.27,2.34t-2.43,6.47a10.07,10.07,0,0,0,1.78,6.34A5.85,5.85,0,0,0,152,39.11a7.93,7.93,0,0,0,4-.92,9.41,9.41,0,0,0,3.08-3.34h.15l1.34,3.76h4.92V20.1q0-4.6-2.33-7.12t-6.79-2.51ZM158.75,28a7.59,7.59,0,0,1-1.1,4.32A3.38,3.38,0,0,1,154.72,34q-2.47,0-2.47-3.42a5,5,0,0,1,1.07-3.47,4.75,4.75,0,0,1,3.37-1.29l2.07-.1V28Zm21-16.39a10,10,0,0,0-2.42,3.71h-.23L176.4,11h-5.52V38.61h6.71V24.43a9.65,9.65,0,0,1,1.31-5.51A4.29,4.29,0,0,1,182.65,17a5.68,5.68,0,0,1,1.84.25l.78-6.39a8,8,0,0,0-2.42-.37,4.57,4.57,0,0,0-3.05,1.11Zm36.07,11.21q-.4,2.35-1.29,9.68-.45-5-1.24-9.53L209.42,2.42h-7.11L198.38,23q-.56,2.85-1.19,9.48-.81-6.56-1.29-9.63l-3.3-20.42h-6.73l6.68,36.19h8.57l3.5-18.86,1-7.45.2-1.83a65.11,65.11,0,0,0,1.19,9.18l3.6,19h8.57l6.63-36.19h-6.78l-3.2,20.42Zm21.93-12.33a8.89,8.89,0,0,0-7.66,3.84Q227.39,18.19,227.4,25t3,10.41a10.2,10.2,0,0,0,8.31,3.68,14.94,14.94,0,0,0,7.74-1.91V31.78a13.24,13.24,0,0,1-6.71,2,4.91,4.91,0,0,1-4-1.79,8.87,8.87,0,0,1-1.54-5.48h13.49V23q0-5.92-2.65-9.2a8.79,8.79,0,0,0-7.23-3.28Zm-3.5,11.21a9.92,9.92,0,0,1,1.08-4.64,2.74,2.74,0,0,1,2.37-1.5,2.69,2.69,0,0,1,2.42,1.56,9.84,9.84,0,0,1,.93,4.58Zm36.53-7.48a6.72,6.72,0,0,0-6-3.74,6,6,0,0,0-3.3.92,8.46,8.46,0,0,0-2.67,3.19h-.35q.3-3.71.33-4.33t0-1.19v-9h-6.71V38.61h4.94l1.13-3.14h.43a8,8,0,0,0,2.74,2.83,7,7,0,0,0,9.45-2.93Q273,31.63,273,24.77t-2.19-10.52Zm-8.29,19.19a2.94,2.94,0,0,1-2.84-2q-.87-2-.87-6.76v-.67q0-4.43.9-6.19a2.86,2.86,0,0,1,2.76-1.76q3.68,0,3.68,8.56,0,8.76-3.63,8.76Z" transform="translate(-0.11 -0.09)"/><path id="Shape-4" data-name="Shape" class="cls-1" d="M303.19,5.05Q299.7,2.22,293,2.22H281.22V38.41H289V25.54h3.35q6.86,0,10.58-3.09t3.72-8.94q0-5.62-3.49-8.45ZM297,17.85a8.68,8.68,0,0,1-5.39,1.4H289V8.5h3.55a7.12,7.12,0,0,1,4.7,1.29,5,5,0,0,1,1.5,4A4.86,4.86,0,0,1,297,17.85Zm40.31.89a9.48,9.48,0,0,0,1.79-5.68q0-5.47-3.6-8.16T324.38,2.22H313.64V38.41h7.81V24.52h4.16l8.8,13.89h8.67q-2.52-3.56-10.84-15.77a11.82,11.82,0,0,0,5.07-3.9Zm-7.87-1.67A9.78,9.78,0,0,1,324,18.28h-2.52V8.5h2.37a11.11,11.11,0,0,1,5.58,1.09,3.94,3.94,0,0,1,1.8,3.66,4.3,4.3,0,0,1-1.76,3.81ZM376.67,6.45q-4.5-4.8-13-4.8t-13,4.77q-4.55,4.77-4.55,13.8t4.54,13.86q4.54,4.83,13,4.83t13-4.83q4.54-4.83,4.54-13.81t-4.5-13.81Zm-13,26q-4.66,0-7-3.07t-2.34-9.13q0-6.06,2.37-9.15t7-3.08Q373,8,373,20.26t-9.35,12.2Z" transform="translate(-0.11 -0.09)"/></g></g></g></g></svg>