<svg width="151" height="153" viewBox="0 0 151 153" fill="none" xmlns="http://www.w3.org/2000/svg">
<g clip-path="url(#clip0_39_38)">
<g filter="url(#filter0_d_39_38)">
<path fill-rule="evenodd" clip-rule="evenodd" d="M20.6537 64.903L35.501 65.3604L47.5364 64.3313L57.6594 58.3862L73.969 49.9257L82.1801 45.2381L95.7901 42.4941L103.889 43.8662L110.862 49.8112L112.662 49.354L111.538 45.9182L107.041 41.2353L101.144 38.0508L93.0355 37.339L86.2468 31.2137L55.5517 2.88135C47.9774 4.69282 40.8179 7.62853 34.1283 11.8377L37.4685 51.0578L37.9932 52.4563L38.8989 53.6104L41.506 60.9992L31.9229 61.0741L22.9667 61.5612L20.9027 63.2845L20.6537 64.903Z" fill="#A84F46"/>
<path fill-rule="evenodd" clip-rule="evenodd" d="M104.347 98.1469C106.752 96.8039 109.119 96.6082 111.431 98.1199L112.49 100.735L111.128 106.351L107.42 115.351C109.114 115.29 110.729 115.374 112.263 114.966L114.534 113.658L116.123 111.658L118.242 108.428L117.788 111.274L117.561 112.889L119.68 112.658L122.026 110.659L123.464 106.274L124.523 100.504L125.81 101.505L126.339 105.505L126.945 107.043L129.064 105.581L130.804 101.12V96.5045C131.508 96.4182 132.235 96.1057 132.775 97.6489L134.068 93.192L134.13 90.5452L133.014 87.5207L130.875 84.7479L126.009 79.8643L127.651 79.234L129.79 79.1394L132.58 78.1944L131.34 76.3353L128.829 75.4531L125.606 75.6107L122.041 76.2722L118.693 76.6818L119.313 73.1847L120.553 68.5215L119.251 69.6872L117.67 71.7667L115.717 74.1612L112.711 76.3984L110.789 77.9737L99.2076 76.6747L104.347 98.1469Z" fill="#9F9F9F"/>
<path fill-rule="evenodd" clip-rule="evenodd" d="M104.371 78.8732L104.031 72.5225L90.8049 59.5371L48.5251 61.4749L46.9901 69.4458L64.4281 131.485L92.6724 117.17L95.5387 112.274L97.2791 107.197L102.35 99.8119L109.423 96.5698L104.551 93.6286C116.993 91.113 109.797 84.3263 99.416 76.8469L104.371 78.8732Z" fill="#CCCCCC"/>
<path fill-rule="evenodd" clip-rule="evenodd" d="M48.9122 75.4029L49.4241 71.0036L44.5908 71.994L41.7908 67.2246L35.6609 67.6092L34.1474 74.6092L34.6015 82.3784L34.7527 85.9171L34.6015 91.2248V96.3785L35.0553 100.84L35.2825 102.84L33.4661 104.148L30.8933 104.533L27.7903 103.84L25.066 102.686L24.8391 104.686L25.9742 106.686L27.6391 107.994L23.3253 109.686L19.9957 111.225L17.7252 114.148L16.6852 118.202C17.8859 117.614 18.9691 117.304 19.7627 117.678L18.3023 121.594L17.7987 124.351L17.8761 126.832L18.8061 131.401L19.6196 132.661L20.7821 132.504L22.0994 130.771L23.1845 130.062L24.1919 131.913L24.6954 133.685L26.013 136.521L27.7953 138.687L29.5002 139.632L30.4302 139.317L31.3988 137.466L33.1037 138.136L34.9248 139.475L37.1721 140.932L39.2643 141.562L40.8435 141.91C40.5263 143.249 39.9003 144.049 39.2643 144.831L65.5157 131.143L64.0369 112.672C62.5653 109.378 61.7256 105.162 61.8994 100.335C58.7227 92.7822 57.2039 86.3378 60.4887 73.3665C59.0183 77.2239 56.7936 80.3265 54.8551 83.1136L52.7434 81.3812L53.6476 74.1519L48.9122 75.4029Z" fill="#939393"/>
<path fill-rule="evenodd" clip-rule="evenodd" d="M109.291 97.0327L111.564 98.0306L112.804 100.499L112.494 103.439L110.066 108.691L107.018 116.41L104.744 127.805L103.401 134.684L99.8366 141.459L96.1683 144.925L91.5706 146.71L80.3081 147.97L72.7653 148.338L66.3076 149.283L59.0231 150.543L50.0339 152.014L43.6279 150.491L40.3215 149.231L39.0816 146.5L41.0964 143.717L45.9853 141.273L48.9449 138.865L49.4733 136.042L41.5097 127.385L38.4098 124.707L37.325 121.661L38.255 118.983L40.3215 116.778L41.5097 117.04L42.6462 118.668L44.2477 120.506L45.9526 121.924L57.06 119.876L58.6098 118.196L59.9531 116.147L61.8645 114.362L64.8093 113.207L67.9091 112.577L70.4406 112.786L72.352 113.627L77.5184 116.252L88.2125 119.036L90.744 118.511L92.7588 117.04L94.2052 114.415L95.6519 110.738L96.9949 107.483L99.01 104.227L101.49 101.076L103.918 98.7131L106.811 97.4003L109.291 97.0327Z" fill="#A84F46"/>
<path fill-rule="evenodd" clip-rule="evenodd" d="M47.5299 121.076L45.05 117.558L42.4153 112.412L39.8321 105.953L38.3856 99.9661L37.8689 93.7696L38.4373 89.2534L39.3155 86.5227L40.6587 84.4748L41.6919 83.6871L43.1385 85.315L44.275 88.1507L46.7032 93.507L50.0095 100.439L52.7476 105.27L54.9692 108.421L56.7773 110.259L58.2757 111.466L59.8068 112.412L61.6253 113.487L62.0883 114.327L60.9971 115.268L60.0713 116.075L58.8149 117.991L57.5254 119.402L56.269 120.074L53.5909 119.705L50.4168 120.007L47.5299 121.076ZM69.3091 111.855L71.4251 109.569L73.4752 107.351L75.3929 104.259L77.7073 100.293L80.0218 96.7309L82.138 92.6979L84.4524 88.2616L87.9572 82.6826L88.8168 83.7582L90.0071 85.4386L91.7053 88.0385L93.3982 91.6951L94.8371 96.04L95.3873 99.9116L95.8528 104.342L95.6835 107.612L95.3873 110.709L94.7948 113.032L93.5252 115.786L91.1974 118.324L88.8697 118.883L87.4307 118.84L83.5371 116.861L80.9556 116.345H77.3582L75.8347 115.355L71.9833 113.505L69.3091 111.855Z" fill="#FFDA53"/>
<path d="M58.1875 134.906C61.9851 132.06 62.8441 127.353 60.1061 124.393C57.3682 121.433 52.0701 121.34 48.2725 124.187C44.4749 127.033 43.6159 131.74 46.3538 134.7C49.0918 137.66 54.3899 137.752 58.1875 134.906Z" fill="#CFF1FF"/>
<path d="M83.7968 130.265C87.7352 127.42 88.7926 122.99 86.1586 120.37C83.5245 117.751 78.1965 117.933 74.258 120.778C70.3196 123.623 69.2622 128.053 71.8963 130.673C74.5304 133.292 79.8584 133.11 83.7968 130.265Z" fill="#CFF1FF"/>
<path fill-rule="evenodd" clip-rule="evenodd" d="M127.348 89.0039C127.348 89.0039 133.768 99.4889 127.379 106.145C126.852 106.694 126.847 104.46 126.407 102.09C125.973 99.7579 124.697 97.9823 124.079 98.4476C122.835 99.3849 123.793 111.687 118.369 112.534C117.132 112.727 120.974 104.134 118.777 105.398C117.785 105.969 117.346 108.862 114.825 112.645C112.938 115.477 108.074 115.317 108.074 115.317C108.074 115.317 112.256 115.969 114.296 114.319C116.962 112.162 117.1 109.887 117.482 110.033C117.911 110.197 115.895 113.115 117.202 113.77C118.223 114.283 121.459 113.153 122.793 110.899C125.621 106.118 124.32 104.25 125.015 102.728C125.813 100.983 124.899 109.028 127.059 108.124C130.011 106.888 132.262 100.835 131.209 96.6848C130.128 92.4255 127.348 89.0039 127.348 89.0039Z" fill="#172629"/>
<path fill-rule="evenodd" clip-rule="evenodd" d="M95.3163 76.9561C95.3163 76.9561 91.816 63.5097 84.4188 63.5137C81.7733 63.5151 79.7378 71.8047 76.7402 81.8252C73.8703 91.4175 69.8885 100.322 69.8885 100.322C69.8885 100.322 73.6213 95.8756 77.4108 84.1181C79.8244 76.6295 82.4747 68.1842 84.3945 66.4163C88.02 63.0777 95.3163 76.9561 95.3163 76.9561Z" fill="#172629"/>
<path fill-rule="evenodd" clip-rule="evenodd" d="M42.2122 82.9277C40.5562 80.8974 37.8084 80.0663 37.8084 80.0663C37.8084 80.0663 41.2727 83.0053 40.2843 84.2599C32.5959 94.0183 41.247 114.774 46.7328 121.138C46.7328 121.138 49.8215 120.018 52.6031 119.776C54.873 119.579 56.8305 120.312 57.6258 119.872C60.3999 118.335 58.5374 115.272 65.9776 113.51C70.6307 112.409 72.3618 114.456 77.766 116.586C78.482 116.868 79.2454 116.686 79.6542 116.706C80.4618 116.745 80.7499 116.755 82.6024 116.957C84.3696 117.15 87.1185 119.726 89.3608 119.671C91.5938 119.616 93.8444 116.492 94.7529 115.043C98.2097 109.533 96.7311 95.8032 92.9894 89.2088C91.1769 86.0145 89.1853 84.0744 88.7778 82.9718C88.4425 82.064 88.9447 79.3218 88.9447 79.3218C88.9447 79.3218 84.7323 86.2372 80.4822 93.6578C79.1303 96.0186 77.6291 99.1581 76.2749 101.433C72.6681 107.494 69.3514 111.84 67.0015 112.253C65.1298 112.583 63.6912 110.823 62.9543 107.891C62.1201 104.571 61.8991 100.322 61.8991 100.322C61.8991 100.322 61.1077 103.182 61.5691 106.846C61.8301 108.917 63.5828 112.276 62.8598 112.773C61.6375 113.613 56.3275 110.976 52.726 104.118C48.4972 96.0648 43.9068 85.0055 42.2122 82.9277ZM94.832 109.073C96.4528 94.8599 89.0567 83.4242 87.9188 84.0341C87.0724 84.4877 85.0039 89.0404 82.6024 93.6959C81.3929 96.0407 79.576 98.8184 78.0217 101.834C76.6566 104.483 72.6164 109.465 70.5423 111.143C69.2977 112.149 73.2004 113.557 75.9175 114.987C79.2909 116.761 79.8571 115.707 82.6024 116.149C83.873 116.354 84.6513 116.125 87.1934 117.929C88.2136 118.653 93.6623 119.332 94.832 109.073ZM61.3514 114.065C61.3209 113.513 57.7083 111.985 55.3095 109.475C52.3474 106.375 50.1331 102.764 47.9403 98.2648C45.0094 92.251 43.1645 85.7486 41.5915 84.6743C40.2762 83.7759 37.5144 90.3084 38.5596 97.128C39.3062 102 39.7816 104.946 42.6115 111.434C44.9454 116.785 46.5861 120.037 47.8137 120.37C48.0937 120.446 50.173 119.46 52.1903 119.258C54.2074 119.056 56.1149 119.524 56.7607 119.217C57.8874 118.683 58.8984 116.737 59.7823 115.725C60.6388 114.744 61.3866 114.699 61.3514 114.065Z" fill="#172629"/>
<path fill-rule="evenodd" clip-rule="evenodd" d="M51.8899 119.121C58.4412 118.242 64.3725 122.131 65.1269 127.8C65.8814 133.469 61.175 138.785 54.6236 139.664C48.0723 140.543 42.141 136.654 41.3866 130.985C40.6324 125.316 45.3388 120 51.8899 119.121ZM51.642 120.504C57.3506 119.738 62.5189 123.127 63.1765 128.066C63.8338 133.006 59.7326 137.639 54.024 138.405C48.3153 139.17 43.147 135.782 42.4897 130.842C41.8324 125.902 45.9333 121.27 51.642 120.504Z" fill="#172629"/>
<path fill-rule="evenodd" clip-rule="evenodd" d="M61.0951 126.187C61.0951 126.187 57.7213 122.031 52.3141 122.695C47.1377 123.33 44.6448 128.019 44.6448 128.019C45.1307 126.144 47.2487 122.362 52.1816 121.7C57.1147 121.038 61.0228 124.408 61.0951 126.187Z" fill="black" fill-opacity="0.35"/>
<path fill-rule="evenodd" clip-rule="evenodd" d="M86.2627 119.202C86.2627 119.202 80.8907 119.45 77.2986 121.464C73.8597 123.391 75.2054 125.286 75.2054 125.286C74.2854 124.705 73.2795 123.139 76.5179 121.29C79.7566 119.441 84.9896 118.835 86.2627 119.202Z" fill="black" fill-opacity="0.35"/>
<path fill-rule="evenodd" clip-rule="evenodd" d="M73.0286 121.467C76.6194 117.924 82.2527 116.857 85.6006 119.087C88.9485 121.316 88.7513 126.003 85.1605 129.546C81.5695 133.089 75.9364 134.156 72.5885 131.926C69.2407 129.697 69.4379 125.01 73.0286 121.467ZM73.5782 122.148C76.7072 119.061 81.616 118.131 84.5333 120.074C87.4506 122.016 87.2787 126.1 84.1497 129.188C81.0208 132.275 76.1121 133.205 73.1949 131.262C70.2776 129.319 70.4494 125.235 73.5782 122.148Z" fill="#172629"/>
<path fill-rule="evenodd" clip-rule="evenodd" d="M105.968 85.0951C104.931 84.6761 103.295 83.4406 102.748 83.9073C102.424 84.1842 104.428 85.5738 105.442 85.9826C106.417 86.3761 108.635 86.5849 108.947 86.3183C109.434 85.9021 106.904 85.473 105.968 85.0951Z" fill="#172629"/>
<path fill-rule="evenodd" clip-rule="evenodd" d="M40.1895 125.176C38.7612 124.072 37.998 122.735 38.1556 121.255C38.4464 118.526 40.8733 117.118 40.8733 117.118L40.1107 115.724C40.1107 115.724 38.3216 117.646 37.4204 119.15C36.857 120.091 36.5803 121.401 36.6139 122.241C36.6675 123.577 37.5492 124.806 37.7699 125.138C39.2216 127.321 42.1155 128.427 42.1155 128.427L42.8329 126.597C42.8329 126.597 41.5193 126.203 40.1895 125.176Z" fill="#172629"/>
<path fill-rule="evenodd" clip-rule="evenodd" d="M106.249 88.6461C105.454 88.3734 104.297 87.632 103.764 87.8604C103.449 87.9959 104.887 88.8369 105.663 89.1032C106.41 89.3594 108.222 89.5708 108.526 89.4404C109.001 89.2368 106.965 88.8922 106.249 88.6461Z" fill="#172629"/>
<path fill-rule="evenodd" clip-rule="evenodd" d="M106.454 91.2829C106.087 91.1028 105.71 90.4901 105.277 90.7883C105.02 90.9653 105.525 91.645 105.884 91.8207C106.228 91.9897 107.252 91.9819 107.499 91.8115C107.885 91.5456 106.784 91.4453 106.454 91.2829Z" fill="#172629"/>
<path fill-rule="evenodd" clip-rule="evenodd" d="M42.6521 122.544C42.2843 122.366 41.124 121.652 40.6891 121.948C40.4311 122.124 41.2578 123.035 41.6173 123.209C41.7774 123.287 42.2388 123.958 42.7186 124.102C43.2754 124.27 43.7388 123.963 43.8721 123.872C44.2597 123.609 42.9839 122.706 42.6521 122.544Z" fill="#172629"/>
<path fill-rule="evenodd" clip-rule="evenodd" d="M18.3029 117.346C17.9657 117.497 16.8466 118.351 16.8466 118.351C16.8466 118.351 17.9935 117.956 18.3537 117.863C18.9195 117.716 20.0079 117.543 20.0079 117.543L20.5083 115.863C20.5083 115.863 18.607 117.209 18.3029 117.346Z" fill="#172629"/>
<path fill-rule="evenodd" clip-rule="evenodd" d="M47.7387 137.92C47.4504 137.922 46.3436 137.931 46.3436 137.931C46.3436 137.931 47.1737 137.924 47.3963 137.922C47.746 137.919 48.284 137.914 48.284 137.914L49.8098 137.903C49.8098 137.903 47.9988 137.918 47.7387 137.92Z" fill="#172629"/>
<path fill-rule="evenodd" clip-rule="evenodd" d="M132.076 96.0278C132.511 96.5193 132.367 97.6548 132.367 97.6548C132.367 97.6548 132.205 97.0213 131.951 96.7682C131.571 96.3895 130.459 96.2108 130.459 96.2108L130.221 94.3284C130.221 94.3284 131.426 95.292 132.076 96.0278Z" fill="#172629"/>
<path fill-rule="evenodd" clip-rule="evenodd" d="M40.7683 143.864C40.9141 143.508 40.9671 141.971 40.9671 141.971C40.9671 141.971 40.3968 143.102 40.2024 143.414C39.8971 143.904 39.249 144.736 39.249 144.736L39.6443 146.102C39.6443 146.102 40.6366 144.186 40.7683 143.864Z" fill="#172629"/>
<path fill-rule="evenodd" clip-rule="evenodd" d="M107.516 96.1042C105.286 96.6397 103.331 97.8406 101.678 99.5131C99.5231 101.692 96.0202 107.749 96.0202 107.749L95.8576 111.987C96.471 110.182 100.404 102.106 103.44 100.093C105.302 98.8586 106.496 98.315 108.715 98.1877C109.965 98.1161 111.717 99.3469 111.732 100.619C111.776 104.336 110.587 105.301 108.478 110.022C106.87 113.621 106.252 114.814 105.103 120.089C104.354 123.531 104.045 129.319 102.758 133.669C101.436 138.134 99.1156 141.147 96.6797 143.536C92.7353 147.405 75.8289 147.144 73.3024 147.446C65.3916 148.389 57.6194 150.452 49.6807 151.107C48.1711 151.232 43.9817 150.441 45.3367 149.753C54.2563 145.221 71.4581 145.458 78.5247 144.797C87.0989 143.994 92.4953 146.625 98.8552 136.719C101.707 132.277 102.473 125.307 103.011 119.722C103.396 115.713 103.86 111.835 104.812 109.539C106.618 105.183 107.082 105.241 109.518 101.225C110.495 99.6145 106.097 103.777 105.104 105.377C103.618 107.77 102.752 111.811 102.135 114.57C101.824 115.958 101.51 121.179 101.227 123.53C100.609 128.677 99.9137 131.969 98.1228 135.199C93.3714 143.767 87.368 142.746 78.5099 143.309C71.0702 143.783 59.6538 144.161 52.3259 145.915C47.8673 146.983 47.551 147.915 42.8753 149.113C41.771 149.396 39.7654 147.635 40.2111 146.569C41.0492 144.567 43.3384 143.386 45.3579 142.663C49.9528 141.018 55.8955 139.81 60.7255 139.165C64.8774 138.61 68.4362 138.038 73.2334 137.944C75.8051 137.894 78.8276 137.986 81.1205 138.223C82.7262 138.388 83.5556 138.358 85.3001 138.419C87.2649 138.488 81.7171 136.78 75.1585 136.571C71.0183 136.44 67.1295 136.617 63.3905 137.016C61.423 137.226 47.8117 139.664 43.2118 141.739C39.5941 143.371 35.1671 147.087 40.59 150.506C42.0722 151.44 43.0315 151.139 44.0426 151.472C45.0329 151.799 44.9913 152.786 46.8815 152.94C52.5081 153.399 59.2581 151.078 65.3469 150.112C72.1676 149.03 74.1416 149.096 80.9822 148.929C86.9623 148.782 94.7437 147.491 97.5535 145.05C102.802 140.491 104.734 134.277 105.683 127.092C106.245 122.836 107.186 118.649 108.109 115.325C109.385 110.73 111.962 107.314 113.546 102.818C116.024 95.7833 106.696 93.1056 104.216 93.4507C102.972 93.6237 109.184 95.7037 107.516 96.1042Z" fill="#172629"/>
<path fill-rule="evenodd" clip-rule="evenodd" d="M18.7726 122.199C19.5171 118.023 22.4009 113.729 22.4009 113.729C22.4009 113.729 19.151 117.178 18.3727 119.066C17.7158 120.66 17.2848 122.377 17.1468 124.099C17.0194 125.691 17.507 132.629 19.3259 133.698C20.7964 134.561 22.786 129.647 23.3248 131.298C23.9275 133.147 24.4345 134.386 24.8813 135.559C25.7912 137.948 27.7336 140.061 30.1153 140.435C31.294 140.62 31.0411 137.289 32.3727 138.393C37.7011 142.811 40.9089 141.914 40.9089 141.914C40.9089 141.914 37.4292 140.609 34.4629 137.927C31.9121 135.62 29.7163 132.908 28.4987 132.604C27.3418 132.315 32.6488 137.392 29.6576 138.37C28.6639 138.694 27.6584 138.009 26.8335 136.679C24.8511 133.481 23.4393 127.154 22.3213 126.503C21.2669 125.888 21.7803 133.402 19.894 131.932C17.7789 130.284 18.2976 124.865 18.7726 122.199Z" fill="#172629"/>
<path fill-rule="evenodd" clip-rule="evenodd" d="M69.7887 131.148C67.659 130.564 65.6356 130.503 64.1858 131.539L63.7703 133.271C65.2435 131.722 67.2988 131.113 70.5574 132.792L69.7887 131.148Z" fill="#172629"/>
<path fill-rule="evenodd" clip-rule="evenodd" d="M68.2964 129.023C66.4664 128.442 65.3811 128.659 64.1266 129.54L63.7703 131.025C65.209 129.728 66.6681 129.152 69.2334 130.513L68.2964 129.023Z" fill="#172629"/>
<path fill-rule="evenodd" clip-rule="evenodd" d="M36.4551 109.641C35.7601 107.926 35.1716 106.091 34.7046 104.121C33.5829 105.264 31.8878 105.693 30.4898 105.513C28.6278 105.272 27.1057 104.117 25.9558 104.123C25.1157 104.128 25.8356 105.45 26.9316 106.4C27.7741 107.13 28.9819 107.415 29.0031 108.089C29.035 109.105 26.9819 109.195 25.6682 109.701C23.8518 110.4 21.7079 110.913 20.4859 111.801C17.6261 113.881 16.6804 118.279 16.6804 118.279C15.9119 114.41 17.8108 109.868 25.0118 108.036C26.8849 107.56 24.9945 107.209 24.2755 105.5C23.645 104.001 23.7697 101.084 24.7279 101.317C26.1849 101.672 27.8789 103.133 29.7436 103.611C31.1694 103.976 32.684 103.689 34.3553 102.508C33.4396 97.8416 33.1758 92.4399 33.7391 86.0989C21.1954 83.5424 14.0992 61.2082 23.9723 60.464C31.1428 59.9235 34.4135 61.3926 40.621 60.5822C39.6044 52.3068 27.9876 37.7006 18.8282 28.9273L18.779 28.9994L16.3834 26.7072L16.3996 26.687L16.3834 26.6728L16.4147 26.668C36.3265 1.76004 73.1775 -8.97405 105.555 8.82226L105.538 8.85322L105.555 8.85862C101.465 16.8627 98.3933 25.9602 96.4221 36.2369C97.7578 36.2378 99.1173 36.3755 100.511 36.6701C113.942 39.5057 121.829 62.3032 109.318 77.2216C110.903 76.8259 112.575 75.9766 114.057 74.7646C117.527 71.9287 120.006 67.6609 120.614 67.7012C121.89 67.7862 119.18 73.2001 119.586 75.7923C119.707 76.5635 124.924 75.1762 127.667 75.1168C131.739 75.0282 133.573 76.9063 133.665 77.882C133.919 80.5867 127.101 79.2761 127.549 80.2793C128.944 83.4002 138.393 85.9367 132.731 97.7552C133.679 94.5541 134.531 91.5829 132.788 88.4099C130.489 84.2227 125.362 81.0443 125.288 79.5985C125.201 77.8956 130.134 79.6988 131.182 77.6931C131.685 76.7302 129.856 75.1214 125.126 76.0738C122.647 76.5728 118.225 78.3635 117.627 77.3457C116.985 76.2519 120.194 70.2667 119.918 69.5012C119.848 69.3064 118.018 72.7158 115.595 75.1495C113.497 77.2571 109.189 80.3296 105.34 79.7215C102.557 79.4471 98.521 77.1614 99.008 76.4584C99.4275 75.8531 104.935 79.3727 103.654 77.0205C102.634 75.1475 97.0648 70.2449 93.2137 66.0265C91.9149 64.604 91.8856 64.0419 91.2864 62.4078C91.0352 61.7232 86.8416 62.7668 84.7326 62.5574C78.4462 61.9334 74.3185 62.7466 70.3579 63.0914C67.1996 63.3661 63.7566 64.7667 60.9691 64.6253C58.4052 64.4955 55.3791 62.0504 53.6329 62.2436C50.3731 62.604 58.3857 66.1492 57.6258 67.1536C56.7607 68.2977 54.9504 68.2645 53.1821 69.5489C51.6457 70.6652 48.8211 72.3084 49.8276 74.578C50.4055 75.8803 54.875 70.4164 55.6119 71.5949C55.9578 72.148 54.0992 75.1796 53.7158 77.2807C53.2844 79.6431 53.6354 81.3709 53.9701 81.791C54.9205 82.9837 58.339 77.5105 60.5245 73.1808C60.3057 75.9343 55.2933 86.1787 53.4247 84.1585C50.1879 80.6591 53.6801 76.2348 52.877 75.4261C52.2272 74.772 49.3059 77.11 48.5545 76.7211C47.8031 76.3322 48.8647 73.3143 48.3684 73.093C47.8724 72.872 45.3769 74.4581 45.7399 75.4188C47.1553 79.165 50.4916 86.6002 50.7289 90.2735C50.7289 90.2735 48.9739 87.2444 46.3072 80.9781C43.9934 75.5412 40.8793 69.3558 38.7096 70.0903C35.6469 71.1271 36.554 76.1595 36.037 81.0701C35.3077 88 35.0176 95.5422 35.8191 101.471C37.451 113.54 44.8152 120.404 46.3354 121.475L45.1441 122.292C42.8298 120.057 40.5 117.143 38.7566 114.284C38.1225 114.766 37.6315 115.17 37.1674 115.389C36.2815 115.805 34.2276 117.227 34.0588 116.638C33.7746 115.645 35.4242 115.047 36.253 114.479C37.1333 113.875 37.5298 113.544 38.0107 112.972C37.7361 112.456 37.4717 111.929 37.2188 111.389C36.6146 111.921 35.6335 112.118 35.1389 112.351C34.253 112.768 31.311 113.143 31.4402 112.544C31.6271 111.678 33.6355 111.38 34.5467 110.963C35.5441 110.506 36.087 110.143 36.4551 109.641ZM21.6763 63.4937C25.8387 61.68 30.3201 63.0574 34.606 63.1835C39.2266 63.3195 44.0613 63.1855 48.3636 61.2344C51.5538 59.7877 55.0136 57.74 58.09 56.0579C61.1748 54.3715 64.2755 52.4659 67.3145 50.6951C74.7419 46.3668 81.842 41.9519 90.4143 40.2854C95.6349 39.2705 100.862 39.2626 105.426 42.2845C107.833 43.8792 110.087 46.3873 111.833 48.5361C111.375 47.2792 110.637 46.1231 109.805 45.0827C101.447 34.6235 87.3275 38.6331 77.083 43.3795C74.3766 44.6336 71.7853 46.1331 69.1929 47.6155C64.5332 50.2801 60.8722 52.8314 56.2613 55.5824C52.9069 57.5838 50.7889 58.8254 47.1724 60.3371C43.0707 62.0518 38.5288 62.0251 34.1837 61.9496C30.1567 61.8794 25.2057 60.5578 21.6763 63.4937ZM65.488 39.3634C61.9913 39.873 55.4529 42.5615 52.6615 44.4441L56.5609 53.3876C61.976 50.1736 64.3325 48.779 67.5819 47.0372L65.488 39.3634ZM88.5859 36.2213C72.6117 34.3102 56.2141 35.7501 37.9755 51.7603L38.5705 52.8033C52.1711 39.9914 69.1734 35.2482 88.5859 36.2213ZM54.9856 4.02075C49.0712 4.74422 39 9.25089 35.5421 12.3209L51.0955 40.7794C55.3702 38.4454 59.8329 36.7814 64.5209 35.9179L54.9856 4.02075Z" fill="#172629"/>
<path d="M48.0932 114.793L48.9606 113.934C49.3413 114.677 49.6884 115.153 50.0154 115.394C50.3491 115.65 50.6628 115.672 50.9631 115.475C51.284 115.265 51.4549 114.946 51.476 114.518C51.504 114.086 51.4296 113.659 51.2529 113.237C51.1374 112.961 51.0082 112.756 50.8584 112.606C50.7086 112.456 50.5178 112.375 50.2928 112.336C50.136 112.315 49.795 112.311 49.2903 112.353C48.6288 112.373 48.0971 112.246 47.6952 111.93C47.1231 111.478 46.6467 110.798 46.2662 109.889C46.0148 109.289 45.8521 108.692 45.778 108.079C45.7107 107.482 45.7388 106.946 45.8963 106.512C46.047 106.061 46.3135 105.721 46.6889 105.475C47.3033 105.072 47.9033 105.092 48.4755 105.523C49.0545 105.95 49.5716 106.707 50.0406 107.765L49.0915 108.511C48.7992 107.938 48.5338 107.574 48.2817 107.408C48.0365 107.238 47.7705 107.247 47.4975 107.426C47.2108 107.615 47.0399 107.892 46.9915 108.275C46.9707 108.537 47.0112 108.8 47.1403 109.109C47.2558 109.385 47.3987 109.58 47.5826 109.708C47.8142 109.887 48.2233 109.95 48.8099 109.896C49.41 109.854 49.8805 109.897 50.2281 110.041C50.5757 110.165 50.9298 110.45 51.2634 110.851C51.6037 111.269 51.9234 111.846 52.2359 112.592C52.5145 113.258 52.6976 113.924 52.7852 114.611C52.8728 115.298 52.8311 115.863 52.6667 116.343C52.5023 116.803 52.2085 117.182 51.7853 117.459C51.1641 117.867 50.5504 117.835 49.9305 117.373C49.3175 116.906 48.7051 116.046 48.0932 114.793Z" fill="#172629"/>
<path d="M81.0147 111.505L81.8955 110.574C82.2939 111.345 82.6548 111.835 82.9927 112.079C83.3378 112.339 83.6598 112.352 83.9658 112.136C84.2928 111.904 84.4648 111.563 84.482 111.112C84.5062 110.657 84.4255 110.209 84.2399 109.77C84.1185 109.483 83.9838 109.272 83.8285 109.118C83.6733 108.965 83.4767 108.885 83.2455 108.851C83.0844 108.833 82.7346 108.84 82.2173 108.899C81.539 108.94 80.9922 108.823 80.5767 108.503C79.985 108.044 79.4893 107.342 79.0896 106.397C78.8254 105.772 78.6523 105.149 78.5699 104.505C78.4946 103.879 78.5179 103.314 78.6749 102.852C78.8249 102.373 79.0947 102.006 79.4772 101.735C80.1033 101.292 80.719 101.295 81.3105 101.732C81.9089 102.164 82.4472 102.945 82.9393 104.045L81.9735 104.86C81.6676 104.265 81.3916 103.89 81.1313 103.723C80.8779 103.551 80.6052 103.569 80.327 103.766C80.0348 103.973 79.8624 104.27 79.8168 104.676C79.7981 104.952 79.8424 105.228 79.9781 105.548C80.0994 105.835 80.2481 106.037 80.4381 106.166C80.6775 106.348 81.0978 106.401 81.6989 106.326C82.3142 106.264 82.7972 106.295 83.1553 106.436C83.5131 106.556 83.8794 106.845 84.2257 107.258C84.5792 107.687 84.9131 108.285 85.2415 109.061C85.5342 109.753 85.729 110.449 85.826 111.17C85.923 111.891 85.886 112.487 85.7224 112.998C85.5586 113.487 85.2611 113.895 84.8298 114.2C84.1969 114.648 83.567 114.634 82.9263 114.166C82.2926 113.693 81.6554 112.806 81.0147 111.505Z" fill="#172629"/>
<path d="M81.1904 99.7981L80.6837 99.9736L84.6555 115.581L85.1621 115.406L81.1904 99.7981Z" fill="#172629"/>
<path d="M80.0447 100.141L79.5381 100.316L83.5098 115.924L84.0165 115.749L80.0447 100.141Z" fill="#172629"/>
<path d="M47.7544 103.243L47.2656 103.421L51.7325 118.613L52.2213 118.435L47.7544 103.243Z" fill="#172629"/>
<path d="M46.7435 103.516L46.2547 103.695L50.7215 118.887L51.2103 118.709L46.7435 103.516Z" fill="#172629"/>
</g>
</g>
<defs>
<filter id="filter0_d_39_38" x="6.38336" y="-10" width="138.138" height="173" filterUnits="userSpaceOnUse" color-interpolation-filters="sRGB">
<feFlood flood-opacity="0" result="BackgroundImageFix"/>
<feColorMatrix in="SourceAlpha" type="matrix" values="0 0 0 0 0 0 0 0 0 0 0 0 0 0 0 0 0 0 127 0" result="hardAlpha"/>
<feOffset/>
<feGaussianBlur stdDeviation="5"/>
<feComposite in2="hardAlpha" operator="out"/>
<feColorMatrix type="matrix" values="0 0 0 0 0.862745 0 0 0 0 0.65098 0 0 0 0 0.317647 0 0 0 1 0"/>
<feBlend mode="normal" in2="BackgroundImageFix" result="effect1_dropShadow_39_38"/>
<feBlend mode="normal" in="SourceGraphic" in2="effect1_dropShadow_39_38" result="shape"/>
</filter>
<clipPath id="clip0_39_38">
<rect width="151" height="153" fill="white"/>
</clipPath>
</defs>
</svg>
