<svg width="409" height="384" viewBox="0 0 409 384" fill="none" xmlns="http://www.w3.org/2000/svg">
<g clip-path="url(#clip0)">
<g opacity="0.12">
<path opacity="0.12" d="M333.6 373.65L123.04 370.79C86.6099 370.84 50.7799 344.35 28.9099 303.41C7.03985 262.47 -0.880145 208.29 6.26985 158.67C13.4199 109.05 35.1199 64.45 64.5499 35.05C82.6898 16.93 103.9 4.28001 126.19 0.890007C148.48 -2.49999 171.8 3.73001 190.94 20.46C224.23 49.59 242.26 107.03 277.94 129.95C294.55 140.63 313.21 142.52 330.85 149.13C365.57 162.13 398.56 199.47 403.17 249.05C406.55 285.43 398.09 312.51 380.59 341.14C366.12 364.81 354.64 376.37 333.59 373.65" fill="#A85758"/>
</g>
<path d="M211.38 383.66C300.469 383.66 372.69 380.029 372.69 375.55C372.69 371.071 300.469 367.44 211.38 367.44C122.291 367.44 50.0698 371.071 50.0698 375.55C50.0698 380.029 122.291 383.66 211.38 383.66Z" fill="#CFC9F2"/>
<path d="M162.59 373.86C163.763 368.02 165.237 362.193 167.01 356.38C168.783 350.567 170.853 344.77 173.22 338.99C175.553 333.29 178.17 327.643 181.07 322.05C183.97 316.457 187.17 310.887 190.67 305.34C194.13 299.873 197.85 294.5 201.83 289.22L203.32 287.22C203.398 287.117 203.45 286.996 203.472 286.869C203.494 286.741 203.485 286.61 203.446 286.487C203.407 286.363 203.338 286.251 203.247 286.159C203.155 286.068 203.043 285.999 202.92 285.96C202.35 285.75 201.78 286.69 201.42 287.16C197.35 292.45 193.42 297.16 189.85 302.65C186.28 308.14 183.07 313.65 180.09 319.24C177.11 324.83 174.31 330.68 171.85 336.48C169.39 342.28 167.27 348.02 165.42 353.84C163.57 359.66 162.01 365.51 160.76 371.37C160.607 372.097 160.457 372.82 160.31 373.54C160.275 373.665 160.269 373.797 160.293 373.925C160.316 374.053 160.368 374.174 160.445 374.279C160.522 374.384 160.622 374.47 160.737 374.531C160.852 374.592 160.98 374.626 161.11 374.63C161.66 374.7 162.48 374.33 162.58 373.81L162.59 373.86Z" fill="#37474F"/>
<path d="M200.58 289.2C202.02 285.75 203.25 282.5 205.79 279.75C207.05 278.585 208.548 277.709 210.18 277.18C210.84 276.96 211.8 277.04 211.94 277.72C211.969 277.952 211.934 278.187 211.84 278.4C211.089 280.488 209.915 282.398 208.39 284.01C206.03 286.34 203.22 287.19 200.58 289.21" fill="#37474F"/>
<path d="M197.69 292.96C195.91 289.56 194.16 286.46 193.69 282.66C193.598 280.905 193.888 279.152 194.54 277.52C194.8 276.85 195.49 276.15 196.12 276.52C196.322 276.651 196.484 276.834 196.59 277.05C197.743 279.008 198.478 281.184 198.75 283.44C199.04 286.83 197.87 289.6 197.75 293" fill="#37474F"/>
<path d="M197.25 293.2C200.83 291.82 204.1 290.42 207.94 290.35C209.69 290.456 211.396 290.941 212.94 291.77C213.57 292.1 214.2 292.87 213.79 293.45C213.636 293.633 213.436 293.772 213.21 293.85C211.136 294.776 208.892 295.263 206.62 295.28C203.22 295.19 200.62 293.71 197.24 293.19" fill="#37474F"/>
<path d="M190.33 303.36C188.41 299.68 186.51 296.36 185.97 292.21C185.869 290.309 186.183 288.408 186.89 286.64C187.17 285.92 187.89 285.15 188.6 285.52C188.819 285.66 188.995 285.857 189.11 286.09C190.359 288.21 191.156 290.566 191.45 293.01C191.77 296.68 190.45 299.67 190.34 303.35" fill="#37474F"/>
<path d="M189.88 303.2C193.75 301.7 197.3 300.2 201.45 300.12C203.35 300.234 205.203 300.759 206.88 301.66C207.56 302.02 208.24 302.85 207.8 303.48C207.637 303.68 207.422 303.832 207.18 303.92C204.932 304.921 202.501 305.445 200.04 305.46C196.36 305.36 193.53 303.76 189.89 303.2" fill="#37474F"/>
<path d="M182.27 316.58C179.81 311.88 177.38 307.58 176.69 302.33C176.562 299.899 176.965 297.47 177.87 295.21C178.23 294.29 179.18 293.31 180.05 293.78C180.329 293.96 180.553 294.212 180.7 294.51C182.299 297.218 183.321 300.228 183.7 303.35C184.1 308.04 182.48 311.87 182.29 316.57" fill="#37474F"/>
<path d="M182.1 317.07C187.05 315.15 191.58 313.22 196.89 313.13C199.321 313.285 201.689 313.967 203.83 315.13C204.7 315.59 205.57 316.65 205 317.46C204.789 317.716 204.512 317.909 204.2 318.02C201.331 319.309 198.225 319.99 195.08 320.02C190.37 319.89 186.75 317.85 182.08 317.13" fill="#37474F"/>
<path d="M175.86 329.46C173.01 324.98 170.23 320.92 169.1 315.73C168.767 313.32 168.961 310.867 169.67 308.54C169.95 307.59 170.82 306.54 171.72 306.93C172.013 307.085 172.258 307.317 172.43 307.6C174.251 310.165 175.521 313.08 176.16 316.16C176.96 320.8 175.67 324.75 175.87 329.45" fill="#37474F"/>
<path d="M175.73 329.96C180.5 327.63 184.85 325.33 190.13 324.78C192.561 324.718 194.977 325.186 197.21 326.15C198.12 326.53 199.07 327.52 198.58 328.37C198.392 328.644 198.133 328.862 197.83 329C195.078 330.519 192.041 331.452 188.91 331.74C184.21 332.01 180.43 330.28 175.73 329.96Z" fill="#37474F"/>
<path d="M170.25 342.81C167.72 339.32 165.25 336.15 164.1 332C163.711 330.062 163.749 328.062 164.21 326.14C164.39 325.36 165.04 324.46 165.8 324.74C166.042 324.853 166.25 325.029 166.4 325.25C168.001 327.242 169.172 329.543 169.84 332.01C170.71 335.73 169.84 339.01 170.25 342.81Z" fill="#37474F"/>
<path d="M170.17 343.2C173.92 341.08 177.35 339 181.6 338.3C183.569 338.133 185.552 338.395 187.41 339.07C188.17 339.34 188.99 340.07 188.63 340.8C188.489 341.029 188.289 341.216 188.05 341.34C185.888 342.705 183.467 343.607 180.94 343.99C177.14 344.44 173.94 343.22 170.16 343.18" fill="#37474F"/>
<path d="M166.26 354.5C163.93 351.76 161.69 349.28 160.45 345.9C160.004 344.313 159.909 342.648 160.17 341.02C160.27 340.36 160.76 339.57 161.4 339.75C161.612 339.828 161.799 339.963 161.94 340.14C163.398 341.697 164.518 343.539 165.23 345.55C166.23 348.55 165.69 351.37 166.23 354.55" fill="#37474F"/>
<path d="M166.22 354.85C169.22 352.85 171.92 350.85 175.42 350.05C177.047 349.786 178.712 349.878 180.3 350.32C180.95 350.49 181.68 351.07 181.42 351.69C181.32 351.89 181.168 352.059 180.98 352.18C179.271 353.453 177.316 354.359 175.24 354.84C172.11 355.46 169.41 354.64 166.24 354.84" fill="#37474F"/>
<path d="M163.22 364.29C161.11 362.23 159.09 360.37 157.82 357.71C157.33 356.437 157.125 355.071 157.22 353.71C157.22 353.16 157.59 352.48 158.13 352.58C158.309 352.625 158.471 352.718 158.6 352.85C159.91 354.011 160.966 355.431 161.7 357.02C162.7 359.43 162.52 361.74 163.23 364.26" fill="#37474F"/>
<path d="M163.21 364.58C165.5 362.72 167.57 360.91 170.36 359.95C171.667 359.612 173.031 359.56 174.36 359.8C174.9 359.89 175.54 360.3 175.36 360.8C175.292 360.971 175.177 361.12 175.03 361.23C173.729 362.4 172.201 363.289 170.54 363.84C168.03 364.58 165.76 364.12 163.17 364.54" fill="#37474F"/>
<path d="M94.6398 371.99C91.4998 364.57 87.9698 357.237 84.0499 349.99C80.1299 342.743 75.8132 335.623 71.0999 328.63C66.4332 321.71 61.4332 314.937 56.0999 308.31C50.7665 301.683 44.9999 295.183 38.7999 288.81C32.7332 282.503 26.3432 276.39 19.6299 270.47L17.1199 268.28C16.9869 268.165 16.8838 268.019 16.8193 267.856C16.7548 267.692 16.7309 267.515 16.7496 267.34C16.7682 267.165 16.8289 266.998 16.9265 266.851C17.0241 266.705 17.1556 266.584 17.3098 266.5C18.0098 266.06 19.0099 267.16 19.6199 267.68C26.4499 273.58 32.9598 278.76 39.1498 285.07C45.3398 291.38 51.1498 297.79 56.5798 304.41C62.0098 311.03 67.3399 318 72.1699 325.02C76.9999 332.04 81.3699 339.02 85.3999 346.28C89.4299 353.54 93.0798 360.82 96.3298 368.28C96.7299 369.2 97.1265 370.12 97.5199 371.04C97.6005 371.196 97.6446 371.369 97.6487 371.545C97.6529 371.721 97.617 371.895 97.5438 372.055C97.4706 372.215 97.3619 372.356 97.2261 372.468C97.0903 372.58 96.9309 372.659 96.7599 372.7C96.3719 372.832 95.952 372.836 95.5615 372.711C95.1711 372.587 94.8306 372.341 94.5898 372.01L94.6398 371.99Z" fill="#455A64"/>
<path d="M21.34 270.2C18.5 266.01 15.98 262.04 11.87 259.09C9.88659 257.887 7.66527 257.129 5.35999 256.87C4.42999 256.76 3.16999 257.12 3.17999 258.06C3.20603 258.374 3.31662 258.674 3.49999 258.93C5.05939 261.494 7.13294 263.707 9.58999 265.43C13.35 267.88 17.3 268.24 21.35 270.2" fill="#455A64"/>
<path d="M26.1799 274.31C27.6099 269.31 29.0999 264.74 28.7299 259.57C28.3765 257.22 27.5167 254.975 26.2099 252.99C25.6899 252.18 24.5799 251.43 23.8399 252.05C23.607 252.278 23.4409 252.565 23.3599 252.88C22.3629 255.786 21.9782 258.868 22.2299 261.93C22.7599 266.5 25.0699 269.85 26.1799 274.32" fill="#455A64"/>
<path d="M26.7999 274.52C21.6899 273.66 16.9599 272.7 11.8699 273.65C9.57225 274.266 7.43619 275.375 5.60994 276.9C4.85994 277.51 4.23994 278.7 4.93994 279.36C5.19019 279.563 5.49089 279.694 5.80994 279.74C8.81049 280.402 11.9156 280.436 14.9299 279.84C19.4099 278.84 22.4799 276.13 26.7899 274.53" fill="#455A64"/>
<path d="M38.7999 286.09C40.3499 280.7 41.9599 275.73 41.5599 270.09C41.1618 267.558 40.2203 265.143 38.7999 263.01C38.2399 262.13 37.0399 261.32 36.2399 262.01C35.9928 262.255 35.8166 262.563 35.7299 262.9C34.6512 266.047 34.2358 269.384 34.5099 272.7C35.0899 277.65 37.5799 281.27 38.7799 286.1" fill="#455A64"/>
<path d="M39.3099 285.76C33.7799 284.82 28.6599 283.76 23.1499 284.81C20.662 285.474 18.3485 286.672 16.3699 288.32C15.5599 288.98 14.8899 290.26 15.6499 290.98C15.9233 291.201 16.2518 291.342 16.5999 291.39C19.8503 292.109 23.2143 292.146 26.4799 291.5C31.3299 290.37 34.6499 287.5 39.3199 285.75" fill="#455A64"/>
<path d="M53.0299 301.42C55.0299 294.52 57.0299 288.18 56.5499 281.02C56.3499 278.16 54.6099 274.32 53.0599 271.91C52.3399 270.79 50.7999 269.75 49.7799 270.61C49.4608 270.923 49.2326 271.317 49.1199 271.75C47.7404 275.774 47.2093 280.04 47.5599 284.28C48.2999 290.6 51.4899 295.28 53.0199 301.42" fill="#455A64"/>
<path d="M53.3898 302.02C46.3198 300.82 39.7798 299.5 32.7298 300.81C29.9198 301.33 26.2898 303.49 24.0698 305.3C23.0698 306.14 22.1798 307.78 23.1498 308.7C23.4975 308.983 23.9158 309.166 24.3598 309.23C28.5118 310.147 32.8085 310.194 36.9798 309.37C43.1798 307.93 47.4298 304.24 53.3898 302.02Z" fill="#455A64"/>
<path d="M65.01 316.75C67.57 310.05 70.15 303.9 70.25 296.75C70.25 293.89 68.88 289.91 67.54 287.38C66.92 286.2 65.48 285.04 64.39 285.81C64.047 286.096 63.7878 286.469 63.64 286.89C61.929 290.769 61.037 294.96 61.02 299.2C61.22 305.56 64.02 310.45 65.02 316.74" fill="#455A64"/>
<path d="M65.3199 317.38C58.3699 315.59 51.9699 313.71 44.8299 314.38C41.9799 314.66 38.1799 316.51 35.8299 318.12C34.7299 318.87 33.7299 320.43 34.6199 321.43C34.9422 321.741 35.3432 321.959 35.7799 322.06C39.8414 323.327 44.1213 323.739 48.3499 323.27C54.6499 322.36 59.1899 319.04 65.3499 317.33" fill="#455A64"/>
<path d="M76.07 332.92C78.47 327.61 80.86 322.75 81.29 316.92C81.2784 314.244 80.6847 311.603 79.55 309.18C79.1 308.18 77.99 307.18 77.07 307.75C76.7779 307.965 76.5498 308.255 76.41 308.59C74.8295 311.663 73.9034 315.031 73.69 318.48C73.54 323.65 75.57 327.75 76.08 332.9" fill="#455A64"/>
<path d="M76.29 333.44C70.74 331.65 65.64 329.82 59.81 330.05C57.1543 330.363 54.5986 331.251 52.32 332.65C51.39 333.21 50.51 334.43 51.18 335.28C51.4269 335.546 51.7415 335.739 52.09 335.84C55.3236 337.066 58.7764 337.607 62.23 337.43C67.39 336.99 71.23 334.52 76.29 333.43" fill="#455A64"/>
<path d="M84.5299 347.32C86.8699 343.05 89.1699 339.16 89.8899 334.32C90.0361 332.09 89.6949 329.855 88.8899 327.77C88.5799 326.92 87.7199 326.01 86.8899 326.42C86.6338 326.582 86.4264 326.81 86.2899 327.08C84.7804 329.538 83.7964 332.283 83.3999 335.14C82.9499 339.43 84.3999 342.97 84.4699 347.29" fill="#455A64"/>
<path d="M84.68 347.78C80.18 345.94 76.05 344.09 71.19 343.91C68.9593 344.002 66.7755 344.579 64.79 345.6C63.98 346 63.17 346.96 63.67 347.71C63.8573 347.949 64.1063 348.132 64.39 348.24C66.9987 349.475 69.835 350.156 72.72 350.24C77.04 350.24 80.39 348.4 84.72 347.81" fill="#455A64"/>
<path d="M91.2098 359.48C93.4498 356.17 95.6198 353.17 96.5798 349.29C96.8803 347.484 96.7848 345.635 96.2998 343.87C96.1098 343.15 95.4798 342.34 94.7898 342.62C94.5689 342.732 94.3822 342.901 94.2498 343.11C92.821 345 91.7995 347.165 91.2498 349.47C90.5498 352.94 91.4398 355.94 91.1898 359.47" fill="#455A64"/>
<path d="M91.2998 359.86C87.7598 358.01 84.5298 356.19 80.5698 355.67C78.7398 355.574 76.9108 355.878 75.2098 356.56C74.5198 356.83 73.7798 357.56 74.1398 358.2C74.275 358.41 74.4652 358.58 74.6898 358.69C76.7305 359.892 78.9982 360.658 81.3498 360.94C84.8798 361.24 87.7598 360.02 91.2998 359.87" fill="#455A64"/>
<path d="M79.7999 371.39C76.1533 368.117 72.3199 365 68.2999 362.04C64.2799 359.08 60.0666 356.277 55.6599 353.63C51.3199 351.023 46.8199 348.587 42.1599 346.32C37.4999 344.053 32.6499 341.957 27.6099 340.03C22.6433 338.123 17.5466 336.41 12.3199 334.89L10.3699 334.33C10.2708 334.301 10.18 334.248 10.1048 334.177C10.0297 334.106 9.97224 334.018 9.93721 333.921C9.90217 333.824 9.8905 333.719 9.90313 333.617C9.91576 333.514 9.95234 333.416 10.0099 333.33C10.2799 332.91 11.1199 333.25 11.5899 333.38C16.8799 334.86 21.7999 336.03 26.8299 337.91C31.8599 339.79 36.6999 341.82 41.4199 344.05C46.1399 346.28 50.8499 348.75 55.3299 351.37C59.8099 353.99 64.0199 356.73 68.1099 359.65C72.1999 362.57 76.1099 365.65 79.7999 368.92L81.1599 370.13C81.245 370.195 81.3139 370.279 81.3613 370.376C81.4087 370.472 81.4333 370.578 81.4333 370.685C81.4333 370.792 81.4087 370.898 81.3613 370.994C81.3139 371.091 81.245 371.175 81.1599 371.24C80.9803 371.412 80.7506 371.522 80.5043 371.554C80.258 371.586 80.0078 371.539 79.7899 371.42L79.7999 371.39Z" fill="#37474F"/>
<path d="M13.1899 334.28C10.5399 332.71 8.12992 331.17 5.10992 330.61C3.7063 330.46 2.2868 330.617 0.949917 331.07C0.409917 331.25 -0.190086 331.77 0.0599138 332.29C0.154551 332.457 0.292809 332.595 0.459915 332.69C1.97157 333.693 3.6736 334.374 5.45992 334.69C8.15991 335.07 10.4599 334.25 13.1599 334.28" fill="#37474F"/>
<path d="M16.9299 335.31C16.4299 332.2 16.0599 329.31 14.5199 326.54C13.72 325.327 12.6655 324.304 11.4299 323.54C10.9299 323.23 10.1299 323.1 9.87986 323.63C9.82748 323.82 9.82748 324.02 9.87986 324.21C10.0823 326.07 10.6679 327.868 11.5999 329.49C13.0699 331.87 15.2099 333.12 16.9699 335.29" fill="#37474F"/>
<path d="M17.35 335.26C14.35 336.1 11.47 336.8 8.90001 338.64C7.79449 339.571 6.90404 340.731 6.29001 342.04C6.04001 342.57 6.00001 343.38 6.56001 343.57C6.74979 343.622 6.95022 343.622 7.14001 343.57C8.94656 343.154 10.6484 342.371 12.14 341.27C14.34 339.54 15.34 337.27 17.3 335.27" fill="#37474F"/>
<path d="M26.9 338.55C26.36 335.18 25.96 332.03 24.3 329.06C23.4333 327.757 22.2936 326.658 20.96 325.84C20.42 325.5 19.55 325.37 19.29 325.94C19.2177 326.138 19.2004 326.353 19.24 326.56C19.459 328.571 20.0923 330.516 21.1 332.27C22.7 334.84 25 336.19 26.91 338.54" fill="#37474F"/>
<path d="M27.1199 338.2C23.8299 339.11 20.7499 339.86 17.9799 341.86C16.7843 342.868 15.8221 344.123 15.1599 345.54C14.8799 346.11 14.8499 346.99 15.4499 347.19C15.6559 347.248 15.8738 347.248 16.0799 347.19C18.0522 346.746 19.9112 345.898 21.5399 344.7C23.9199 342.83 24.9999 340.38 27.1199 338.22" fill="#37474F"/>
<path d="M38.71 343.3C38.02 338.99 37.51 334.97 35.38 331.16C34.2711 329.497 32.8142 328.095 31.11 327.05C30.42 326.62 29.31 326.44 28.97 327.18C28.8744 327.435 28.8502 327.712 28.9 327.98C29.1807 330.552 29.9911 333.037 31.28 335.28C33.28 338.57 36.28 340.28 38.71 343.28" fill="#37474F"/>
<path d="M39.0599 343.54C34.8599 344.71 30.9199 345.67 27.3699 348.21C25.8538 349.504 24.6358 351.111 23.7999 352.92C23.4499 353.65 23.3999 354.78 24.1699 355.03C24.4317 355.102 24.7082 355.102 24.9699 355.03C27.498 354.465 29.8814 353.382 31.9699 351.85C34.9699 349.45 36.3899 346.33 39.1099 343.56" fill="#37474F"/>
<path d="M49.2698 348.64C48.9498 344.29 48.7798 340.24 46.9798 336.27C46.0152 334.518 44.681 332.996 43.0698 331.81C42.4198 331.32 41.3298 331.05 40.9298 331.76C40.8157 332.007 40.7708 332.28 40.7998 332.55C40.8618 335.134 41.4576 337.677 42.5498 340.02C44.2998 343.47 47.0999 345.44 49.2799 348.64" fill="#37474F"/>
<path d="M49.5999 348.91C45.3099 349.72 41.3099 350.34 37.5999 352.58C35.9638 353.736 34.5988 355.234 33.5999 356.97C33.1899 357.67 33.0399 358.79 33.7899 359.1C34.0516 359.172 34.3281 359.172 34.5899 359.1C37.1422 358.758 39.5966 357.893 41.7999 356.56C45.0299 354.43 46.6799 351.43 49.6099 348.91" fill="#37474F"/>
<path d="M59.5298 354.68C59.4798 351.14 59.5298 347.84 58.2698 344.53C57.5598 343.056 56.5358 341.756 55.2698 340.72C54.7698 340.29 53.8898 340.02 53.5298 340.58C53.424 340.773 53.3721 340.99 53.3798 341.21C53.3048 343.311 53.6657 345.405 54.4398 347.36C55.6998 350.24 57.8698 351.98 59.4398 354.68" fill="#37474F"/>
<path d="M59.7999 354.92C56.2799 355.37 52.9999 355.68 49.8599 357.31C48.479 358.17 47.3017 359.32 46.4099 360.68C46.0399 361.23 45.8699 362.13 46.4599 362.42C46.6661 362.502 46.8909 362.526 47.1099 362.49C49.2087 362.331 51.2517 361.739 53.1099 360.75C55.8399 359.18 57.3099 356.82 59.8199 354.92" fill="#37474F"/>
<path d="M67.9099 360.43C68.0899 357.43 68.3499 354.74 67.5099 351.91C67.0225 350.642 66.265 349.496 65.2899 348.55C64.8999 348.16 64.1899 347.88 63.8599 348.32C63.7596 348.475 63.7042 348.655 63.6999 348.84C63.504 350.582 63.6708 352.346 64.1899 354.02C65.0499 356.5 66.7499 358.08 67.9199 360.43" fill="#37474F"/>
<path d="M68.1098 360.64C65.1098 360.79 62.4098 360.84 59.6898 362C58.4847 362.625 57.4303 363.506 56.5998 364.58C56.2598 365.01 56.0598 365.75 56.5298 366.03C56.694 366.111 56.8773 366.146 57.0598 366.13C58.8121 366.128 60.5451 365.764 62.1498 365.06C64.5198 363.93 65.8998 362.06 68.1498 360.64" fill="#37474F"/>
<path d="M74.7298 365.39C75.2629 363.096 75.3748 360.724 75.0598 358.39C74.7599 357.319 74.2311 356.326 73.5098 355.48C73.2198 355.13 72.6598 354.85 72.3598 355.18C72.2674 355.299 72.2087 355.441 72.1898 355.59C71.8951 356.998 71.8951 358.452 72.1898 359.86C72.6998 361.95 73.9698 363.37 74.7398 365.38" fill="#37474F"/>
<path d="M74.8699 365.58C72.528 365.308 70.1561 365.463 67.8699 366.04C66.8384 366.459 65.9103 367.097 65.1499 367.91C64.8399 368.24 64.6199 368.82 64.9799 369.09C65.1088 369.172 65.2574 369.216 65.4099 369.22C66.8412 369.354 68.2848 369.191 69.6499 368.74C71.6499 367.99 72.9399 366.58 74.8499 365.58" fill="#37474F"/>
<path d="M124.06 302.68L124.29 302.32C121.928 294.947 118.745 287.862 114.8 281.2C107.5 268.82 97.9499 257.88 87.4699 248.04C78.5222 239.634 68.885 231.994 58.6599 225.2C61.4599 234.46 62.6599 239.73 64.6599 247.04C65.6521 250.842 66.3377 254.718 66.7099 258.63C70.9185 259.732 75.1851 260.6 79.4899 261.23L67.0399 262.69C67.6999 273.18 67.0399 283.88 67.7499 294.41C68.9599 294.51 70.1699 294.59 71.3699 294.63C74.5899 294.75 77.8999 294.68 80.8999 295.86C77.0719 298.776 73.064 301.448 68.8999 303.86C73.4399 328.96 90.8999 354.75 112.13 368.14C120.63 362.59 124.98 352.41 126.9 342.44C128.218 335.611 128.628 328.637 128.12 321.7C127.859 318.192 127.371 314.705 126.66 311.26C123.57 312.95 120.45 314.61 117.31 316.21C119.105 311.487 121.366 306.954 124.06 302.68Z" fill="#A85758"/>
<path d="M87.42 248C79.242 240.342 70.4898 233.322 61.24 227C65.29 230.91 68.24 235.77 71.04 240.64C74.25 246.28 77.6 251.83 81.04 257.35C92.67 276.17 99.85 297.79 105.61 319.25C109.96 335.45 112.19 352.52 110.34 367.05C110.94 367.45 111.53 367.84 112.14 368.22C120.64 362.67 124.99 352.49 126.91 342.52C128.228 335.691 128.638 328.717 128.13 321.78C127.869 318.272 127.381 314.785 126.67 311.34C123.58 313.03 120.46 314.69 117.32 316.29C119.115 311.549 121.379 307 124.08 302.71L124.31 302.35C121.944 294.965 118.754 287.871 114.8 281.2C107.45 268.78 97.9 257.84 87.42 248Z" fill="#A84F46"/>
<path d="M112.04 361.04C111.507 353.66 110.663 346.327 109.51 339.04C108.357 331.753 106.887 324.473 105.1 317.2C103.32 310 101.237 302.883 98.85 295.85C96.4634 288.817 93.7967 281.92 90.85 275.16C87.8767 268.367 84.6167 261.7 81.07 255.16C80.63 254.353 80.1867 253.547 79.74 252.74C79.6807 252.64 79.5847 252.566 79.4723 252.535C79.3599 252.504 79.2399 252.518 79.1375 252.574C79.035 252.629 78.9583 252.723 78.9233 252.834C78.8883 252.945 78.8979 253.066 78.95 253.17C82.55 259.623 85.8834 266.223 88.95 272.97C92.0167 279.717 94.7567 286.567 97.17 293.52C99.6167 300.493 101.767 307.56 103.62 314.72C105.473 321.88 107.013 329.077 108.24 336.31C109.48 343.583 110.403 350.917 111.01 358.31C111.083 359.23 111.153 360.147 111.22 361.06C111.22 361.64 112.17 361.66 112.12 361.06L112.04 361.04Z" fill="white"/>
<path d="M109.8 342.2C105.44 337.647 100.541 333.644 95.2099 330.28C93.7166 329.34 92.1966 328.453 90.6499 327.62C90.1399 327.34 89.6499 328.12 90.1899 328.4C95.6691 331.351 100.767 334.961 105.37 339.15C106.703 340.337 107.963 341.567 109.15 342.84C109.235 342.926 109.35 342.975 109.471 342.976C109.592 342.977 109.709 342.93 109.795 342.845C109.881 342.76 109.93 342.645 109.931 342.524C109.932 342.403 109.885 342.286 109.8 342.2Z" fill="white"/>
<path d="M97.9798 293.63C94.1809 288.636 89.7848 284.126 84.8898 280.2C83.4965 279.08 82.0631 278.01 80.5898 276.99C80.1098 276.66 79.6498 277.44 80.1298 277.77C85.25 281.331 89.9148 285.505 94.0198 290.2C95.1731 291.533 96.2765 292.89 97.3298 294.27C97.3716 294.312 97.4215 294.346 97.4764 294.369C97.5313 294.392 97.5903 294.404 97.6498 294.404C97.7093 294.404 97.7683 294.392 97.8232 294.369C97.8781 294.346 97.9279 294.312 97.9698 294.27C98.0529 294.184 98.0993 294.069 98.0993 293.95C98.0993 293.831 98.0529 293.716 97.9698 293.63H97.9798Z" fill="white"/>
<path d="M105.85 320.79C107.317 317.257 108.65 313.667 109.85 310.02C111.05 306.373 112.05 302.667 112.85 298.9C113.323 296.8 113.747 294.69 114.12 292.57C114.149 292.455 114.132 292.333 114.075 292.229C114.017 292.125 113.923 292.047 113.81 292.01C113.695 291.979 113.572 291.994 113.467 292.052C113.363 292.109 113.285 292.206 113.25 292.32C112.583 296.087 111.76 299.82 110.78 303.52C109.8 307.22 108.653 310.887 107.34 314.52C106.607 316.52 105.827 318.52 105 320.52C104.983 320.577 104.978 320.637 104.984 320.696C104.991 320.755 105.009 320.813 105.038 320.865C105.067 320.917 105.106 320.963 105.152 321C105.199 321.037 105.253 321.064 105.31 321.08C105.425 321.111 105.548 321.096 105.653 321.038C105.757 320.981 105.835 320.884 105.87 320.77L105.85 320.79Z" fill="white"/>
<path d="M236.46 158.48C237.92 137.38 222.73 122.91 198.36 121.22C178.36 119.83 161.67 127.1 148.93 140.56C146.787 142.794 143.896 144.16 140.809 144.397C137.723 144.633 134.657 143.722 132.2 141.84L107.11 122.28C105.935 121.412 104.948 120.316 104.205 119.057C103.463 117.799 102.981 116.405 102.789 114.957C102.597 113.509 102.698 112.037 103.087 110.629C103.475 109.22 104.143 107.905 105.05 106.76C128.05 78.28 162.61 62.07 208.65 65.26C264.89 69.16 301.88 100.71 298.36 151.53C293.92 215.53 238.8 223 228.44 260.32C227.651 262.929 225.987 265.187 223.729 266.713C221.47 268.239 218.755 268.941 216.04 268.7L183.1 266.42C175.85 265.92 170.61 259.49 172.1 252.79C183.05 203.68 234.06 193.13 236.46 158.48ZM158 333.9C159.52 311.9 175.3 301.69 196.3 303.15C217.3 304.61 231.51 316.93 229.99 338.89C228.5 360.42 212.6 372.3 191.61 370.89C170.62 369.48 156.5 355.43 158 333.9Z" fill="#A84F46"/>
<path d="M244.07 158.81C245.53 137.71 230.34 123.24 205.97 121.55C185.97 120.16 169.28 127.43 156.54 140.89C154.401 143.132 151.51 144.505 148.42 144.747C145.331 144.988 142.262 144.082 139.8 142.2L114.71 122.64C113.535 121.771 112.548 120.676 111.805 119.417C111.063 118.159 110.582 116.765 110.389 115.317C110.197 113.869 110.298 112.397 110.687 110.989C111.075 109.58 111.743 108.265 112.65 107.12C135.65 78.64 170.21 62.43 216.25 65.62C272.49 69.52 309.48 101.07 305.96 151.89C301.52 215.89 246.4 223.36 236.04 260.68C235.251 263.289 233.587 265.547 231.329 267.073C229.07 268.599 226.355 269.301 223.64 269.06L190.7 266.78C183.45 266.28 178.21 259.85 179.7 253.15C190.65 204.01 241.67 193.46 244.07 158.81ZM165.6 334.2C167.12 312.2 182.9 301.99 203.9 303.45C224.9 304.91 239.11 317.23 237.59 339.19C236.1 360.72 220.2 372.6 199.21 371.19C178.22 369.78 164.11 355.76 165.6 334.2Z" fill="#A85758"/>
<path d="M388.51 198.95C388.77 195.17 386.21 192.59 382.09 192.3C380.518 192.182 378.94 192.438 377.485 193.046C376.03 193.654 374.74 194.598 373.72 195.8C373.55 196.003 373.343 196.169 373.108 196.291C372.874 196.413 372.618 196.487 372.355 196.51C372.092 196.532 371.827 196.502 371.575 196.421C371.324 196.341 371.091 196.211 370.89 196.04L366.66 192.55C366.251 192.223 365.986 191.749 365.922 191.229C365.858 190.71 366.001 190.186 366.32 189.77C370.22 184.65 376.09 181.77 383.87 182.26C393.38 182.92 399.61 188.55 398.98 197.65C398.18 209.12 388.86 210.5 387.08 217.19C386.965 217.65 386.691 218.054 386.307 218.33C385.922 218.607 385.452 218.738 384.98 218.7L379.41 218.31C379.12 218.295 378.836 218.217 378.579 218.081C378.322 217.946 378.097 217.755 377.921 217.524C377.745 217.293 377.622 217.026 377.559 216.742C377.497 216.458 377.497 216.164 377.56 215.88C379.44 207.08 388.07 205.2 388.51 198.95ZM375.12 230.44C375.39 226.5 378.07 224.66 381.62 224.9C385.17 225.14 387.57 227.34 387.29 231.28C387.245 232.087 387.04 232.876 386.687 233.603C386.335 234.33 385.841 234.979 385.236 235.513C384.63 236.048 383.924 236.457 383.159 236.716C382.394 236.976 381.585 237.081 380.779 237.025C379.973 236.97 379.187 236.754 378.465 236.392C377.743 236.03 377.1 235.528 376.573 234.916C376.047 234.303 375.647 233.592 375.398 232.824C375.148 232.055 375.054 231.245 375.12 230.44Z" fill="#A84F46"/>
<path d="M389.8 199C390.06 195.22 387.5 192.64 383.38 192.35C381.808 192.232 380.23 192.488 378.775 193.096C377.321 193.704 376.03 194.648 375.01 195.85C374.84 196.053 374.633 196.219 374.398 196.341C374.164 196.463 373.908 196.537 373.645 196.56C373.382 196.582 373.117 196.552 372.865 196.471C372.614 196.391 372.381 196.261 372.18 196.09L367.95 192.6C367.541 192.273 367.276 191.799 367.212 191.279C367.148 190.76 367.291 190.236 367.61 189.82C371.51 184.7 377.38 181.82 385.16 182.31C394.67 182.97 400.9 188.6 400.27 197.7C399.47 209.17 390.15 210.55 388.37 217.24C388.255 217.7 387.981 218.104 387.597 218.38C387.212 218.657 386.742 218.788 386.27 218.75L380.7 218.36C380.41 218.345 380.126 218.267 379.869 218.131C379.612 217.996 379.387 217.805 379.211 217.574C379.035 217.343 378.912 217.076 378.849 216.792C378.787 216.508 378.787 216.214 378.85 215.93C380.73 207.14 389.36 205.2 389.8 199ZM376.4 230.49C376.67 226.55 379.35 224.71 382.9 224.95C386.45 225.19 388.85 227.39 388.57 231.33C388.525 232.137 388.32 232.926 387.967 233.653C387.615 234.38 387.121 235.029 386.516 235.563C385.91 236.098 385.204 236.507 384.439 236.766C383.674 237.026 382.865 237.131 382.059 237.075C381.253 237.02 380.467 236.804 379.745 236.442C379.023 236.08 378.38 235.578 377.853 234.966C377.327 234.353 376.927 233.642 376.678 232.874C376.428 232.105 376.334 231.295 376.4 230.49Z" fill="#FFDA53"/>
<path d="M48.5098 145.96C47.4398 143.38 44.9098 142.51 42.0998 143.67C41.0217 144.104 40.0622 144.789 39.3006 145.667C38.5391 146.545 37.9972 147.591 37.7198 148.72C37.6205 149.098 37.3785 149.423 37.0447 149.626C36.7109 149.829 36.3113 149.895 35.9298 149.81L31.9998 148.89C31.6306 148.806 31.3073 148.584 31.0956 148.27C30.8838 147.957 30.7995 147.574 30.8598 147.2C31.7598 142.54 34.6698 138.69 39.9798 136.49C46.4698 133.81 52.4298 135.49 54.9798 141.7C58.2098 149.53 52.5098 153.5 53.5298 158.5C53.6009 158.841 53.551 159.197 53.3886 159.505C53.2262 159.813 52.9614 160.056 52.6398 160.19L48.8398 161.76C48.6438 161.839 48.4331 161.876 48.2217 161.868C48.0103 161.86 47.8032 161.806 47.614 161.712C47.4248 161.617 47.2579 161.483 47.1244 161.319C46.9909 161.155 46.8939 160.965 46.8398 160.76C45.1998 154.31 50.2598 150.2 48.5098 145.96ZM49.9898 171.13C48.8798 168.44 50.0398 166.35 52.4698 165.35C54.8998 164.35 57.1998 165.02 58.2998 167.7C58.5583 168.251 58.7022 168.849 58.7229 169.457C58.7436 170.066 58.6407 170.672 58.4203 171.24C58.1999 171.807 57.8667 172.324 57.4408 172.759C57.0149 173.194 56.5052 173.538 55.9424 173.77C55.3797 174.002 54.7757 174.118 54.167 174.11C53.5583 174.102 52.9576 173.971 52.4011 173.724C51.8446 173.477 51.344 173.12 50.9295 172.674C50.5151 172.228 50.1954 171.703 49.9898 171.13Z" fill="#A84F46"/>
<path d="M49.3799 145.58C48.3099 143 45.7799 142.13 42.9699 143.29C41.8918 143.724 40.9323 144.409 40.1707 145.287C39.4092 146.165 38.8673 147.211 38.5899 148.34C38.4906 148.718 38.2486 149.043 37.9148 149.246C37.581 149.449 37.1814 149.515 36.7999 149.43L32.8699 148.51C32.4965 148.424 32.1707 148.197 31.9603 147.876C31.7498 147.556 31.6709 147.167 31.7399 146.79C32.6399 142.13 35.5499 138.28 40.8599 136.08C47.3499 133.4 53.3099 135.08 55.8599 141.29C59.0899 149.12 53.3899 153.09 54.4099 158.09C54.481 158.431 54.4311 158.787 54.2687 159.095C54.1063 159.403 53.8415 159.646 53.5199 159.78L49.7199 161.35C49.5239 161.429 49.3132 161.466 49.1018 161.458C48.8904 161.45 48.6833 161.396 48.4941 161.302C48.3049 161.207 48.138 161.073 48.0045 160.909C47.871 160.745 47.774 160.554 47.7199 160.35C46.0599 153.92 51.1299 149.82 49.3799 145.58ZM50.8599 170.75C49.7499 168.06 50.9099 165.97 53.3399 164.97C55.7699 163.97 58.0699 164.64 59.1699 167.32C59.4284 167.871 59.5723 168.469 59.593 169.077C59.6138 169.686 59.5108 170.292 59.2904 170.86C59.07 171.427 58.7368 171.944 58.3109 172.379C57.885 172.814 57.3753 173.158 56.8125 173.39C56.2498 173.622 55.6458 173.738 55.0371 173.73C54.4284 173.722 53.8277 173.591 53.2712 173.344C52.7147 173.097 52.2141 172.74 51.7996 172.294C51.3852 171.848 51.0655 171.323 50.8599 170.75Z" fill="#FFDA53"/>
<g opacity="0.45">
<path opacity="0.45" d="M242.8 140.65C242.988 140.628 243.161 140.539 243.287 140.398C243.413 140.256 243.482 140.074 243.482 139.885C243.482 139.696 243.413 139.514 243.287 139.372C243.161 139.231 242.988 139.142 242.8 139.12C242.612 139.142 242.439 139.231 242.313 139.372C242.187 139.514 242.117 139.696 242.117 139.885C242.117 140.074 242.187 140.256 242.313 140.398C242.439 140.539 242.612 140.628 242.8 140.65Z" fill="white"/>
<path opacity="0.45" d="M234.69 152.65C234.878 152.628 235.051 152.539 235.177 152.398C235.303 152.256 235.372 152.074 235.372 151.885C235.372 151.696 235.303 151.514 235.177 151.372C235.051 151.231 234.878 151.142 234.69 151.12C234.502 151.142 234.329 151.231 234.203 151.372C234.077 151.514 234.007 151.696 234.007 151.885C234.007 152.074 234.077 152.256 234.203 152.398C234.329 152.539 234.502 152.628 234.69 152.65Z" fill="white"/>
<path opacity="0.45" d="M246.8 152.52C246.988 152.498 247.161 152.409 247.287 152.268C247.413 152.126 247.482 151.944 247.482 151.755C247.482 151.566 247.413 151.384 247.287 151.242C247.161 151.101 246.988 151.011 246.8 150.99C246.612 151.011 246.439 151.101 246.313 151.242C246.187 151.384 246.117 151.566 246.117 151.755C246.117 151.944 246.187 152.126 246.313 152.268C246.439 152.409 246.612 152.498 246.8 152.52Z" fill="white"/>
<path opacity="0.45" d="M240.62 164.2C240.808 164.178 240.981 164.089 241.107 163.948C241.233 163.806 241.302 163.624 241.302 163.435C241.302 163.246 241.233 163.064 241.107 162.922C240.981 162.781 240.808 162.692 240.62 162.67C240.432 162.692 240.259 162.781 240.133 162.922C240.007 163.064 239.938 163.246 239.938 163.435C239.938 163.624 240.007 163.806 240.133 163.948C240.259 164.089 240.432 164.178 240.62 164.2Z" fill="white"/>
<path opacity="0.45" d="M254.91 162.76C255.098 162.738 255.271 162.649 255.397 162.508C255.523 162.366 255.592 162.184 255.592 161.995C255.592 161.806 255.523 161.624 255.397 161.482C255.271 161.341 255.098 161.252 254.91 161.23C254.722 161.252 254.549 161.341 254.423 161.482C254.297 161.624 254.228 161.806 254.228 161.995C254.228 162.184 254.297 162.366 254.423 162.508C254.549 162.649 254.722 162.738 254.91 162.76Z" fill="white"/>
<path opacity="0.45" d="M250.33 173.01C250.518 172.988 250.691 172.899 250.817 172.758C250.943 172.616 251.012 172.434 251.012 172.245C251.012 172.056 250.943 171.874 250.817 171.732C250.691 171.591 250.518 171.502 250.33 171.48C250.142 171.502 249.969 171.591 249.843 171.732C249.717 171.874 249.647 172.056 249.647 172.245C249.647 172.434 249.717 172.616 249.843 172.758C249.969 172.899 250.142 172.988 250.33 173.01Z" fill="white"/>
<path opacity="0.45" d="M237.11 174.63C237.298 174.608 237.471 174.519 237.597 174.378C237.723 174.236 237.792 174.054 237.792 173.865C237.792 173.676 237.723 173.494 237.597 173.352C237.471 173.211 237.298 173.121 237.11 173.1C236.922 173.121 236.749 173.211 236.623 173.352C236.497 173.494 236.427 173.676 236.427 173.865C236.427 174.054 236.497 174.236 236.623 174.378C236.749 174.519 236.922 174.608 237.11 174.63Z" fill="white"/>
<path opacity="0.45" d="M258.96 151.2C259.148 151.178 259.321 151.089 259.447 150.948C259.573 150.806 259.642 150.624 259.642 150.435C259.642 150.246 259.573 150.064 259.447 149.922C259.321 149.781 259.148 149.692 258.96 149.67C258.772 149.692 258.599 149.781 258.473 149.922C258.347 150.064 258.277 150.246 258.277 150.435C258.277 150.624 258.347 150.806 258.473 150.948C258.599 151.089 258.772 151.178 258.96 151.2Z" fill="white"/>
<path opacity="0.45" d="M256.26 140.92C256.448 140.898 256.621 140.809 256.747 140.668C256.873 140.526 256.942 140.344 256.942 140.155C256.942 139.966 256.873 139.784 256.747 139.642C256.621 139.501 256.448 139.412 256.26 139.39C256.072 139.412 255.899 139.501 255.773 139.642C255.647 139.784 255.577 139.966 255.577 140.155C255.577 140.344 255.647 140.526 255.773 140.668C255.899 140.809 256.072 140.898 256.26 140.92Z" fill="white"/>
<path opacity="0.45" d="M235.36 144.43C235.548 144.408 235.721 144.319 235.847 144.178C235.973 144.036 236.042 143.854 236.042 143.665C236.042 143.476 235.973 143.294 235.847 143.152C235.721 143.011 235.548 142.922 235.36 142.9C235.172 142.922 234.999 143.011 234.873 143.152C234.747 143.294 234.677 143.476 234.677 143.665C234.677 143.854 234.747 144.036 234.873 144.178C234.999 144.319 235.172 144.408 235.36 144.43Z" fill="white"/>
<path opacity="0.45" d="M230.51 135.8C230.698 135.779 230.871 135.689 230.997 135.548C231.123 135.407 231.192 135.224 231.192 135.035C231.192 134.846 231.123 134.664 230.997 134.522C230.871 134.381 230.698 134.292 230.51 134.27C230.322 134.292 230.149 134.381 230.023 134.522C229.897 134.664 229.827 134.846 229.827 135.035C229.827 135.224 229.897 135.407 230.023 135.548C230.149 135.689 230.322 135.779 230.51 135.8Z" fill="white"/>
<path opacity="0.45" d="M224.58 145.37C224.768 145.348 224.941 145.259 225.067 145.118C225.193 144.976 225.262 144.794 225.262 144.605C225.262 144.416 225.193 144.234 225.067 144.092C224.941 143.951 224.768 143.862 224.58 143.84C224.392 143.862 224.219 143.951 224.093 144.092C223.967 144.234 223.897 144.416 223.897 144.605C223.897 144.794 223.967 144.976 224.093 145.118C224.219 145.259 224.392 145.348 224.58 145.37Z" fill="white"/>
<path opacity="0.45" d="M223.8 155.2C223.988 155.178 224.161 155.089 224.287 154.948C224.413 154.806 224.482 154.624 224.482 154.435C224.482 154.246 224.413 154.064 224.287 153.922C224.161 153.781 223.988 153.692 223.8 153.67C223.612 153.692 223.439 153.781 223.313 153.922C223.187 154.064 223.117 154.246 223.117 154.435C223.117 154.624 223.187 154.806 223.313 154.948C223.439 155.089 223.612 155.178 223.8 155.2Z" fill="white"/>
<path opacity="0.45" d="M268.26 143.89C268.448 143.868 268.621 143.779 268.747 143.638C268.873 143.496 268.942 143.314 268.942 143.125C268.942 142.936 268.873 142.754 268.747 142.612C268.621 142.471 268.448 142.382 268.26 142.36C268.072 142.382 267.899 142.471 267.773 142.612C267.647 142.754 267.577 142.936 267.577 143.125C267.577 143.314 267.647 143.496 267.773 143.638C267.899 143.779 268.072 143.868 268.26 143.89Z" fill="white"/>
<path opacity="0.45" d="M269.61 133.37C269.798 133.348 269.971 133.259 270.097 133.118C270.223 132.976 270.292 132.794 270.292 132.605C270.292 132.416 270.223 132.234 270.097 132.092C269.971 131.951 269.798 131.862 269.61 131.84C269.422 131.862 269.249 131.951 269.123 132.092C268.997 132.234 268.927 132.416 268.927 132.605C268.927 132.794 268.997 132.976 269.123 133.118C269.249 133.259 269.422 133.348 269.61 133.37Z" fill="white"/>
<path opacity="0.45" d="M258.8 134.45C258.988 134.428 259.161 134.339 259.287 134.198C259.413 134.056 259.482 133.874 259.482 133.685C259.482 133.496 259.413 133.314 259.287 133.172C259.161 133.031 258.988 132.941 258.8 132.92C258.612 132.941 258.439 133.031 258.313 133.172C258.187 133.314 258.117 133.496 258.117 133.685C258.117 133.874 258.187 134.056 258.313 134.198C258.439 134.339 258.612 134.428 258.8 134.45Z" fill="white"/>
<path opacity="0.45" d="M268.13 157.2C268.318 157.178 268.491 157.089 268.617 156.948C268.743 156.806 268.812 156.624 268.812 156.435C268.812 156.246 268.743 156.064 268.617 155.922C268.491 155.781 268.318 155.692 268.13 155.67C267.942 155.692 267.769 155.781 267.643 155.922C267.517 156.064 267.448 156.246 267.448 156.435C267.448 156.624 267.517 156.806 267.643 156.948C267.769 157.089 267.942 157.178 268.13 157.2Z" fill="white"/>
<path opacity="0.45" d="M263.8 168.02C263.988 167.998 264.161 167.909 264.287 167.768C264.413 167.626 264.482 167.444 264.482 167.255C264.482 167.066 264.413 166.884 264.287 166.742C264.161 166.601 263.988 166.511 263.8 166.49C263.612 166.511 263.439 166.601 263.313 166.742C263.187 166.884 263.117 167.066 263.117 167.255C263.117 167.444 263.187 167.626 263.313 167.768C263.439 167.909 263.612 167.998 263.8 168.02Z" fill="white"/>
<path opacity="0.45" d="M259.8 176.52C259.988 176.498 260.161 176.409 260.287 176.268C260.413 176.126 260.482 175.944 260.482 175.755C260.482 175.566 260.413 175.384 260.287 175.242C260.161 175.101 259.988 175.011 259.8 174.99C259.612 175.011 259.439 175.101 259.313 175.242C259.187 175.384 259.117 175.566 259.117 175.755C259.117 175.944 259.187 176.126 259.313 176.268C259.439 176.409 259.612 176.498 259.8 176.52Z" fill="white"/>
<path opacity="0.45" d="M273.11 174.49C273.298 174.468 273.471 174.379 273.597 174.238C273.723 174.096 273.792 173.914 273.792 173.725C273.792 173.536 273.723 173.354 273.597 173.212C273.471 173.071 273.298 172.982 273.11 172.96C272.922 172.982 272.749 173.071 272.623 173.212C272.497 173.354 272.427 173.536 272.427 173.725C272.427 173.914 272.497 174.096 272.623 174.238C272.749 174.379 272.922 174.468 273.11 174.49Z" fill="white"/>
<path opacity="0.45" d="M275.8 165.59C275.988 165.568 276.161 165.479 276.287 165.338C276.413 165.196 276.482 165.014 276.482 164.825C276.482 164.636 276.413 164.454 276.287 164.312C276.161 164.171 275.988 164.082 275.8 164.06C275.612 164.082 275.439 164.171 275.313 164.312C275.187 164.454 275.117 164.636 275.117 164.825C275.117 165.014 275.187 165.196 275.313 165.338C275.439 165.479 275.612 165.568 275.8 165.59Z" fill="white"/>
<path opacity="0.45" d="M274.06 153.73C274.248 153.708 274.421 153.619 274.547 153.478C274.673 153.336 274.742 153.154 274.742 152.965C274.742 152.776 274.673 152.594 274.547 152.452C274.421 152.311 274.248 152.222 274.06 152.2C273.872 152.222 273.699 152.311 273.573 152.452C273.447 152.594 273.377 152.776 273.377 152.965C273.377 153.154 273.447 153.336 273.573 153.478C273.699 153.619 273.872 153.708 274.06 153.73Z" fill="white"/>
</g>
<path d="M264.26 370.66C264.52 362.613 265.187 354.513 266.26 346.36C267.333 338.207 268.8 330.01 270.66 321.77C272.5 313.65 274.727 305.533 277.34 297.42C279.953 289.307 282.98 281.16 286.42 272.98C289.813 264.913 293.577 256.913 297.71 248.98C298.223 248 298.74 247.02 299.26 246.04C299.344 245.884 299.389 245.71 299.391 245.533C299.393 245.356 299.352 245.182 299.271 245.024C299.191 244.866 299.073 244.731 298.928 244.629C298.783 244.527 298.616 244.463 298.44 244.44C297.63 244.29 297.09 245.67 296.71 246.37C292.46 254.37 288.25 261.51 284.71 269.62C281.17 277.73 278.12 285.79 275.4 293.93C272.68 302.07 270.25 310.48 268.27 318.77C266.29 327.06 264.74 335.19 263.57 343.37C262.4 351.55 261.63 359.7 261.27 367.8C261.223 368.8 261.187 369.8 261.16 370.8C261.14 370.976 261.161 371.153 261.22 371.32C261.279 371.486 261.376 371.637 261.502 371.76C261.628 371.884 261.781 371.977 261.949 372.032C262.117 372.088 262.295 372.104 262.47 372.08C263.22 372.08 264.23 371.38 264.25 370.66H264.26Z" fill="#455A64"/>
<path d="M296.02 249.28C297.17 244.35 298.09 239.74 300.86 235.51C302.279 233.675 304.081 232.17 306.14 231.1C306.97 230.66 308.27 230.55 308.6 231.43C308.684 231.734 308.684 232.056 308.6 232.36C308.065 235.312 306.924 238.121 305.25 240.61C302.62 244.25 299.06 246.01 296 249.29" fill="#455A64"/>
<path d="M293 254.9C289.87 250.77 286.84 247.02 285.32 242.06C284.809 239.738 284.809 237.332 285.32 235.01C285.51 234.07 286.32 233.01 287.19 233.28C287.486 233.409 287.742 233.616 287.93 233.88C289.901 236.222 291.368 238.945 292.24 241.88C293.39 246.34 292.44 250.29 293.01 254.88" fill="#455A64"/>
<path d="M292.46 255.32C296.92 252.67 300.98 250.08 306.08 249.13C308.442 248.88 310.831 249.146 313.08 249.91C314 250.21 315 251.09 314.59 251.96C314.428 252.241 314.193 252.472 313.91 252.63C311.347 254.33 308.46 255.481 305.43 256.01C300.87 256.65 297.05 255.26 292.43 255.32" fill="#455A64"/>
<path d="M285.5 270.41C282.11 265.94 278.83 261.88 277.19 256.52C276.637 254.007 276.637 251.403 277.19 248.89C277.4 247.89 278.19 246.68 279.19 247.02C279.511 247.16 279.787 247.385 279.99 247.67C282.128 250.22 283.715 253.186 284.65 256.38C285.89 261.2 284.87 265.48 285.49 270.38" fill="#455A64"/>
<path d="M284.87 270.3C289.7 267.44 294.09 264.63 299.61 263.6C302.171 263.326 304.761 263.613 307.2 264.44C308.2 264.76 309.28 265.72 308.83 266.66C308.656 266.961 308.404 267.21 308.1 267.38C305.329 269.22 302.206 270.466 298.93 271.04C294 271.73 289.86 270.23 284.93 270.29" fill="#455A64"/>
<path d="M277.7 289.84C273.37 284.12 269.17 278.94 267.08 272.08C266.24 269.34 266.48 265.08 267.08 262.32C267.35 261.01 268.41 259.49 269.67 259.93C270.071 260.112 270.417 260.399 270.67 260.76C273.418 264.015 275.461 267.805 276.67 271.89C278.26 278.06 276.95 283.53 277.74 289.89" fill="#455A64"/>
<path d="M277.58 290.54C283.75 286.88 289.37 283.29 296.43 281.98C299.24 281.46 303.43 282.17 306.13 283.06C307.4 283.47 308.79 284.7 308.21 285.9C307.985 286.286 307.661 286.604 307.27 286.82C303.724 289.17 299.73 290.76 295.54 291.49C289.23 292.37 283.95 290.49 277.54 290.49" fill="#455A64"/>
<path d="M272.03 308.46C267.23 303.13 262.61 298.32 259.94 291.66C258.88 289 258.75 284.78 259.09 281.94C259.25 280.61 260.17 279.01 261.47 279.34C261.894 279.483 262.27 279.739 262.56 280.08C265.559 283.094 267.901 286.696 269.44 290.66C271.54 296.66 270.7 302.23 272.03 308.46Z" fill="#455A64"/>
<path d="M271.97 309.2C277.81 305.03 283.1 300.98 290.02 299.08C292.78 298.32 297.02 298.67 299.77 299.33C301.07 299.64 302.56 300.74 302.09 301.99C301.899 302.395 301.602 302.741 301.23 302.99C297.897 305.632 294.053 307.556 289.94 308.64C283.73 310.05 278.3 308.64 271.94 309.21" fill="#455A64"/>
<path d="M267.53 327.52C263.38 323.43 259.4 319.75 256.91 314.52C255.959 312.022 255.564 309.347 255.75 306.68C255.81 305.6 256.49 304.25 257.55 304.45C257.901 304.546 258.219 304.736 258.47 305C261.052 307.299 263.129 310.108 264.57 313.25C266.57 318.02 266.15 322.57 267.57 327.56" fill="#455A64"/>
<path d="M267.52 328.09C272.05 324.42 276.15 320.88 281.67 319C284.259 318.337 286.962 318.245 289.59 318.73C290.66 318.92 291.92 319.73 291.59 320.73C291.455 321.067 291.23 321.361 290.94 321.58C288.363 323.886 285.336 325.633 282.05 326.71C277.05 328.16 272.61 327.24 267.5 328.04" fill="#455A64"/>
<path d="M264.8 344.01C261.09 340.87 257.54 338.07 255.13 333.84C254.182 331.821 253.683 329.62 253.67 327.39C253.67 326.48 254.13 325.32 255.03 325.39C255.328 325.449 255.604 325.587 255.83 325.79C258.124 327.54 260.031 329.746 261.43 332.27C263.43 336.11 263.34 339.93 264.8 343.99" fill="#455A64"/>
<path d="M264.8 344.48C268.34 341.14 271.52 337.93 276 336.02C278.111 335.304 280.353 335.055 282.57 335.29C283.47 335.38 284.57 335.98 284.37 336.86C284.281 337.149 284.115 337.408 283.89 337.61C281.892 339.691 279.485 341.335 276.82 342.44C272.82 343.96 269 343.44 264.82 344.44" fill="#455A64"/>
<path d="M262.96 357.75C259.68 355.47 256.57 353.45 254.28 350.18C253.349 348.603 252.772 346.842 252.59 345.02C252.51 344.28 252.81 343.3 253.59 343.31C253.836 343.334 254.071 343.424 254.27 343.57C256.277 344.823 258.003 346.478 259.34 348.43C261.24 351.43 261.49 354.54 262.99 357.75" fill="#455A64"/>
<path d="M263.01 358.14C265.65 355.14 268.01 352.28 271.51 350.37C273.182 349.622 274.998 349.246 276.83 349.27C277.57 349.27 278.52 349.68 278.42 350.42C278.368 350.664 278.25 350.888 278.08 351.07C276.609 352.923 274.77 354.452 272.68 355.56C269.5 357.11 266.37 357.01 263.01 358.14Z" fill="#455A64"/>
<path d="M313.35 305.32V304.9C319.082 299.669 325.385 295.1 332.14 291.28C344.63 284.17 358.36 279.44 372.34 276.11C384.263 273.277 396.402 271.447 408.63 270.64C401.63 277.28 397.9 281.24 392.57 286.64C389.817 289.434 387.292 292.443 385.02 295.64C380.821 294.503 376.688 293.135 372.64 291.54L382.71 299C376.92 307.77 372.19 317.39 366.32 326.17C365.22 325.657 364.133 325.12 363.06 324.56C360.21 323.06 357.37 321.35 354.18 320.89C356.043 325.355 358.188 329.697 360.6 333.89C344.18 353.4 316.24 367.11 291.12 368.15C286.5 359.15 287.8 348.15 291.12 338.51C293.374 331.929 296.487 325.675 300.38 319.91C302.355 316.997 304.516 314.214 306.85 311.58C308.69 314.587 310.573 317.567 312.5 320.52C313.291 315.495 313.576 310.402 313.35 305.32Z" fill="#A85758"/>
<path d="M372.33 276.11C383.24 273.522 394.333 271.773 405.51 270.88C400.05 272.26 395.05 274.99 390.22 277.88C384.63 281.18 378.96 284.33 373.22 287.42C353.8 297.92 336.8 313.1 321.14 328.85C309.3 340.74 298.88 354.44 293.26 367.97C292.55 367.97 291.83 368.06 291.12 368.09C286.5 359.09 287.8 348.09 291.12 338.45C293.374 331.869 296.487 325.615 300.38 319.85C302.355 316.937 304.516 314.154 306.85 311.52C308.69 314.527 310.573 317.507 312.5 320.46C313.301 315.452 313.6 310.377 313.39 305.31V304.89C319.122 299.658 325.425 295.09 332.18 291.27C344.61 284.2 358.34 279.43 372.33 276.11Z" fill="#A84F46"/>
<path d="M294.74 361.92C298.873 355.78 303.26 349.827 307.9 344.06C312.54 338.293 317.433 332.72 322.58 327.34C327.707 322.007 333.04 316.87 338.58 311.93C344.12 306.99 349.87 302.323 355.83 297.93C361.79 293.51 367.93 289.353 374.25 285.46L376.61 284.03C376.712 283.968 376.835 283.948 376.951 283.977C377.067 284.005 377.168 284.078 377.23 284.18C377.292 284.282 377.311 284.405 377.283 284.521C377.255 284.637 377.182 284.738 377.08 284.8C370.747 288.607 364.583 292.68 358.59 297.02C352.597 301.36 346.813 305.94 341.24 310.76C335.647 315.593 330.267 320.653 325.1 325.94C319.933 331.227 315.037 336.713 310.41 342.4C305.743 348.093 301.303 353.983 297.09 360.07L295.54 362.35C295.22 362.83 294.42 362.35 294.75 361.91L294.74 361.92Z" fill="white"/>
<path d="M306.07 346.69C312.117 344.907 318.36 343.869 324.66 343.6C326.42 343.527 328.18 343.527 329.94 343.6C330.52 343.6 330.54 344.52 329.94 344.5C323.727 344.312 317.514 344.883 311.44 346.2C309.72 346.58 308.013 347.02 306.32 347.52C306.263 347.536 306.203 347.541 306.144 347.535C306.085 347.528 306.028 347.51 305.976 347.481C305.924 347.452 305.878 347.413 305.841 347.367C305.804 347.32 305.776 347.267 305.76 347.21C305.743 347.153 305.738 347.093 305.745 347.034C305.752 346.975 305.77 346.918 305.799 346.866C305.828 346.814 305.866 346.768 305.913 346.731C305.959 346.694 306.013 346.666 306.07 346.65V346.69Z" fill="white"/>
<path d="M340.47 310.44C346.238 308 352.283 306.274 358.47 305.3C360.237 305.027 362.013 304.81 363.8 304.65C364.38 304.6 364.39 305.5 363.8 305.55C357.588 306.094 351.465 307.397 345.57 309.43C343.917 310.003 342.283 310.63 340.67 311.31C340.613 311.327 340.553 311.332 340.494 311.326C340.435 311.319 340.377 311.301 340.325 311.272C340.273 311.243 340.227 311.204 340.19 311.158C340.153 311.111 340.126 311.057 340.11 311C340.079 310.885 340.094 310.762 340.152 310.657C340.209 310.553 340.306 310.475 340.42 310.44H340.47Z" fill="white"/>
<path d="M320.13 330.08C320.61 326.287 321.253 322.517 322.06 318.77C322.866 315.023 323.833 311.307 324.96 307.62C325.593 305.56 326.26 303.517 326.96 301.49C326.993 301.376 327.068 301.278 327.17 301.217C327.272 301.155 327.393 301.135 327.51 301.16C327.626 301.191 327.725 301.265 327.786 301.368C327.848 301.471 327.867 301.593 327.84 301.71C326.54 305.31 325.396 308.957 324.41 312.65C323.423 316.343 322.596 320.093 321.93 323.9C321.556 326.02 321.223 328.15 320.93 330.29C320.916 330.348 320.89 330.403 320.855 330.451C320.82 330.499 320.775 330.539 320.724 330.57C320.673 330.601 320.616 330.621 320.557 330.63C320.498 330.638 320.438 330.635 320.38 330.62C320.264 330.589 320.165 330.515 320.103 330.412C320.042 330.309 320.022 330.187 320.05 330.07L320.13 330.08Z" fill="white"/>
<path d="M311.49 369.89C315.243 366.743 319.183 363.76 323.31 360.94C327.437 358.12 331.747 355.453 336.24 352.94C340.667 350.487 345.25 348.207 349.99 346.1C354.73 343.993 359.65 342.063 364.75 340.31C369.783 338.577 374.937 337.04 380.21 335.7L382.21 335.21C382.312 335.184 382.406 335.134 382.484 335.065C382.563 334.995 382.624 334.908 382.662 334.81C382.7 334.712 382.714 334.607 382.704 334.503C382.693 334.398 382.657 334.298 382.6 334.21C382.34 333.78 381.5 334.09 381.02 334.21C375.69 335.51 370.73 336.51 365.63 338.21C360.53 339.91 355.63 341.78 350.84 343.84C346.05 345.9 341.25 348.21 336.69 350.67C332.13 353.13 327.82 355.72 323.63 358.51C319.44 361.3 315.44 364.25 311.63 367.37L310.22 368.53C310.135 368.595 310.066 368.679 310.019 368.776C309.971 368.872 309.947 368.978 309.947 369.085C309.947 369.192 309.971 369.298 310.019 369.394C310.066 369.491 310.135 369.575 310.22 369.64C310.394 369.82 310.621 369.939 310.867 369.98C311.114 370.022 311.367 369.983 311.59 369.87L311.49 369.89Z" fill="#37474F"/>
<path d="M379.39 335.1C382.09 333.62 384.55 332.17 387.6 331.71C389.008 331.611 390.42 331.819 391.74 332.32C392.28 332.52 392.85 333.06 392.59 333.57C392.487 333.732 392.342 333.864 392.17 333.95C390.615 334.906 388.878 335.529 387.07 335.78C384.35 336.06 382.07 335.16 379.39 335.1Z" fill="#37474F"/>
<path d="M375.61 336.01C376.22 332.92 376.68 330.01 378.32 327.33C379.164 326.157 380.252 325.182 381.51 324.47C382.02 324.18 382.82 324.08 383.05 324.62C383.102 324.81 383.102 325.01 383.05 325.2C382.783 327.049 382.136 328.823 381.15 330.41C379.59 332.74 377.42 333.91 375.58 336.02" fill="#37474F"/>
<path d="M375.2 335.94C378.2 336.89 381.03 337.68 383.52 339.61C384.592 340.58 385.442 341.77 386.01 343.1C386.25 343.64 386.25 344.45 385.69 344.62C385.5 344.673 385.3 344.673 385.11 344.62C383.29 344.153 381.587 343.311 380.11 342.15C377.97 340.34 377.05 338.05 375.16 335.99" fill="#37474F"/>
<path d="M365.55 338.9C366.21 335.55 366.71 332.42 368.48 329.5C369.391 328.229 370.569 327.171 371.93 326.4C372.48 326.08 373.35 325.98 373.6 326.56C373.657 326.766 373.657 326.984 373.6 327.19C373.31 329.192 372.608 331.112 371.54 332.83C369.86 335.35 367.54 336.62 365.54 338.9" fill="#37474F"/>
<path d="M365.34 338.56C368.59 339.56 371.65 340.44 374.34 342.56C375.5 343.61 376.418 344.9 377.03 346.34C377.29 346.92 377.29 347.8 376.68 347.98C376.474 348.037 376.256 348.037 376.05 347.98C374.094 347.467 372.266 346.554 370.68 345.3C368.37 343.3 367.37 340.86 365.33 338.63" fill="#37474F"/>
<path d="M353.57 343.2C354.41 338.92 355.06 334.92 357.32 331.2C358.481 329.562 359.986 328.197 361.73 327.2C362.43 326.79 363.55 326.66 363.86 327.4C363.932 327.662 363.932 327.938 363.86 328.2C363.49 330.759 362.595 333.214 361.23 335.41C359.08 338.63 356.07 340.25 353.52 343.17" fill="#37474F"/>
<path d="M353.21 343.46C357.37 344.77 361.27 345.87 364.73 348.53C366.213 349.872 367.387 351.52 368.17 353.36C368.5 354.1 368.51 355.23 367.73 355.46C367.464 355.516 367.187 355.499 366.93 355.41C364.428 354.756 362.089 353.592 360.06 351.99C357.06 349.49 355.83 346.32 353.22 343.46" fill="#37474F"/>
<path d="M342.8 348.2C343.27 343.86 343.58 339.82 345.52 335.91C346.544 334.193 347.929 332.719 349.58 331.59C350.24 331.12 351.35 330.89 351.72 331.59C351.827 331.839 351.865 332.112 351.83 332.38C351.682 334.962 351.001 337.484 349.83 339.79C347.96 343.18 345.1 345.05 342.83 348.17" fill="#37474F"/>
<path d="M342.5 348.47C346.76 349.47 350.74 350.19 354.4 352.55C355.992 353.761 357.303 355.303 358.24 357.07C358.63 357.78 358.73 358.9 357.98 359.2C357.718 359.272 357.442 359.272 357.18 359.2C354.63 358.76 352.199 357.796 350.04 356.37C346.88 354.13 345.35 351.07 342.5 348.45" fill="#37474F"/>
<path d="M332.37 353.89C332.54 350.35 332.6 347.06 333.98 343.79C334.729 342.347 335.784 341.085 337.07 340.09C337.59 339.68 338.47 339.44 338.81 340.01C338.911 340.208 338.956 340.429 338.94 340.65C338.943 342.753 338.51 344.833 337.67 346.76C336.32 349.6 334.08 351.26 332.38 353.9" fill="#37474F"/>
<path d="M332.11 354.12C335.61 354.69 338.88 355.12 341.96 356.85C343.309 357.755 344.445 358.942 345.29 360.33C345.64 360.89 345.78 361.79 345.18 362.07C344.972 362.145 344.747 362.163 344.53 362.12C342.44 361.887 340.421 361.223 338.6 360.17C335.93 358.5 334.54 356.1 332.1 354.11" fill="#37474F"/>
<path d="M323.8 359.34C323.72 356.34 323.55 353.64 324.5 350.84C325.029 349.591 325.824 348.471 326.83 347.56C327.23 347.19 327.95 346.93 328.27 347.38C328.363 347.537 328.412 347.717 328.41 347.9C328.545 349.648 328.317 351.405 327.74 353.06C326.79 355.51 325.04 357.06 323.79 359.34" fill="#37474F"/>
<path d="M323.6 359.55C326.55 359.8 329.29 359.95 331.97 361.2C333.153 361.868 334.177 362.786 334.97 363.89C335.3 364.33 335.47 365.08 334.97 365.34C334.802 365.42 334.615 365.451 334.43 365.43C332.679 365.369 330.96 364.947 329.38 364.19C327.05 362.97 325.74 361.06 323.59 359.56" fill="#37474F"/>
<path d="M316.8 364.07C316.35 361.761 316.323 359.389 316.72 357.07C317.056 356.008 317.619 355.032 318.37 354.21C318.67 353.87 319.24 353.61 319.53 353.95C319.62 354.073 319.676 354.218 319.69 354.37C319.935 355.788 319.884 357.242 319.54 358.64C318.95 360.71 317.64 362.09 316.8 364.07Z" fill="#37474F"/>
<path d="M316.66 364.25C319.017 364.059 321.389 364.3 323.66 364.96C324.679 365.425 325.583 366.108 326.31 366.96C326.61 367.3 326.81 367.89 326.44 368.15C326.309 368.225 326.161 368.263 326.01 368.26C324.575 368.343 323.138 368.129 321.79 367.63C319.79 366.82 318.58 365.35 316.7 364.29" fill="#37474F"/>
<path d="M265.8 111.39C265.962 113.129 265.775 114.884 265.25 116.55C265.1 117.02 265.84 117.22 265.99 116.75C266.538 115.02 266.735 113.197 266.57 111.39C266.57 110.9 265.76 110.9 265.8 111.39Z" fill="#606060"/>
</g>
<defs>
<clipPath id="clip0">
<rect width="408.61" height="383.66" fill="white"/>
</clipPath>
</defs>
</svg>
