<svg width="1000" height="631" viewBox="0 0 1000 631" fill="none" xmlns="http://www.w3.org/2000/svg">
<rect width="1000" height="631" fill="white"/>
<rect x="86.75" y="95.75" width="148.5" height="48.5" fill="white" stroke="black" stroke-width="1.5"/>
<path d="M107.018 114V101.396H111.017C112.235 101.396 113.199 101.663 113.908 102.196C114.623 102.729 114.98 103.424 114.98 104.279C114.98 104.994 114.778 105.615 114.374 106.143C113.97 106.67 113.41 107.045 112.695 107.268V107.303C113.562 107.402 114.254 107.725 114.77 108.27C115.291 108.809 115.552 109.512 115.552 110.379C115.552 111.457 115.127 112.33 114.277 112.998C113.428 113.666 112.355 114 111.061 114H107.018ZM109.101 103.075V106.661H110.454C111.181 106.661 111.749 106.491 112.159 106.151C112.575 105.806 112.783 105.319 112.783 104.692C112.783 103.614 112.062 103.075 110.621 103.075H109.101ZM109.101 108.34V112.33H110.885C111.664 112.33 112.265 112.151 112.687 111.794C113.114 111.431 113.328 110.933 113.328 110.3C113.328 108.993 112.423 108.34 110.612 108.34H109.101ZM125.844 114H123.998V107.399C123.881 107.634 123.702 107.959 123.462 108.375L119.674 114H117.67V105H119.542V111.469C119.606 111.316 119.744 111.053 119.955 110.678L123.796 105H125.844V114ZM137.129 117.278H135.433V114H129.025V117.278H127.347V112.444H128.146C129.582 110.323 130.312 107.842 130.335 105H135.749V112.444H137.129V117.278ZM133.71 112.444V106.547H131.996C131.855 108.727 131.258 110.692 130.203 112.444H133.71ZM146.577 110.054H140.442C140.466 110.886 140.721 111.527 141.207 111.979C141.699 112.43 142.373 112.655 143.229 112.655C144.189 112.655 145.071 112.368 145.874 111.794V113.438C145.054 113.953 143.97 114.211 142.622 114.211C141.298 114.211 140.258 113.804 139.502 112.989C138.752 112.169 138.377 111.018 138.377 109.535C138.377 108.135 138.79 106.995 139.616 106.116C140.448 105.231 141.479 104.789 142.71 104.789C143.94 104.789 144.893 105.185 145.566 105.976C146.24 106.767 146.577 107.865 146.577 109.271V110.054ZM144.608 108.612C144.603 107.88 144.43 107.312 144.09 106.907C143.75 106.497 143.281 106.292 142.684 106.292C142.098 106.292 141.6 106.506 141.189 106.934C140.785 107.361 140.536 107.921 140.442 108.612H144.608ZM152.51 114.211C151.121 114.211 150.011 113.792 149.179 112.954C148.353 112.11 147.939 110.994 147.939 109.605C147.939 108.094 148.37 106.913 149.231 106.063C150.099 105.214 151.265 104.789 152.729 104.789C154.136 104.789 155.231 105.202 156.017 106.028C156.802 106.854 157.194 108 157.194 109.465C157.194 110.9 156.77 112.052 155.92 112.919C155.076 113.78 153.939 114.211 152.51 114.211ZM152.606 106.415C151.81 106.415 151.18 106.693 150.717 107.25C150.254 107.807 150.022 108.574 150.022 109.553C150.022 110.496 150.257 111.24 150.726 111.785C151.194 112.324 151.821 112.594 152.606 112.594C153.409 112.594 154.024 112.327 154.452 111.794C154.886 111.261 155.103 110.502 155.103 109.518C155.103 108.527 154.886 107.763 154.452 107.224C154.024 106.685 153.409 106.415 152.606 106.415ZM164.015 109.834H159.216V108.331H164.015V109.834ZM170.51 114.211C169.121 114.211 168.011 113.792 167.179 112.954C166.353 112.11 165.939 110.994 165.939 109.605C165.939 108.094 166.37 106.913 167.231 106.063C168.099 105.214 169.265 104.789 170.729 104.789C172.136 104.789 173.231 105.202 174.017 106.028C174.802 106.854 175.194 108 175.194 109.465C175.194 110.9 174.77 112.052 173.92 112.919C173.076 113.78 171.939 114.211 170.51 114.211ZM170.606 106.415C169.81 106.415 169.18 106.693 168.717 107.25C168.254 107.807 168.022 108.574 168.022 109.553C168.022 110.496 168.257 111.24 168.726 111.785C169.194 112.324 169.821 112.594 170.606 112.594C171.409 112.594 172.024 112.327 172.452 111.794C172.886 111.261 173.103 110.502 173.103 109.518C173.103 108.527 172.886 107.763 172.452 107.224C172.024 106.685 171.409 106.415 170.606 106.415ZM184.687 100.526V102.258C184.452 102.416 184.074 102.533 183.553 102.609C182.264 102.791 181.361 102.967 180.846 103.137C180.336 103.301 179.917 103.655 179.589 104.2C179.261 104.739 179.05 105.53 178.956 106.573H178.991C179.659 105.671 180.614 105.22 181.856 105.22C183.058 105.22 184.024 105.621 184.757 106.424C185.489 107.221 185.855 108.275 185.855 109.588C185.855 110.982 185.448 112.102 184.634 112.945C183.825 113.789 182.732 114.211 181.355 114.211C179.902 114.211 178.783 113.716 177.998 112.726C177.219 111.735 176.829 110.32 176.829 108.48C176.829 107.062 176.973 105.861 177.26 104.877C177.547 103.893 177.945 103.151 178.455 102.653C178.965 102.155 179.53 101.812 180.151 101.625C180.772 101.438 181.839 101.218 183.351 100.966C183.948 100.837 184.394 100.69 184.687 100.526ZM178.93 108.234V109.359C178.936 109.775 178.997 110.188 179.114 110.599C179.231 111.003 179.398 111.36 179.615 111.671C179.832 111.981 180.09 112.213 180.389 112.365C180.688 112.518 181.027 112.594 181.408 112.594C182.111 112.594 182.68 112.327 183.113 111.794C183.553 111.255 183.772 110.566 183.772 109.729C183.772 108.832 183.55 108.12 183.104 107.593C182.665 107.06 182.067 106.793 181.312 106.793C180.257 106.793 179.463 107.273 178.93 108.234ZM187.323 113.754V112.075C188.085 112.497 188.976 112.708 189.995 112.708C191.431 112.708 192.148 112.274 192.148 111.407C192.148 110.54 191.302 110.106 189.608 110.106H188.747V108.665H189.573C191.079 108.665 191.832 108.252 191.832 107.426C191.832 107.08 191.671 106.805 191.349 106.6C191.032 106.395 190.599 106.292 190.048 106.292C189.21 106.292 188.372 106.491 187.534 106.89V105.29C188.548 104.95 189.479 104.78 190.329 104.78C192.714 104.78 193.906 105.589 193.906 107.206C193.906 107.728 193.733 108.176 193.388 108.551C193.048 108.926 192.567 109.175 191.946 109.298V109.342C192.632 109.395 193.183 109.617 193.599 110.01C194.015 110.402 194.223 110.9 194.223 111.504C194.223 112.324 193.865 112.978 193.15 113.464C192.436 113.95 191.451 114.193 190.197 114.193C188.943 114.193 187.985 114.047 187.323 113.754ZM200.252 114.211C198.863 114.211 197.753 113.792 196.921 112.954C196.095 112.11 195.682 110.994 195.682 109.605C195.682 108.094 196.112 106.913 196.974 106.063C197.841 105.214 199.007 104.789 200.472 104.789C201.878 104.789 202.974 105.202 203.759 106.028C204.544 106.854 204.937 108 204.937 109.465C204.937 110.9 204.512 112.052 203.662 112.919C202.818 113.78 201.682 114.211 200.252 114.211ZM200.349 106.415C199.552 106.415 198.922 106.693 198.459 107.25C197.996 107.807 197.765 108.574 197.765 109.553C197.765 110.496 197.999 111.24 198.468 111.785C198.937 112.324 199.563 112.594 200.349 112.594C201.151 112.594 201.767 112.327 202.194 111.794C202.628 111.261 202.845 110.502 202.845 109.518C202.845 108.527 202.628 107.763 202.194 107.224C201.767 106.685 201.151 106.415 200.349 106.415ZM209.094 112.673H209.059V118.14H207.02V105H209.059V106.582H209.094C209.791 105.387 210.811 104.789 212.152 104.789C213.295 104.789 214.186 105.19 214.824 105.993C215.463 106.796 215.782 107.874 215.782 109.228C215.782 110.728 215.422 111.929 214.701 112.831C213.98 113.733 212.996 114.185 211.748 114.185C210.6 114.185 209.715 113.681 209.094 112.673ZM209.041 109.122V110.238C209.041 110.895 209.249 111.451 209.665 111.908C210.087 112.365 210.62 112.594 211.265 112.594C212.021 112.594 212.612 112.301 213.04 111.715C213.474 111.123 213.69 110.3 213.69 109.245C213.69 108.36 213.488 107.669 213.084 107.171C212.686 106.667 212.144 106.415 211.458 106.415C210.731 106.415 210.146 106.673 209.7 107.188C209.261 107.704 209.041 108.349 209.041 109.122ZM123.084 138H121.036V134.062H117.116V138H115.068V129H117.116V132.533H121.036V129H123.084V138ZM132.646 138H130.669V136.594H130.634C130.013 137.672 129.102 138.211 127.9 138.211C127.016 138.211 126.321 137.971 125.817 137.49C125.319 137.01 125.07 136.374 125.07 135.583C125.07 133.884 126.049 132.894 128.006 132.612L130.678 132.234C130.678 130.951 130.068 130.31 128.85 130.31C127.777 130.31 126.811 130.679 125.949 131.417V129.633C126.898 129.07 127.994 128.789 129.236 128.789C131.51 128.789 132.646 129.908 132.646 132.146V138ZM130.678 133.579L128.788 133.843C128.202 133.919 127.76 134.062 127.461 134.273C127.168 134.479 127.021 134.842 127.021 135.363C127.021 135.744 127.156 136.058 127.426 136.304C127.701 136.544 128.067 136.664 128.524 136.664C129.146 136.664 129.658 136.447 130.062 136.014C130.473 135.574 130.678 135.023 130.678 134.361V133.579ZM149.108 125.396L144.978 133.421V138H142.886V133.465L138.86 125.396H141.242L143.721 130.802C143.75 130.866 143.838 131.109 143.984 131.531H144.011C144.063 131.344 144.16 131.101 144.301 130.802L146.894 125.396H149.108ZM152.879 138.211C151.49 138.211 150.38 137.792 149.548 136.954C148.722 136.11 148.309 134.994 148.309 133.605C148.309 132.094 148.739 130.913 149.601 130.063C150.468 129.214 151.634 128.789 153.099 128.789C154.505 128.789 155.601 129.202 156.386 130.028C157.171 130.854 157.563 132 157.563 133.465C157.563 134.9 157.139 136.052 156.289 136.919C155.445 137.78 154.309 138.211 152.879 138.211ZM152.976 130.415C152.179 130.415 151.549 130.693 151.086 131.25C150.623 131.807 150.392 132.574 150.392 133.553C150.392 134.496 150.626 135.24 151.095 135.785C151.563 136.324 152.19 136.594 152.976 136.594C153.778 136.594 154.394 136.327 154.821 135.794C155.255 135.261 155.472 134.502 155.472 133.518C155.472 132.527 155.255 131.763 154.821 131.224C154.394 130.685 153.778 130.415 152.976 130.415ZM167.495 138H165.456V136.576H165.421C164.829 137.666 163.909 138.211 162.661 138.211C160.534 138.211 159.471 136.934 159.471 134.379V129H161.51V134.168C161.51 135.785 162.134 136.594 163.382 136.594C163.985 136.594 164.48 136.371 164.867 135.926C165.26 135.48 165.456 134.897 165.456 134.177V129H167.495V138ZM178.473 127.172H174.852V138H172.76V127.172H169.147V125.396H178.473V127.172ZM186.515 138H184.476V136.576H184.44C183.849 137.666 182.929 138.211 181.681 138.211C179.554 138.211 178.49 136.934 178.49 134.379V129H180.529V134.168C180.529 135.785 181.153 136.594 182.401 136.594C183.005 136.594 183.5 136.371 183.887 135.926C184.279 135.48 184.476 134.897 184.476 134.177V129H186.515V138ZM191.252 136.699H191.217V138H189.178V124.676H191.217V130.582H191.252C191.949 129.387 192.969 128.789 194.311 128.789C195.447 128.789 196.335 129.193 196.974 130.002C197.618 130.805 197.94 131.883 197.94 133.236C197.94 134.742 197.58 135.949 196.859 136.857C196.139 137.76 195.154 138.211 193.906 138.211C192.734 138.211 191.85 137.707 191.252 136.699ZM191.199 133.122V134.238C191.199 134.895 191.407 135.451 191.823 135.908C192.245 136.365 192.778 136.594 193.423 136.594C194.179 136.594 194.771 136.301 195.198 135.715C195.632 135.123 195.849 134.3 195.849 133.245C195.849 132.36 195.646 131.669 195.242 131.171C194.844 130.667 194.302 130.415 193.616 130.415C192.89 130.415 192.304 130.673 191.858 131.188C191.419 131.704 191.199 132.349 191.199 133.122ZM207.644 134.054H201.509C201.532 134.886 201.787 135.527 202.273 135.979C202.766 136.43 203.439 136.655 204.295 136.655C205.256 136.655 206.138 136.368 206.94 135.794V137.438C206.12 137.953 205.036 138.211 203.688 138.211C202.364 138.211 201.324 137.804 200.568 136.989C199.818 136.169 199.443 135.018 199.443 133.535C199.443 132.135 199.856 130.995 200.683 130.116C201.515 129.231 202.546 128.789 203.776 128.789C205.007 128.789 205.959 129.185 206.633 129.976C207.307 130.767 207.644 131.865 207.644 133.271V134.054ZM205.675 132.612C205.669 131.88 205.496 131.312 205.156 130.907C204.816 130.497 204.348 130.292 203.75 130.292C203.164 130.292 202.666 130.506 202.256 130.934C201.852 131.361 201.603 131.921 201.509 132.612H205.675Z" fill="black"/>
<rect x="66.75" y="250.75" width="130.5" height="30.5" stroke="#6B6565" stroke-width="1.5"/>
<path d="M82.9756 272.499V270.346C83.1689 270.521 83.3975 270.68 83.6611 270.82C83.9307 270.961 84.2148 271.081 84.5137 271.181C84.8125 271.274 85.1113 271.348 85.4102 271.4C85.709 271.453 85.9844 271.479 86.2363 271.479C87.1152 271.479 87.7686 271.333 88.1963 271.04C88.6299 270.747 88.8467 270.322 88.8467 269.766C88.8467 269.467 88.7734 269.209 88.627 268.992C88.4863 268.77 88.2871 268.567 88.0293 268.386C87.7715 268.204 87.4668 268.031 87.1152 267.867C86.7695 267.697 86.3975 267.521 85.999 267.34C85.5713 267.111 85.1729 266.88 84.8037 266.646C84.4346 266.411 84.1123 266.153 83.8369 265.872C83.5674 265.585 83.3535 265.263 83.1953 264.905C83.043 264.548 82.9668 264.129 82.9668 263.648C82.9668 263.057 83.0986 262.544 83.3623 262.11C83.6318 261.671 83.9834 261.311 84.417 261.029C84.8564 260.742 85.3545 260.531 85.9111 260.396C86.4678 260.256 87.0361 260.186 87.6162 260.186C88.9346 260.186 89.8955 260.335 90.499 260.634V262.699C89.7842 262.184 88.8643 261.926 87.7393 261.926C87.4287 261.926 87.1182 261.955 86.8076 262.014C86.5029 262.072 86.2275 262.169 85.9814 262.304C85.7412 262.438 85.5449 262.611 85.3926 262.822C85.2402 263.033 85.1641 263.288 85.1641 263.587C85.1641 263.868 85.2227 264.111 85.3398 264.316C85.457 264.521 85.627 264.709 85.8496 264.879C86.0781 265.049 86.3535 265.216 86.6758 265.38C87.0039 265.538 87.3818 265.711 87.8096 265.898C88.249 266.127 88.6621 266.367 89.0488 266.619C89.4414 266.871 89.7842 267.149 90.0771 267.454C90.376 267.759 90.6104 268.099 90.7803 268.474C90.9561 268.843 91.0439 269.265 91.0439 269.739C91.0439 270.378 90.915 270.917 90.6572 271.356C90.3994 271.796 90.0508 272.153 89.6113 272.429C89.1777 272.704 88.6768 272.903 88.1084 273.026C87.54 273.149 86.9395 273.211 86.3066 273.211C86.0957 273.211 85.835 273.193 85.5244 273.158C85.2197 273.129 84.9062 273.082 84.584 273.018C84.2617 272.959 83.957 272.886 83.6699 272.798C83.3828 272.71 83.1514 272.61 82.9756 272.499ZM100.439 273H93.3643V260.396H100.158V262.172H95.4561V265.74H99.7891V267.507H95.4561V271.233H100.439V273ZM107.875 273.211C106.059 273.211 104.603 272.622 103.507 271.444C102.417 270.267 101.872 268.734 101.872 266.848C101.872 264.82 102.429 263.203 103.542 261.996C104.655 260.789 106.167 260.186 108.077 260.186C109.847 260.186 111.271 260.771 112.349 261.943C113.433 263.115 113.975 264.647 113.975 266.54C113.975 268.597 113.421 270.223 112.313 271.418C111.206 272.613 109.727 273.211 107.875 273.211ZM107.972 262.022C106.817 262.022 105.877 262.453 105.15 263.314C104.43 264.176 104.069 265.31 104.069 266.716C104.069 268.116 104.421 269.244 105.124 270.1C105.827 270.955 106.747 271.383 107.884 271.383C109.091 271.383 110.043 270.976 110.74 270.161C111.438 269.347 111.786 268.207 111.786 266.742C111.786 265.236 111.446 264.073 110.767 263.253C110.093 262.433 109.161 262.022 107.972 262.022ZM120.795 268.834H115.996V267.331H120.795V268.834ZM129.435 265.626H126.868V273H124.82V265.626H122.236V264H129.435V265.626ZM133.126 271.673H133.091V277.14H131.052V264H133.091V265.582H133.126C133.823 264.387 134.843 263.789 136.185 263.789C137.327 263.789 138.218 264.19 138.856 264.993C139.495 265.796 139.814 266.874 139.814 268.228C139.814 269.728 139.454 270.929 138.733 271.831C138.013 272.733 137.028 273.185 135.78 273.185C134.632 273.185 133.747 272.681 133.126 271.673ZM133.073 268.122V269.238C133.073 269.895 133.281 270.451 133.697 270.908C134.119 271.365 134.652 271.594 135.297 271.594C136.053 271.594 136.645 271.301 137.072 270.715C137.506 270.123 137.723 269.3 137.723 268.245C137.723 267.36 137.521 266.669 137.116 266.171C136.718 265.667 136.176 265.415 135.49 265.415C134.764 265.415 134.178 265.673 133.732 266.188C133.293 266.704 133.073 267.349 133.073 268.122ZM148.595 273H146.617V271.594H146.582C145.961 272.672 145.05 273.211 143.849 273.211C142.964 273.211 142.27 272.971 141.766 272.49C141.268 272.01 141.019 271.374 141.019 270.583C141.019 268.884 141.997 267.894 143.954 267.612L146.626 267.234C146.626 265.951 146.017 265.31 144.798 265.31C143.726 265.31 142.759 265.679 141.897 266.417V264.633C142.847 264.07 143.942 263.789 145.185 263.789C147.458 263.789 148.595 264.908 148.595 267.146V273ZM146.626 268.579L144.736 268.843C144.15 268.919 143.708 269.062 143.409 269.273C143.116 269.479 142.97 269.842 142.97 270.363C142.97 270.744 143.104 271.058 143.374 271.304C143.649 271.544 144.016 271.664 144.473 271.664C145.094 271.664 145.606 271.447 146.011 271.014C146.421 270.574 146.626 270.023 146.626 269.361V268.579ZM157.27 273.158V277.201H155.389V273.158H155.09C153.719 273.158 152.608 272.736 151.759 271.893C150.915 271.049 150.493 269.944 150.493 268.579C150.493 267.144 150.921 265.995 151.776 265.134C152.632 264.272 153.763 263.842 155.169 263.842H155.389V260.159H157.27V263.842H157.472C158.89 263.842 160.026 264.27 160.882 265.125C161.737 265.98 162.165 267.132 162.165 268.579C162.165 269.944 161.743 271.049 160.899 271.893C160.062 272.736 158.96 273.158 157.595 273.158H157.27ZM157.27 265.389V271.62H157.437C158.239 271.62 158.881 271.345 159.361 270.794C159.842 270.243 160.082 269.496 160.082 268.553C160.082 267.562 159.845 266.789 159.37 266.232C158.901 265.67 158.271 265.389 157.48 265.389H157.27ZM155.389 271.62V265.389H155.204C154.413 265.389 153.777 265.67 153.297 266.232C152.816 266.795 152.576 267.568 152.576 268.553C152.576 269.484 152.816 270.229 153.297 270.785C153.777 271.342 154.422 271.62 155.23 271.62H155.389ZM172.413 273H170.567V266.399C170.45 266.634 170.271 266.959 170.031 267.375L166.243 273H164.239V264H166.111V270.469C166.176 270.316 166.313 270.053 166.524 269.678L170.365 264H172.413V273ZM183.259 273H180.666L177.168 268.614H177.133V273H175.085V264H177.133V268.14H177.168L180.473 264H182.969L179.225 268.289L183.259 273Z" fill="#6B6565"/>
<rect x="330.75" y="187.75" width="145.5" height="30.5" fill="white" stroke="black" stroke-width="1.5"/>
<path d="M358.092 208H355.367L350.981 202.234C350.817 202.018 350.718 201.871 350.683 201.795H350.647V208H348.556V195.396H350.647V201.32H350.683C350.753 201.191 350.853 201.048 350.981 200.89L355.209 195.396H357.714L352.766 201.443L358.092 208ZM366.239 208H364.262V206.594H364.227C363.605 207.672 362.694 208.211 361.493 208.211C360.608 208.211 359.914 207.971 359.41 207.49C358.912 207.01 358.663 206.374 358.663 205.583C358.663 203.884 359.642 202.894 361.599 202.612L364.271 202.234C364.271 200.951 363.661 200.31 362.442 200.31C361.37 200.31 360.403 200.679 359.542 201.417V199.633C360.491 199.07 361.587 198.789 362.829 198.789C365.103 198.789 366.239 199.908 366.239 202.146V208ZM364.271 203.579L362.381 203.843C361.795 203.919 361.353 204.062 361.054 204.273C360.761 204.479 360.614 204.842 360.614 205.363C360.614 205.744 360.749 206.058 361.019 206.304C361.294 206.544 361.66 206.664 362.117 206.664C362.738 206.664 363.251 206.447 363.655 206.014C364.065 205.574 364.271 205.023 364.271 204.361V203.579ZM370.81 206.673H370.774V212.14H368.735V199H370.774V200.582H370.81C371.507 199.387 372.526 198.789 373.868 198.789C375.011 198.789 375.901 199.19 376.54 199.993C377.179 200.796 377.498 201.874 377.498 203.228C377.498 204.728 377.138 205.929 376.417 206.831C375.696 207.733 374.712 208.185 373.464 208.185C372.315 208.185 371.431 207.681 370.81 206.673ZM370.757 203.122V204.238C370.757 204.895 370.965 205.451 371.381 205.908C371.803 206.365 372.336 206.594 372.98 206.594C373.736 206.594 374.328 206.301 374.756 205.715C375.189 205.123 375.406 204.3 375.406 203.245C375.406 202.36 375.204 201.669 374.8 201.171C374.401 200.667 373.859 200.415 373.174 200.415C372.447 200.415 371.861 200.673 371.416 201.188C370.977 201.704 370.757 202.349 370.757 203.122ZM385.417 200.626H382.851V208H380.803V200.626H378.219V199H385.417V200.626ZM393.942 208H391.965V206.594H391.93C391.309 207.672 390.397 208.211 389.196 208.211C388.312 208.211 387.617 207.971 387.113 207.49C386.615 207.01 386.366 206.374 386.366 205.583C386.366 203.884 387.345 202.894 389.302 202.612L391.974 202.234C391.974 200.951 391.364 200.31 390.146 200.31C389.073 200.31 388.106 200.679 387.245 201.417V199.633C388.194 199.07 389.29 198.789 390.532 198.789C392.806 198.789 393.942 199.908 393.942 202.146V208ZM391.974 203.579L390.084 203.843C389.498 203.919 389.056 204.062 388.757 204.273C388.464 204.479 388.317 204.842 388.317 205.363C388.317 205.744 388.452 206.058 388.722 206.304C388.997 206.544 389.363 206.664 389.82 206.664C390.441 206.664 390.954 206.447 391.358 206.014C391.769 205.574 391.974 205.023 391.974 204.361V203.579ZM407.53 200.626H404.964V208H402.916V200.626H400.332V199H407.53V200.626ZM412.839 208.211C411.45 208.211 410.34 207.792 409.508 206.954C408.682 206.11 408.269 204.994 408.269 203.605C408.269 202.094 408.699 200.913 409.561 200.063C410.428 199.214 411.594 198.789 413.059 198.789C414.465 198.789 415.561 199.202 416.346 200.028C417.131 200.854 417.523 202 417.523 203.465C417.523 204.9 417.099 206.052 416.249 206.919C415.405 207.78 414.269 208.211 412.839 208.211ZM412.936 200.415C412.139 200.415 411.509 200.693 411.046 201.25C410.583 201.807 410.352 202.574 410.352 203.553C410.352 204.496 410.586 205.24 411.055 205.785C411.523 206.324 412.15 206.594 412.936 206.594C413.738 206.594 414.354 206.327 414.781 205.794C415.215 205.261 415.432 204.502 415.432 203.518C415.432 202.527 415.215 201.763 414.781 201.224C414.354 200.685 413.738 200.415 412.936 200.415ZM419.606 208V199H423.904C424.871 199 425.636 199.196 426.198 199.589C426.761 199.981 427.042 200.518 427.042 201.197C427.042 202.346 426.453 203.043 425.275 203.289C426.676 203.465 427.376 204.156 427.376 205.363C427.376 206.107 427.08 206.734 426.488 207.244C425.896 207.748 425.161 208 424.282 208H419.606ZM421.646 200.441V202.683H423.447C424.467 202.683 424.977 202.287 424.977 201.496C424.977 200.793 424.531 200.441 423.641 200.441H421.646ZM421.646 204.098V206.55H423.737C424.78 206.55 425.302 206.128 425.302 205.284C425.302 204.493 424.736 204.098 423.605 204.098H421.646ZM436.464 208H434.486V206.594H434.451C433.83 207.672 432.919 208.211 431.718 208.211C430.833 208.211 430.139 207.971 429.635 207.49C429.137 207.01 428.888 206.374 428.888 205.583C428.888 203.884 429.866 202.894 431.823 202.612L434.495 202.234C434.495 200.951 433.886 200.31 432.667 200.31C431.595 200.31 430.628 200.679 429.767 201.417V199.633C430.716 199.07 431.812 198.789 433.054 198.789C435.327 198.789 436.464 199.908 436.464 202.146V208ZM434.495 203.579L432.605 203.843C432.02 203.919 431.577 204.062 431.278 204.273C430.985 204.479 430.839 204.842 430.839 205.363C430.839 205.744 430.974 206.058 431.243 206.304C431.519 206.544 431.885 206.664 432.342 206.664C432.963 206.664 433.476 206.447 433.88 206.014C434.29 205.574 434.495 205.023 434.495 204.361V203.579ZM441.034 206.673H440.999V212.14H438.96V199H440.999V200.582H441.034C441.731 199.387 442.751 198.789 444.093 198.789C445.235 198.789 446.126 199.19 446.765 199.993C447.403 200.796 447.723 201.874 447.723 203.228C447.723 204.728 447.362 205.929 446.642 206.831C445.921 207.733 444.937 208.185 443.688 208.185C442.54 208.185 441.655 207.681 441.034 206.673ZM440.981 203.122V204.238C440.981 204.895 441.189 205.451 441.605 205.908C442.027 206.365 442.561 206.594 443.205 206.594C443.961 206.594 444.553 206.301 444.98 205.715C445.414 205.123 445.631 204.3 445.631 203.245C445.631 202.36 445.429 201.669 445.024 201.171C444.626 200.667 444.084 200.415 443.398 200.415C442.672 200.415 442.086 200.673 441.641 201.188C441.201 201.704 440.981 202.349 440.981 203.122ZM456.503 208H454.525V206.594H454.49C453.869 207.672 452.958 208.211 451.757 208.211C450.872 208.211 450.178 207.971 449.674 207.49C449.176 207.01 448.927 206.374 448.927 205.583C448.927 203.884 449.905 202.894 451.862 202.612L454.534 202.234C454.534 200.951 453.925 200.31 452.706 200.31C451.634 200.31 450.667 200.679 449.806 201.417V199.633C450.755 199.07 451.851 198.789 453.093 198.789C455.366 198.789 456.503 199.908 456.503 202.146V208ZM454.534 203.579L452.645 203.843C452.059 203.919 451.616 204.062 451.317 204.273C451.024 204.479 450.878 204.842 450.878 205.363C450.878 205.744 451.013 206.058 451.282 206.304C451.558 206.544 451.924 206.664 452.381 206.664C453.002 206.664 453.515 206.447 453.919 206.014C454.329 205.574 454.534 205.023 454.534 204.361V203.579Z" fill="black"/>
<rect x="691.75" y="207.75" width="183.5" height="50.5" fill="white" stroke="#CFC9C9" stroke-width="1.5"/>
<path d="M720.609 225.473C719.678 225.965 718.518 226.211 717.129 226.211C715.336 226.211 713.9 225.634 712.822 224.479C711.744 223.325 711.205 221.811 711.205 219.936C711.205 217.92 711.812 216.291 713.024 215.049C714.237 213.807 715.775 213.186 717.639 213.186C718.834 213.186 719.824 213.358 720.609 213.704V215.277C719.707 214.773 718.711 214.521 717.621 214.521C716.174 214.521 714.999 215.005 714.097 215.972C713.2 216.938 712.752 218.23 712.752 219.848C712.752 221.383 713.171 222.607 714.009 223.521C714.853 224.43 715.957 224.884 717.322 224.884C718.588 224.884 719.684 224.603 720.609 224.04V225.473ZM730.216 221.86H723.861C723.885 222.862 724.154 223.636 724.67 224.181C725.186 224.726 725.895 224.998 726.797 224.998C727.811 224.998 728.742 224.664 729.592 223.996V225.35C728.801 225.924 727.755 226.211 726.454 226.211C725.183 226.211 724.184 225.804 723.457 224.989C722.73 224.169 722.367 223.018 722.367 221.535C722.367 220.135 722.763 218.995 723.554 218.116C724.351 217.231 725.338 216.789 726.516 216.789C727.693 216.789 728.604 217.17 729.249 217.932C729.894 218.693 730.216 219.751 730.216 221.104V221.86ZM728.739 220.639C728.733 219.807 728.531 219.159 728.133 218.696C727.74 218.233 727.192 218.002 726.489 218.002C725.81 218.002 725.232 218.245 724.758 218.731C724.283 219.218 723.99 219.854 723.879 220.639H728.739ZM737.405 218.23H733.846V226H732.404V217H737.405V218.23ZM749.016 226H747.592V218.582C747.463 218.957 747.264 219.508 746.994 220.234L744.744 226H743.452L741.132 220.234C741.009 219.924 740.81 219.373 740.534 218.582V226H739.295V217H741.132L743.505 222.871C743.675 223.299 743.892 223.891 744.155 224.646L744.797 222.906L747.1 217H749.016V226ZM759.167 221.86H752.812C752.836 222.862 753.105 223.636 753.621 224.181C754.137 224.726 754.846 224.998 755.748 224.998C756.762 224.998 757.693 224.664 758.543 223.996V225.35C757.752 225.924 756.706 226.211 755.405 226.211C754.134 226.211 753.135 225.804 752.408 224.989C751.682 224.169 751.318 223.018 751.318 221.535C751.318 220.135 751.714 218.995 752.505 218.116C753.302 217.231 754.289 216.789 755.467 216.789C756.645 216.789 757.556 217.17 758.2 217.932C758.845 218.693 759.167 219.751 759.167 221.104V221.86ZM757.69 220.639C757.685 219.807 757.482 219.159 757.084 218.696C756.691 218.233 756.144 218.002 755.44 218.002C754.761 218.002 754.184 218.245 753.709 218.731C753.234 219.218 752.941 219.854 752.83 220.639H757.69ZM768.826 226H767.385V221.913H762.797V226H761.355V217H762.797V220.691H767.385V217H768.826V226ZM777.396 218.23H774.697V226H773.256V218.23H770.549V217H777.396V218.23ZM785.569 226H784.128V224.594H784.093C783.466 225.672 782.543 226.211 781.324 226.211C780.428 226.211 779.725 225.974 779.215 225.499C778.711 225.024 778.459 224.395 778.459 223.609C778.459 221.928 779.449 220.949 781.43 220.674L784.128 220.296C784.128 218.767 783.51 218.002 782.273 218.002C781.189 218.002 780.211 218.371 779.338 219.109V217.633C780.223 217.07 781.242 216.789 782.396 216.789C784.512 216.789 785.569 217.908 785.569 220.146V226ZM784.128 221.447L781.957 221.746C781.289 221.84 780.785 222.007 780.445 222.247C780.105 222.481 779.936 222.9 779.936 223.504C779.936 223.943 780.091 224.304 780.401 224.585C780.718 224.86 781.137 224.998 781.658 224.998C782.373 224.998 782.962 224.749 783.425 224.251C783.894 223.747 784.128 223.111 784.128 222.344V221.447ZM797.083 229.278H795.844V226H788.285V217H789.727V224.778H794.314V217H795.756V224.778H797.083V229.278ZM806.637 226H805.336V218.819C805.207 219.071 805.011 219.426 804.747 219.883L800.59 226H799.096V217H800.414V224.093C800.484 223.923 800.637 223.633 800.871 223.223L805.143 217H806.637V226ZM813.316 226.211C811.986 226.211 810.923 225.792 810.126 224.954C809.335 224.11 808.939 222.994 808.939 221.605C808.939 220.094 809.353 218.913 810.179 218.063C811.005 217.214 812.121 216.789 813.527 216.789C814.869 216.789 815.915 217.202 816.665 218.028C817.421 218.854 817.799 220 817.799 221.465C817.799 222.9 817.392 224.052 816.577 224.919C815.769 225.78 814.682 226.211 813.316 226.211ZM813.422 218.002C812.496 218.002 811.764 218.318 811.225 218.951C810.686 219.578 810.416 220.445 810.416 221.553C810.416 222.619 810.688 223.46 811.233 224.075C811.778 224.69 812.508 224.998 813.422 224.998C814.354 224.998 815.068 224.696 815.566 224.093C816.07 223.489 816.322 222.631 816.322 221.518C816.322 220.393 816.07 219.525 815.566 218.916C815.068 218.307 814.354 218.002 813.422 218.002ZM827.572 226H826.131V221.913H821.543V226H820.102V217H821.543V220.691H826.131V217H827.572V226ZM837.961 226H836.52V221.913H831.932V226H830.49V217H831.932V220.691H836.52V217H837.961V226ZM850.723 226H849.299V217H850.723V226ZM840.879 226V217H842.32V220.454H844.746C845.666 220.454 846.396 220.694 846.935 221.175C847.479 221.655 847.752 222.326 847.752 223.188C847.752 224.055 847.479 224.74 846.935 225.244C846.39 225.748 845.701 226 844.869 226H840.879ZM842.32 221.693V224.77H844.482C845.678 224.77 846.275 224.242 846.275 223.188C846.275 222.191 845.672 221.693 844.465 221.693H842.32ZM860.892 221.86H854.537C854.561 222.862 854.83 223.636 855.346 224.181C855.861 224.726 856.57 224.998 857.473 224.998C858.486 224.998 859.418 224.664 860.268 223.996V225.35C859.477 225.924 858.431 226.211 857.13 226.211C855.858 226.211 854.859 225.804 854.133 224.989C853.406 224.169 853.043 223.018 853.043 221.535C853.043 220.135 853.438 218.995 854.229 218.116C855.026 217.231 856.014 216.789 857.191 216.789C858.369 216.789 859.28 217.17 859.925 217.932C860.569 218.693 860.892 219.751 860.892 221.104V221.86ZM859.415 220.639C859.409 219.807 859.207 219.159 858.809 218.696C858.416 218.233 857.868 218.002 857.165 218.002C856.485 218.002 855.908 218.245 855.434 218.731C854.959 219.218 854.666 219.854 854.555 220.639H859.415ZM755.353 250H753.92V242.222H751.828C751.588 245.134 751.175 247.179 750.589 248.356C750.009 249.534 749.227 250.123 748.242 250.123C747.943 250.123 747.686 250.082 747.469 250V248.761C747.674 248.866 747.896 248.919 748.137 248.919C749.426 248.919 750.255 246.279 750.624 241H755.353V250ZM765.513 245.86H759.158C759.182 246.862 759.451 247.636 759.967 248.181C760.482 248.726 761.191 248.998 762.094 248.998C763.107 248.998 764.039 248.664 764.889 247.996V249.35C764.098 249.924 763.052 250.211 761.751 250.211C760.479 250.211 759.48 249.804 758.754 248.989C758.027 248.169 757.664 247.018 757.664 245.535C757.664 244.135 758.06 242.995 758.851 242.116C759.647 241.231 760.635 240.789 761.812 240.789C762.99 240.789 763.901 241.17 764.546 241.932C765.19 242.693 765.513 243.751 765.513 245.104V245.86ZM764.036 244.639C764.03 243.807 763.828 243.159 763.43 242.696C763.037 242.233 762.489 242.002 761.786 242.002C761.106 242.002 760.529 242.245 760.055 242.731C759.58 243.218 759.287 243.854 759.176 244.639H764.036ZM775.172 250H773.73V245.913H769.143V250H767.701V241H769.143V244.691H773.73V241H775.172V250ZM785.938 253.278H784.717V250H778.02V253.278H776.789V248.778H777.589C779.124 246.563 779.903 243.971 779.927 241H784.603V248.778H785.938V253.278ZM783.161 248.778V242.222H781.166C781.008 244.647 780.325 246.833 779.118 248.778H783.161ZM795.475 250H794.174V242.819C794.045 243.071 793.849 243.426 793.585 243.883L789.428 250H787.934V241H789.252V248.093C789.322 247.923 789.475 247.633 789.709 247.223L793.98 241H795.475V250ZM805.863 250H804.422V245.913H799.834V250H798.393V241H799.834V244.691H804.422V241H805.863V250ZM813.782 242.23H810.223V250H808.781V241H813.782V242.23ZM823.213 250H821.912V242.819C821.783 243.071 821.587 243.426 821.323 243.883L817.166 250H815.672V241H816.99V248.093C817.061 247.923 817.213 247.633 817.447 247.223L821.719 241H823.213V250Z" fill="#CFC9C9"/>
<rect x="613.75" y="371.75" width="112.5" height="31.5" fill="white" stroke="black" stroke-width="1.5"/>
<path d="M641.55 393H638.711V382.875H633.49V393H630.651V380.396H641.55V393ZM646.973 391.954H646.938V397.14H644.16V384H646.938V385.354H646.973C647.658 384.305 648.622 383.78 649.864 383.78C651.03 383.78 651.93 384.182 652.562 384.984C653.201 385.781 653.521 386.868 653.521 388.245C653.521 389.745 653.148 390.949 652.404 391.857C651.666 392.766 650.682 393.22 649.451 393.22C648.367 393.22 647.541 392.798 646.973 391.954ZM646.894 388.263V388.983C646.894 389.604 647.058 390.111 647.386 390.504C647.714 390.896 648.145 391.093 648.678 391.093C649.311 391.093 649.8 390.85 650.146 390.363C650.497 389.871 650.673 389.177 650.673 388.28C650.673 386.698 650.058 385.907 648.827 385.907C648.259 385.907 647.793 386.124 647.43 386.558C647.072 386.985 646.894 387.554 646.894 388.263ZM659.611 393.22C658.111 393.22 656.931 392.801 656.069 391.963C655.214 391.119 654.786 389.977 654.786 388.535C654.786 387.047 655.231 385.884 656.122 385.046C657.013 384.202 658.217 383.78 659.734 383.78C661.229 383.78 662.4 384.202 663.25 385.046C664.1 385.884 664.524 386.994 664.524 388.377C664.524 389.871 664.085 391.052 663.206 391.919C662.333 392.786 661.135 393.22 659.611 393.22ZM659.682 385.907C659.025 385.907 658.516 386.133 658.152 386.584C657.789 387.035 657.607 387.674 657.607 388.5C657.607 390.229 658.305 391.093 659.699 391.093C661.029 391.093 661.694 390.205 661.694 388.43C661.694 386.748 661.023 385.907 659.682 385.907ZM675.713 396.278H673.445V393H667.39V396.278H665.157V391.04H665.957C667.229 389.048 667.899 386.701 667.97 384H674.289V391.04H675.713V396.278ZM671.512 391.04V385.942H670.132C669.997 387.841 669.505 389.54 668.655 391.04H671.512ZM684.818 393H682.19V391.708H682.155C681.552 392.716 680.658 393.22 679.475 393.22C678.602 393.22 677.913 392.974 677.409 392.481C676.911 391.983 676.662 391.321 676.662 390.495C676.662 388.749 677.696 387.741 679.765 387.472L682.208 387.146C682.208 386.162 681.675 385.67 680.608 385.67C679.536 385.67 678.517 385.989 677.55 386.628V384.536C677.937 384.337 678.464 384.161 679.132 384.009C679.806 383.856 680.418 383.78 680.969 383.78C683.535 383.78 684.818 385.061 684.818 387.621V393ZM682.208 389.344V388.737L680.573 388.948C679.671 389.065 679.22 389.473 679.22 390.17C679.22 390.486 679.328 390.747 679.545 390.952C679.768 391.151 680.066 391.251 680.441 391.251C680.963 391.251 681.388 391.072 681.716 390.715C682.044 390.352 682.208 389.895 682.208 389.344ZM701.061 393H697.782L694.882 388.5H694.847V393H692.113V388.5H692.078L689.195 393H685.917L689.336 388.28L686.005 384H689.266L692.078 388.263H692.113V384H694.847V388.263H694.882L697.694 384H700.946L697.615 388.28L701.061 393ZM709.762 393H707.134V391.708H707.099C706.495 392.716 705.602 393.22 704.418 393.22C703.545 393.22 702.856 392.974 702.353 392.481C701.854 391.983 701.605 391.321 701.605 390.495C701.605 388.749 702.64 387.741 704.708 387.472L707.151 387.146C707.151 386.162 706.618 385.67 705.552 385.67C704.479 385.67 703.46 385.989 702.493 386.628V384.536C702.88 384.337 703.407 384.161 704.075 384.009C704.749 383.856 705.361 383.78 705.912 383.78C708.479 383.78 709.762 385.061 709.762 387.621V393ZM707.151 389.344V388.737L705.517 388.948C704.614 389.065 704.163 389.473 704.163 390.17C704.163 390.486 704.271 390.747 704.488 390.952C704.711 391.151 705.01 391.251 705.385 391.251C705.906 391.251 706.331 391.072 706.659 390.715C706.987 390.352 707.151 389.895 707.151 389.344Z" fill="black"/>
<rect x="818.75" y="408.75" width="126.5" height="25.5" fill="white" stroke="#A84F46" stroke-width="1.5"/>
<path d="M848.958 427H847.464V415.768H840.881V427H839.396V414.396H848.958V427ZM853.511 425.699H853.476V431.14H852.034V418H853.476V419.582H853.511C854.22 418.387 855.257 417.789 856.622 417.789C857.782 417.789 858.688 418.193 859.338 419.002C859.988 419.805 860.313 420.883 860.313 422.236C860.313 423.742 859.947 424.949 859.215 425.857C858.482 426.76 857.48 427.211 856.209 427.211C855.043 427.211 854.144 426.707 853.511 425.699ZM853.476 422.069V423.326C853.476 424.07 853.716 424.703 854.196 425.225C854.683 425.74 855.298 425.998 856.042 425.998C856.915 425.998 857.598 425.664 858.09 424.996C858.588 424.328 858.837 423.399 858.837 422.21C858.837 421.208 858.605 420.423 858.143 419.854C857.68 419.286 857.053 419.002 856.262 419.002C855.424 419.002 854.75 419.295 854.24 419.881C853.73 420.461 853.476 421.19 853.476 422.069ZM866.378 427.211C865.048 427.211 863.984 426.792 863.188 425.954C862.396 425.11 862.001 423.994 862.001 422.605C862.001 421.094 862.414 419.913 863.24 419.063C864.066 418.214 865.183 417.789 866.589 417.789C867.931 417.789 868.977 418.202 869.727 419.028C870.482 419.854 870.86 421 870.86 422.465C870.86 423.9 870.453 425.052 869.639 425.919C868.83 426.78 867.743 427.211 866.378 427.211ZM866.483 419.002C865.558 419.002 864.825 419.318 864.286 419.951C863.747 420.578 863.478 421.445 863.478 422.553C863.478 423.619 863.75 424.46 864.295 425.075C864.84 425.69 865.569 425.998 866.483 425.998C867.415 425.998 868.13 425.696 868.628 425.093C869.132 424.489 869.384 423.631 869.384 422.518C869.384 421.393 869.132 420.525 868.628 419.916C868.13 419.307 867.415 419.002 866.483 419.002ZM873.163 427V418H877.083C877.968 418 878.665 418.196 879.175 418.589C879.69 418.981 879.948 419.518 879.948 420.197C879.948 421.363 879.374 422.072 878.226 422.324C879.603 422.5 880.291 423.194 880.291 424.407C880.291 425.14 880.007 425.755 879.438 426.253C878.876 426.751 878.176 427 877.338 427H873.163ZM874.604 419.23V421.762H876.767C877.927 421.762 878.507 421.311 878.507 420.408C878.507 419.623 877.985 419.23 876.942 419.23H874.604ZM874.604 422.992V425.77H877.101C878.267 425.77 878.85 425.298 878.85 424.354C878.85 423.446 878.196 422.992 876.89 422.992H874.604ZM889.15 427H887.709V425.594H887.674C887.047 426.672 886.124 427.211 884.905 427.211C884.009 427.211 883.306 426.974 882.796 426.499C882.292 426.024 882.04 425.395 882.04 424.609C882.04 422.928 883.03 421.949 885.011 421.674L887.709 421.296C887.709 419.767 887.091 419.002 885.854 419.002C884.771 419.002 883.792 419.371 882.919 420.109V418.633C883.804 418.07 884.823 417.789 885.978 417.789C888.093 417.789 889.15 418.908 889.15 421.146V427ZM887.709 422.447L885.538 422.746C884.87 422.84 884.366 423.007 884.026 423.247C883.687 423.481 883.517 423.9 883.517 424.504C883.517 424.943 883.672 425.304 883.982 425.585C884.299 425.86 884.718 425.998 885.239 425.998C885.954 425.998 886.543 425.749 887.006 425.251C887.475 424.747 887.709 424.111 887.709 423.344V422.447ZM898.432 427H896.999V419.222H894.907C894.667 422.134 894.254 424.179 893.668 425.356C893.088 426.534 892.306 427.123 891.321 427.123C891.022 427.123 890.765 427.082 890.548 427V425.761C890.753 425.866 890.976 425.919 891.216 425.919C892.505 425.919 893.334 423.279 893.703 418H898.432V427ZM908.592 422.86H902.237C902.261 423.862 902.53 424.636 903.046 425.181C903.562 425.726 904.271 425.998 905.173 425.998C906.187 425.998 907.118 425.664 907.968 424.996V426.35C907.177 426.924 906.131 427.211 904.83 427.211C903.559 427.211 902.56 426.804 901.833 425.989C901.106 425.169 900.743 424.018 900.743 422.535C900.743 421.135 901.139 419.995 901.93 419.116C902.727 418.231 903.714 417.789 904.892 417.789C906.069 417.789 906.98 418.17 907.625 418.932C908.27 419.693 908.592 420.751 908.592 422.104V422.86ZM907.115 421.639C907.109 420.807 906.907 420.159 906.509 419.696C906.116 419.233 905.568 419.002 904.865 419.002C904.186 419.002 903.608 419.245 903.134 419.731C902.659 420.218 902.366 420.854 902.255 421.639H907.115ZM918.251 427H916.81V422.913H912.222V427H910.78V418H912.222V421.691H916.81V418H918.251V427ZM924.931 427.211C923.601 427.211 922.537 426.792 921.74 425.954C920.949 425.11 920.554 423.994 920.554 422.605C920.554 421.094 920.967 419.913 921.793 419.063C922.619 418.214 923.735 417.789 925.142 417.789C926.483 417.789 927.529 418.202 928.279 419.028C929.035 419.854 929.413 421 929.413 422.465C929.413 423.9 929.006 425.052 928.191 425.919C927.383 426.78 926.296 427.211 924.931 427.211ZM925.036 419.002C924.11 419.002 923.378 419.318 922.839 419.951C922.3 420.578 922.03 421.445 922.03 422.553C922.03 423.619 922.303 424.46 922.848 425.075C923.393 425.69 924.122 425.998 925.036 425.998C925.968 425.998 926.683 425.696 927.181 425.093C927.685 424.489 927.937 423.631 927.937 422.518C927.937 421.393 927.685 420.525 927.181 419.916C926.683 419.307 925.968 419.002 925.036 419.002Z" fill="#A84F46"/>
<rect x="492.75" y="487.75" width="227.5" height="62.5" fill="white" stroke="black" stroke-width="1.5"/>
<path d="M516.473 515H509.397V502.396H516.191V504.172H511.489V507.74H515.822V509.507H511.489V513.233H516.473V515ZM531.379 515H528.83L525.314 510.526H525.279V515H523.293V510.526H523.267L519.742 515H517.211L521.201 510.324L517.396 506H519.874L523.258 510.236H523.293V506H525.279V510.236H525.314L528.698 506H531.177L527.362 510.324L531.379 515ZM540.027 511.054H533.893C533.916 511.886 534.171 512.527 534.657 512.979C535.149 513.43 535.823 513.655 536.679 513.655C537.64 513.655 538.521 513.368 539.324 512.794V514.438C538.504 514.953 537.42 515.211 536.072 515.211C534.748 515.211 533.708 514.804 532.952 513.989C532.202 513.169 531.827 512.018 531.827 510.535C531.827 509.135 532.24 507.995 533.066 507.116C533.898 506.231 534.93 505.789 536.16 505.789C537.391 505.789 538.343 506.185 539.017 506.976C539.69 507.767 540.027 508.865 540.027 510.271V511.054ZM538.059 509.612C538.053 508.88 537.88 508.312 537.54 507.907C537.2 507.497 536.731 507.292 536.134 507.292C535.548 507.292 535.05 507.506 534.64 507.934C534.235 508.361 533.986 508.921 533.893 509.612H538.059ZM552.561 515H550.609V507.793C550.492 508.156 550.313 508.692 550.073 509.401L548.043 515H546.232L544.167 509.384C544.056 509.079 543.877 508.543 543.631 507.775V515H541.97V506H544.624L546.689 511.555C546.836 511.959 547.023 512.519 547.252 513.233L547.814 511.59L549.836 506H552.561V515ZM562.844 511.054H556.709C556.732 511.886 556.987 512.527 557.474 512.979C557.966 513.43 558.64 513.655 559.495 513.655C560.456 513.655 561.338 513.368 562.141 512.794V514.438C561.32 514.953 560.236 515.211 558.889 515.211C557.564 515.211 556.524 514.804 555.769 513.989C555.019 513.169 554.644 512.018 554.644 510.535C554.644 509.135 555.057 507.995 555.883 507.116C556.715 506.231 557.746 505.789 558.977 505.789C560.207 505.789 561.159 506.185 561.833 506.976C562.507 507.767 562.844 508.865 562.844 510.271V511.054ZM560.875 509.612C560.869 508.88 560.696 508.312 560.356 507.907C560.017 507.497 559.548 507.292 558.95 507.292C558.364 507.292 557.866 507.506 557.456 507.934C557.052 508.361 556.803 508.921 556.709 509.612H560.875ZM571.229 514.587C570.508 515.003 569.655 515.211 568.671 515.211C567.335 515.211 566.257 514.795 565.437 513.963C564.616 513.125 564.206 512.041 564.206 510.711C564.206 509.229 564.646 508.039 565.524 507.143C566.409 506.24 567.59 505.789 569.066 505.789C569.887 505.789 570.61 505.933 571.237 506.22V508.118C570.61 507.649 569.942 507.415 569.233 507.415C568.372 507.415 567.666 507.708 567.115 508.294C566.564 508.874 566.289 509.636 566.289 510.579C566.289 511.511 566.547 512.246 567.062 512.785C567.584 513.324 568.281 513.594 569.154 513.594C569.887 513.594 570.578 513.333 571.229 512.812V514.587ZM580.193 515H578.163V511.44H577.117C576.613 511.44 576.156 511.892 575.746 512.794L574.674 515H572.362L573.786 512.328C574.19 511.637 574.677 511.18 575.245 510.957C574.53 510.863 573.982 510.608 573.602 510.192C573.227 509.771 573.039 509.243 573.039 508.61C573.039 507.808 573.358 507.172 573.997 506.703C574.642 506.234 575.506 506 576.59 506H580.193V515ZM578.163 510.034V507.477H576.757C575.655 507.477 575.104 507.896 575.104 508.733C575.104 509.601 575.646 510.034 576.73 510.034H578.163ZM590.635 515H588.596V511.607C587.57 512.164 586.627 512.442 585.766 512.442C583.738 512.442 582.725 511.341 582.725 509.138V506H584.72V508.856C584.72 510.128 585.218 510.764 586.214 510.764C586.952 510.764 587.746 510.544 588.596 510.104V506H590.635V515ZM601.313 515H599.266V511.062H595.346V515H593.298V506H595.346V509.533H599.266V506H601.313V515ZM610.876 515H608.898V513.594H608.863C608.242 514.672 607.331 515.211 606.13 515.211C605.245 515.211 604.551 514.971 604.047 514.49C603.549 514.01 603.3 513.374 603.3 512.583C603.3 510.884 604.278 509.894 606.235 509.612L608.907 509.234C608.907 507.951 608.298 507.31 607.079 507.31C606.007 507.31 605.04 507.679 604.179 508.417V506.633C605.128 506.07 606.224 505.789 607.466 505.789C609.739 505.789 610.876 506.908 610.876 509.146V515ZM608.907 510.579L607.018 510.843C606.432 510.919 605.989 511.062 605.69 511.273C605.397 511.479 605.251 511.842 605.251 512.363C605.251 512.744 605.386 513.058 605.655 513.304C605.931 513.544 606.297 513.664 606.754 513.664C607.375 513.664 607.888 513.447 608.292 513.014C608.702 512.574 608.907 512.023 608.907 511.361V510.579ZM620.307 515H618.276V511.44H617.23C616.727 511.44 616.27 511.892 615.859 512.794L614.787 515H612.476L613.899 512.328C614.304 511.637 614.79 511.18 615.358 510.957C614.644 510.863 614.096 510.608 613.715 510.192C613.34 509.771 613.152 509.243 613.152 508.61C613.152 507.808 613.472 507.172 614.11 506.703C614.755 506.234 615.619 506 616.703 506H620.307V515ZM618.276 510.034V507.477H616.87C615.769 507.477 615.218 507.896 615.218 508.733C615.218 509.601 615.76 510.034 616.844 510.034H618.276ZM629.983 513.673H629.948V519.14H627.909V506H629.948V507.582H629.983C630.681 506.387 631.7 505.789 633.042 505.789C634.185 505.789 635.075 506.19 635.714 506.993C636.353 507.796 636.672 508.874 636.672 510.228C636.672 511.728 636.312 512.929 635.591 513.831C634.87 514.733 633.886 515.185 632.638 515.185C631.489 515.185 630.604 514.681 629.983 513.673ZM629.931 510.122V511.238C629.931 511.895 630.139 512.451 630.555 512.908C630.977 513.365 631.51 513.594 632.154 513.594C632.91 513.594 633.502 513.301 633.93 512.715C634.363 512.123 634.58 511.3 634.58 510.245C634.58 509.36 634.378 508.669 633.974 508.171C633.575 507.667 633.033 507.415 632.348 507.415C631.621 507.415 631.035 507.673 630.59 508.188C630.15 508.704 629.931 509.349 629.931 510.122ZM645.452 515H643.475V513.594H643.439C642.818 514.672 641.907 515.211 640.706 515.211C639.821 515.211 639.127 514.971 638.623 514.49C638.125 514.01 637.876 513.374 637.876 512.583C637.876 510.884 638.854 509.894 640.812 509.612L643.483 509.234C643.483 507.951 642.874 507.31 641.655 507.31C640.583 507.31 639.616 507.679 638.755 508.417V506.633C639.704 506.07 640.8 505.789 642.042 505.789C644.315 505.789 645.452 506.908 645.452 509.146V515ZM643.483 510.579L641.594 510.843C641.008 510.919 640.565 511.062 640.267 511.273C639.974 511.479 639.827 511.842 639.827 512.363C639.827 512.744 639.962 513.058 640.231 513.304C640.507 513.544 640.873 513.664 641.33 513.664C641.951 513.664 642.464 513.447 642.868 513.014C643.278 512.574 643.483 512.023 643.483 511.361V510.579ZM654.391 514.587C653.67 515.003 652.817 515.211 651.833 515.211C650.497 515.211 649.419 514.795 648.599 513.963C647.778 513.125 647.368 512.041 647.368 510.711C647.368 509.229 647.808 508.039 648.687 507.143C649.571 506.24 650.752 505.789 652.229 505.789C653.049 505.789 653.772 505.933 654.399 506.22V508.118C653.772 507.649 653.104 507.415 652.396 507.415C651.534 507.415 650.828 507.708 650.277 508.294C649.727 508.874 649.451 509.636 649.451 510.579C649.451 511.511 649.709 512.246 650.225 512.785C650.746 513.324 651.443 513.594 652.316 513.594C653.049 513.594 653.74 513.333 654.391 512.812V514.587ZM662.863 514.587C662.143 515.003 661.29 515.211 660.306 515.211C658.97 515.211 657.892 514.795 657.071 513.963C656.251 513.125 655.841 512.041 655.841 510.711C655.841 509.229 656.28 508.039 657.159 507.143C658.044 506.24 659.225 505.789 660.701 505.789C661.521 505.789 662.245 505.933 662.872 506.22V508.118C662.245 507.649 661.577 507.415 660.868 507.415C660.007 507.415 659.301 507.708 658.75 508.294C658.199 508.874 657.924 509.636 657.924 510.579C657.924 511.511 658.182 512.246 658.697 512.785C659.219 513.324 659.916 513.594 660.789 513.594C661.521 513.594 662.213 513.333 662.863 512.812V514.587ZM675.854 515H673.814V506H675.854V515ZM664.894 515V506H666.933V509.322H669.394C670.325 509.322 671.066 509.568 671.617 510.061C672.168 510.547 672.443 511.227 672.443 512.1C672.443 512.996 672.156 513.705 671.582 514.227C671.014 514.742 670.296 515 669.429 515H664.894ZM666.933 510.79V513.532H668.796C669.827 513.532 670.343 513.061 670.343 512.117C670.343 511.232 669.821 510.79 668.778 510.79H666.933ZM685.961 515H683.913V507.556H682.076C681.818 510.339 681.376 512.296 680.749 513.427C680.128 514.552 679.29 515.114 678.235 515.114C677.884 515.114 677.582 515.064 677.33 514.965V513.444C677.535 513.544 677.755 513.594 677.989 513.594C679.249 513.594 680.058 511.062 680.415 506H685.961V515ZM696.798 515H694.205L690.707 510.614H690.672V515H688.624V506H690.672V510.14H690.707L694.012 506H696.508L692.764 510.289L696.798 515ZM704.989 515H703.012V513.594H702.977C702.355 514.672 701.444 515.211 700.243 515.211C699.358 515.211 698.664 514.971 698.16 514.49C697.662 514.01 697.413 513.374 697.413 512.583C697.413 510.884 698.392 509.894 700.349 509.612L703.021 509.234C703.021 507.951 702.411 507.31 701.192 507.31C700.12 507.31 699.153 507.679 698.292 508.417V506.633C699.241 506.07 700.337 505.789 701.579 505.789C703.853 505.789 704.989 506.908 704.989 509.146V515ZM703.021 510.579L701.131 510.843C700.545 510.919 700.103 511.062 699.804 511.273C699.511 511.479 699.364 511.842 699.364 512.363C699.364 512.744 699.499 513.058 699.769 513.304C700.044 513.544 700.41 513.664 700.867 513.664C701.488 513.664 702.001 513.447 702.405 513.014C702.815 512.574 703.021 512.023 703.021 511.361V510.579ZM556.894 542.278H555.197V539H548.79V542.278H547.111V537.444H547.911C549.347 535.323 550.076 532.842 550.1 530H555.514V537.444H556.894V542.278ZM553.475 537.444V531.547H551.761C551.62 533.727 551.022 535.692 549.968 537.444H553.475ZM566.324 539H564.276V531.556H562.439C562.182 534.339 561.739 536.296 561.112 537.427C560.491 538.552 559.653 539.114 558.599 539.114C558.247 539.114 557.945 539.064 557.693 538.965V537.444C557.898 537.544 558.118 537.594 558.353 537.594C559.612 537.594 560.421 535.062 560.778 530H566.324V539ZM575.922 539H573.892V535.44H572.846C572.342 535.44 571.885 535.892 571.475 536.794L570.402 539H568.091L569.515 536.328C569.919 535.637 570.405 535.18 570.974 534.957C570.259 534.863 569.711 534.608 569.33 534.192C568.955 533.771 568.768 533.243 568.768 532.61C568.768 531.808 569.087 531.172 569.726 530.703C570.37 530.234 571.234 530 572.318 530H575.922V539ZM573.892 534.034V531.477H572.485C571.384 531.477 570.833 531.896 570.833 532.733C570.833 533.601 571.375 534.034 572.459 534.034H573.892ZM591.698 539H589.105L585.607 534.614H585.572V539H583.524V530H585.572V534.14H585.607L588.912 530H591.408L587.664 534.289L591.698 539ZM600.777 530L596.717 540.441C595.873 542.305 594.689 543.236 593.166 543.236C592.738 543.236 592.381 543.198 592.094 543.122V541.426C592.416 541.531 592.709 541.584 592.973 541.584C593.734 541.584 594.303 541.209 594.678 540.459L595.284 538.982L591.707 530H593.966L596.11 536.539C596.134 536.621 596.187 536.838 596.269 537.189H596.312C596.342 537.055 596.395 536.844 596.471 536.557L598.721 530H600.777ZM610.155 539H608.107V531.556H604.188V539H602.14V530H610.155V539ZM620.983 539H619.138V532.399C619.021 532.634 618.842 532.959 618.602 533.375L614.813 539H612.81V530H614.682V536.469C614.746 536.316 614.884 536.053 615.095 535.678L618.936 530H620.983V539ZM623.655 539V530H627.953C628.92 530 629.685 530.196 630.247 530.589C630.81 530.981 631.091 531.518 631.091 532.197C631.091 533.346 630.502 534.043 629.324 534.289C630.725 534.465 631.425 535.156 631.425 536.363C631.425 537.107 631.129 537.734 630.537 538.244C629.945 538.748 629.21 539 628.331 539H623.655ZM625.694 531.441V533.683H627.496C628.516 533.683 629.025 533.287 629.025 532.496C629.025 531.793 628.58 531.441 627.689 531.441H625.694ZM625.694 535.098V537.55H627.786C628.829 537.55 629.351 537.128 629.351 536.284C629.351 535.493 628.785 535.098 627.654 535.098H625.694ZM645.848 539H633.604V530H635.652V537.444H638.702V530H640.75V537.444H643.8V530H645.848V539ZM656.685 539H654.839V532.399C654.722 532.634 654.543 532.959 654.303 533.375L650.515 539H648.511V530H650.383V536.469C650.447 536.316 650.585 536.053 650.796 535.678L654.637 530H656.685V539ZM666.88 530L663.883 534.553L666.845 539H664.48L662.898 536.214C662.799 536.044 662.682 535.827 662.547 535.563H662.512C662.488 535.616 662.365 535.833 662.143 536.214L660.534 539H658.179L661.237 534.588L658.337 530H660.71L662.266 532.927C662.383 533.144 662.497 533.366 662.608 533.595H662.635L664.647 530H666.88Z" fill="black"/>
<rect x="812.75" y="541.75" width="175.5" height="78.5" fill="white" stroke="#A84F46" stroke-width="1.5"/>
<path d="M851.234 564H844.555V551.396H850.953V552.732H846.031V556.925H850.584V558.252H846.031V562.664H851.234V564ZM865.42 564H863.469L859.443 559.553H859.408V564H858.037V559.553H858.002L853.968 564H852.043L856.508 559.359L852.315 555H854.152L858.002 559.21H858.037V555H859.408V559.21H859.443L863.293 555H865.147L860.938 559.359L865.42 564ZM874.13 559.86H867.775C867.799 560.862 868.068 561.636 868.584 562.181C869.1 562.726 869.809 562.998 870.711 562.998C871.725 562.998 872.656 562.664 873.506 561.996V563.35C872.715 563.924 871.669 564.211 870.368 564.211C869.097 564.211 868.098 563.804 867.371 562.989C866.645 562.169 866.281 561.018 866.281 559.535C866.281 558.135 866.677 556.995 867.468 556.116C868.265 555.231 869.252 554.789 870.43 554.789C871.607 554.789 872.519 555.17 873.163 555.932C873.808 556.693 874.13 557.751 874.13 559.104V559.86ZM872.653 558.639C872.647 557.807 872.445 557.159 872.047 556.696C871.654 556.233 871.106 556.002 870.403 556.002C869.724 556.002 869.146 556.245 868.672 556.731C868.197 557.218 867.904 557.854 867.793 558.639H872.653ZM883.789 564H882.348V559.913H877.76V564H876.318V555H877.76V558.691H882.348V555H883.789V564ZM893.94 559.86H887.586C887.609 560.862 887.879 561.636 888.395 562.181C888.91 562.726 889.619 562.998 890.521 562.998C891.535 562.998 892.467 562.664 893.316 561.996V563.35C892.525 563.924 891.479 564.211 890.179 564.211C888.907 564.211 887.908 563.804 887.182 562.989C886.455 562.169 886.092 561.018 886.092 559.535C886.092 558.135 886.487 556.995 887.278 556.116C888.075 555.231 889.062 554.789 890.24 554.789C891.418 554.789 892.329 555.17 892.974 555.932C893.618 556.693 893.94 557.751 893.94 559.104V559.86ZM892.464 558.639C892.458 557.807 892.256 557.159 891.857 556.696C891.465 556.233 890.917 556.002 890.214 556.002C889.534 556.002 888.957 556.245 888.482 556.731C888.008 557.218 887.715 557.854 887.604 558.639H892.464ZM903.978 567.278H902.756V564H896.059V567.278H894.828V562.778H895.628C897.163 560.563 897.942 557.971 897.966 555H902.642V562.778H903.978V567.278ZM901.2 562.778V556.222H899.205C899.047 558.647 898.364 560.833 897.157 562.778H901.2ZM913.206 559.86H906.852C906.875 560.862 907.145 561.636 907.66 562.181C908.176 562.726 908.885 562.998 909.787 562.998C910.801 562.998 911.732 562.664 912.582 561.996V563.35C911.791 563.924 910.745 564.211 909.444 564.211C908.173 564.211 907.174 563.804 906.447 562.989C905.721 562.169 905.357 561.018 905.357 559.535C905.357 558.135 905.753 556.995 906.544 556.116C907.341 555.231 908.328 554.789 909.506 554.789C910.684 554.789 911.595 555.17 912.239 555.932C912.884 556.693 913.206 557.751 913.206 559.104V559.86ZM911.729 558.639C911.724 557.807 911.521 557.159 911.123 556.696C910.73 556.233 910.183 556.002 909.479 556.002C908.8 556.002 908.223 556.245 907.748 556.731C907.273 557.218 906.98 557.854 906.869 558.639H911.729ZM921.96 564H920.527V556.222H918.436C918.195 559.134 917.782 561.179 917.196 562.356C916.616 563.534 915.834 564.123 914.85 564.123C914.551 564.123 914.293 564.082 914.076 564V562.761C914.281 562.866 914.504 562.919 914.744 562.919C916.033 562.919 916.862 560.279 917.231 555H921.96V564ZM924.887 564V555H926.328V558.454H928.754C929.674 558.454 930.403 558.694 930.942 559.175C931.487 559.655 931.76 560.326 931.76 561.188C931.76 562.055 931.487 562.74 930.942 563.244C930.397 563.748 929.709 564 928.877 564H924.887ZM926.328 559.693V562.77H928.49C929.686 562.77 930.283 562.242 930.283 561.188C930.283 560.191 929.68 559.693 928.473 559.693H926.328ZM941.428 564H939.986V559.913H935.398V564H933.957V555H935.398V558.691H939.986V555H941.428V564ZM950.788 564H949.347V562.594H949.312C948.685 563.672 947.762 564.211 946.543 564.211C945.646 564.211 944.943 563.974 944.434 563.499C943.93 563.024 943.678 562.395 943.678 561.609C943.678 559.928 944.668 558.949 946.648 558.674L949.347 558.296C949.347 556.767 948.729 556.002 947.492 556.002C946.408 556.002 945.43 556.371 944.557 557.109V555.633C945.441 555.07 946.461 554.789 947.615 554.789C949.73 554.789 950.788 555.908 950.788 558.146V564ZM949.347 559.447L947.176 559.746C946.508 559.84 946.004 560.007 945.664 560.247C945.324 560.481 945.154 560.9 945.154 561.504C945.154 561.943 945.31 562.304 945.62 562.585C945.937 562.86 946.355 562.998 946.877 562.998C947.592 562.998 948.181 562.749 948.644 562.251C949.112 561.747 949.347 561.111 949.347 560.344V559.447ZM959.656 564H958.215V560.273H957.011C956.431 560.273 955.903 560.742 955.429 561.68L954.26 564H952.59L954.102 561.223C954.453 560.578 954.878 560.153 955.376 559.948C954.673 559.854 954.137 559.597 953.768 559.175C953.398 558.753 953.214 558.226 953.214 557.593C953.214 556.796 953.501 556.166 954.075 555.703C954.655 555.234 955.467 555 956.51 555H959.656V564ZM958.215 559.069V556.23H956.51C955.297 556.23 954.69 556.69 954.69 557.61C954.69 558.583 955.279 559.069 956.457 559.069H958.215ZM837.523 586.699H837.488V592.14H836.047V579H837.488V580.582H837.523C838.232 579.387 839.27 578.789 840.635 578.789C841.795 578.789 842.7 579.193 843.351 580.002C844.001 580.805 844.326 581.883 844.326 583.236C844.326 584.742 843.96 585.949 843.228 586.857C842.495 587.76 841.493 588.211 840.222 588.211C839.056 588.211 838.156 587.707 837.523 586.699ZM837.488 583.069V584.326C837.488 585.07 837.729 585.703 838.209 586.225C838.695 586.74 839.311 586.998 840.055 586.998C840.928 586.998 841.61 586.664 842.103 585.996C842.601 585.328 842.85 584.399 842.85 583.21C842.85 582.208 842.618 581.423 842.155 580.854C841.692 580.286 841.065 580.002 840.274 580.002C839.437 580.002 838.763 580.295 838.253 580.881C837.743 581.461 837.488 582.19 837.488 583.069ZM853.071 588H851.63V586.594H851.595C850.968 587.672 850.045 588.211 848.826 588.211C847.93 588.211 847.227 587.974 846.717 587.499C846.213 587.024 845.961 586.395 845.961 585.609C845.961 583.928 846.951 582.949 848.932 582.674L851.63 582.296C851.63 580.767 851.012 580.002 849.775 580.002C848.691 580.002 847.713 580.371 846.84 581.109V579.633C847.725 579.07 848.744 578.789 849.898 578.789C852.014 578.789 853.071 579.908 853.071 582.146V588ZM851.63 583.447L849.459 583.746C848.791 583.84 848.287 584.007 847.947 584.247C847.607 584.481 847.438 584.9 847.438 585.504C847.438 585.943 847.593 586.304 847.903 586.585C848.22 586.86 848.639 586.998 849.16 586.998C849.875 586.998 850.464 586.749 850.927 586.251C851.396 585.747 851.63 585.111 851.63 584.344V583.447ZM861.922 587.587C861.23 588.003 860.41 588.211 859.461 588.211C858.178 588.211 857.141 587.795 856.35 586.963C855.564 586.125 855.172 585.041 855.172 583.711C855.172 582.229 855.597 581.039 856.446 580.143C857.296 579.24 858.43 578.789 859.848 578.789C860.639 578.789 861.336 578.936 861.939 579.229V580.705C861.271 580.236 860.557 580.002 859.795 580.002C858.875 580.002 858.119 580.333 857.527 580.995C856.941 581.651 856.648 582.516 856.648 583.588C856.648 584.643 856.924 585.475 857.475 586.084C858.031 586.693 858.775 586.998 859.707 586.998C860.492 586.998 861.23 586.737 861.922 586.216V587.587ZM870.236 587.587C869.545 588.003 868.725 588.211 867.775 588.211C866.492 588.211 865.455 587.795 864.664 586.963C863.879 586.125 863.486 585.041 863.486 583.711C863.486 582.229 863.911 581.039 864.761 580.143C865.61 579.24 866.744 578.789 868.162 578.789C868.953 578.789 869.65 578.936 870.254 579.229V580.705C869.586 580.236 868.871 580.002 868.109 580.002C867.189 580.002 866.434 580.333 865.842 580.995C865.256 581.651 864.963 582.516 864.963 583.588C864.963 584.643 865.238 585.475 865.789 586.084C866.346 586.693 867.09 586.998 868.021 586.998C868.807 586.998 869.545 586.737 870.236 586.216V587.587ZM882.26 588H880.836V579H882.26V588ZM872.416 588V579H873.857V582.454H876.283C877.203 582.454 877.933 582.694 878.472 583.175C879.017 583.655 879.289 584.326 879.289 585.188C879.289 586.055 879.017 586.74 878.472 587.244C877.927 587.748 877.238 588 876.406 588H872.416ZM873.857 583.693V586.77H876.02C877.215 586.77 877.812 586.242 877.812 585.188C877.812 584.191 877.209 583.693 876.002 583.693H873.857ZM891.761 588H890.328V580.222H888.236C887.996 583.134 887.583 585.179 886.997 586.356C886.417 587.534 885.635 588.123 884.65 588.123C884.352 588.123 884.094 588.082 883.877 588V586.761C884.082 586.866 884.305 586.919 884.545 586.919C885.834 586.919 886.663 584.279 887.032 579H891.761V588ZM902.158 588H900.137L896.164 583.676H896.129V588H894.688V579H896.129V583.122H896.164L899.943 579H901.833L897.658 583.342L902.158 588ZM910.077 588H908.636V586.594H908.601C907.974 587.672 907.051 588.211 905.832 588.211C904.936 588.211 904.232 587.974 903.723 587.499C903.219 587.024 902.967 586.395 902.967 585.609C902.967 583.928 903.957 582.949 905.938 582.674L908.636 582.296C908.636 580.767 908.018 580.002 906.781 580.002C905.697 580.002 904.719 580.371 903.846 581.109V579.633C904.73 579.07 905.75 578.789 906.904 578.789C909.02 578.789 910.077 579.908 910.077 582.146V588ZM908.636 583.447L906.465 583.746C905.797 583.84 905.293 584.007 904.953 584.247C904.613 584.481 904.443 584.9 904.443 585.504C904.443 585.943 904.599 586.304 904.909 586.585C905.226 586.86 905.645 586.998 906.166 586.998C906.881 586.998 907.47 586.749 907.933 586.251C908.401 585.747 908.636 585.111 908.636 584.344V583.447ZM925.581 591.278H924.359V588H917.662V591.278H916.432V586.778H917.231C918.767 584.563 919.546 581.971 919.569 579H924.245V586.778H925.581V591.278ZM922.804 586.778V580.222H920.809C920.65 582.647 919.968 584.833 918.761 586.778H922.804ZM934.142 588H932.709V580.222H930.617C930.377 583.134 929.964 585.179 929.378 586.356C928.798 587.534 928.016 588.123 927.031 588.123C926.732 588.123 926.475 588.082 926.258 588V586.761C926.463 586.866 926.686 586.919 926.926 586.919C928.215 586.919 929.044 584.279 929.413 579H934.142V588ZM943.221 588H941.779V584.273H940.575C939.995 584.273 939.468 584.742 938.993 585.68L937.824 588H936.154L937.666 585.223C938.018 584.578 938.442 584.153 938.94 583.948C938.237 583.854 937.701 583.597 937.332 583.175C936.963 582.753 936.778 582.226 936.778 581.593C936.778 580.796 937.065 580.166 937.64 579.703C938.22 579.234 939.031 579 940.074 579H943.221V588ZM941.779 583.069V580.23H940.074C938.861 580.23 938.255 580.69 938.255 581.61C938.255 582.583 938.844 583.069 940.021 583.069H941.779ZM958.531 588H957.09V583.913H952.502V588H951.061V579H952.502V582.691H957.09V579H958.531V588ZM968.683 583.86H962.328C962.352 584.862 962.621 585.636 963.137 586.181C963.652 586.726 964.361 586.998 965.264 586.998C966.277 586.998 967.209 586.664 968.059 585.996V587.35C967.268 587.924 966.222 588.211 964.921 588.211C963.649 588.211 962.65 587.804 961.924 586.989C961.197 586.169 960.834 585.018 960.834 583.535C960.834 582.135 961.229 580.995 962.021 580.116C962.817 579.231 963.805 578.789 964.982 578.789C966.16 578.789 967.071 579.17 967.716 579.932C968.36 580.693 968.683 581.751 968.683 583.104V583.86ZM967.206 582.639C967.2 581.807 966.998 581.159 966.6 580.696C966.207 580.233 965.659 580.002 964.956 580.002C964.276 580.002 963.699 580.245 963.225 580.731C962.75 581.218 962.457 581.854 962.346 582.639H967.206ZM870.342 612H868.32L864.348 607.676H864.312V612H862.871V603H864.312V607.122H864.348L868.127 603H870.017L865.842 607.342L870.342 612ZM878.981 603L874.842 613.441C874.104 615.305 873.066 616.236 871.73 616.236C871.355 616.236 871.042 616.198 870.79 616.122V614.83C871.101 614.936 871.385 614.988 871.643 614.988C872.369 614.988 872.914 614.555 873.277 613.688L873.998 611.982L870.482 603H872.082L874.517 609.926C874.546 610.014 874.607 610.242 874.701 610.611H874.754C874.783 610.471 874.842 610.248 874.93 609.943L877.487 603H878.981ZM888.008 612H886.566V604.23H881.979V612H880.537V603H888.008V612ZM898.467 612H897.166V604.819C897.037 605.071 896.841 605.426 896.577 605.883L892.42 612H890.926V603H892.244V610.093C892.314 609.923 892.467 609.633 892.701 609.223L896.973 603H898.467V612ZM901.385 612V603H905.305C906.189 603 906.887 603.196 907.396 603.589C907.912 603.981 908.17 604.518 908.17 605.197C908.17 606.363 907.596 607.072 906.447 607.324C907.824 607.5 908.513 608.194 908.513 609.407C908.513 610.14 908.229 610.755 907.66 611.253C907.098 611.751 906.397 612 905.56 612H901.385ZM902.826 604.23V606.762H904.988C906.148 606.762 906.729 606.311 906.729 605.408C906.729 604.623 906.207 604.23 905.164 604.23H902.826ZM902.826 607.992V610.77H905.322C906.488 610.77 907.071 610.298 907.071 609.354C907.071 608.446 906.418 607.992 905.111 607.992H902.826ZM922.408 612H910.93V603H912.371V610.77H915.957V603H917.39V610.77H920.967V603H922.408V612ZM932.867 612H931.566V604.819C931.438 605.071 931.241 605.426 930.978 605.883L926.82 612H925.326V603H926.645V610.093C926.715 609.923 926.867 609.633 927.102 609.223L931.373 603H932.867V612ZM942.359 603L939.336 607.553L942.307 612H940.628L938.861 609.082C938.75 608.9 938.618 608.672 938.466 608.396H938.431C938.401 608.449 938.264 608.678 938.018 609.082L936.216 612H934.555L937.622 607.588L934.687 603H936.365L938.105 606.076C938.234 606.305 938.36 606.539 938.483 606.779H938.519L940.769 603H942.359Z" fill="#A84F46"/>
<rect x="751.75" y="92.75" width="128.5" height="26.5" stroke="#CFC9C9" stroke-width="1.5"/>
<path d="M766.438 106.236V111H764.962V98.3965H768.425C769.772 98.3965 770.815 98.7246 771.554 99.3809C772.298 100.037 772.67 100.963 772.67 102.158C772.67 103.354 772.257 104.332 771.431 105.094C770.61 105.855 769.5 106.236 768.1 106.236H766.438ZM766.438 99.7324V104.9H767.985C769.005 104.9 769.781 104.669 770.314 104.206C770.854 103.737 771.123 103.078 771.123 102.229C771.123 100.564 770.139 99.7324 768.17 99.7324H766.438ZM782.092 106.86H775.737C775.761 107.862 776.03 108.636 776.546 109.181C777.062 109.726 777.771 109.998 778.673 109.998C779.687 109.998 780.618 109.664 781.468 108.996V110.35C780.677 110.924 779.631 111.211 778.33 111.211C777.059 111.211 776.06 110.804 775.333 109.989C774.606 109.169 774.243 108.018 774.243 106.535C774.243 105.135 774.639 103.995 775.43 103.116C776.227 102.231 777.214 101.789 778.392 101.789C779.569 101.789 780.48 102.17 781.125 102.932C781.77 103.693 782.092 104.751 782.092 106.104V106.86ZM780.615 105.639C780.609 104.807 780.407 104.159 780.009 103.696C779.616 103.233 779.068 103.002 778.365 103.002C777.686 103.002 777.108 103.245 776.634 103.731C776.159 104.218 775.866 104.854 775.755 105.639H780.615ZM794.001 111H792.577V103.582C792.448 103.957 792.249 104.508 791.979 105.234L789.729 111H788.438L786.117 105.234C785.994 104.924 785.795 104.373 785.52 103.582V111H784.28V102H786.117L788.49 107.871C788.66 108.299 788.877 108.891 789.141 109.646L789.782 107.906L792.085 102H794.001V111ZM803.361 111H801.92V109.594H801.885C801.258 110.672 800.335 111.211 799.116 111.211C798.22 111.211 797.517 110.974 797.007 110.499C796.503 110.024 796.251 109.395 796.251 108.609C796.251 106.928 797.241 105.949 799.222 105.674L801.92 105.296C801.92 103.767 801.302 103.002 800.065 103.002C798.981 103.002 798.003 103.371 797.13 104.109V102.633C798.015 102.07 799.034 101.789 800.188 101.789C802.304 101.789 803.361 102.908 803.361 105.146V111ZM801.92 106.447L799.749 106.746C799.081 106.84 798.577 107.007 798.237 107.247C797.897 107.481 797.728 107.9 797.728 108.504C797.728 108.943 797.883 109.304 798.193 109.585C798.51 109.86 798.929 109.998 799.45 109.998C800.165 109.998 800.754 109.749 801.217 109.251C801.686 108.747 801.92 108.111 801.92 107.344V106.447ZM807.554 109.699H807.519V115.14H806.077V102H807.519V103.582H807.554C808.263 102.387 809.3 101.789 810.665 101.789C811.825 101.789 812.73 102.193 813.381 103.002C814.031 103.805 814.356 104.883 814.356 106.236C814.356 107.742 813.99 108.949 813.258 109.857C812.525 110.76 811.523 111.211 810.252 111.211C809.086 111.211 808.187 110.707 807.554 109.699ZM807.519 106.069V107.326C807.519 108.07 807.759 108.703 808.239 109.225C808.726 109.74 809.341 109.998 810.085 109.998C810.958 109.998 811.641 109.664 812.133 108.996C812.631 108.328 812.88 107.399 812.88 106.21C812.88 105.208 812.648 104.423 812.186 103.854C811.723 103.286 811.096 103.002 810.305 103.002C809.467 103.002 808.793 103.295 808.283 103.881C807.773 104.461 807.519 105.19 807.519 106.069ZM824.13 111H822.108L818.136 106.676H818.101V111H816.659V102H818.101V106.122H818.136L821.915 102H823.805L819.63 106.342L824.13 111ZM832.84 106.86H826.485C826.509 107.862 826.778 108.636 827.294 109.181C827.81 109.726 828.519 109.998 829.421 109.998C830.435 109.998 831.366 109.664 832.216 108.996V110.35C831.425 110.924 830.379 111.211 829.078 111.211C827.807 111.211 826.808 110.804 826.081 109.989C825.354 109.169 824.991 108.018 824.991 106.535C824.991 105.135 825.387 103.995 826.178 103.116C826.975 102.231 827.962 101.789 829.14 101.789C830.317 101.789 831.229 102.17 831.873 102.932C832.518 103.693 832.84 104.751 832.84 106.104V106.86ZM831.363 105.639C831.357 104.807 831.155 104.159 830.757 103.696C830.364 103.233 829.816 103.002 829.113 103.002C828.434 103.002 827.856 103.245 827.382 103.731C826.907 104.218 826.614 104.854 826.503 105.639H831.363ZM840.68 103.23H837.981V111H836.54V103.23H833.833V102H840.68V103.23ZM849.952 111H848.651V103.819C848.522 104.071 848.326 104.426 848.062 104.883L843.905 111H842.411V102H843.729V109.093C843.8 108.923 843.952 108.633 844.187 108.223L848.458 102H849.952V111ZM860.341 111H858.899V106.913H854.312V111H852.87V102H854.312V105.691H858.899V102H860.341V111ZM868.26 103.23H864.7V111H863.259V102H868.26V103.23Z" fill="#CFC9C9"/>
<path d="M816.25 127.5L819.83 120H811.17L814.75 127.5H816.25ZM815.5 155V155.75H816.25V155H815.5ZM783 155V154.25H782.25V155H783ZM783 207L787.33 199.5H778.67L783 207ZM814.75 126.75V155H816.25V126.75H814.75ZM815.5 154.25H783V155.75H815.5V154.25ZM782.25 155V200.25H783.75V155H782.25Z" fill="#CFC9C9"/>
<rect x="492.75" y="31.75" width="150.5" height="37.5" fill="white" stroke="#CFC9C9" stroke-width="1.5"/>
<path d="M506.987 46.7324H503.349V58H501.872V46.7324H498.242V45.3965H506.987V46.7324ZM510.257 56.6992H510.222V62.1396H508.78V49H510.222V50.582H510.257C510.966 49.3867 512.003 48.7891 513.368 48.7891C514.528 48.7891 515.434 49.1934 516.084 50.002C516.734 50.8047 517.06 51.8828 517.06 53.2363C517.06 54.7422 516.693 55.9492 515.961 56.8574C515.229 57.7598 514.227 58.2109 512.955 58.2109C511.789 58.2109 510.89 57.707 510.257 56.6992ZM510.222 53.0693V54.3262C510.222 55.0703 510.462 55.7031 510.942 56.2246C511.429 56.7402 512.044 56.998 512.788 56.998C513.661 56.998 514.344 56.6641 514.836 55.9961C515.334 55.3281 515.583 54.3994 515.583 53.21C515.583 52.208 515.352 51.4229 514.889 50.8545C514.426 50.2861 513.799 50.002 513.008 50.002C512.17 50.002 511.496 50.2949 510.986 50.8809C510.477 51.4609 510.222 52.1904 510.222 53.0693ZM525.805 58H524.363V56.5938H524.328C523.701 57.6719 522.778 58.2109 521.56 58.2109C520.663 58.2109 519.96 57.9736 519.45 57.499C518.946 57.0244 518.694 56.3945 518.694 55.6094C518.694 53.9277 519.685 52.9492 521.665 52.6738L524.363 52.2959C524.363 50.7666 523.745 50.002 522.509 50.002C521.425 50.002 520.446 50.3711 519.573 51.1094V49.6328C520.458 49.0703 521.478 48.7891 522.632 48.7891C524.747 48.7891 525.805 49.9082 525.805 52.1465V58ZM524.363 53.4473L522.192 53.7461C521.524 53.8398 521.021 54.0068 520.681 54.2471C520.341 54.4814 520.171 54.9004 520.171 55.5039C520.171 55.9434 520.326 56.3037 520.637 56.585C520.953 56.8604 521.372 56.998 521.894 56.998C522.608 56.998 523.197 56.749 523.66 56.251C524.129 55.7471 524.363 55.1113 524.363 54.3438V53.4473ZM533.882 58.2109V62.2363H532.581V58.2109H532.3C530.987 58.2109 529.927 57.7861 529.118 56.9365C528.31 56.0869 527.905 54.9766 527.905 53.6055C527.905 52.1465 528.312 50.9805 529.127 50.1074C529.947 49.2285 531.028 48.7891 532.37 48.7891H532.581V45.1855H533.882V48.7891H534.075C535.429 48.7891 536.513 49.2256 537.327 50.0986C538.147 50.9658 538.558 52.1348 538.558 53.6055C538.558 54.9766 538.156 56.0869 537.354 56.9365C536.551 57.7861 535.496 58.2109 534.189 58.2109H533.882ZM533.882 50.002V56.998H534.075C534.989 56.998 535.719 56.6904 536.264 56.0752C536.809 55.4541 537.081 54.6133 537.081 53.5527C537.081 52.4395 536.812 51.5693 536.272 50.9424C535.739 50.3154 535.021 50.002 534.119 50.002H533.882ZM532.581 56.998V50.002H532.37C531.468 50.002 530.744 50.3184 530.199 50.9512C529.654 51.5781 529.382 52.4453 529.382 53.5527C529.382 54.6016 529.654 55.4395 530.199 56.0664C530.75 56.6875 531.485 56.998 532.405 56.998H532.581ZM548.419 58H547.118V50.8193C546.989 51.0713 546.793 51.4258 546.529 51.8828L542.372 58H540.878V49H542.196V56.0928C542.267 55.9229 542.419 55.6328 542.653 55.2227L546.925 49H548.419V58ZM558.808 58H556.786L552.813 53.6758H552.778V58H551.337V49H552.778V53.1221H552.813L556.593 49H558.482L554.308 53.3418L558.808 58ZM572.765 58H571.464V50.8193C571.335 51.0713 571.139 51.4258 570.875 51.8828L566.718 58H565.224V49H566.542V56.0928C566.612 55.9229 566.765 55.6328 566.999 55.2227L571.271 49H572.765V58ZM574.927 57.7451V56.3301C575.712 56.7695 576.629 56.9893 577.678 56.9893C579.266 56.9893 580.06 56.4854 580.06 55.4775C580.06 54.4814 579.189 53.9834 577.449 53.9834H576.562V52.7617H577.405C578.935 52.7617 579.699 52.2871 579.699 51.3379C579.699 50.9336 579.523 50.6113 579.172 50.3711C578.82 50.1309 578.34 50.0107 577.73 50.0107C576.857 50.0107 575.981 50.2305 575.103 50.6699V49.3252C576.099 48.9619 577.013 48.7803 577.845 48.7803C580.036 48.7803 581.132 49.5859 581.132 51.1973C581.132 51.7188 580.968 52.1699 580.64 52.5508C580.317 52.9258 579.863 53.1748 579.277 53.2979V53.3418C579.945 53.3945 580.481 53.6201 580.886 54.0186C581.29 54.417 581.492 54.9209 581.492 55.5303C581.492 56.3506 581.161 57.0039 580.499 57.4902C579.837 57.9766 578.926 58.2197 577.766 58.2197C576.529 58.2197 575.583 58.0615 574.927 57.7451ZM596.302 46.7324H592.663V58H591.187V46.7324H587.557V45.3965H596.302V46.7324ZM598.833 46.7148C598.575 46.7148 598.355 46.627 598.174 46.4512C597.992 46.2754 597.901 46.0527 597.901 45.7832C597.901 45.5137 597.992 45.291 598.174 45.1152C598.355 44.9336 598.575 44.8428 598.833 44.8428C599.097 44.8428 599.319 44.9336 599.501 45.1152C599.688 45.291 599.782 45.5137 599.782 45.7832C599.782 46.041 599.688 46.2607 599.501 46.4424C599.319 46.624 599.097 46.7148 598.833 46.7148ZM599.536 58H598.095V49H599.536V58ZM609.925 58H607.903L603.931 53.6758H603.896V58H602.454V44.6758H603.896V53.1221H603.931L607.71 49H609.6L605.425 53.3418L609.925 58ZM619.048 46.7324H615.409V58H613.933V46.7324H610.303V45.3965H619.048V46.7324ZM622.845 58.2109C621.515 58.2109 620.451 57.792 619.654 56.9541C618.863 56.1104 618.468 54.9941 618.468 53.6055C618.468 52.0938 618.881 50.9131 619.707 50.0635C620.533 49.2139 621.649 48.7891 623.056 48.7891C624.397 48.7891 625.443 49.2021 626.193 50.0283C626.949 50.8545 627.327 52 627.327 53.4648C627.327 54.9004 626.92 56.0518 626.105 56.9189C625.297 57.7803 624.21 58.2109 622.845 58.2109ZM622.95 50.002C622.024 50.002 621.292 50.3184 620.753 50.9512C620.214 51.5781 619.944 52.4453 619.944 53.5527C619.944 54.6191 620.217 55.46 620.762 56.0752C621.307 56.6904 622.036 56.998 622.95 56.998C623.882 56.998 624.597 56.6963 625.095 56.0928C625.599 55.4893 625.851 54.6309 625.851 53.5176C625.851 52.3926 625.599 51.5254 625.095 50.916C624.597 50.3066 623.882 50.002 622.95 50.002ZM637.101 58H635.079L631.106 53.6758H631.071V58H629.63V44.6758H631.071V53.1221H631.106L634.886 49H636.775L632.601 53.3418L637.101 58Z" fill="#CFC9C9"/>
<rect x="243.75" y="315.75" width="82.5" height="28.5" stroke="#6B6565" stroke-width="1.5"/>
<path d="M266.556 336V323.396H273.912V325.181H268.647V328.626H271.056C272.345 328.626 273.347 328.931 274.062 329.54C274.782 330.149 275.143 331.014 275.143 332.133C275.143 333.328 274.759 334.271 273.991 334.963C273.229 335.654 272.189 336 270.871 336H266.556ZM268.647 330.287V334.33H270.537C271.305 334.33 271.896 334.148 272.312 333.785C272.729 333.422 272.937 332.915 272.937 332.265C272.937 330.946 272.148 330.287 270.572 330.287H268.647ZM284.635 336H282.587V328.556H280.75C280.492 331.339 280.05 333.296 279.423 334.427C278.802 335.552 277.964 336.114 276.909 336.114C276.558 336.114 276.256 336.064 276.004 335.965V334.444C276.209 334.544 276.429 334.594 276.663 334.594C277.923 334.594 278.731 332.062 279.089 327H284.635V336ZM291.288 336.211C289.899 336.211 288.789 335.792 287.957 334.954C287.131 334.11 286.718 332.994 286.718 331.605C286.718 330.094 287.148 328.913 288.01 328.063C288.877 327.214 290.043 326.789 291.508 326.789C292.914 326.789 294.01 327.202 294.795 328.028C295.58 328.854 295.973 330 295.973 331.465C295.973 332.9 295.548 334.052 294.698 334.919C293.854 335.78 292.718 336.211 291.288 336.211ZM291.385 328.415C290.588 328.415 289.958 328.693 289.495 329.25C289.032 329.807 288.801 330.574 288.801 331.553C288.801 332.496 289.035 333.24 289.504 333.785C289.973 334.324 290.6 334.594 291.385 334.594C292.188 334.594 292.803 334.327 293.23 333.794C293.664 333.261 293.881 332.502 293.881 331.518C293.881 330.527 293.664 329.763 293.23 329.224C292.803 328.685 292.188 328.415 291.385 328.415ZM303.452 328.626H300.104V336H298.056V327H303.452V328.626Z" fill="#6B6565"/>
<rect x="140.75" y="385.75" width="127.5" height="61.5" stroke="black" stroke-width="1.5"/>
<path d="M162.559 410H160.458V399.269H154.481V410H152.39V397.396H162.559V410ZM169.405 410.211C168.017 410.211 166.906 409.792 166.074 408.954C165.248 408.11 164.835 406.994 164.835 405.605C164.835 404.094 165.266 402.913 166.127 402.063C166.994 401.214 168.16 400.789 169.625 400.789C171.031 400.789 172.127 401.202 172.912 402.028C173.697 402.854 174.09 404 174.09 405.465C174.09 406.9 173.665 408.052 172.815 408.919C171.972 409.78 170.835 410.211 169.405 410.211ZM169.502 402.415C168.705 402.415 168.075 402.693 167.612 403.25C167.149 403.807 166.918 404.574 166.918 405.553C166.918 406.496 167.152 407.24 167.621 407.785C168.09 408.324 168.717 408.594 169.502 408.594C170.305 408.594 170.92 408.327 171.348 407.794C171.781 407.261 171.998 406.502 171.998 405.518C171.998 404.527 171.781 403.763 171.348 403.224C170.92 402.685 170.305 402.415 169.502 402.415ZM184.188 410H182.141V402.556H178.221V410H176.173V401H184.188V410ZM194.639 401L190.578 411.441C189.734 413.305 188.551 414.236 187.027 414.236C186.6 414.236 186.242 414.198 185.955 414.122V412.426C186.277 412.531 186.57 412.584 186.834 412.584C187.596 412.584 188.164 412.209 188.539 411.459L189.146 409.982L185.568 401H187.827L189.972 407.539C189.995 407.621 190.048 407.838 190.13 408.189H190.174C190.203 408.055 190.256 407.844 190.332 407.557L192.582 401H194.639ZM202.549 410H200.501V402.556H198.664C198.406 405.339 197.964 407.296 197.337 408.427C196.716 409.552 195.878 410.114 194.823 410.114C194.472 410.114 194.17 410.064 193.918 409.965V408.444C194.123 408.544 194.343 408.594 194.577 408.594C195.837 408.594 196.646 406.062 197.003 401H202.549V410ZM212.146 410H210.116V406.44H209.07C208.566 406.44 208.109 406.892 207.699 407.794L206.627 410H204.315L205.739 407.328C206.144 406.637 206.63 406.18 207.198 405.957C206.483 405.863 205.936 405.608 205.555 405.192C205.18 404.771 204.992 404.243 204.992 403.61C204.992 402.808 205.312 402.172 205.95 401.703C206.595 401.234 207.459 401 208.543 401H212.146V410ZM210.116 405.034V402.477H208.71C207.608 402.477 207.058 402.896 207.058 403.733C207.058 404.601 207.6 405.034 208.684 405.034H210.116ZM216.866 408.673H216.831V414.14H214.792V401H216.831V402.582H216.866C217.563 401.387 218.583 400.789 219.925 400.789C221.067 400.789 221.958 401.19 222.597 401.993C223.235 402.796 223.555 403.874 223.555 405.228C223.555 406.728 223.194 407.929 222.474 408.831C221.753 409.733 220.769 410.185 219.521 410.185C218.372 410.185 217.487 409.681 216.866 408.673ZM216.813 405.122V406.238C216.813 406.895 217.021 407.451 217.438 407.908C217.859 408.365 218.393 408.594 219.037 408.594C219.793 408.594 220.385 408.301 220.812 407.715C221.246 407.123 221.463 406.3 221.463 405.245C221.463 404.36 221.261 403.669 220.856 403.171C220.458 402.667 219.916 402.415 219.23 402.415C218.504 402.415 217.918 402.673 217.473 403.188C217.033 403.704 216.813 404.349 216.813 405.122ZM233.653 410H231.605V406.062H227.686V410H225.638V401H227.686V404.533H231.605V401H233.653V410ZM247.268 410H245.229V401H247.268V410ZM236.308 410V401H238.347V404.322H240.808C241.739 404.322 242.48 404.568 243.031 405.061C243.582 405.547 243.857 406.227 243.857 407.1C243.857 407.996 243.57 408.705 242.996 409.227C242.428 409.742 241.71 410 240.843 410H236.308ZM238.347 405.79V408.532H240.21C241.241 408.532 241.757 408.061 241.757 407.117C241.757 406.232 241.235 405.79 240.192 405.79H238.347ZM257.551 406.054H251.416C251.439 406.886 251.694 407.527 252.181 407.979C252.673 408.43 253.347 408.655 254.202 408.655C255.163 408.655 256.045 408.368 256.848 407.794V409.438C256.027 409.953 254.943 410.211 253.596 410.211C252.271 410.211 251.231 409.804 250.476 408.989C249.726 408.169 249.351 407.018 249.351 405.535C249.351 404.135 249.764 402.995 250.59 402.116C251.422 401.231 252.453 400.789 253.684 400.789C254.914 400.789 255.866 401.185 256.54 401.976C257.214 402.767 257.551 403.865 257.551 405.271V406.054ZM255.582 404.612C255.576 403.88 255.403 403.312 255.063 402.907C254.724 402.497 254.255 402.292 253.657 402.292C253.071 402.292 252.573 402.506 252.163 402.934C251.759 403.361 251.51 403.921 251.416 404.612H255.582ZM180.945 426.626H178.379V434H176.331V426.626H173.747V425H180.945V426.626ZM186.254 434.211C184.865 434.211 183.755 433.792 182.923 432.954C182.097 432.11 181.684 430.994 181.684 429.605C181.684 428.094 182.114 426.913 182.976 426.063C183.843 425.214 185.009 424.789 186.474 424.789C187.88 424.789 188.976 425.202 189.761 426.028C190.546 426.854 190.938 428 190.938 429.465C190.938 430.9 190.514 432.052 189.664 432.919C188.82 433.78 187.684 434.211 186.254 434.211ZM186.351 426.415C185.554 426.415 184.924 426.693 184.461 427.25C183.998 427.807 183.767 428.574 183.767 429.553C183.767 430.496 184.001 431.24 184.47 431.785C184.938 432.324 185.565 432.594 186.351 432.594C187.153 432.594 187.769 432.327 188.196 431.794C188.63 431.261 188.847 430.502 188.847 429.518C188.847 428.527 188.63 427.763 188.196 427.224C187.769 426.685 187.153 426.415 186.351 426.415ZM193.021 434V425H197.319C198.286 425 199.051 425.196 199.613 425.589C200.176 425.981 200.457 426.518 200.457 427.197C200.457 428.346 199.868 429.043 198.69 429.289C200.091 429.465 200.791 430.156 200.791 431.363C200.791 432.107 200.495 432.734 199.903 433.244C199.312 433.748 198.576 434 197.697 434H193.021ZM195.061 426.441V428.683H196.862C197.882 428.683 198.392 428.287 198.392 427.496C198.392 426.793 197.946 426.441 197.056 426.441H195.061ZM195.061 430.098V432.55H197.152C198.195 432.55 198.717 432.128 198.717 431.284C198.717 430.493 198.151 430.098 197.021 430.098H195.061ZM209.879 434H207.901V432.594H207.866C207.245 433.672 206.334 434.211 205.133 434.211C204.248 434.211 203.554 433.971 203.05 433.49C202.552 433.01 202.303 432.374 202.303 431.583C202.303 429.884 203.281 428.894 205.238 428.612L207.91 428.234C207.91 426.951 207.301 426.31 206.082 426.31C205.01 426.31 204.043 426.679 203.182 427.417V425.633C204.131 425.07 205.227 424.789 206.469 424.789C208.742 424.789 209.879 425.908 209.879 428.146V434ZM207.91 429.579L206.021 429.843C205.435 429.919 204.992 430.062 204.693 430.273C204.4 430.479 204.254 430.842 204.254 431.363C204.254 431.744 204.389 432.058 204.658 432.304C204.934 432.544 205.3 432.664 205.757 432.664C206.378 432.664 206.891 432.447 207.295 432.014C207.705 431.574 207.91 431.023 207.91 430.361V429.579ZM214.449 432.673H214.414V438.14H212.375V425H214.414V426.582H214.449C215.146 425.387 216.166 424.789 217.508 424.789C218.65 424.789 219.541 425.19 220.18 425.993C220.818 426.796 221.138 427.874 221.138 429.228C221.138 430.728 220.777 431.929 220.057 432.831C219.336 433.733 218.352 434.185 217.104 434.185C215.955 434.185 215.07 433.681 214.449 432.673ZM214.396 429.122V430.238C214.396 430.895 214.604 431.451 215.021 431.908C215.442 432.365 215.976 432.594 216.62 432.594C217.376 432.594 217.968 432.301 218.396 431.715C218.829 431.123 219.046 430.3 219.046 429.245C219.046 428.36 218.844 427.669 218.439 427.171C218.041 426.667 217.499 426.415 216.813 426.415C216.087 426.415 215.501 426.673 215.056 427.188C214.616 427.704 214.396 428.349 214.396 429.122ZM234.181 434H232.142V425H234.181V434ZM223.221 434V425H225.26V428.322H227.721C228.652 428.322 229.394 428.568 229.944 429.061C230.495 429.547 230.771 430.227 230.771 431.1C230.771 431.996 230.483 432.705 229.909 433.227C229.341 433.742 228.623 434 227.756 434H223.221ZM225.26 429.79V432.532H227.123C228.154 432.532 228.67 432.061 228.67 431.117C228.67 430.232 228.148 429.79 227.105 429.79H225.26Z" fill="black"/>
<rect x="363.75" y="389.75" width="134.5" height="61.5" stroke="black" stroke-width="1.5"/>
<path d="M407.259 413.473C406.31 413.965 405.129 414.211 403.717 414.211C401.889 414.211 400.424 413.634 399.322 412.479C398.221 411.325 397.67 409.811 397.67 407.936C397.67 405.92 398.288 404.291 399.524 403.049C400.767 401.807 402.334 401.186 404.227 401.186C405.445 401.186 406.456 401.358 407.259 401.704V403.778C406.409 403.274 405.472 403.022 404.446 403.022C403.081 403.022 401.974 403.459 401.124 404.332C400.28 405.205 399.858 406.371 399.858 407.83C399.858 409.219 400.254 410.326 401.045 411.152C401.836 411.973 402.876 412.383 404.165 412.383C405.354 412.383 406.386 412.102 407.259 411.539V413.473ZM417.595 414H415.749V407.399C415.632 407.634 415.453 407.959 415.213 408.375L411.425 414H409.421V405H411.293V411.469C411.357 411.316 411.495 411.053 411.706 410.678L415.547 405H417.595V414ZM426.709 413.587C425.988 414.003 425.136 414.211 424.151 414.211C422.815 414.211 421.737 413.795 420.917 412.963C420.097 412.125 419.687 411.041 419.687 409.711C419.687 408.229 420.126 407.039 421.005 406.143C421.89 405.24 423.07 404.789 424.547 404.789C425.367 404.789 426.091 404.933 426.718 405.22V407.118C426.091 406.649 425.423 406.415 424.714 406.415C423.853 406.415 423.146 406.708 422.596 407.294C422.045 407.874 421.77 408.636 421.77 409.579C421.77 410.511 422.027 411.246 422.543 411.785C423.064 412.324 423.762 412.594 424.635 412.594C425.367 412.594 426.059 412.333 426.709 411.812V413.587ZM434.874 406.626H432.308V414H430.26V406.626H427.676V405H434.874V406.626ZM443.812 410.054H437.678C437.701 410.886 437.956 411.527 438.442 411.979C438.935 412.43 439.608 412.655 440.464 412.655C441.425 412.655 442.307 412.368 443.109 411.794V413.438C442.289 413.953 441.205 414.211 439.857 414.211C438.533 414.211 437.493 413.804 436.737 412.989C435.987 412.169 435.612 411.018 435.612 409.535C435.612 408.135 436.025 406.995 436.852 406.116C437.684 405.231 438.715 404.789 439.945 404.789C441.176 404.789 442.128 405.185 442.802 405.976C443.476 406.767 443.812 407.865 443.812 409.271V410.054ZM441.844 408.612C441.838 407.88 441.665 407.312 441.325 406.907C440.985 406.497 440.517 406.292 439.919 406.292C439.333 406.292 438.835 406.506 438.425 406.934C438.021 407.361 437.771 407.921 437.678 408.612H441.844ZM456.346 414H454.395V406.793C454.277 407.156 454.099 407.692 453.858 408.401L451.828 414H450.018L447.952 408.384C447.841 408.079 447.662 407.543 447.416 406.775V414H445.755V405H448.409L450.475 410.555C450.621 410.959 450.809 411.519 451.037 412.233L451.6 410.59L453.621 405H456.346V414ZM465.917 414H463.939V412.594H463.904C463.283 413.672 462.372 414.211 461.171 414.211C460.286 414.211 459.592 413.971 459.088 413.49C458.59 413.01 458.341 412.374 458.341 411.583C458.341 409.884 459.319 408.894 461.276 408.612L463.948 408.234C463.948 406.951 463.339 406.31 462.12 406.31C461.048 406.31 460.081 406.679 459.22 407.417V405.633C460.169 405.07 461.265 404.789 462.507 404.789C464.78 404.789 465.917 405.908 465.917 408.146V414ZM463.948 409.579L462.059 409.843C461.473 409.919 461.03 410.062 460.731 410.273C460.438 410.479 460.292 410.842 460.292 411.363C460.292 411.744 460.427 412.058 460.696 412.304C460.972 412.544 461.338 412.664 461.795 412.664C462.416 412.664 462.929 412.447 463.333 412.014C463.743 411.574 463.948 411.023 463.948 410.361V409.579ZM396.686 438H394.638V430.556H390.718V438H388.67V429H396.686V438ZM403.33 438.211C401.941 438.211 400.831 437.792 399.999 436.954C399.173 436.11 398.76 434.994 398.76 433.605C398.76 432.094 399.19 430.913 400.052 430.063C400.919 429.214 402.085 428.789 403.55 428.789C404.956 428.789 406.052 429.202 406.837 430.028C407.622 430.854 408.015 432 408.015 433.465C408.015 434.9 407.59 436.052 406.74 436.919C405.896 437.78 404.76 438.211 403.33 438.211ZM403.427 430.415C402.63 430.415 402 430.693 401.537 431.25C401.074 431.807 400.843 432.574 400.843 433.553C400.843 434.496 401.077 435.24 401.546 435.785C402.015 436.324 402.642 436.594 403.427 436.594C404.229 436.594 404.845 436.327 405.272 435.794C405.706 435.261 405.923 434.502 405.923 433.518C405.923 432.527 405.706 431.763 405.272 431.224C404.845 430.685 404.229 430.415 403.427 430.415ZM418.518 441.278H416.821V438H410.414V441.278H408.735V436.444H409.535C410.971 434.323 411.7 431.842 411.724 429H417.138V436.444H418.518V441.278ZM415.099 436.444V430.547H413.385C413.244 432.727 412.646 434.692 411.592 436.444H415.099ZM424.336 438.211C422.947 438.211 421.837 437.792 421.005 436.954C420.179 436.11 419.766 434.994 419.766 433.605C419.766 432.094 420.196 430.913 421.058 430.063C421.925 429.214 423.091 428.789 424.556 428.789C425.962 428.789 427.058 429.202 427.843 430.028C428.628 430.854 429.021 432 429.021 433.465C429.021 434.9 428.596 436.052 427.746 436.919C426.902 437.78 425.766 438.211 424.336 438.211ZM424.433 430.415C423.636 430.415 423.006 430.693 422.543 431.25C422.08 431.807 421.849 432.574 421.849 433.553C421.849 434.496 422.083 435.24 422.552 435.785C423.021 436.324 423.647 436.594 424.433 436.594C425.235 436.594 425.851 436.327 426.278 435.794C426.712 435.261 426.929 434.502 426.929 433.518C426.929 432.527 426.712 431.763 426.278 431.224C425.851 430.685 425.235 430.415 424.433 430.415ZM436.5 430.626H433.151V438H431.104V429H436.5V430.626ZM440.297 436.673H440.262V442.14H438.223V429H440.262V430.582H440.297C440.994 429.387 442.014 428.789 443.355 428.789C444.498 428.789 445.389 429.19 446.027 429.993C446.666 430.796 446.985 431.874 446.985 433.228C446.985 434.728 446.625 435.929 445.904 436.831C445.184 437.733 444.199 438.185 442.951 438.185C441.803 438.185 440.918 437.681 440.297 436.673ZM440.244 433.122V434.238C440.244 434.895 440.452 435.451 440.868 435.908C441.29 436.365 441.823 436.594 442.468 436.594C443.224 436.594 443.815 436.301 444.243 435.715C444.677 435.123 444.894 434.3 444.894 433.245C444.894 432.36 444.691 431.669 444.287 431.171C443.889 430.667 443.347 430.415 442.661 430.415C441.935 430.415 441.349 430.673 440.903 431.188C440.464 431.704 440.244 432.349 440.244 433.122ZM456.688 434.054H450.554C450.577 434.886 450.832 435.527 451.318 435.979C451.811 436.43 452.484 436.655 453.34 436.655C454.301 436.655 455.183 436.368 455.985 435.794V437.438C455.165 437.953 454.081 438.211 452.733 438.211C451.409 438.211 450.369 437.804 449.613 436.989C448.863 436.169 448.488 435.018 448.488 433.535C448.488 432.135 448.901 430.995 449.728 430.116C450.56 429.231 451.591 428.789 452.821 428.789C454.052 428.789 455.004 429.185 455.678 429.976C456.352 430.767 456.688 431.865 456.688 433.271V434.054ZM454.72 432.612C454.714 431.88 454.541 431.312 454.201 430.907C453.861 430.497 453.393 430.292 452.795 430.292C452.209 430.292 451.711 430.506 451.301 430.934C450.896 431.361 450.647 431.921 450.554 432.612H454.72ZM458.631 438V429H462.929C463.896 429 464.66 429.196 465.223 429.589C465.785 429.981 466.066 430.518 466.066 431.197C466.066 432.346 465.478 433.043 464.3 433.289C465.7 433.465 466.4 434.156 466.4 435.363C466.4 436.107 466.104 436.734 465.513 437.244C464.921 437.748 464.186 438 463.307 438H458.631ZM460.67 430.441V432.683H462.472C463.491 432.683 464.001 432.287 464.001 431.496C464.001 430.793 463.556 430.441 462.665 430.441H460.67ZM460.67 434.098V436.55H462.762C463.805 436.55 464.326 436.128 464.326 435.284C464.326 434.493 463.761 434.098 462.63 434.098H460.67ZM475.488 438H473.511V436.594H473.476C472.854 437.672 471.943 438.211 470.742 438.211C469.857 438.211 469.163 437.971 468.659 437.49C468.161 437.01 467.912 436.374 467.912 435.583C467.912 433.884 468.891 432.894 470.848 432.612L473.52 432.234C473.52 430.951 472.91 430.31 471.691 430.31C470.619 430.31 469.652 430.679 468.791 431.417V429.633C469.74 429.07 470.836 428.789 472.078 428.789C474.352 428.789 475.488 429.908 475.488 432.146V438ZM473.52 433.579L471.63 433.843C471.044 433.919 470.602 434.062 470.303 434.273C470.01 434.479 469.863 434.842 469.863 435.363C469.863 435.744 469.998 436.058 470.268 436.304C470.543 436.544 470.909 436.664 471.366 436.664C471.987 436.664 472.5 436.447 472.904 436.014C473.314 435.574 473.52 435.023 473.52 434.361V433.579Z" fill="black"/>
<rect x="481.75" y="270.75" width="77.5" height="26.5" stroke="#6B6565" stroke-width="1.5"/>
<path d="M511.092 290H508.367L503.981 284.234C503.817 284.018 503.718 283.871 503.683 283.795H503.647V290H501.556V277.396H503.647V283.32H503.683C503.753 283.191 503.853 283.048 503.981 282.89L508.209 277.396H510.714L505.766 283.443L511.092 290ZM512.331 290V281H516.629C517.596 281 518.36 281.196 518.923 281.589C519.485 281.981 519.767 282.518 519.767 283.197C519.767 284.346 519.178 285.043 518 285.289C519.4 285.465 520.101 286.156 520.101 287.363C520.101 288.107 519.805 288.734 519.213 289.244C518.621 289.748 517.886 290 517.007 290H512.331ZM514.37 282.441V284.683H516.172C517.191 284.683 517.701 284.287 517.701 283.496C517.701 282.793 517.256 282.441 516.365 282.441H514.37ZM514.37 286.098V288.55H516.462C517.505 288.55 518.026 288.128 518.026 287.284C518.026 286.493 517.461 286.098 516.33 286.098H514.37ZM530.454 290H528.608V283.399C528.491 283.634 528.312 283.959 528.072 284.375L524.284 290H522.28V281H524.152V287.469C524.217 287.316 524.354 287.053 524.565 286.678L528.406 281H530.454V290ZM532.502 289.754V288.075C533.264 288.497 534.154 288.708 535.174 288.708C536.609 288.708 537.327 288.274 537.327 287.407C537.327 286.54 536.48 286.106 534.787 286.106H533.926V284.665H534.752C536.258 284.665 537.011 284.252 537.011 283.426C537.011 283.08 536.85 282.805 536.527 282.6C536.211 282.395 535.777 282.292 535.227 282.292C534.389 282.292 533.551 282.491 532.713 282.89V281.29C533.727 280.95 534.658 280.78 535.508 280.78C537.893 280.78 539.085 281.589 539.085 283.206C539.085 283.728 538.912 284.176 538.566 284.551C538.227 284.926 537.746 285.175 537.125 285.298V285.342C537.811 285.395 538.361 285.617 538.777 286.01C539.193 286.402 539.401 286.9 539.401 287.504C539.401 288.324 539.044 288.978 538.329 289.464C537.614 289.95 536.63 290.193 535.376 290.193C534.122 290.193 533.164 290.047 532.502 289.754Z" fill="#6B6565"/>
<path d="M431 389L435.33 381.5H426.67L431 389ZM431 320.904H431.75V320.154H431V320.904ZM402 320.904H401.25V321.654H402V320.904ZM402 218L397.67 225.5H406.33L402 218ZM431.75 382.25V320.904H430.25V382.25H431.75ZM431 320.154H402V321.654H431V320.154ZM402.75 320.904V224.75H401.25V320.904H402.75Z" fill="black"/>
<path d="M243 119.75L235.5 116.17V124.83L243 121.25V119.75ZM400 120.5H400.75V119.75H400V120.5ZM400 188L404.33 180.5H395.67L400 188ZM242.25 121.25H400V119.75H242.25V121.25ZM399.25 120.5V181.25H400.75V120.5H399.25Z" fill="black"/>
<path d="M483 203.75L475.5 200.17V208.83L483 205.25V203.75ZM615 204.5H615.75V203.75H615V204.5ZM615 287.5H614.25V288.25H615V287.5ZM671.5 287.5H672.25V286.75H671.5V287.5ZM671.5 372L675.83 364.5H667.17L671.5 372ZM482.25 205.25H615V203.75H482.25V205.25ZM614.25 204.5V287.5H615.75V204.5H614.25ZM615 288.25H671.5V286.75H615V288.25ZM670.75 287.5V365.25H672.25V287.5H670.75Z" fill="black"/>
<path d="M671 408L673.387 403H667.613L670 408H671ZM670.5 452V452.5H671V452H670.5ZM606.5 452V451.5H606V452H606.5ZM606.5 487L609.387 482H603.613L606.5 487ZM670 407.5V452H671V407.5H670ZM670.5 451.5H606.5V452.5H670.5V451.5ZM606 452V482.5H607V452H606Z" fill="black"/>
<path d="M204.5 265.75L197 262.17V270.83L204.5 267.25V265.75ZM281 266.5H281.75V265.75H281V266.5ZM281 316L285.33 308.5H276.67L281 316ZM203.75 267.25H281V265.75H203.75V267.25ZM280.25 266.5V309.25H281.75V266.5H280.25Z" fill="#6B6565"/>
<path d="M281 345V362.5H204V385" stroke="black" stroke-width="1.5"/>
<path d="M334 329.25L326.5 325.67V334.33L334 330.75V329.25ZM360.5 330V330.75H361.25V330H360.5ZM360.5 285V284.25H359.75V285H360.5ZM481 285L473.5 280.67V289.33L481 285ZM333.25 330.75H360.5V329.25H333.25V330.75ZM361.25 330V285H359.75V330H361.25ZM360.5 285.75H474.25V284.25H360.5V285.75Z" fill="#6B6565"/>
<path d="M561.75 76L565.33 68.5H556.67L560.25 76H561.75ZM561 148H560.25V148.75H561V148ZM591 148H591.75V147.25H591V148ZM591 285V285.75H591.75V285H591ZM560 285L567.5 289.33V280.67L560 285ZM560.25 75.25V148H561.75V75.25H560.25ZM561 148.75H591V147.25H561V148.75ZM590.25 148V285H591.75V148H590.25ZM591 284.25H566.75V285.75H591V284.25Z" fill="#CFC9C9"/>
<path d="M520 261L515.226 271H526.774L522 261H520ZM521 120H522V119H521V120ZM394.226 120L400 125.774L405.774 120L400 114.226L394.226 120ZM522 262V120H520V262H522ZM521 119H400V121H521V119Z" fill="#6B6565"/>
<path d="M683.5 236.25L691 239.83V231.17L683.5 234.75V236.25ZM646 235.5L645.25 235.513L645.263 236.25H646V235.5ZM644 120L644.75 119.987L644.737 119.25H644V120ZM516.67 120L521 124.33L525.33 120L521 115.67L516.67 120ZM684.25 234.75H646V236.25H684.25V234.75ZM646.75 235.487L644.75 119.987L643.25 120.013L645.25 235.513L646.75 235.487ZM644 119.25H521V120.75H644V119.25Z" fill="#CFC9C9"/>
<path d="M880.5 287.5H881.25V286.75H880.5V287.5ZM880.5 408.5L884.83 401H876.17L880.5 408.5ZM671 288.25H880.5V286.75H671V288.25ZM879.75 287.5V401.75H881.25V287.5H879.75Z" fill="#A84F46"/>
<path d="M881.75 442.5L885.33 435H876.67L880.25 442.5H881.75ZM903 540.5L907.33 533H898.67L903 540.5ZM881 491.5H880.25V492.25H881V491.5ZM903 491.5H903.75V490.75H903V491.5ZM880.25 441.75V491.5H881.75V441.75H880.25ZM881 492.25H903V490.75H881V492.25ZM902.25 491.5V533.75H903.75V491.5H902.25Z" fill="#A84F46"/>
<path d="M953 420.75L945.5 417.17V425.83L953 422.25V420.75ZM981 421.5V422.25H981.75V421.5H981ZM981 107H981.75V106.25H981V107ZM881 107L888.5 111.33V102.67L881 107ZM952.25 422.25H981V420.75H952.25V422.25ZM981.75 421.5V107H980.25V421.5H981.75ZM981 106.25H887.75V107.75H981V106.25Z" fill="#A84F46"/>
</svg>
