<svg width="132" height="312" viewBox="0 0 132 312" fill="none" xmlns="http://www.w3.org/2000/svg">
<path d="M44.5761 309.161H27.2641C20.8247 309.157 14.6501 306.718 10.0968 302.379C5.54343 298.039 2.98363 292.156 2.97968 286.019V25.9807C2.98363 19.8444 5.54343 13.9605 10.0968 9.62149C14.6501 5.28248 20.8247 2.84318 27.2641 2.83942H132V0H27.2641C20.0344 0.00376159 13.102 2.74221 7.98983 7.61371C2.87768 12.4852 0.00394741 19.0913 0 25.9807V286.019C0.00394277 292.906 2.87562 299.51 7.98456 304.381C13.0935 309.252 20.0221 311.992 27.2492 312H44.5761V309.161Z" fill="#DCA651"/>
</svg>
