<svg width="177" height="321" viewBox="0 0 177 321" fill="none" xmlns="http://www.w3.org/2000/svg">
<path d="M72.6991 282L72.9991 298.77C72.9991 298.77 56.0591 304.7 55.8091 307.77L88.3391 308.37L88.9491 282.23L72.6991 282Z" fill="#263238"/>
<path d="M83.0791 297.54C83.3906 297.639 83.6541 297.851 83.8185 298.133C83.983 298.416 84.0366 298.75 83.9691 299.07C83.8799 299.384 83.6738 299.653 83.393 299.82C83.1123 299.987 82.7781 300.041 82.4591 299.97C82.1298 299.861 81.8524 299.635 81.6806 299.334C81.5088 299.032 81.4548 298.678 81.5291 298.34C81.6566 298.023 81.9011 297.767 82.2121 297.626C82.523 297.484 82.8764 297.468 83.1991 297.58" fill="#E0E0E0"/>
<path d="M88.3391 308.4L88.2891 305.76L57.1191 306.18C57.1191 306.18 55.6691 306.78 55.8091 307.8L88.3391 308.4Z" fill="#455A64"/>
<path d="M72.4691 298.59C72.4691 298.75 73.2691 298.84 74.0391 299.36C74.8091 299.88 75.2191 300.56 75.3591 300.5C75.4991 300.44 75.2891 299.5 74.3591 298.9C73.4291 298.3 72.4391 298.45 72.4691 298.59Z" fill="white"/>
<path d="M69.0391 299.94C69.0391 300.09 69.6791 300.38 70.2091 301.06C70.7391 301.74 70.8791 302.45 71.0391 302.45C71.1991 302.45 71.3091 301.55 70.6391 300.71C69.9691 299.87 69.0391 299.79 69.0391 299.94Z" fill="white"/>
<path d="M67.0191 303.99C67.1691 303.99 67.3991 303.24 67.0191 302.36C66.6391 301.48 65.889 301.12 65.819 301.25C65.749 301.38 66.1991 301.86 66.5191 302.58C66.8391 303.3 66.8691 303.97 67.0191 303.99Z" fill="white"/>
<path d="M72.7991 294.76C72.8591 294.91 73.5991 294.7 74.4891 294.76C75.3791 294.82 76.0791 295.14 76.1691 295C76.2591 294.86 75.5891 294.29 74.5291 294.21C73.4691 294.13 72.7991 294.64 72.7991 294.76Z" fill="white"/>
<path d="M112.379 280.98L114.149 301.19L110.929 317.57C110.873 317.849 110.876 318.137 110.937 318.416C110.997 318.694 111.115 318.957 111.282 319.188C111.449 319.419 111.662 319.613 111.908 319.758C112.153 319.903 112.426 319.995 112.709 320.03C113.038 320.079 113.374 320.045 113.686 319.931C113.999 319.818 114.278 319.628 114.499 319.38C117.399 316.22 127.999 304.54 127.789 303.07C127.549 301.36 127.349 281.63 127.349 281.63L112.379 280.98Z" fill="#263238"/>
<path d="M112.709 320.03L127.709 301.7L127.769 302.56C127.818 303.3 127.601 304.034 127.159 304.63C125.969 306.22 122.589 310.55 114.569 319.38C114.338 319.632 114.048 319.823 113.725 319.936C113.403 320.05 113.057 320.082 112.719 320.03H112.709Z" fill="#455A64"/>
<g opacity="0.6">
<path d="M123.129 295.44C122.892 295.639 122.737 295.918 122.693 296.224C122.648 296.53 122.718 296.842 122.889 297.1C123.081 297.343 123.358 297.504 123.665 297.551C123.971 297.597 124.284 297.525 124.539 297.35C124.791 297.139 124.955 296.841 124.999 296.516C125.044 296.19 124.965 295.86 124.779 295.59C124.555 295.354 124.248 295.215 123.923 295.202C123.598 295.189 123.281 295.303 123.039 295.52" fill="white"/>
</g>
<path d="M116.799 310.89C116.271 310.287 115.633 309.792 114.919 309.43C114.157 309.186 113.357 309.084 112.559 309.13C112.559 309.13 112.789 308.91 113.259 308.82C113.876 308.707 114.512 308.776 115.089 309.02C115.673 309.251 116.174 309.652 116.529 310.17C116.799 310.57 116.799 310.87 116.799 310.89Z" fill="white"/>
<path d="M115.499 313.69C114.897 313.406 114.279 313.155 113.649 312.94C112.985 312.859 112.318 312.815 111.649 312.81C111.947 312.595 112.293 312.455 112.657 312.403C113.021 312.351 113.392 312.387 113.739 312.51C114.969 312.78 115.599 313.63 115.499 313.69Z" fill="white"/>
<path d="M119.229 307.27C118.336 306.754 117.407 306.303 116.449 305.92C115.464 305.67 114.461 305.499 113.449 305.41C114.485 305.057 115.612 305.086 116.629 305.49C117.676 305.764 118.595 306.393 119.229 307.27Z" fill="white"/>
<path d="M119.209 301.06C119.159 301.18 118.009 300.79 116.549 300.83C115.089 300.87 113.959 301.29 113.909 301.17C114.7 300.672 115.61 300.4 116.544 300.38C117.477 300.361 118.399 300.596 119.209 301.06Z" fill="white"/>
<path d="M118.799 295.11C117.898 294.88 116.969 294.776 116.039 294.8C115.123 294.955 114.234 295.241 113.399 295.65C113.399 295.65 113.569 295.34 114.019 295.04C114.616 294.662 115.294 294.43 115.997 294.36C116.7 294.291 117.409 294.387 118.069 294.64C118.609 294.84 118.869 295.07 118.799 295.11Z" fill="white"/>
<path d="M116.049 293.67C115.964 293.422 115.937 293.159 115.969 292.9C115.996 292.208 116.159 291.528 116.449 290.9C116.624 290.411 116.954 289.993 117.389 289.71C117.545 289.616 117.729 289.576 117.91 289.598C118.091 289.62 118.259 289.701 118.389 289.83C118.624 290.072 118.759 290.393 118.769 290.73C118.767 291.411 118.527 292.071 118.091 292.595C117.654 293.119 117.049 293.474 116.379 293.6C115.713 293.71 115.029 293.621 114.413 293.344C113.797 293.066 113.277 292.612 112.919 292.04C112.83 291.891 112.773 291.725 112.752 291.552C112.731 291.38 112.747 291.205 112.799 291.04C112.869 290.882 112.987 290.75 113.136 290.662C113.284 290.574 113.457 290.535 113.629 290.55C114.134 290.629 114.61 290.839 115.009 291.16C115.583 291.565 116.084 292.066 116.489 292.64C116.652 292.841 116.774 293.072 116.849 293.32C116.276 292.595 115.603 291.955 114.849 291.42C114.492 291.158 114.077 290.986 113.639 290.92C113.546 290.908 113.452 290.927 113.37 290.974C113.289 291.021 113.225 291.093 113.189 291.18C113.162 291.288 113.158 291.401 113.177 291.511C113.196 291.621 113.238 291.726 113.299 291.82C113.617 292.307 114.07 292.691 114.603 292.926C115.136 293.16 115.725 293.234 116.299 293.14C116.867 293.033 117.381 292.736 117.757 292.298C118.134 291.86 118.349 291.307 118.369 290.73C118.372 290.497 118.286 290.272 118.129 290.1C118.063 290.032 117.976 289.988 117.882 289.973C117.789 289.959 117.693 289.975 117.609 290.02C117.243 290.262 116.96 290.611 116.799 291.02C116.394 291.852 116.14 292.749 116.049 293.67Z" fill="white"/>
<path d="M56.8891 142.02C55.325 148.964 54.7959 156.101 55.3191 163.2C55.6691 167.7 70.8591 292.25 70.8591 292.25H91.3691L85.5991 175.19L87.2791 175.56C87.2791 175.56 98.4791 225.48 99.3891 233.56C100.219 240.83 109.659 293.56 109.659 293.56L128.409 293.77L122.409 223.96L115.409 156.96L112.799 137.52L56.8891 142.02Z" fill="#455A64"/>
<path d="M88.7991 163.27C88.5339 163.465 88.2449 163.627 87.9391 163.75C87.138 164.163 86.283 164.463 85.3991 164.64C84.7744 164.756 84.1337 164.756 83.5091 164.64C82.7589 164.509 82.0635 164.161 81.5091 163.64C80.9324 163.057 80.5186 162.332 80.3091 161.54C80.0691 160.75 79.9291 159.92 79.7591 159.08C79.1091 155.7 78.6591 152.61 78.3991 150.37C78.2691 149.25 78.1891 148.37 78.1391 147.72C78.1004 147.387 78.1004 147.052 78.1391 146.72C78.2395 147.045 78.3032 147.38 78.3291 147.72C78.4391 148.43 78.5691 149.31 78.7291 150.35C79.0591 152.58 79.5491 155.65 80.2091 159.01C80.5391 160.68 80.7591 162.37 81.7991 163.37C82.2838 163.776 82.853 164.07 83.4653 164.229C84.0776 164.388 84.7177 164.409 85.3391 164.29C86.2051 164.142 87.0508 163.894 87.8591 163.55C88.1623 163.425 88.4772 163.331 88.7991 163.27Z" fill="#263238"/>
<path d="M82.6691 147.38C82.6691 147.38 82.7991 147.27 83.0891 147.25C83.4996 147.243 83.9007 147.373 84.2291 147.62C84.4877 147.796 84.7012 148.032 84.8523 148.306C85.0034 148.58 85.0879 148.887 85.0991 149.2C85.088 149.592 84.9576 149.971 84.7254 150.288C84.4931 150.604 84.17 150.842 83.7991 150.97C83.4373 151.12 83.0378 151.156 82.655 151.072C82.2721 150.988 81.9244 150.788 81.6591 150.5C81.4608 150.257 81.3223 149.972 81.2546 149.666C81.1868 149.36 81.1918 149.043 81.2691 148.74C81.3579 148.346 81.5762 147.994 81.8891 147.74C82.1191 147.56 82.2791 147.54 82.2891 147.56C81.9115 147.889 81.6575 148.337 81.5691 148.83C81.5253 149.084 81.5376 149.344 81.605 149.593C81.6723 149.841 81.7932 150.072 81.9591 150.27C82.1827 150.473 82.4574 150.611 82.7536 150.669C83.0499 150.728 83.3565 150.704 83.6404 150.601C83.9243 150.498 84.1748 150.32 84.3649 150.085C84.555 149.851 84.6774 149.569 84.7191 149.27C84.7121 149.012 84.6494 148.759 84.5355 148.527C84.4216 148.296 84.2591 148.092 84.0591 147.93C83.6695 147.597 83.1806 147.404 82.6691 147.38Z" fill="#263238"/>
<path d="M115.169 155.82C114.943 155.894 114.707 155.931 114.469 155.93C113.83 155.977 113.188 155.977 112.549 155.93C108.265 155.689 104.196 153.975 101.029 151.08C100.55 150.652 100.105 150.187 99.6991 149.69C99.5347 149.517 99.3966 149.322 99.2891 149.11C99.3491 149.06 100.009 149.82 101.229 150.85C104.437 153.554 108.392 155.218 112.569 155.62C114.159 155.8 115.159 155.74 115.169 155.82Z" fill="#263238"/>
<path d="M66.7291 147.08C66.4744 147.822 66.1176 148.525 65.6691 149.17C64.664 150.777 63.4687 152.258 62.1091 153.58C60.7477 154.901 59.2337 156.056 57.5991 157.02C56.9412 157.448 56.2279 157.784 55.4791 158.02C56.1227 157.564 56.7903 157.143 57.4791 156.76C59.0223 155.73 60.4683 154.562 61.7991 153.27C63.1331 151.965 64.3386 150.535 65.3991 149C66.2291 147.82 66.6691 147.05 66.7291 147.08Z" fill="#263238"/>
<path d="M80.5291 4.44962L81.3391 4.39962C85.3145 4.17303 89.2296 5.45007 92.3068 7.97706C95.3841 10.504 97.3982 14.0961 97.9491 18.0396C98.9991 25.6496 100.069 34.0396 100.259 38.1596C100.639 46.6596 92.2591 48.4696 92.2591 48.4696L92.5591 51.9196C92.677 53.2748 92.526 54.6399 92.1149 55.9365C91.7039 57.2332 91.0407 58.4359 90.1636 59.4756C89.2865 60.5153 88.2127 61.3716 87.0038 61.9952C85.7949 62.6188 84.4747 62.9975 83.1191 63.1096C80.4136 63.3351 77.7282 62.4854 75.6448 60.7446C73.5615 59.0038 72.248 56.5121 71.9891 53.8096L68.9891 22.2896C67.6791 13.5196 71.7191 5.46962 80.5291 4.44962Z" fill="#FFBF9D"/>
<path d="M92.2991 48.4496C88.3569 48.6805 84.4314 47.7746 80.9891 45.8396C80.9891 45.8396 83.9891 51.8396 92.3791 50.5396L92.2991 48.4496Z" fill="#FF9A6C"/>
<path d="M95.5691 25.9296C95.5913 26.2459 95.4885 26.5582 95.2828 26.7995C95.077 27.0407 94.7849 27.1916 94.4691 27.2196C94.3173 27.2407 94.1629 27.2315 94.0147 27.1925C93.8665 27.1536 93.7274 27.0857 93.6056 26.9927C93.4838 26.8997 93.3816 26.7835 93.305 26.6508C93.2284 26.5181 93.1787 26.3716 93.1591 26.2196C93.1369 25.9033 93.2397 25.591 93.4454 25.3498C93.6511 25.1085 93.9433 24.9577 94.2591 24.9296C94.4109 24.9085 94.5653 24.9177 94.7135 24.9567C94.8617 24.9956 95.0007 25.0635 95.1225 25.1565C95.2443 25.2495 95.3465 25.3657 95.4232 25.4984C95.4998 25.6311 95.5494 25.7776 95.5691 25.9296Z" fill="#263238"/>
<path d="M96.3591 22.2696C96.2191 22.4296 95.2591 21.8096 93.9591 21.8896C92.6591 21.9696 91.7391 22.6696 91.5891 22.5196C91.4391 22.3696 91.6491 22.1596 92.0491 21.8296C92.5913 21.406 93.2518 21.1614 93.9391 21.1296C94.6157 21.0907 95.2874 21.2656 95.8591 21.6296C96.2791 21.9396 96.4291 22.2696 96.3591 22.2696Z" fill="#263238"/>
<path d="M84.2891 26.7295C84.3113 27.0458 84.2085 27.3581 84.0028 27.5994C83.797 27.8406 83.5049 27.9915 83.1891 28.0195C83.0373 28.0406 82.8829 28.0314 82.7347 27.9925C82.5865 27.9535 82.4474 27.8856 82.3256 27.7926C82.2038 27.6996 82.1017 27.5835 82.025 27.4508C81.9484 27.3181 81.8988 27.1715 81.8791 27.0195C81.8569 26.7033 81.9597 26.3909 82.1654 26.1497C82.3711 25.9084 82.6633 25.7576 82.9791 25.7295C83.1309 25.7085 83.2853 25.7177 83.4335 25.7566C83.5817 25.7955 83.7207 25.8635 83.8425 25.9565C83.9643 26.0494 84.0665 26.1656 84.1432 26.2983C84.2198 26.431 84.2694 26.5776 84.2891 26.7295Z" fill="#263238"/>
<path d="M83.5491 23.2696C83.4091 23.4296 82.4491 22.8096 81.1491 22.8896C79.8491 22.9696 78.9291 23.6696 78.7791 23.5196C78.6291 23.3696 78.8391 23.1596 79.2391 22.8296C79.7823 22.4078 80.4421 22.1634 81.129 22.1296C81.8057 22.0907 82.4774 22.2656 83.0491 22.6296C83.4691 22.9296 83.6191 23.1996 83.5491 23.2696Z" fill="#263238"/>
<path d="M88.7991 32.6797C89.4765 32.4293 90.1816 32.2615 90.8991 32.1797C91.2291 32.1196 91.5391 32.0396 91.5891 31.8096C91.5972 31.4559 91.4997 31.1077 91.3091 30.8096C90.9491 30.0196 90.5691 29.1996 90.1791 28.3296C89.1411 26.2355 88.2717 24.0619 87.5791 21.8296C87.7291 21.7596 89.1191 24.5796 90.6891 28.1096C91.0691 28.9796 91.4391 29.8096 91.7791 30.6096C92.0132 30.9962 92.1018 31.4536 92.0291 31.8996C91.9889 32.0208 91.9209 32.1309 91.8306 32.2212C91.7404 32.3115 91.6302 32.3794 91.5091 32.4196C91.3282 32.4814 91.1398 32.5184 90.9491 32.5296C90.2414 32.6684 89.5192 32.7187 88.7991 32.6797Z" fill="#263238"/>
<path d="M83.5991 18.1495C83.4891 18.5095 82.1791 18.4195 80.6591 18.6895C79.1391 18.9595 77.9191 19.4495 77.6591 19.1395C77.5591 18.9995 77.7591 18.6495 78.2391 18.2795C78.8778 17.8129 79.618 17.5045 80.3991 17.3795C81.1758 17.239 81.9748 17.287 82.7291 17.5195C83.3391 17.7095 83.6391 17.9795 83.5991 18.1495Z" fill="#263238"/>
<path d="M95.6591 18.5496C95.4491 18.8596 94.5391 18.5496 93.4491 18.6496C92.3591 18.7496 91.4491 18.9696 91.2391 18.6496C91.0291 18.3296 91.2391 18.1996 91.6491 17.8896C92.1704 17.5277 92.7862 17.3264 93.4206 17.3104C94.055 17.2944 94.6802 17.4645 95.2191 17.7996C95.6091 18.0996 95.7991 18.3996 95.6591 18.5496Z" fill="#263238"/>
<path d="M96.9091 14.1896C96.9091 14.1896 94.3591 9.00958 91.7291 7.90958C88.5391 6.58958 87.3991 10.0696 84.3891 9.41958C81.3791 8.76958 78.3891 7.48958 75.4491 9.94958C72.2891 12.6396 73.9391 14.3096 73.9491 18.0896C73.9991 33.3996 71.4591 37.8796 70.2491 30.7396C70.1191 29.9496 67.8991 29.4496 67.3791 26.1396C66.7191 21.8496 66.2491 16.6196 67.0391 13.4996C67.6991 10.8696 69.0391 8.99958 71.5991 6.87958C75.5991 3.53958 81.3091 3.13958 85.2191 3.30958C89.1291 3.47958 96.8791 7.51958 96.9091 14.1896Z" fill="#263238"/>
<path d="M70.7991 30.4696C70.7709 30.1594 70.6801 29.8581 70.532 29.584C70.3839 29.31 70.1817 29.0688 69.9377 28.8753C69.6936 28.6817 69.4128 28.5397 69.1122 28.458C68.8116 28.3762 68.4976 28.3563 68.1891 28.3996C66.6091 28.6396 64.8991 29.6396 65.1891 32.8996C65.6991 38.6996 71.409 36.9796 71.409 36.8096C71.409 36.6396 71.0191 32.8996 70.7991 30.4696Z" fill="#FFBF9D"/>
<path d="M69.9391 34.7496C69.9391 34.7496 69.8491 34.8296 69.6791 34.9196C69.4491 35.0431 69.1799 35.0719 68.9291 34.9996C68.5348 34.7969 68.2018 34.4926 67.9645 34.1181C67.7271 33.7437 67.5941 33.3127 67.5791 32.8696C67.5144 32.3746 67.5658 31.8714 67.7291 31.3996C67.7676 31.213 67.8504 31.0385 67.9705 30.8905C68.0906 30.7426 68.2444 30.6257 68.4191 30.5496C68.5329 30.508 68.6578 30.5084 68.7714 30.5505C68.885 30.5926 68.9799 30.6739 69.0391 30.7796C69.1291 30.9296 69.0991 31.0496 69.1391 31.0596C69.1791 31.0696 69.2491 30.9496 69.1391 30.7096C69.0963 30.5686 69.0039 30.4478 68.8791 30.3696C68.7089 30.2644 68.5049 30.2286 68.3091 30.2696C68.0705 30.3362 67.853 30.4632 67.6779 30.6384C67.5027 30.8136 67.3757 31.031 67.3091 31.2696C67.1052 31.7907 67.033 32.354 67.0991 32.9096C67.1143 33.429 67.2843 33.932 67.5871 34.3542C67.89 34.7764 68.312 35.0987 68.7991 35.2796C68.9583 35.3108 69.1225 35.3063 69.2798 35.2665C69.4372 35.2268 69.5837 35.1527 69.7091 35.0496C69.9391 34.8896 69.9591 34.7496 69.9391 34.7496Z" fill="#FF9A6C"/>
<path d="M98.1391 7.9096C97.2491 7.2396 96.0191 7.14959 95.1391 6.46959C93.5291 5.2296 93.4591 2.4696 91.5691 1.6896C90.4491 1.2496 89.1891 1.7896 87.9891 1.6896C86.0491 1.4796 85.2991 0.019596 82.3591 0.00959605C81.3335 -0.0519069 80.3119 0.183203 79.4163 0.686827C78.5208 1.19045 77.7893 1.94129 77.3091 2.8496C76.604 2.52422 75.8253 2.39167 75.0524 2.46545C74.2794 2.53924 73.5398 2.81672 72.909 3.2696C72.3734 3.69299 71.9329 4.22428 71.6159 4.82897C71.2989 5.43366 71.1126 6.09825 71.0691 6.7796C71.0691 6.7796 70.4691 6.4696 68.6291 7.9196C67.4043 9.11466 66.5235 10.6171 66.0791 12.2696C65.4491 14.3896 66.3691 16.6296 67.2691 18.6596C67.7591 19.7496 68.3691 20.9596 69.4991 21.3396C70.8891 21.8096 72.4191 20.7196 72.9591 19.3396C73.4991 17.9596 74.3491 16.6196 74.9591 15.3396C76.0991 13.0796 77.2691 10.9596 76.3091 9.5096C77.635 9.07937 79.0631 9.07937 80.3891 9.5096C81.7191 9.9496 82.8791 10.7996 84.2091 11.2696C85.5391 11.7396 87.2091 11.7096 88.0991 10.6296C88.2836 11.0185 88.5538 11.3605 88.8894 11.63C89.225 11.8996 89.6173 12.0896 90.0368 12.1858C90.4564 12.282 90.8922 12.282 91.3118 12.1856C91.7313 12.0893 92.1235 11.8992 92.4591 11.6296C92.9864 12.4762 93.811 13.0953 94.7711 13.3654C95.7313 13.6355 96.7577 13.5371 97.6491 13.0896C98.0851 12.8307 98.4539 12.4724 98.7253 12.044C98.9967 11.6155 99.163 11.129 99.2107 10.6242C99.2585 10.1193 99.1863 9.61021 99.0001 9.13849C98.8139 8.66677 98.5188 8.2457 98.1391 7.9096Z" fill="#263238"/>
<path d="M66.6891 17.2695C66.9585 17.6881 67.183 18.1339 67.3591 18.5995C67.5788 19.0739 67.9247 19.4786 68.3591 19.7695C68.9105 20.066 69.5542 20.1411 70.1591 19.9795C70.785 19.8649 71.3787 19.6158 71.8991 19.2495C72.3133 18.9273 72.6921 18.5619 73.0291 18.1595C73.3228 17.7496 73.6579 17.3709 74.0291 17.0295C73.8332 17.4921 73.5704 17.9234 73.2491 18.3095C72.9273 18.7549 72.5472 19.1551 72.1191 19.4995C71.5692 19.9167 70.9284 20.1977 70.2491 20.3195C69.5709 20.4812 68.8568 20.3812 68.2491 20.0395C67.7906 19.7016 67.4426 19.2353 67.2491 18.6995C67.0025 18.2485 66.8144 17.768 66.6891 17.2695Z" fill="#455A64"/>
<path d="M66.909 21.7396C67.2578 22.0099 67.6456 22.2257 68.0591 22.3796C68.5057 22.515 68.9757 22.5559 69.4391 22.4996C70.0097 22.4124 70.5552 22.2044 71.0391 21.8896C71.9118 21.276 72.653 20.494 73.2191 19.5896C73.4401 19.1943 73.7051 18.8253 74.0091 18.4896C73.8765 18.9256 73.6811 19.34 73.4291 19.7196C72.8957 20.7017 72.1386 21.5444 71.2191 22.1796C70.6963 22.5227 70.1003 22.7385 69.4791 22.8096C68.967 22.8635 68.4495 22.795 67.9691 22.6096C67.1491 22.2696 66.879 21.7496 66.909 21.7396Z" fill="#455A64"/>
<path d="M85.1391 34.8096C84.9342 35.4571 84.8231 36.1306 84.8091 36.8096C84.789 37.1228 84.8347 37.4367 84.9432 37.7312C85.0517 38.0257 85.2206 38.2942 85.4391 38.5196C85.6704 38.7918 85.9586 39.0099 86.2835 39.1585C86.6083 39.3071 86.9618 39.3826 87.3191 39.3796C87.9658 39.3795 88.591 39.1473 89.081 38.7252C89.571 38.3031 89.8933 37.7192 89.9891 37.0796L90.2191 35.6396C88.8891 35.2696 85.2391 34.9096 85.1391 34.8096Z" fill="#FF9A6C"/>
<path d="M88.7091 38.9296C88.7091 38.9296 88.5391 38.9296 88.2491 38.9296C87.8414 38.9915 87.4267 38.9915 87.0191 38.9296C86.4296 38.8336 85.8977 38.5195 85.5291 38.0496C85.0947 37.4774 84.8848 36.766 84.9391 36.0496C84.9605 35.6392 85.066 35.2376 85.2491 34.8696L85.069 34.9596C86.379 35.1596 87.5191 35.3096 88.3291 35.4096C88.7629 35.4995 89.207 35.5298 89.6491 35.4996C89.2342 35.3525 88.8053 35.2486 88.3691 35.1896C87.5591 35.0296 86.429 34.8296 85.129 34.6196H84.9991L84.9491 34.7296C84.7306 35.1367 84.6076 35.588 84.5891 36.0496C84.516 36.8641 84.7636 37.6749 85.2791 38.3096C85.49 38.5666 85.7497 38.7793 86.0431 38.9355C86.3366 39.0917 86.6581 39.1882 86.9891 39.2196C87.4195 39.2632 87.8542 39.2224 88.2691 39.0996C88.5691 39.0296 88.7191 38.9496 88.7091 38.9296Z" fill="#263238"/>
<path d="M70.1291 31.1496C70.062 31.0018 69.9653 30.8693 69.8451 30.7602C69.7249 30.6512 69.5836 30.5678 69.43 30.5154C69.2764 30.4629 69.1137 30.4425 68.9519 30.4552C68.7901 30.468 68.6326 30.5137 68.4891 30.5896C67.8291 30.9596 67.6991 31.4896 67.4891 32.2196C67.4153 32.4797 67.3949 32.752 67.4293 33.0201C67.4637 33.2883 67.5521 33.5466 67.6891 33.7796C67.8319 34.0053 68.0418 34.1806 68.2892 34.281C68.5367 34.3814 68.8094 34.4019 69.0691 34.3396C69.3244 34.2196 69.5479 34.0412 69.7216 33.8189C69.8954 33.5965 70.0144 33.3364 70.0691 33.0596C70.338 32.4553 70.3595 31.7697 70.1291 31.1496Z" fill="#455A64"/>
<path d="M80.4391 41.2696C78.6421 41.2754 76.8649 40.8934 75.2291 40.1496C73.5974 39.3922 72.145 38.2973 70.9677 36.9373C69.7904 35.5772 68.9149 33.9829 68.3991 32.2596L69.3991 31.9796C69.8632 33.5698 70.6643 35.0415 71.7479 36.2945C72.8314 37.5476 74.1721 38.5527 75.6787 39.2415C77.1853 39.9302 78.8225 40.2866 80.4791 40.2863C82.1356 40.286 83.7728 39.929 85.2791 39.2396L85.6991 40.1496C84.0475 40.8992 82.2528 41.2814 80.4391 41.2696Z" fill="#455A64"/>
<path d="M84.1021 38.5018L86.1822 38.0926C86.5985 38.0106 87.0304 38.0975 87.3827 38.334C87.7351 38.5705 87.979 38.9372 88.0609 39.3536L88.0725 39.4125C88.1539 39.8262 88.0676 40.2554 87.8326 40.6055C87.5976 40.9557 87.2331 41.1981 86.8194 41.2795L84.7392 41.6887C84.3229 41.7706 83.891 41.6838 83.5387 41.4473C83.1863 41.2108 82.9424 40.844 82.8605 40.4277L82.8489 40.3688C82.7675 39.955 82.8538 39.5259 83.0888 39.1758C83.3238 38.8256 83.6883 38.5832 84.1021 38.5018Z" fill="#455A64"/>
<path d="M70.0191 32.1096C70.525 31.6304 70.9208 31.0469 71.1791 30.3996C71.3055 30.0771 71.3594 29.7308 71.3369 29.3851C71.3144 29.0395 71.2162 28.703 71.0491 28.3996C70.6957 27.9069 70.195 27.5392 69.6191 27.3496C69.1363 27.1433 68.6136 27.0477 68.0891 27.0696C67.8264 27.0813 67.5692 27.149 67.3346 27.2679C67.1001 27.3869 66.8937 27.5545 66.7291 27.7596C66.6324 27.8671 66.5725 28.0026 66.5582 28.1465C66.5438 28.2904 66.5756 28.4351 66.6491 28.5596C66.8591 28.8096 67.249 28.7396 67.569 28.6596C67.9957 28.5268 68.443 28.4726 68.8891 28.4996C69.1111 28.5137 69.3271 28.5776 69.521 28.6867C69.7149 28.7958 69.8817 28.9472 70.0091 29.1296C70.1316 29.3552 70.1958 29.6079 70.1958 29.8646C70.1958 30.1213 70.1316 30.374 70.0091 30.5996C69.747 31.0453 69.4085 31.4414 69.0091 31.7696" fill="#455A64"/>
<path d="M50.5591 62.9296C50.0591 62.9296 42.8691 65.7996 40.9791 72.8696C39.0891 79.9396 33.9291 105.78 33.9291 105.78L28.4491 113.36C28.4491 113.36 30.2191 127.22 40.2991 124.59C40.2991 124.59 47.0291 125.76 49.1791 118.94C51.3291 112.12 55.4791 91.7796 55.4791 91.7796L50.5591 62.9296Z" fill="#E0E0E0"/>
<path d="M71.5391 51.0996L67.7291 56.8596L50.5591 62.9296L55.4791 112.72L53.6391 138.81C53.5803 139.627 53.693 140.447 53.9697 141.218C54.2464 141.989 54.6811 142.693 55.246 143.286C55.8109 143.879 56.4935 144.348 57.25 144.662C58.0065 144.976 58.8202 145.128 59.6391 145.11L113.639 143.52C114.989 143.52 115.639 141.77 115.839 139.93C116.032 138.274 115.885 136.597 115.409 135L112.569 125C112.989 131.21 111.129 87.9996 111.059 86.3796L115.219 64.1196L95.6791 56.2696L92.6791 51.5996L83.8691 58.2696L71.5391 51.0996Z" fill="#E0E0E0"/>
<path d="M115.219 64.1296C115.219 64.1296 119.149 67.5796 119.809 70.2096C120.469 72.8396 134.589 103.45 134.589 103.45L141.589 105.35L143.459 109.23C144.557 111.462 144.852 114.004 144.294 116.428C143.737 118.853 142.361 121.011 140.399 122.54C140.139 122.74 139.889 122.91 139.649 123.06C137.286 124.328 134.565 124.768 131.923 124.31C129.28 123.851 126.867 122.52 125.069 120.53C121.299 116.1 110.289 100.13 110.289 100.13V80.5996L115.219 64.1296Z" fill="#E0E0E0"/>
<path d="M138.229 106.54L148.329 100.54L153.189 106.54L152.189 109.43L139.189 119.08C137.594 117.752 136.529 115.896 136.189 113.85C135.549 110.27 138.229 106.54 138.229 106.54Z" fill="#FFBF9D"/>
<path d="M135.029 103.46C135.029 103.56 134.169 103.46 132.899 103.89C131.262 104.458 129.813 105.464 128.709 106.8C127.615 108.162 126.716 109.669 126.039 111.28C125.786 111.975 125.468 112.644 125.089 113.28C125.186 112.543 125.392 111.826 125.699 111.15C126.301 109.458 127.183 107.879 128.309 106.48C129.47 105.067 131.038 104.048 132.799 103.56C133.518 103.315 134.291 103.281 135.029 103.46Z" fill="#263238"/>
<path d="M148.159 103.89C147.907 102.572 147.997 101.212 148.42 99.9388C148.844 98.6659 149.587 97.5231 150.579 96.6196C152.967 94.6537 155.673 93.1083 158.579 92.0496C160.349 91.2596 164.029 88.1796 164.689 88.9296C165.077 89.3741 165.291 89.9443 165.291 90.5346C165.291 91.1248 165.077 91.695 164.689 92.1396C163.759 93.4996 158.419 95.5296 159.159 97.2396C159.469 97.9396 161.159 98.0596 161.159 98.0596C161.159 98.0596 167.599 98.4796 170.299 98.2496C172.999 98.0196 175.429 98.5296 175.299 99.4596C175.169 100.39 174.649 100.91 172.409 101.09C170.169 101.27 166.539 101.14 166.349 101.65C166.159 102.16 166.909 102.49 168.209 102.4C169.509 102.31 175.669 102.3 176.089 103C176.188 103.176 176.248 103.373 176.264 103.575C176.28 103.777 176.252 103.98 176.181 104.171C176.111 104.361 176 104.533 175.856 104.677C175.713 104.82 175.54 104.93 175.349 105L173.899 105.51C173.899 105.51 174.739 106.68 174.039 107.33C173.339 107.98 171.759 107.75 171.759 107.75L163.599 107.52C163.599 107.52 163.129 108.01 163.369 108.34C163.609 108.67 169.979 108.21 170.029 108.91C170.079 109.61 170.639 109.91 168.729 110.41C165.935 110.869 163.084 110.869 160.289 110.41C157.322 109.983 154.335 109.716 151.339 109.61L148.159 103.89Z" fill="#FFBF9D"/>
<path d="M37.3091 107.61L27.8791 99.7697L22.4591 105.86L23.1191 108.86L34.9191 119.96C36.6679 118.961 37.9857 117.351 38.6191 115.44C39.7991 112.09 37.3091 107.61 37.3091 107.61Z" fill="#FFBF9D"/>
<path d="M27.7991 103.82C28.1983 102.538 28.2646 101.176 27.9917 99.8625C27.7187 98.5486 27.1156 97.3258 26.2391 96.3095C24.102 94.0849 21.6033 92.2388 18.8491 90.8495C17.1791 89.8495 13.8491 86.3695 13.1491 87.0295C12.7036 87.4327 12.4218 87.9855 12.3573 88.5829C12.2927 89.1803 12.45 89.7805 12.7991 90.2695C13.5591 91.7195 17.2291 93.4195 17.0991 95.2695C17.0864 95.4509 17.038 95.628 16.9567 95.7907C16.8754 95.9533 16.7627 96.0983 16.6252 96.2172C16.4876 96.3361 16.3279 96.4267 16.1553 96.4838C15.9826 96.5408 15.8004 96.5632 15.6191 96.5495C12.5762 96.4088 9.54242 96.1151 6.52908 95.6695C3.86908 95.1195 1.39908 95.3495 1.42908 96.2895C1.45908 97.2295 1.90907 97.7995 4.10907 98.2895C6.30907 98.7795 9.93907 99.0195 10.1091 99.5495C10.2791 100.08 9.44907 100.32 8.16907 100.07C6.88907 99.8195 0.769073 99.0695 0.269073 99.7595C0.148826 99.9243 0.0660401 100.113 0.0265191 100.314C-0.013002 100.514 -0.00829753 100.72 0.0402825 100.918C0.0888625 101.116 0.180153 101.301 0.307769 101.461C0.435385 101.62 0.596245 101.749 0.779083 101.84L2.15906 102.51C2.15906 102.51 1.15908 103.57 1.80908 104.3C2.45908 105.03 4.02908 104.99 4.02908 104.99L12.1491 105.71C12.1491 105.71 12.5591 106.25 12.2891 106.56C12.0191 106.87 5.72906 105.66 5.59906 106.34C5.46906 107.02 4.87906 107.29 6.72906 107.98C9.4453 108.77 12.2731 109.108 15.0991 108.98C18.1015 108.907 21.1058 108.994 24.0991 109.24L27.7991 103.82Z" fill="#FFBF9D"/>
<path d="M95.1991 57.6497C94.686 58.2889 94.1171 58.8812 93.4991 59.4196C92.4291 60.4196 90.9491 61.9397 89.3891 63.6197C89.0691 63.9797 88.7391 64.3296 88.3891 64.6696L88.1891 64.8997L87.9991 64.6597C86.7891 63.1097 85.7491 61.7297 84.9991 60.7297C84.57 60.2203 84.2009 59.6633 83.8991 59.0697C84.4081 59.4976 84.8646 59.9843 85.2591 60.5197C86.0591 61.4697 87.1591 62.7997 88.3791 64.3397H87.9891L88.9891 63.2796C90.3276 61.8314 91.743 60.4561 93.2291 59.1597C93.8196 58.5755 94.4815 58.0682 95.1991 57.6497Z" fill="#263238"/>
<path d="M51.6791 76.1296C51.8098 76.472 51.9037 76.8274 51.9591 77.1896C52.1091 77.8696 52.2891 78.8696 52.4791 80.1096C52.8791 82.5796 53.3091 86.0096 53.6591 89.8196C54.0091 93.6296 54.2691 97.0596 54.4591 99.5496C54.5391 100.71 54.6091 101.7 54.6691 102.55C54.7126 102.912 54.7126 103.278 54.6691 103.64C54.5516 103.293 54.4777 102.934 54.4491 102.57C54.3391 101.88 54.2191 100.87 54.0691 99.6296C53.7891 97.1396 53.4691 93.6996 53.0691 89.8996C52.6691 86.0996 52.3591 82.6796 52.0691 80.1996L51.7991 77.2696C51.7031 76.8976 51.6627 76.5135 51.6791 76.1296Z" fill="#263238"/>
<path d="M111.369 74.3997C111.478 74.8319 111.542 75.2742 111.559 75.7197C111.639 76.5797 111.739 77.8196 111.819 79.3596C111.989 82.4296 112.079 86.6796 112.089 91.3596V107.01C112.12 107.454 112.1 107.9 112.029 108.34C111.936 107.902 111.889 107.457 111.889 107.01C111.829 106.16 111.769 104.91 111.719 103.37C111.609 100.3 111.579 96.0497 111.569 91.3697C111.559 86.6897 111.569 82.4397 111.449 79.3697C111.449 77.9197 111.379 76.6997 111.359 75.7397C111.32 75.2937 111.323 74.845 111.369 74.3997Z" fill="#263238"/>
<path d="M43.9291 118.42C43.6921 117.553 43.515 116.671 43.3991 115.78C43.0519 113.665 42.3772 111.617 41.3991 109.71C40.3783 107.835 38.8499 106.286 36.9891 105.24C36.1843 104.855 35.3559 104.521 34.5091 104.24C34.75 104.191 34.9981 104.191 35.2391 104.24C35.9022 104.343 36.546 104.545 37.1491 104.84C39.15 105.832 40.7926 107.422 41.8491 109.39C42.8942 111.336 43.5722 113.458 43.8491 115.65C43.9967 116.566 44.0236 117.497 43.9291 118.42Z" fill="#263238"/>
<path d="M46.3791 108.11C45.1119 107.194 43.7386 106.435 42.2891 105.85C40.779 105.43 39.2252 105.189 37.6591 105.13C39.2395 104.666 40.9302 104.747 42.4591 105.36C44.0402 105.804 45.4227 106.774 46.3791 108.11Z" fill="#263238"/>
<path d="M85.0991 143.57C85.0539 143.289 85.0338 143.004 85.0391 142.72C85.0391 142.11 85.0391 141.3 84.9891 140.27C84.9391 138.1 84.8791 135.04 84.8091 131.27C84.6291 123.63 84.3791 113.16 84.1091 101.59C83.8391 90.0196 83.6891 79.5096 83.6991 71.9096C83.6991 68.1096 83.6991 65.0296 83.7891 62.9096C83.7891 61.9096 83.8491 61.0696 83.8591 60.4596C83.8691 59.8496 83.9091 59.6096 83.9191 59.6096C83.9635 59.894 83.9802 60.182 83.9691 60.4696C83.9691 61.0696 83.9691 61.8896 83.9691 62.9096C83.9691 65.0896 84.0191 68.1496 84.0491 71.9096C84.1291 79.4996 84.3491 89.9896 84.6091 101.58C84.8691 113.17 85.0991 123.66 85.1591 131.26C85.1591 135.06 85.1591 138.13 85.1591 140.26C85.1591 141.26 85.1591 142.1 85.1591 142.71C85.1607 142.997 85.1406 143.285 85.0991 143.57Z" fill="#263238"/>
<path d="M36.8491 107.27C37.4701 107.719 37.9491 108.336 38.2291 109.05C38.6037 109.785 38.873 110.569 39.0291 111.38C39.1881 112.373 39.1881 113.386 39.0291 114.38C38.9215 115.393 38.6229 116.377 38.1491 117.28C37.7416 118.013 37.1784 118.648 36.4991 119.14C35.9069 119.64 35.1542 119.91 34.3791 119.9C35.0495 119.624 35.6841 119.268 36.2691 118.84C36.8701 118.346 37.3664 117.738 37.7291 117.05C38.1429 116.187 38.4099 115.261 38.5191 114.31C38.6543 113.358 38.6543 112.392 38.5191 111.44C38.3888 110.663 38.1673 109.904 37.8591 109.18C37.5571 108.525 37.2199 107.888 36.8491 107.27Z" fill="#263238"/>
<path d="M141.059 120.17C141.059 120.17 140.819 120.17 140.429 119.98C139.882 119.74 139.368 119.43 138.899 119.06C137.288 117.831 136.184 116.053 135.797 114.064C135.41 112.075 135.766 110.013 136.799 108.27C137.096 107.749 137.459 107.268 137.879 106.84C138.179 106.54 138.379 106.4 138.399 106.43C138.419 106.46 137.789 107.14 137.129 108.43C136.24 110.118 135.954 112.059 136.318 113.931C136.681 115.804 137.673 117.497 139.129 118.73C140.229 119.74 141.099 120.08 141.059 120.17Z" fill="#263238"/>
<path d="M102.509 97.2697C102.098 97.5679 101.66 97.8258 101.199 98.0397C100.349 98.4997 99.0991 99.1396 97.5391 99.9196C94.4291 101.47 90.0791 103.51 85.1891 105.58C80.2991 107.65 75.8091 109.35 72.5291 110.51C70.8891 111.09 69.5291 111.51 68.6291 111.83C68.1569 112.011 67.6678 112.145 67.1691 112.23C67.6162 111.997 68.081 111.8 68.5591 111.64L72.3991 110.16C75.6491 108.92 80.1091 107.16 84.9891 105.1C89.8691 103.04 94.2291 101.05 97.3791 99.5897L101.109 97.8596C101.558 97.6229 102.026 97.4255 102.509 97.2697Z" fill="#263238"/>
<path d="M160.429 94.9996C160.489 95.0596 160.059 95.4796 159.499 96.2196C159.177 96.6409 158.955 97.1299 158.849 97.6496C158.729 98.2396 158.739 98.9296 158.639 99.6496C158.548 100.299 158.329 100.923 157.994 101.486C157.659 102.049 157.216 102.54 156.689 102.93C156.287 103.291 155.778 103.512 155.239 103.56C155.239 103.48 155.769 103.26 156.459 102.65C157.355 101.852 157.942 100.766 158.119 99.5796C158.219 98.8796 158.219 98.1696 158.379 97.5196C158.52 96.9382 158.806 96.4016 159.209 95.9596C159.879 95.2696 160.389 94.9596 160.429 94.9996Z" fill="#FF9A6C"/>
<path d="M13.3091 103.02C11.427 103.281 9.52111 103.324 7.62906 103.15C5.73021 103.143 3.83825 102.921 1.98907 102.49C3.88001 102.402 5.77475 102.449 7.65906 102.63C9.54888 102.636 11.4363 102.767 13.3091 103.02Z" fill="#FF9A6C"/>
<path d="M19.0891 102.59C19.0891 102.65 18.4791 102.59 17.7591 101.94C17.2954 101.535 16.9269 101.033 16.6797 100.469C16.4325 99.9059 16.3128 99.2947 16.3291 98.6796C16.3829 98.0297 16.5001 97.3866 16.6791 96.7596C16.8124 96.2778 16.8764 95.7794 16.8691 95.2796C16.8289 94.8174 16.7245 94.363 16.5591 93.9296C16.5591 93.9296 17.1191 94.2796 17.2391 95.2396C17.3012 95.7808 17.2708 96.3286 17.1491 96.8596C17.007 97.4653 16.9068 98.0801 16.8491 98.6996C16.8366 99.2521 16.9336 99.8016 17.1344 100.316C17.3352 100.831 17.6358 101.301 18.0191 101.7C18.6091 102.27 19.1191 102.51 19.0891 102.59Z" fill="#FF9A6C"/>
<path d="M161.889 104.4C163.909 104.3 165.934 104.38 167.939 104.64C169.957 104.724 171.964 104.978 173.939 105.4C171.919 105.493 169.895 105.413 167.889 105.16C165.871 105.076 163.864 104.821 161.889 104.4Z" fill="#FF9A6C"/>
<path d="M83.3391 58.5695C83.0427 59.6007 82.6579 60.6045 82.1891 61.5695L81.5591 63.0396C81.3206 63.6175 81.0502 64.1817 80.7491 64.7296C80.6416 64.9124 80.4831 65.06 80.2931 65.1541C80.103 65.2482 79.8897 65.2849 79.6791 65.2596C79.3125 65.1594 78.9716 64.9821 78.6791 64.7395L76.8791 63.5096C74.4191 61.8096 72.2191 60.2495 70.6291 59.0995C69.7485 58.5162 68.9128 57.8677 68.1291 57.1595C69.0765 57.6298 69.983 58.1784 70.8391 58.7995C72.4791 59.8695 74.7191 61.3795 77.1791 63.0795L78.9691 64.3195C79.2074 64.5151 79.4782 64.6674 79.7691 64.7695C79.8885 64.7827 80.0091 64.7603 80.1159 64.7052C80.2226 64.65 80.3107 64.5646 80.3691 64.4595C80.9491 63.3995 81.4291 62.2695 81.8691 61.4095C82.2868 60.4272 82.7782 59.4778 83.3391 58.5695Z" fill="#263238"/>
</svg>
