<svg width="132" height="349" viewBox="0 0 132 349" fill="none" xmlns="http://www.w3.org/2000/svg">
<path d="M44.5761 346.307H27.2641C20.8247 346.303 14.6501 343.99 10.0968 339.875C5.54343 335.76 2.98363 330.179 2.97968 324.359V24.6406C2.98363 18.8208 5.54343 13.2404 10.0968 9.12521C14.6501 5.01 20.8247 2.69653 27.2641 2.69296H132V0H27.2641C20.0344 0.00356756 13.102 2.60076 7.98983 7.22099C2.87768 11.8412 0.00394741 18.1066 0 24.6406V324.359C0.00394277 330.891 2.87562 337.154 7.98456 341.774C13.0935 346.394 20.0221 348.993 27.2492 349H44.5761V346.307Z" fill="#DCA651"/>
</svg>
