<svg width="132" height="206" viewBox="0 0 132 206" fill="none" xmlns="http://www.w3.org/2000/svg">
<path d="M44.5761 203.304H27.2641C20.8247 203.301 14.6501 200.985 10.0968 196.865C5.54343 192.746 2.98363 187.16 2.97968 181.334V24.6659C2.98363 18.8401 5.54343 13.254 10.0968 9.13458C14.6501 5.01515 20.8247 2.6993 27.2641 2.69572H132V0H27.2641C20.0344 0.00357123 13.102 2.60343 7.98983 7.22841C2.87768 11.8534 0.00394741 18.1252 0 24.6659V181.334C0.00394277 187.873 2.87562 194.142 7.98456 198.767C13.0935 203.391 20.0221 205.993 27.2492 206H44.5761V203.304Z" fill="#DCA651"/>
</svg>
