<svg width="151" height="333" viewBox="0 0 151 333" fill="none" xmlns="http://www.w3.org/2000/svg">
<path d="M50.9923 328.409H31.1885C23.8222 328.403 16.7589 324.46 11.5501 317.445C6.34134 310.43 3.41309 300.917 3.40858 290.996V42.0037C3.41309 32.083 6.34134 22.5704 11.5501 15.5553C16.7589 8.54033 23.8222 4.59665 31.1885 4.59057H151V0H31.1885C22.9182 0.00608147 14.9879 4.43341 9.13988 12.3093C3.29189 20.1852 0.0045156 30.8655 0 42.0037V290.996C0.00451029 302.131 3.28954 312.807 9.13385 320.683C14.9782 328.558 22.9041 332.988 31.1714 333H50.9923V328.409Z" fill="#EAF5EA"/>
</svg>
