<svg width="151" height="333" viewBox="0 0 151 333" fill="none" xmlns="http://www.w3.org/2000/svg">
<path d="M119.812 0H0V4.59057H119.812C127.178 4.59665 134.241 8.54033 139.45 15.5553C144.659 22.5704 147.587 32.083 147.591 42.0037V290.996C147.587 300.913 144.661 310.422 139.456 317.437C134.251 324.451 127.192 328.397 119.829 328.409H100.008V333H119.812C128.082 332.994 136.012 328.567 141.86 320.691C147.708 312.815 150.995 302.135 151 290.996V42.0037C150.995 30.8655 147.708 20.1852 141.86 12.3093C136.012 4.43341 128.082 0.00608147 119.812 0Z" fill="#EAF5EA"/>
</svg>
