<svg width="47" height="110" viewBox="0 0 47 110" fill="none" xmlns="http://www.w3.org/2000/svg">
<path d="M15.8718 108.484H9.70768C7.41485 108.482 5.21634 107.179 3.59507 104.862C1.9738 102.544 1.06235 99.402 1.06095 96.1249V13.8751C1.06235 10.598 1.9738 7.45567 3.59507 5.1384C5.21634 2.82113 7.41485 1.51841 9.70768 1.5164H47V0H9.70768C7.13347 0.00200889 4.6651 1.46449 2.84486 4.06614C1.02463 6.66779 0.00140552 10.1958 0 13.8751V96.1249C0.00140386 99.8029 1.0239 103.33 2.84299 105.931C4.66208 108.533 7.12909 109.996 9.70237 110H15.8718V108.484Z" fill="#A84F46"/>
</svg>
