<?xml version="1.0" encoding="UTF-8" standalone="no"?>
<svg
   xmlns:dc="http://purl.org/dc/elements/1.1/"
   xmlns:cc="http://creativecommons.org/ns#"
   xmlns:rdf="http://www.w3.org/1999/02/22-rdf-syntax-ns#"
   xmlns:svg="http://www.w3.org/2000/svg"
   xmlns="http://www.w3.org/2000/svg"
   xmlns:sodipodi="http://sodipodi.sourceforge.net/DTD/sodipodi-0.dtd"
   xmlns:inkscape="http://www.inkscape.org/namespaces/inkscape"
   inkscape:version="1.0 (4035a4fb49, 2020-05-01)"
   sodipodi:docname="pinterest.svg"
   id="svg4"
   version="1.1"
   viewBox="0 0 24 24"
   height="24"
   width="24">
  <metadata
     id="metadata10">
    <rdf:RDF>
      <cc:Work
         rdf:about="">
        <dc:format>image/svg+xml</dc:format>
        <dc:type
           rdf:resource="http://purl.org/dc/dcmitype/StillImage" />
      </cc:Work>
    </rdf:RDF>
  </metadata>
  <defs
     id="defs8" />
  <sodipodi:namedview
     inkscape:current-layer="svg4"
     inkscape:window-maximized="1"
     inkscape:window-y="-8"
     inkscape:window-x="-8"
     inkscape:cy="12"
     inkscape:cx="12"
     inkscape:zoom="22.416667"
     showgrid="false"
     id="namedview6"
     inkscape:window-height="705"
     inkscape:window-width="1366"
     inkscape:pageshadow="2"
     inkscape:pageopacity="0"
     guidetolerance="10"
     gridtolerance="10"
     objecttolerance="10"
     borderopacity="1"
     bordercolor="#666666"
     pagecolor="#ffffff" />
  <path
     style="fill:#999999;fill-opacity:1"
     id="path2"
     d="M19 0h-14c-2.761 0-5 2.239-5 5v14c0 2.761 2.239 5 5 5h14c2.762 0 5-2.239 5-5v-14c0-2.761-2.238-5-5-5zm-7 20c-.825 0-1.62-.125-2.369-.357.326-.531.813-1.402.994-2.098l.499-1.901c.261.498 1.023.918 1.833.918 2.414 0 4.152-2.219 4.152-4.976 0-2.643-2.157-4.62-4.933-4.62-3.452 0-5.286 2.317-5.286 4.841 0 1.174.625 2.634 1.624 3.1.151.07.232.039.268-.107l.222-.907c.019-.081.01-.15-.056-.23-.331-.4-.595-1.138-.595-1.825 0-1.765 1.336-3.472 3.612-3.472 1.965 0 3.341 1.339 3.341 3.255 0 2.164-1.093 3.663-2.515 3.663-.786 0-1.374-.649-1.185-1.446.226-.951.663-1.977.663-2.664 0-.614-.33-1.127-1.012-1.127-.803 0-1.448.831-1.448 1.943 0 .709.239 1.188.239 1.188s-.793 3.353-.938 3.977c-.161.691-.098 1.662-.028 2.294-2.974-1.165-5.082-4.06-5.082-7.449 0-4.418 3.582-8 8-8s8 3.582 8 8-3.582 8-8 8z" />
</svg>
