<?xml version="1.0" encoding="UTF-8" standalone="no"?>
<svg
   xmlns:dc="http://purl.org/dc/elements/1.1/"
   xmlns:cc="http://creativecommons.org/ns#"
   xmlns:rdf="http://www.w3.org/1999/02/22-rdf-syntax-ns#"
   xmlns:svg="http://www.w3.org/2000/svg"
   xmlns="http://www.w3.org/2000/svg"
   xmlns:sodipodi="http://sodipodi.sourceforge.net/DTD/sodipodi-0.dtd"
   xmlns:inkscape="http://www.inkscape.org/namespaces/inkscape"
   inkscape:version="1.0 (4035a4fb49, 2020-05-01)"
   sodipodi:docname="tiktok.svg"
   id="svg11"
   version="1.1"
   fill="none"
   viewBox="0 0 35 35"
   height="35"
   width="35">
  <metadata
     id="metadata15">
    <rdf:RDF>
      <cc:Work
         rdf:about="">
        <dc:format>image/svg+xml</dc:format>
        <dc:type
           rdf:resource="http://purl.org/dc/dcmitype/StillImage" />
      </cc:Work>
    </rdf:RDF>
  </metadata>
  <sodipodi:namedview
     inkscape:current-layer="svg11"
     inkscape:window-maximized="1"
     inkscape:window-y="-8"
     inkscape:window-x="-8"
     inkscape:cy="17.5"
     inkscape:cx="17.5"
     inkscape:zoom="15.371429"
     showgrid="false"
     id="namedview13"
     inkscape:window-height="705"
     inkscape:window-width="1366"
     inkscape:pageshadow="2"
     inkscape:pageopacity="0"
     guidetolerance="10"
     gridtolerance="10"
     objecttolerance="10"
     borderopacity="1"
     bordercolor="#666666"
     pagecolor="#ffffff" />
  <g
     style="fill:#999999;fill-opacity:1"
     id="g4"
     clip-path="url(#clip0)">
    <path
       style="fill:#999999;fill-opacity:1"
       id="path2"
       fill="#807070"
       d="M6.94177 0.0196686C3.07578 0.0196686 -0.0582275 3.15368 -0.0582275 7.01967V28.1655C-0.0582275 32.027 3.06871 35.1591 6.93017 35.1655L28.0582 35.2005C31.9242 35.2069 35.0634 32.0781 35.0698 28.2121L35.1049 7.03126C35.1113 3.16075 31.9754 0.0196686 28.1049 0.0196686H6.94177ZM26.2669 13.3951C26.2669 13.3951 26.2669 13.3951 26.2669 13.3952V14.5784C26.2669 15.2317 25.7348 15.7705 25.0879 15.6785C24.3866 15.5789 23.7028 15.3893 23.0446 15.1116V15.1116C22.2471 14.7748 21.2174 15.3031 21.2194 16.1688L21.2313 21.3274C21.2243 22.9674 20.5755 24.5083 19.4012 25.6689C18.4456 26.6136 17.2346 27.2144 15.9221 27.4089C15.6136 27.4545 15.2998 27.478 14.9824 27.478C13.5774 27.478 12.2434 27.0228 11.1523 26.183C10.9469 26.0249 10.7506 25.8535 10.5636 25.6689C9.29093 24.4111 8.63468 22.7062 8.74515 20.9128C8.82951 19.5476 9.37604 18.2456 10.2872 17.2252C11.4927 15.8748 13.1792 15.1252 14.9824 15.1252C15.0052 15.1252 15.028 15.1253 15.0507 15.1256C15.5533 15.131 15.9221 15.567 15.9221 16.0696V16.0696V17.5574C15.9221 18.0234 15.4581 18.3538 14.9922 18.3538V18.3538C13.3447 18.3538 12.0119 19.6979 12.0365 21.3465C12.0521 22.4013 12.6284 23.3234 13.4782 23.8317C13.8776 24.0706 14.3371 24.2185 14.8274 24.2455C15.2116 24.2665 15.5805 24.2131 15.9221 24.1003C17.0991 23.7114 17.9482 22.6059 17.9482 21.302L17.9521 16.4248V9.15819C17.9521 8.25392 18.6852 7.52087 19.5894 7.52087H20.2611C20.787 7.52087 21.2045 7.94828 21.3074 8.46402V8.46402C21.5534 9.69962 22.2498 10.7716 23.2192 11.5025C24.0644 12.14 25.1168 12.5179 26.2576 12.5179V12.5179C26.2609 12.5179 26.267 12.5234 26.267 12.5267V13.395C26.267 13.3951 26.267 13.3951 26.2669 13.3951V13.3951Z" />
  </g>
  <defs
     id="defs9">
    <clipPath
       id="clip0">
      <rect
         id="rect6"
         fill="white"
         height="35"
         width="35" />
    </clipPath>
  </defs>
</svg>
