<?xml version="1.0" encoding="UTF-8" standalone="no"?>
<svg
   xmlns:dc="http://purl.org/dc/elements/1.1/"
   xmlns:cc="http://creativecommons.org/ns#"
   xmlns:rdf="http://www.w3.org/1999/02/22-rdf-syntax-ns#"
   xmlns:svg="http://www.w3.org/2000/svg"
   xmlns="http://www.w3.org/2000/svg"
   xmlns:sodipodi="http://sodipodi.sourceforge.net/DTD/sodipodi-0.dtd"
   xmlns:inkscape="http://www.inkscape.org/namespaces/inkscape"
   inkscape:version="1.0 (4035a4fb49, 2020-05-01)"
   sodipodi:docname="vk.svg"
   id="svg4"
   version="1.1"
   viewBox="0 0 24 24"
   height="24"
   width="24">
  <metadata
     id="metadata10">
    <rdf:RDF>
      <cc:Work
         rdf:about="">
        <dc:format>image/svg+xml</dc:format>
        <dc:type
           rdf:resource="http://purl.org/dc/dcmitype/StillImage" />
      </cc:Work>
    </rdf:RDF>
  </metadata>
  <defs
     id="defs8" />
  <sodipodi:namedview
     inkscape:current-layer="svg4"
     inkscape:window-maximized="1"
     inkscape:window-y="-8"
     inkscape:window-x="-8"
     inkscape:cy="15.455373"
     inkscape:cx="16.00971"
     inkscape:zoom="15.850977"
     showgrid="false"
     id="namedview6"
     inkscape:window-height="705"
     inkscape:window-width="1366"
     inkscape:pageshadow="2"
     inkscape:pageopacity="0"
     guidetolerance="10"
     gridtolerance="10"
     objecttolerance="10"
     borderopacity="1"
     bordercolor="#666666"
     pagecolor="#ffffff" />
  <path
     style="fill:#999999;fill-opacity:1"
     id="path2"
     d="M19 0h-14c-2.761 0-5 2.239-5 5v14c0 2.761 2.239 5 5 5h14c2.762 0 5-2.239 5-5v-14c0-2.761-2.238-5-5-5zm.25 16.996h-2.134c-1.205 0-1.409-.687-2.401-1.679-.897-.897-1.395-.209-1.374 1.068.006.339-.161.611-.566.611-1.264 0-3.08.178-4.918-1.806-1.883-2.033-3.857-6.111-3.857-6.513 0-.237.196-.344.524-.344h2.17c.574 0 .623.284.783.649.667 1.521 2.265 4.574 2.69 2.87.244-.978.344-3.245-.703-3.44-.594-.11.452-.746 1.968-.746.377 0 .786.041 1.205.137.769.179.771.523.761 1.026-.039 1.903-.269 3.184.233 3.507.479.31 1.739-1.717 2.403-3.281.183-.433.219-.722.734-.722h2.654c1.39 0-.182 1.997-1.383 3.557-.968 1.255-.916 1.28.209 2.324.803.744 1.75 1.76 1.75 2.336.002.272-.21.446-.748.446z" />
</svg>
