<svg width="60" height="60" viewBox="0 0 60 60" fill="none" xmlns="http://www.w3.org/2000/svg">
<g clip-path="url(#clip0_73_124)">
<path d="M60 35V25C55.9525 25 52.735 25.6675 50.7375 21.31C48.995 17.1525 52.2475 14.82 54.7475 12.32L47.675 5.25C45.0925 7.8325 42.905 11.0175 38.51 9.1875C34.325 7.4725 35 3.3525 35 0H25C25 3.28 25.695 7.4625 21.49 9.1875C17.0875 11.02 14.875 7.805 12.3225 5.2525L5.25 12.3225C7.8325 14.905 11.02 17.095 9.1875 21.49C8.3175 23.6125 6.2475 25 3.9525 25H0V35C3.6775 35 7.4325 34.2975 9.26 38.6875C11.005 42.84 7.75 45.1775 5.25 47.6775L12.3225 54.75C14.8225 52.25 17.18 49.045 21.49 50.8125C25.6725 52.53 25 56.6425 25 60H35C35 56.89 34.31 52.5825 38.6875 50.74C42.8 49.01 45.1525 52.2275 47.6775 54.75L54.7475 47.6775C52.2475 45.1775 48.995 42.845 50.7375 38.69L50.8125 38.51C52.53 34.3275 56.6425 35 60 35ZM30 40C24.4775 40 20 35.5225 20 30C20 24.4775 24.4775 20 30 20C35.5225 20 40 24.4775 40 30C40 35.5225 35.5225 40 30 40Z" fill="#A84F46"/>
</g>
<defs>
<clipPath id="clip0_73_124">
<rect width="60" height="60" fill="white"/>
</clipPath>
</defs>
</svg>
