<svg width="12" height="12" viewBox="0 0 12 12" fill="none" xmlns="http://www.w3.org/2000/svg">
<g clip-path="url(#clip0_44_193)">
<path d="M12 7V5C11.1905 5 10.547 5.1335 10.1475 4.262C9.799 3.4305 10.4495 2.964 10.9495 2.464L9.535 1.05C9.0185 1.5665 8.581 2.2035 7.702 1.8375C6.865 1.4945 7 0.6705 7 0H5C5 0.656 5.139 1.4925 4.298 1.8375C3.4175 2.204 2.975 1.561 2.4645 1.0505L1.05 2.4645C1.5665 2.981 2.204 3.419 1.8375 4.298C1.6635 4.7225 1.2495 5 0.7905 5H0V7C0.7355 7 1.4865 6.8595 1.852 7.7375C2.201 8.568 1.55 9.0355 1.05 9.5355L2.4645 10.95C2.9645 10.45 3.436 9.809 4.298 10.1625C5.1345 10.506 5 11.3285 5 12H7C7 11.378 6.862 10.5165 7.7375 10.148C8.56 9.802 9.0305 10.4455 9.5355 10.95L10.9495 9.5355C10.4495 9.0355 9.799 8.569 10.1475 7.738L10.1625 7.702C10.506 6.8655 11.3285 7 12 7ZM6 8C4.8955 8 4 7.1045 4 6C4 4.8955 4.8955 4 6 4C7.1045 4 8 4.8955 8 6C8 7.1045 7.1045 8 6 8Z" fill="#172629"/>
</g>
<defs>
<clipPath id="clip0_44_193">
<rect width="12" height="12" fill="white"/>
</clipPath>
</defs>
</svg>
