<svg width="74" height="140" viewBox="0 0 74 140" fill="none" xmlns="http://www.w3.org/2000/svg">
<path d="M24.9896 138.07H15.2844C11.6744 138.067 8.21296 136.409 5.66032 133.46C3.10768 130.511 1.67264 126.512 1.67043 122.341V17.6592C1.67264 13.4884 3.10768 9.48904 5.66032 6.53978C8.21296 3.59053 11.6744 1.93253 15.2844 1.92997H74V0H15.2844C11.2314 0.00255678 7.34505 1.8639 4.47915 5.17509C1.61324 8.48628 0.00221294 12.9765 0 17.6592V122.341C0.00221034 127.022 1.61209 131.511 4.47619 134.822C7.34029 138.132 11.2245 139.995 15.2761 140H24.9896V138.07Z" fill="#DCA651"/>
</svg>
