<svg width="64" height="103" viewBox="0 0 64 103" fill="none" xmlns="http://www.w3.org/2000/svg">
<g clip-path="url(#clip0_69_24)">
<path fill-rule="evenodd" clip-rule="evenodd" d="M2.34696 47.4645C0.780733 42.8117 0.240177 37.8802 0.76163 33.0027C1.2754 28.1248 2.84023 23.4126 5.35038 19.1848C14.3409 4.04052 33.671 -2.4834 51.8389 2.18765L57.1171 10.0671L48.6683 16.6591C31.3075 12.066 13.3857 18.6094 5.91165 31.1597C3.01536 36.0859 1.76775 41.7934 2.34696 47.4645Z" fill="#F35C22"/>
<path d="M7.54636 83.9545L20.1015 76.6798C22.7603 83.5059 27.9792 87.9528 37.2159 87.9528C46.0783 87.9528 49.1308 84.2666 49.1308 80.1516C49.1308 74.671 44.1287 72.5648 33.0701 69.4247C21.6966 66.1579 10.6285 61.4184 10.6285 47.4151C10.6285 33.4118 22.3268 25.5129 35.0888 25.5129C47.3189 25.5129 56.6836 31.7247 61.6762 42.0908L49.3474 49.1508C46.6887 43.5632 42.6416 39.6724 35.0888 39.6724C28.9246 39.6724 25.3107 42.8319 25.3107 47.0447C25.3107 51.5693 28.176 53.9977 39.4512 57.3619C51.2679 61.048 63.813 64.9487 63.813 80.0051C63.813 93.8038 52.6364 102.229 36.7922 102.229C21.5883 102.171 11.5934 94.9252 7.54636 83.9545Z" fill="#2B2D33"/>
</g>
<defs>
<clipPath id="clip0_69_24">
<rect width="64" height="103" fill="white"/>
</clipPath>
</defs>
</svg>
