<svg width="24" height="111" viewBox="0 0 24 111" fill="none" xmlns="http://www.w3.org/2000/svg">
<g clip-path="url(#clip0_71_43)">
<path d="M21.2757 38.323H14.0108H2.91891C1.62161 38.323 0.32431 39.1291 0.32431 40.8034V47.7487C0.32431 48.9889 1.62161 50.2292 2.91891 50.2292H11.4811V91.0945C11.4811 91.0945 11.4811 91.0945 11.4811 91.5286C11.4811 95.6213 8.04323 98.9079 3.76215 98.9079H2.91891C1.62161 98.9079 0.32431 100.148 0.32431 101.388V108.334C0.32431 109.574 1.62161 110.814 2.91891 110.814H3.37296C14.4649 110.814 23.8703 102.257 23.8703 91.5906C23.8703 91.5906 23.8703 91.5906 23.8703 91.1565V40.8655C23.8703 39.1291 22.573 38.323 21.2757 38.323Z" fill="#393646"/>
<path d="M1.16757 0.310059C-0.12973 27.2849 22.573 31.0056 22.573 31.0056C21.2757 1.55028 1.16757 0.310059 1.16757 0.310059Z" fill="#15BE60"/>
</g>
<defs>
<clipPath id="clip0_71_43">
<rect width="24" height="111" fill="white"/>
</clipPath>
</defs>
</svg>
