<svg width="50" height="50" viewBox="0 0 50 50" fill="none" xmlns="http://www.w3.org/2000/svg">
<g clip-path="url(#clip0_9_1899)">
<path fill-rule="evenodd" clip-rule="evenodd" d="M14 42.6917C17.1917 44.6833 20.9625 45.8333 25 45.8333C29.0292 45.8333 32.7937 44.6875 35.9833 42.7021L38.5667 45.9979C34.6583 48.5292 30 50 25 50C19.9937 50 15.3292 48.525 11.4167 45.9875L14 42.6917ZM50 39.5833H37.5C37.5 37.2812 39.3646 35.4167 41.6667 35.4167H45.8333C46.9375 35.4167 47.9979 35.8563 48.7792 36.6375C49.5604 37.4188 50 38.4771 50 39.5833ZM12.5 39.5833H0C0 37.2812 1.86458 35.4167 4.16667 35.4167H8.33333C9.4375 35.4167 10.4979 35.8563 11.2792 36.6375C12.0604 37.4188 12.5 38.4771 12.5 39.5833ZM25 16.6667C18.6729 16.6667 13.5417 21.7958 13.5417 28.125C13.5417 34.4521 18.6729 39.5833 25 39.5833C31.3271 39.5833 36.4583 34.4521 36.4583 28.125C36.4583 21.7958 31.3271 16.6667 25 16.6667ZM25.6375 20.4854H24.3625V21.8437C21.8875 22.1854 20.5646 23.7375 20.5646 25.4729C20.5646 28.5771 24.1896 29.05 25.375 29.6021C26.9917 30.325 26.6917 31.8292 25.2292 32.1625C23.9604 32.4479 22.3396 31.9479 21.1229 31.475L20.5437 33.5688C21.6812 34.1562 23.0458 34.4708 24.3625 34.4937V35.7646H25.6375V34.4229C27.7458 34.1271 29.4583 32.9646 29.4562 30.7771C29.4562 28.0458 26.6146 27.2854 24.4354 26.2625C23.1125 25.575 23.2792 23.9333 25.175 23.8229C26.2271 23.7583 27.3083 24.0708 28.2854 24.4146L28.7458 22.3167C27.5917 21.9667 26.5583 21.8062 25.6375 21.7812V20.4854ZM43.75 25C46.3375 25 48.4375 27.1 48.4375 29.6875C48.4375 32.275 46.3375 34.375 43.75 34.375C41.1625 34.375 39.0625 32.275 39.0625 29.6875C39.0625 27.1 41.1625 25 43.75 25ZM6.25 25C8.8375 25 10.9375 27.1 10.9375 29.6875C10.9375 32.275 8.8375 34.375 6.25 34.375C3.6625 34.375 1.5625 32.275 1.5625 29.6875C1.5625 27.1 3.6625 25 6.25 25ZM16.6667 1.425V5.90208C10.5458 8.57917 5.95625 14.1146 4.5875 20.8146L0.35 20.8083C1.875 11.7917 8.23542 4.40833 16.6667 1.425ZM33.3333 1.425C41.7646 4.40833 48.125 11.7917 49.65 20.8083L45.4125 20.8146C44.0438 14.1146 39.4542 8.57917 33.3333 5.90208V1.425ZM31.25 14.5833H18.75C18.75 12.2812 20.6146 10.4167 22.9167 10.4167H27.0833C28.1875 10.4167 29.2479 10.8562 30.0292 11.6375C30.8104 12.4187 31.25 13.4771 31.25 14.5833ZM25 0C27.5875 0 29.6875 2.1 29.6875 4.6875C29.6875 7.275 27.5875 9.375 25 9.375C22.4125 9.375 20.3125 7.275 20.3125 4.6875C20.3125 2.1 22.4125 0 25 0Z" fill="#A84F46"/>
</g>
<defs>
<clipPath id="clip0_9_1899">
<rect width="50" height="50" fill="white"/>
</clipPath>
</defs>
</svg>
