<svg width="111" height="80" viewBox="0 0 111 80" fill="none" xmlns="http://www.w3.org/2000/svg">
<g clip-path="url(#clip0_68_21)">
<path d="M111 24.2657C110.959 19.6348 102.402 17.5331 80.251 17.5331C28.275 17.5331 15.089 15.3131 0.97702 0.464111C6.91302 9.38011 10.161 26.1031 65.098 25.2711C122.416 24.3881 87.449 40.0501 77.275 57.7451C95.6217 41.3694 110.945 30.5755 111 24.333V24.2657ZM37.963 71.8191C37.963 76.1501 34.448 79.6661 30.115 79.6661C25.766 79.6661 22.25 76.1501 22.25 71.8191C22.25 67.4701 25.766 63.9531 30.115 63.9531C34.448 63.9531 37.963 67.4701 37.963 71.8191ZM73.756 71.8191C73.756 76.1501 70.241 79.6661 65.908 79.6661C61.563 79.6661 58.044 76.1501 58.044 71.8191C58.044 67.4701 61.563 63.9531 65.908 63.9531C70.241 63.9531 73.756 67.4701 73.756 71.8191Z" fill="url(#paint0_linear_68_21)"/>
</g>
<defs>
<linearGradient id="paint0_linear_68_21" x1="-145" y1="79.2014" x2="-145" y2="0.464111" gradientUnits="userSpaceOnUse">
<stop stop-color="#04B6F0"/>
<stop offset="1" stop-color="#3ECAF0"/>
</linearGradient>
<clipPath id="clip0_68_21">
<rect width="111" height="80" fill="white"/>
</clipPath>
</defs>
</svg>
