<svg width="91" height="91" viewBox="0 0 91 91" fill="none" xmlns="http://www.w3.org/2000/svg">
<g clip-path="url(#clip0_72_73)">
<path fill-rule="evenodd" clip-rule="evenodd" d="M44.0971 57.6864H46.4669L46.482 45.5645H44.1085L44.0971 57.6864ZM39.695 50.505H42.0685L42.1065 43.9151H39.7291L39.695 50.505ZM48.6433 50.4557H51.0207L50.9827 43.9151H48.6092L48.6433 50.4557ZM41.3785 15.8188C41.3785 17.9801 43.1264 19.728 45.2877 19.728C47.4489 19.728 49.1969 17.9801 49.2007 15.8188C49.1969 13.6614 47.4489 11.9134 45.2877 11.9096C43.1264 11.9096 41.3785 13.6614 41.3785 15.8188ZM47.2404 25.59C47.2404 24.5093 46.3683 23.6373 45.2877 23.6373C44.207 23.6373 43.3349 24.5093 43.3349 25.59C43.3349 26.6706 44.207 27.5427 45.2877 27.5465C46.3683 27.5427 47.2404 26.6706 47.2404 25.59ZM28.8129 45.5645C27.554 34.4587 33.3856 30.049 35.7782 27.7019L35.7706 27.6678C35.2815 24.4449 33.1467 10.5977 45.2611 0C57.5802 10.6432 55.5858 24.3273 55.0967 27.7019C57.4892 30.049 63.3398 34.4587 62.081 45.5645C60.1851 41.3443 56.5527 38.6181 52.3705 37.7005C52.0368 38.5195 51.2444 40.3813 50.8804 41.1396L40.2447 41.1737C39.8656 40.404 38.9442 38.493 38.5916 37.6475C34.7051 38.3717 31.3419 40.2334 28.8129 45.5645ZM47.32 68.0832V91L71.0786 78.3245V68.9818L55.7527 77.005L47.32 68.0832ZM19.7925 68.8036V78.3245L43.5283 90.9886V68.2462L35.2966 77.2893L19.7925 68.8036ZM25.9236 49.8073C23.6221 44.9502 24.46 38.5726 25.8061 34.6369L11.2461 42.1595L19.7925 50.2017L11.2461 59.6126L34.5004 72.5308L43.5283 62.6156V62.4601L22.8637 51.4946L25.9236 49.8073ZM71.0786 50.2017L79.625 60.0259L56.5375 72.3109L47.32 62.5663V62.5511L68.0111 51.4946L64.8792 49.7694C67.3855 44.9805 66.4376 38.6333 64.9588 34.6672L79.625 42.3188L70.9914 50.1524L71.0786 50.2017Z" fill="#DCA651"/>
</g>
<defs>
<clipPath id="clip0_72_73">
<rect width="91" height="91" fill="white"/>
</clipPath>
</defs>
</svg>
