<svg width="50" height="50" viewBox="0 0 50 50" fill="none" xmlns="http://www.w3.org/2000/svg">
<g clip-path="url(#clip0_39_20)">
<path fill-rule="evenodd" clip-rule="evenodd" d="M32.3271 49.9998H8.06459C9.15209 43.6768 9.93334 37.1623 7.18543 33.2748C3.71459 28.3643 2.12293 23.3956 2.08334 18.9352C1.98959 8.12268 10.8979 -0.0523241 23.3396 -0.00024081C38.4146 0.0622592 42.7729 12.8248 43.7 16.5477C44.4083 19.3998 41.8292 20.4414 43.3542 22.1768C44.5958 23.5914 45.5104 25.0185 47.0813 26.7123C47.6896 27.3685 47.925 28.0581 47.9167 28.6768C47.9042 29.581 47.3104 30.3393 46.3583 30.6727C45.4646 30.9852 44.775 31.3393 43.8271 31.5956C43.525 34.0123 42.7417 36.9539 42.1646 39.006C40.6292 44.4643 36.1313 41.2123 34.0792 44.4373C33.1917 45.8289 32.7458 48.0581 32.3271 49.9998ZM24.3188 10.4164H21.5146C21.0083 11.8352 20.8646 12.7539 19.7604 13.2102C18.6563 13.6685 17.9104 13.1248 16.5417 12.4748L14.5583 14.4581C15.2063 15.8206 15.7521 16.5727 15.2938 17.6768C14.8375 18.781 13.9188 18.9248 12.5 19.4289V22.2352C13.9167 22.7393 14.8375 22.8852 15.2938 23.9893C15.7563 25.1018 15.1958 25.8685 14.5583 27.206L16.5417 29.1893C17.9 28.5456 18.6563 27.9956 19.7604 28.4539V28.456C20.8625 28.9123 21.0083 29.8248 21.5146 31.2498H24.3188C24.825 29.8289 24.9708 28.9143 26.0792 28.4518H26.0813C27.1771 27.9956 27.9208 28.5393 29.2917 29.1893L31.275 27.206C30.6292 25.8498 30.0813 25.0935 30.5375 23.9893C30.9938 22.8873 31.9167 22.7393 33.3333 22.2352V19.4289C31.9 18.9206 30.9938 18.7768 30.5396 17.6768C30.0813 16.5727 30.625 15.8227 31.275 14.4581L29.2917 12.4748C27.9354 13.1206 27.1792 13.6685 26.0729 13.2102C24.9708 12.7539 24.8271 11.8414 24.3188 10.4164ZM22.9167 24.306C21 24.306 19.4438 22.7498 19.4438 20.8331C19.4438 18.9143 21 17.3602 22.9167 17.3602C24.8333 17.3602 26.3896 18.9143 26.3896 20.8331C26.3896 22.7498 24.8333 24.306 22.9167 24.306Z" fill="#DCA651"/>
</g>
<defs>
<clipPath id="clip0_39_20">
<rect width="50" height="50" fill="white"/>
</clipPath>
</defs>
</svg>
