<svg width="50" height="50" viewBox="0 0 50 50" fill="none" xmlns="http://www.w3.org/2000/svg">
<g clip-path="url(#clip0_35_50)">
<path d="M26.2729 28.4646C26.8187 28.075 27.4375 27.8937 28.0417 27.8937C29.325 27.8937 30.5625 28.7104 30.9687 30.0687C30.45 29.6708 29.8417 29.475 29.2271 29.475C28.6 29.475 27.9708 29.6771 27.4229 30.0687C26.3354 30.8479 25.8542 32.1708 26.275 33.425C24.5792 32.2146 24.5687 29.6854 26.2729 28.4646ZM30.5917 44.7792C31.9479 45.2333 36.1437 46.3875 41.0062 50L50 43.5667C47.6604 40.2979 48.3 38.0062 45.975 34.7562C44.9354 33.3083 44.0187 32.4229 42.3187 32.7208L41.8312 32.8104L42.6521 33.9521C43.15 34.65 42.0958 35.375 41.6125 34.6958L40.8812 33.675C40.6229 33.3125 40.1729 33.1417 39.7396 33.2375L38.0812 33.6104L39.0771 34.9979C39.5771 35.6979 38.5208 36.4167 38.0375 35.7396L37.1792 34.5396C36.9104 34.1646 36.4437 33.9979 36.0083 34.1063L34.3229 34.5292L35.3729 35.9979C35.875 36.6979 34.8167 37.4187 34.3333 36.7417L30.8792 31.8792C30.3187 31.0958 29.2271 30.9146 28.4417 31.475C27.6583 32.0375 27.475 33.1271 28.0396 33.9125L33.5229 41.6208C31.8312 40.9979 29.2333 40.7333 28.7542 42.4771C28.4646 43.5208 29.3 44.3479 30.5917 44.7792ZM29.1667 6.25H6.25V16.6667H29.1667V6.25ZM14.5833 25H20.8333V20.8333H14.5833V25ZM12.5 20.8333H6.25V25H12.5V20.8333ZM12.5 27.0833H6.25V31.25H12.5V27.0833ZM6.25 37.5H12.5V33.3333H6.25V37.5ZM20.8333 27.0833H14.5833V31.25H20.8333V27.0833ZM25.6375 39.5833H4.16667V4.16667H31.25V24.4792C34.3479 26.0062 35.4167 29.7833 35.4167 29.7833V0H0V43.75H24.6271C24.3604 42.0792 24.7292 40.8771 25.6375 39.5833ZM22.9167 20.8333V25H23.9729C25.45 23.9875 27.2417 23.5187 29.1667 23.8167V20.8333H22.9167ZM20.8333 33.3333H14.5833V37.5H20.8333V33.3333Z" fill="#DCA651"/>
</g>
<defs>
<clipPath id="clip0_35_50">
<rect width="50" height="50" fill="white"/>
</clipPath>
</defs>
</svg>
