<svg width="50" height="50" viewBox="0 0 50 50" fill="none" xmlns="http://www.w3.org/2000/svg">
<g clip-path="url(#clip0_39_24)">
<path fill-rule="evenodd" clip-rule="evenodd" d="M22.6354 35.6189C17.8667 37.296 11.8604 34.5043 10.6458 29.8773C4.65 29.8668 0.0500033 26.9439 3.30794e-06 21.7814C-0.0791634 13.3835 9.40833 2.09809 25 2.08351C40.5938 2.06893 49.9917 13.1502 50 23.6023C50.0083 34.0543 41.2875 37.971 34.1521 36.6502C33.3938 39.7898 33.7958 44.1043 34.6354 46.5398L30.2417 47.9168C28.5479 42.1085 25.6583 37.5689 22.6354 35.6189ZM21.1938 16.2939C19.7542 15.6398 18.75 14.1856 18.75 12.5002C18.75 10.2002 20.6167 8.33351 22.9167 8.33351C25.2167 8.33351 27.0833 10.2002 27.0833 12.5002C27.0833 13.0418 26.9792 13.5606 26.7917 14.0377C29.3208 15.9356 31.8021 17.9023 34.2896 19.8585C35.175 19.1648 36.2896 18.7502 37.5 18.7502C40.375 18.7502 42.7083 21.0835 42.7083 23.9585C42.7083 26.8335 40.375 29.1668 37.5 29.1668C35.0604 29.1668 33.0104 27.4856 32.4458 25.2189C29.9438 25.4231 27.4375 25.5793 24.9333 25.7481C24.5813 27.6918 22.8771 29.1668 20.8333 29.1668C18.5333 29.1668 16.6667 27.3002 16.6667 25.0002C16.6667 22.8481 18.3021 21.0752 20.3958 20.8564C20.6479 19.3335 20.9208 17.8148 21.1938 16.2939ZM25.4854 15.7814C24.8667 16.2648 24.1083 16.5793 23.2813 16.6502L22.525 21.1918C23.575 21.6585 24.3958 22.5481 24.775 23.6439L32.3729 23.0418C32.4708 22.4856 32.6583 21.9606 32.9188 21.4814L25.4854 15.7814Z" fill="#DCA651"/>
</g>
<defs>
<clipPath id="clip0_39_24">
<rect width="50" height="50" fill="white"/>
</clipPath>
</defs>
</svg>
