<svg width="50" height="50" viewBox="0 0 50 50" fill="none" xmlns="http://www.w3.org/2000/svg">
<g clip-path="url(#clip0_9_1894)">
<path d="M35.4167 26.3438V21.575C32.9792 20.7062 31.4437 20.4646 30.6667 18.5938C29.8896 16.7188 30.8125 15.4438 31.9167 13.125L28.5458 9.75208C26.2437 10.8458 24.9562 11.7812 23.075 11.0021C21.2 10.2229 20.9562 8.675 20.0938 6.25H15.3229C14.4646 8.6625 14.2187 10.2229 12.3417 11H12.3396C10.4646 11.7792 9.19375 10.8542 6.87083 9.75L3.50208 13.1229C4.6 15.4354 5.52917 16.7146 4.75208 18.5917C3.97083 20.4687 2.4125 20.7146 0 21.5729V26.3417C2.40625 27.2 3.97292 27.4479 4.75 29.3229C5.53333 31.2146 4.58125 32.5188 3.5 34.7917L6.87083 38.1646C9.17708 37.0708 10.4625 36.1354 12.3396 36.9146H12.3417C14.2167 37.6917 14.4625 39.2438 15.3229 41.6646H20.0917C20.95 39.2521 21.1958 37.6958 23.0854 36.9104H23.0875C24.95 36.1354 26.2146 37.0583 28.5437 38.1646L31.9146 34.7917C30.8208 32.4854 29.8854 31.2021 30.6625 29.3229C31.4417 27.45 33.0083 27.2 35.4167 26.3438ZM17.7083 29.8625C14.45 29.8625 11.8062 27.2188 11.8062 23.9583C11.8062 20.6979 14.45 18.0542 17.7083 18.0542C20.9667 18.0542 23.6104 20.6979 23.6104 23.9583C23.6104 27.2188 20.9667 29.8625 17.7083 29.8625ZM50 38.6229V36.3792C48.8542 35.9708 48.1312 35.8562 47.7646 34.9771C47.3979 34.0937 47.8333 33.4958 48.3521 32.4021L46.7646 30.8146C45.6812 31.3312 45.075 31.7687 44.1917 31.4042C43.3083 31.0396 43.1937 30.3104 42.7875 29.1688H40.5458C40.1417 30.3042 40.025 31.0375 39.1417 31.4042C38.2583 31.7708 37.6604 31.3354 36.5687 30.8146L34.9813 32.4021C35.4979 33.4917 35.9354 34.0937 35.5687 34.9771C35.2021 35.8604 34.4688 35.975 33.3333 36.3792V38.6229C34.4667 39.025 35.2021 39.1437 35.5687 40.025C35.9375 40.9146 35.4896 41.5292 34.9813 42.6L36.5687 44.1875C37.6542 43.6708 38.2604 43.2333 39.1417 43.5979C40.025 43.9625 40.1396 44.6937 40.5458 45.8333H42.7875C43.1917 44.6979 43.3083 43.9646 44.1958 43.5958H44.1979C45.075 43.2313 45.6688 43.6667 46.7646 44.1875L48.3521 42.6C47.8375 41.5146 47.3979 40.9083 47.7646 40.0271C48.1312 39.1458 48.8667 39.025 50 38.6229ZM41.6667 40.2771C40.1333 40.2771 38.8896 39.0333 38.8896 37.5C38.8896 35.9667 40.1333 34.7229 41.6667 34.7229C43.2 34.7229 44.4437 35.9667 44.4437 37.5C44.4437 39.0333 43.2 40.2771 41.6667 40.2771Z" fill="#A84F46"/>
</g>
<defs>
<clipPath id="clip0_9_1894">
<rect width="50" height="50" fill="white"/>
</clipPath>
</defs>
</svg>
