<svg width="50" height="50" viewBox="0 0 50 50" fill="none" xmlns="http://www.w3.org/2000/svg">
<path d="M27.0833 35.4167H35.4167V37.5H27.0833V35.4167ZM27.0833 33.3333H35.4167V31.25H27.0833V33.3333ZM45.8333 4.16667V50H4.16667V4.16667H10.4167C12.9792 4.16667 14.9604 1.90833 16.6667 0H33.3333C35.0417 1.90833 37.0229 4.16667 39.5833 4.16667H45.8333ZM22.9167 6.25C22.9167 7.4 23.85 8.33333 25 8.33333C26.1521 8.33333 27.0833 7.4 27.0833 6.25C27.0833 5.1 26.1521 4.16667 25 4.16667C23.85 4.16667 22.9167 5.1 22.9167 6.25ZM41.6667 8.33333H33.3333L29.1667 12.5H21.0479L16.6667 8.33333H8.33333V45.8333H41.6667V8.33333ZM27.0833 27.0833H35.4167V25H27.0833V27.0833ZM27.0833 22.9167H35.4167V20.8333H27.0833V22.9167ZM13.5417 23.0771L14.3458 22.3375C15.2813 22.7917 15.8771 23.1354 16.9313 23.8896C18.9146 21.6375 20.2229 20.5 22.6562 18.9833L22.9167 19.5833C20.9104 21.3354 19.4396 23.2854 17.3208 27.0833C16.0167 25.5458 15.1458 24.5667 13.5417 23.0771ZM13.7458 33.4937L14.55 32.7542C15.4854 33.2083 16.0813 33.5521 17.1354 34.3062C19.1188 32.0542 20.4271 30.9167 22.8604 29.4L23.1208 30.0021C21.1146 31.7542 19.6438 33.7042 17.525 37.5021C16.2188 35.9625 15.3479 34.9833 13.7458 33.4937Z" fill="#DCA651"/>
</svg>
