<svg width="50" height="50" viewBox="0 0 50 50" fill="none" xmlns="http://www.w3.org/2000/svg">
<g clip-path="url(#clip0_39_22)">
<path d="M50 30.2439C50 33.0856 47.6958 35.4168 44.8562 35.4168C38.625 35.4168 36.3979 26.6252 46.7562 18.7502C46.6333 23.6772 50 25.6314 50 30.2439ZM45.0604 23.0231C44.3396 23.4168 43.2771 24.4772 43.1146 25.8022C42.875 27.7814 44.9208 28.3647 45.1 25.7106C45.1833 24.5897 45.1021 24.0543 45.0604 23.0231ZM33.9313 16.9314C31.3542 19.5106 30.3292 22.3293 29.8813 25.0002H5.89792C9.64167 18.5293 15.4667 18.5731 18.5417 18.4335C22.275 18.2627 26.9208 18.0502 30.9833 13.9856L33.4396 11.5314L30.4917 8.58558L28.0354 11.0397C21.6687 17.4064 13.7479 10.6002 4.88333 19.4647C1.62708 22.7189 0 26.9856 0 31.2502C0 40.4647 7.47083 47.9168 16.6667 47.9168C20.9312 47.9168 25.1979 46.2897 28.4521 43.0335C37.2979 34.1897 30.5229 26.2314 36.8771 19.8772L39.3333 17.4231L36.3875 14.4772L33.9313 16.9314ZM45.225 11.5314L36.3854 2.69391C35.9771 2.28766 35.4437 2.0835 34.9104 2.0835C33.0646 2.0835 32.1292 4.32725 33.4375 5.63975L42.2771 14.4772C43.6 15.8002 45.8333 14.8356 45.8333 13.0043C45.8333 12.471 45.6312 11.9377 45.225 11.5314Z" fill="#DCA651"/>
</g>
<defs>
<clipPath id="clip0_39_22">
<rect width="50" height="50" fill="white"/>
</clipPath>
</defs>
</svg>
