<svg width="88" height="88" viewBox="0 0 88 88" fill="none" xmlns="http://www.w3.org/2000/svg">
<g clip-path="url(#clip0_70_37)">
<path d="M44 88C68.3005 88 88 68.3005 88 44C88 19.6995 68.3005 0 44 0C19.6995 0 0 19.6995 0 44C0 68.3005 19.6995 88 44 88Z" fill="url(#paint0_linear_70_37)"/>
<path d="M18.3121 43.6185L47.9422 31.4104C50.8671 30.1388 60.7861 26.0694 60.7861 26.0694C60.7861 26.0694 65.3642 24.2891 64.9827 28.6128C64.8555 30.3931 63.8382 36.6243 62.8208 43.3642L59.6416 63.3295C59.6416 63.3295 59.3873 66.2544 57.2254 66.7631C55.0636 67.2717 51.5029 64.9827 50.8671 64.474C50.3584 64.0925 41.3295 58.37 38.0231 55.5723C37.133 54.8093 36.1156 53.2833 38.1503 51.5029C42.7283 47.3064 48.1965 42.0925 51.5029 38.7862C53.0289 37.2602 54.5549 33.6995 48.1965 38.0232L30.2659 50.1041C30.2659 50.1041 28.2312 51.3758 24.4162 50.2313C20.6012 49.0867 16.1503 47.5607 16.1503 47.5607C16.1503 47.5607 13.0983 45.6532 18.3121 43.6185Z" fill="white"/>
</g>
<defs>
<linearGradient id="paint0_linear_70_37" x1="58.67" y1="14.6701" x2="36.6701" y2="66" gradientUnits="userSpaceOnUse">
<stop stop-color="#37AEE2"/>
<stop offset="1" stop-color="#1E96C8"/>
</linearGradient>
<clipPath id="clip0_70_37">
<rect width="88" height="88" fill="white"/>
</clipPath>
</defs>
</svg>
