<?xml version="1.0" encoding="UTF-8" standalone="no"?>
<svg
   xmlns:dc="http://purl.org/dc/elements/1.1/"
   xmlns:cc="http://creativecommons.org/ns#"
   xmlns:rdf="http://www.w3.org/1999/02/22-rdf-syntax-ns#"
   xmlns:svg="http://www.w3.org/2000/svg"
   xmlns="http://www.w3.org/2000/svg"
   xmlns:sodipodi="http://sodipodi.sourceforge.net/DTD/sodipodi-0.dtd"
   xmlns:inkscape="http://www.inkscape.org/namespaces/inkscape"
   width="127"
   height="32"
   viewBox="0 0 127 32"
   fill="none"
   version="1.1"
   id="svg29"
   sodipodi:docname="rwd-copy.svg"
   inkscape:version="0.92.4 (5da689c313, 2019-01-14)">
  <metadata
     id="metadata33">
    <rdf:RDF>
      <cc:Work
         rdf:about="">
        <dc:format>image/svg+xml</dc:format>
        <dc:type
           rdf:resource="http://purl.org/dc/dcmitype/StillImage" />
      </cc:Work>
    </rdf:RDF>
  </metadata>
  <sodipodi:namedview
     pagecolor="#ffffff"
     bordercolor="#666666"
     borderopacity="1"
     objecttolerance="10"
     gridtolerance="10"
     guidetolerance="10"
     inkscape:pageopacity="0"
     inkscape:pageshadow="2"
     inkscape:window-width="1366"
     inkscape:window-height="705"
     id="namedview31"
     showgrid="false"
     inkscape:zoom="2.992126"
     inkscape:cx="63.5"
     inkscape:cy="16"
     inkscape:window-x="-4"
     inkscape:window-y="-4"
     inkscape:window-maximized="1"
     inkscape:current-layer="svg29" />
  <path
     d="M68.4072 21.625C68.4072 21.8447 68.3662 22.0498 68.2842 22.2402C68.2021 22.4307 68.0894 22.5977 67.9458 22.7412C67.8052 22.8818 67.6382 22.9932 67.4448 23.0752C67.2544 23.1572 67.0508 23.1982 66.834 23.1982H63.3843C63.4487 23.3301 63.5293 23.4517 63.626 23.563C63.7227 23.6743 63.8311 23.7695 63.9512 23.8486C64.0713 23.9277 64.2017 23.9893 64.3423 24.0332C64.4858 24.0771 64.6353 24.0991 64.7905 24.0991H67.7349V25H64.7905C64.4507 24.9971 64.1313 24.9312 63.8325 24.8022C63.5337 24.6704 63.2729 24.4932 63.0503 24.2705C62.8306 24.0449 62.6562 23.7827 62.5273 23.4839C62.3984 23.1851 62.334 22.8657 62.334 22.5259C62.334 22.186 62.3984 21.8667 62.5273 21.5679C62.6562 21.269 62.8306 21.0083 63.0503 20.7856C63.2729 20.5601 63.5337 20.3828 63.8325 20.2539C64.1313 20.1221 64.4507 20.0547 64.7905 20.0518H66.834C67.0508 20.0518 67.2544 20.0928 67.4448 20.1748C67.6382 20.2568 67.8052 20.3696 67.9458 20.5132C68.0894 20.6538 68.2021 20.8193 68.2842 21.0098C68.3662 21.2002 68.4072 21.4053 68.4072 21.625ZM66.834 22.3018C66.9248 22.3018 67.0112 22.2842 67.0933 22.249C67.1753 22.2139 67.2471 22.1655 67.3086 22.104C67.3701 22.0425 67.4185 21.9707 67.4536 21.8887C67.4888 21.8066 67.5063 21.7188 67.5063 21.625C67.5063 21.5342 67.4888 21.4478 67.4536 21.3657C67.4185 21.2837 67.3701 21.2119 67.3086 21.1504C67.2471 21.0889 67.1753 21.0405 67.0933 21.0054C67.0112 20.9673 66.9248 20.9482 66.834 20.9482H64.7905C64.5913 20.9482 64.4038 20.9834 64.228 21.0537C64.0552 21.124 63.8999 21.2207 63.7622 21.3438C63.6274 21.4639 63.5146 21.6074 63.4238 21.7744C63.3359 21.9385 63.2788 22.1143 63.2524 22.3018H66.834ZM70.1914 25H69.2905V20.0518H72.6655C73.0054 20.0518 73.3247 20.1177 73.6235 20.2495C73.9224 20.3784 74.1831 20.5557 74.4058 20.7812C74.6284 21.0039 74.8042 21.2661 74.9331 21.5679C75.062 21.8667 75.1265 22.186 75.1265 22.5259V25H74.2256V22.5259C74.2256 22.3091 74.1846 22.1055 74.1025 21.915C74.0205 21.7246 73.9092 21.5591 73.7686 21.4185C73.6279 21.2749 73.4624 21.1621 73.272 21.0801C73.0845 20.9951 72.8823 20.9512 72.6655 20.9482H70.1914V25ZM81.8589 25.2241C81.8589 25.4438 81.8164 25.6489 81.7314 25.8394C81.6494 26.0298 81.5366 26.1968 81.3931 26.3403C81.2524 26.4839 81.0854 26.5967 80.8921 26.6787C80.7017 26.7607 80.498 26.8018 80.2812 26.8018H76.6821V25.9009H80.2812C80.3721 25.9009 80.4585 25.8833 80.5405 25.8481C80.6226 25.813 80.6943 25.7646 80.7559 25.7031C80.8174 25.6416 80.8657 25.5698 80.9009 25.4878C80.939 25.4058 80.958 25.3179 80.958 25.2241V20.9482H78.4839C78.2671 20.9512 78.0635 20.9951 77.873 21.0801C77.6855 21.1621 77.5215 21.2749 77.3809 21.4185C77.2402 21.5591 77.1289 21.7246 77.0469 21.915C76.9678 22.1055 76.9282 22.3091 76.9282 22.5259C76.9282 22.7427 76.9678 22.9463 77.0469 23.1367C77.1289 23.3242 77.2402 23.4897 77.3809 23.6333C77.5215 23.7739 77.6855 23.8867 77.873 23.9717C78.0635 24.0537 78.2671 24.0962 78.4839 24.0991H80.5098V25H78.4839C78.144 24.9971 77.8247 24.9312 77.5259 24.8022C77.2271 24.6704 76.9663 24.4932 76.7437 24.2705C76.5239 24.0449 76.3496 23.7827 76.2207 23.4839C76.0918 23.1851 76.0273 22.8657 76.0273 22.5259C76.0273 22.186 76.0918 21.8667 76.2207 21.5679C76.3496 21.269 76.5239 21.0083 76.7437 20.7856C76.9663 20.5601 77.2271 20.3828 77.5259 20.2539C77.8247 20.1221 78.144 20.0547 78.4839 20.0518H81.8589V25.2241ZM84.2759 18.9268C84.2759 19.0205 84.2583 19.1084 84.2231 19.1904C84.188 19.2695 84.1396 19.3398 84.0781 19.4014C84.0166 19.4629 83.9448 19.5112 83.8628 19.5464C83.7808 19.5815 83.6943 19.5991 83.6035 19.5991C83.5098 19.5991 83.4219 19.5815 83.3398 19.5464C83.2578 19.5112 83.186 19.4629 83.1245 19.4014C83.063 19.3398 83.0146 19.2695 82.9795 19.1904C82.9443 19.1084 82.9268 19.0205 82.9268 18.9268C82.9268 18.8359 82.9443 18.7495 82.9795 18.6675C83.0146 18.5854 83.063 18.5137 83.1245 18.4521C83.186 18.3906 83.2578 18.3423 83.3398 18.3071C83.4219 18.269 83.5098 18.25 83.6035 18.25C83.6943 18.25 83.7808 18.269 83.8628 18.3071C83.9448 18.3423 84.0166 18.3906 84.0781 18.4521C84.1396 18.5137 84.188 18.5854 84.2231 18.6675C84.2583 18.7495 84.2759 18.8359 84.2759 18.9268ZM84.0518 25H83.1509V20.0518H84.0518V25ZM86.249 25H85.3481V20.0518H88.7231C89.063 20.0518 89.3823 20.1177 89.6812 20.2495C89.98 20.3784 90.2407 20.5557 90.4634 20.7812C90.686 21.0039 90.8618 21.2661 90.9907 21.5679C91.1196 21.8667 91.1841 22.186 91.1841 22.5259V25H90.2832V22.5259C90.2832 22.3091 90.2422 22.1055 90.1602 21.915C90.0781 21.7246 89.9668 21.5591 89.8262 21.4185C89.6855 21.2749 89.52 21.1621 89.3296 21.0801C89.1421 20.9951 88.9399 20.9512 88.7231 20.9482H86.249V25ZM98.1582 21.625C98.1582 21.8447 98.1172 22.0498 98.0352 22.2402C97.9531 22.4307 97.8403 22.5977 97.6968 22.7412C97.5562 22.8818 97.3892 22.9932 97.1958 23.0752C97.0054 23.1572 96.8018 23.1982 96.585 23.1982H93.1353C93.1997 23.3301 93.2803 23.4517 93.377 23.563C93.4736 23.6743 93.582 23.7695 93.7021 23.8486C93.8223 23.9277 93.9526 23.9893 94.0933 24.0332C94.2368 24.0771 94.3862 24.0991 94.5415 24.0991H97.4858V25H94.5415C94.2017 24.9971 93.8823 24.9312 93.5835 24.8022C93.2847 24.6704 93.0239 24.4932 92.8013 24.2705C92.5815 24.0449 92.4072 23.7827 92.2783 23.4839C92.1494 23.1851 92.085 22.8657 92.085 22.5259C92.085 22.186 92.1494 21.8667 92.2783 21.5679C92.4072 21.269 92.5815 21.0083 92.8013 20.7856C93.0239 20.5601 93.2847 20.3828 93.5835 20.2539C93.8823 20.1221 94.2017 20.0547 94.5415 20.0518H96.585C96.8018 20.0518 97.0054 20.0928 97.1958 20.1748C97.3892 20.2568 97.5562 20.3696 97.6968 20.5132C97.8403 20.6538 97.9531 20.8193 98.0352 21.0098C98.1172 21.2002 98.1582 21.4053 98.1582 21.625ZM96.585 22.3018C96.6758 22.3018 96.7622 22.2842 96.8442 22.249C96.9263 22.2139 96.998 22.1655 97.0596 22.104C97.1211 22.0425 97.1694 21.9707 97.2046 21.8887C97.2397 21.8066 97.2573 21.7188 97.2573 21.625C97.2573 21.5342 97.2397 21.4478 97.2046 21.3657C97.1694 21.2837 97.1211 21.2119 97.0596 21.1504C96.998 21.0889 96.9263 21.0405 96.8442 21.0054C96.7622 20.9673 96.6758 20.9482 96.585 20.9482H94.5415C94.3423 20.9482 94.1548 20.9834 93.979 21.0537C93.8062 21.124 93.6509 21.2207 93.5132 21.3438C93.3784 21.4639 93.2656 21.6074 93.1748 21.7744C93.0869 21.9385 93.0298 22.1143 93.0034 22.3018H96.585ZM104.803 21.625C104.803 21.8447 104.762 22.0498 104.68 22.2402C104.598 22.4307 104.485 22.5977 104.341 22.7412C104.201 22.8818 104.034 22.9932 103.84 23.0752C103.65 23.1572 103.446 23.1982 103.229 23.1982H99.7798C99.8442 23.3301 99.9248 23.4517 100.021 23.563C100.118 23.6743 100.227 23.7695 100.347 23.8486C100.467 23.9277 100.597 23.9893 100.738 24.0332C100.881 24.0771 101.031 24.0991 101.186 24.0991H104.13V25H101.186C100.846 24.9971 100.527 24.9312 100.228 24.8022C99.9292 24.6704 99.6685 24.4932 99.4458 24.2705C99.2261 24.0449 99.0518 23.7827 98.9229 23.4839C98.7939 23.1851 98.7295 22.8657 98.7295 22.5259C98.7295 22.186 98.7939 21.8667 98.9229 21.5679C99.0518 21.269 99.2261 21.0083 99.4458 20.7856C99.6685 20.5601 99.9292 20.3828 100.228 20.2539C100.527 20.1221 100.846 20.0547 101.186 20.0518H103.229C103.446 20.0518 103.65 20.0928 103.84 20.1748C104.034 20.2568 104.201 20.3696 104.341 20.5132C104.485 20.6538 104.598 20.8193 104.68 21.0098C104.762 21.2002 104.803 21.4053 104.803 21.625ZM103.229 22.3018C103.32 22.3018 103.407 22.2842 103.489 22.249C103.571 22.2139 103.643 22.1655 103.704 22.104C103.766 22.0425 103.814 21.9707 103.849 21.8887C103.884 21.8066 103.902 21.7188 103.902 21.625C103.902 21.5342 103.884 21.4478 103.849 21.3657C103.814 21.2837 103.766 21.2119 103.704 21.1504C103.643 21.0889 103.571 21.0405 103.489 21.0054C103.407 20.9673 103.32 20.9482 103.229 20.9482H101.186C100.987 20.9482 100.799 20.9834 100.624 21.0537C100.451 21.124 100.295 21.2207 100.158 21.3438C100.023 21.4639 99.9102 21.6074 99.8193 21.7744C99.7314 21.9385 99.6743 22.1143 99.6479 22.3018H103.229ZM110.604 20.9482H107.229C107.135 20.9482 107.047 20.9673 106.965 21.0054C106.883 21.0405 106.811 21.0889 106.75 21.1504C106.688 21.2119 106.64 21.2837 106.604 21.3657C106.569 21.4478 106.552 21.5342 106.552 21.625V25H105.651V21.625C105.651 21.4053 105.692 21.2002 105.774 21.0098C105.856 20.8193 105.969 20.6538 106.112 20.5132C106.256 20.3696 106.423 20.2568 106.613 20.1748C106.804 20.0928 107.009 20.0518 107.229 20.0518H110.604V20.9482ZM112.454 18.9268C112.454 19.0205 112.436 19.1084 112.401 19.1904C112.366 19.2695 112.317 19.3398 112.256 19.4014C112.194 19.4629 112.123 19.5112 112.041 19.5464C111.958 19.5815 111.872 19.5991 111.781 19.5991C111.688 19.5991 111.6 19.5815 111.518 19.5464C111.436 19.5112 111.364 19.4629 111.302 19.4014C111.241 19.3398 111.192 19.2695 111.157 19.1904C111.122 19.1084 111.104 19.0205 111.104 18.9268C111.104 18.8359 111.122 18.7495 111.157 18.6675C111.192 18.5854 111.241 18.5137 111.302 18.4521C111.364 18.3906 111.436 18.3423 111.518 18.3071C111.6 18.269 111.688 18.25 111.781 18.25C111.872 18.25 111.958 18.269 112.041 18.3071C112.123 18.3423 112.194 18.3906 112.256 18.4521C112.317 18.5137 112.366 18.5854 112.401 18.6675C112.436 18.7495 112.454 18.8359 112.454 18.9268ZM112.229 25H111.329V20.0518H112.229V25ZM114.427 25H113.526V20.0518H116.901C117.241 20.0518 117.56 20.1177 117.859 20.2495C118.158 20.3784 118.418 20.5557 118.641 20.7812C118.864 21.0039 119.04 21.2661 119.168 21.5679C119.297 21.8667 119.362 22.186 119.362 22.5259V25H118.461V22.5259C118.461 22.3091 118.42 22.1055 118.338 21.915C118.256 21.7246 118.145 21.5591 118.004 21.4185C117.863 21.2749 117.698 21.1621 117.507 21.0801C117.32 20.9951 117.118 20.9512 116.901 20.9482H114.427V25ZM126.094 25.2241C126.094 25.4438 126.052 25.6489 125.967 25.8394C125.885 26.0298 125.772 26.1968 125.628 26.3403C125.488 26.4839 125.321 26.5967 125.127 26.6787C124.937 26.7607 124.733 26.8018 124.517 26.8018H120.917V25.9009H124.517C124.607 25.9009 124.694 25.8833 124.776 25.8481C124.858 25.813 124.93 25.7646 124.991 25.7031C125.053 25.6416 125.101 25.5698 125.136 25.4878C125.174 25.4058 125.193 25.3179 125.193 25.2241V20.9482H122.719C122.502 20.9512 122.299 20.9951 122.108 21.0801C121.921 21.1621 121.757 21.2749 121.616 21.4185C121.476 21.5591 121.364 21.7246 121.282 21.915C121.203 22.1055 121.164 22.3091 121.164 22.5259C121.164 22.7427 121.203 22.9463 121.282 23.1367C121.364 23.3242 121.476 23.4897 121.616 23.6333C121.757 23.7739 121.921 23.8867 122.108 23.9717C122.299 24.0537 122.502 24.0962 122.719 24.0991H124.745V25H122.719C122.379 24.9971 122.06 24.9312 121.761 24.8022C121.462 24.6704 121.202 24.4932 120.979 24.2705C120.759 24.0449 120.585 23.7827 120.456 23.4839C120.327 23.1851 120.263 22.8657 120.263 22.5259C120.263 22.186 120.327 21.8667 120.456 21.5679C120.585 21.269 120.759 21.0083 120.979 20.7856C121.202 20.5601 121.462 20.3828 121.761 20.2539C122.06 20.1221 122.379 20.0547 122.719 20.0518H126.094V25.2241Z"
     fill="#122023"
     id="path2"
     style="fill:#fff6d5;fill-opacity:1" />
  <path
     d="M61.0576 17H58.623L54.8438 13.3965H49.3242V11.6211H56.5576C56.9326 11.6211 57.2842 11.5508 57.6123 11.4102C57.9404 11.2637 58.2246 11.0674 58.4648 10.8213C58.7109 10.5752 58.9043 10.2881 59.0449 9.95996C59.1855 9.62598 59.2559 9.27148 59.2559 8.89648C59.2559 8.52148 59.1855 8.16992 59.0449 7.8418C58.9043 7.51367 58.7109 7.22949 58.4648 6.98926C58.2246 6.74316 57.9404 6.5498 57.6123 6.40918C57.2842 6.26855 56.9326 6.19824 56.5576 6.19824H48.3135V17H46.5117V4.39648H56.5576C57.1787 4.39648 57.7617 4.5166 58.3066 4.75684C58.8516 4.99121 59.3262 5.31348 59.7305 5.72363C60.1406 6.12793 60.4629 6.60254 60.6973 7.14746C60.9375 7.69238 61.0576 8.27539 61.0576 8.89648C61.0576 9.45898 60.9609 9.99219 60.7676 10.4961C60.5742 10.9941 60.3076 11.4424 59.9678 11.8408C59.6279 12.2334 59.2266 12.5615 58.7637 12.8252C58.3066 13.083 57.8115 13.2559 57.2783 13.3438L61.0576 17ZM79.6025 12.4648C79.6025 13.0918 79.4824 13.6807 79.2422 14.2314C79.0078 14.7822 78.6855 15.2627 78.2754 15.6729C77.8652 16.083 77.3848 16.4082 76.834 16.6484C76.2832 16.8828 75.6943 17 75.0674 17C74.6924 17 74.3291 16.959 73.9775 16.877C73.6318 16.7891 73.3037 16.6689 72.9932 16.5166C72.6826 16.3584 72.3926 16.168 72.123 15.9453C71.8594 15.7227 71.6221 15.4736 71.4111 15.1982C70.9951 15.749 70.4736 16.1885 69.8467 16.5166C69.2197 16.8389 68.5312 17 67.7812 17C67.1543 17 66.5654 16.8828 66.0146 16.6484C65.4639 16.4082 64.9834 16.083 64.5732 15.6729C64.1631 15.2627 63.8379 14.7822 63.5977 14.2314C63.3633 13.6807 63.2461 13.0918 63.2461 12.4648V4.39648H65.0391V12.4648C65.0391 12.8457 65.1094 13.2031 65.25 13.5371C65.3965 13.8652 65.5928 14.1523 65.8389 14.3984C66.0908 14.6445 66.3809 14.8408 66.709 14.9873C67.043 15.1279 67.4004 15.1982 67.7812 15.1982C68.1504 15.1982 68.4961 15.1309 68.8184 14.9961C69.1465 14.8613 69.4307 14.6768 69.6709 14.4424C69.917 14.208 70.1133 13.9326 70.2598 13.6162C70.4121 13.2939 70.4971 12.9512 70.5146 12.5879V12.4648V4.39648H72.334V12.4648C72.334 12.8457 72.4043 13.2031 72.5449 13.5371C72.6914 13.8652 72.8877 14.1523 73.1338 14.3984C73.3799 14.6445 73.667 14.8408 73.9951 14.9873C74.3291 15.1279 74.6865 15.1982 75.0674 15.1982C75.4424 15.1982 75.7969 15.1279 76.1309 14.9873C76.4648 14.8408 76.7549 14.6445 77.001 14.3984C77.2529 14.1523 77.4492 13.8652 77.5898 13.5371C77.7363 13.2031 77.8096 12.8457 77.8096 12.4648V4.39648H79.6025V12.4648ZM97.3652 10.6982C97.3652 11.5713 97.2246 12.3916 96.9434 13.1592C96.668 13.9268 96.2754 14.5947 95.7656 15.1631C95.2559 15.7314 94.6436 16.1797 93.9287 16.5078C93.2197 16.8359 92.4316 17 91.5645 17H85.21V15.1982H91.5645C92.1855 15.1982 92.7422 15.0811 93.2344 14.8467C93.7324 14.6123 94.1514 14.293 94.4912 13.8887C94.8369 13.4785 95.1006 13.001 95.2822 12.4561C95.4697 11.9053 95.5635 11.3193 95.5635 10.6982C95.5635 10.0771 95.4697 9.49414 95.2822 8.94922C95.1006 8.4043 94.8369 7.92969 94.4912 7.52539C94.1514 7.11523 93.7324 6.79297 93.2344 6.55859C92.7422 6.31836 92.1855 6.19824 91.5645 6.19824H84.3135V17H82.5117V4.39648H91.5645C92.4316 4.39648 93.2197 4.56348 93.9287 4.89746C94.6436 5.22559 95.2559 5.67676 95.7656 6.25098C96.2754 6.81934 96.668 7.4873 96.9434 8.25488C97.2246 9.0166 97.3652 9.83105 97.3652 10.6982Z"
     fill="#122023"
     id="path4"
     style="fill:#fff6d5;fill-opacity:1" />
  <path
     d="M27.3684 8.00591L34.4 17.0148L27.3684 26.0236L40 17.0148L27.3684 8.00591Z"
     fill="url(#paint0_radial)"
     id="path6"
     style="fill:#fff6d5;fill-opacity:1" />
  <path
     d="M12.6316 8.00591L5.6 17.0148L12.6316 26.0236L4.76837e-06 17.0148L12.6316 8.00591Z"
     fill="url(#paint1_radial)"
     id="path8"
     style="fill:#fff6d5;fill-opacity:1" />
  <path
     fill-rule="evenodd"
     clip-rule="evenodd"
     d="M27.0466 2L27.3158 5.73946L17.1354 25.4614L17.684 25.6929L17.4036 26.237L16.8546 26.0054L13.7602 32L12 31.2572L15.085 25.2586L14.3972 24.9684L14.6776 24.4243L15.3649 24.7143L27.0466 2ZM13.5587 31.4941L12.5065 31.0501L14.0494 30.5419L13.5587 31.4941ZM15.9645 26.9303L16.4533 25.9773L15.4002 25.5349L15.9645 26.9303ZM13.8338 29.2603L14.9292 28.9121L14.2186 30.2516L13.8338 29.2603ZM15.7745 27.2761L14.6791 27.6243L15.0639 28.6156L15.7745 27.2761ZM14.8615 24.6794L17.3871 25.7451L17.2712 25.97L14.7457 24.9043L14.8615 24.6794Z"
     fill="url(#paint2_radial)"
     id="path10"
     style="fill:#fff6d5;fill-opacity:1" />
  <defs
     id="defs27">
    <radialGradient
       id="paint0_radial"
       cx="0"
       cy="0"
       r="1"
       gradientUnits="userSpaceOnUse"
       gradientTransform="translate(22.0135 23.1054) rotate(-34.4998) scale(39.2476 16.9427)">
      <stop
         stop-color="#6A3500"
         id="stop12" />
      <stop
         offset="1"
         id="stop14" />
    </radialGradient>
    <radialGradient
       id="paint1_radial"
       cx="0"
       cy="0"
       r="1"
       gradientUnits="userSpaceOnUse"
       gradientTransform="translate(17.9865 23.1054) rotate(-145.5) scale(39.2476 16.9427)">
      <stop
         stop-color="#6A3500"
         id="stop17" />
      <stop
         offset="1"
         id="stop19" />
    </radialGradient>
    <radialGradient
       id="paint2_radial"
       cx="0"
       cy="0"
       r="1"
       gradientUnits="userSpaceOnUse"
       gradientTransform="translate(5.50713 27.141) rotate(-43.3433) scale(53.9266 24.894)">
      <stop
         stop-color="#6A3500"
         id="stop22" />
      <stop
         offset="1"
         id="stop24" />
    </radialGradient>
  </defs>
</svg>
