<?xml version="1.0" encoding="utf-8"?><svg width="150" height="147" viewBox="0 0 150 147" xmlns="http://www.w3.org/2000/svg" xmlns:xlink="http://www.w3.org/1999/xlink"><svg width="48" height="48" fill="none" viewBox="0 0 48 48" id="Yzpcd29ya1xyZW1lYmVsLW5ld1xwdWJsaWNcaW1nXG9rLWljby5zdmc=" y="75" xmlns="http://www.w3.org/2000/svg"><rect width="48" height="48" rx="24" fill="#F2D16C"/><path d="M24 12.84a3.423 3.423 0 013.42 3.42A3.423 3.423 0 0124 19.677a3.423 3.423 0 01-3.419-3.417A3.423 3.423 0 0124 12.84zm0 11.675c4.555 0 8.259-3.703 8.259-8.255 0-4.556-3.704-8.26-8.26-8.26-4.554 0-8.258 3.705-8.258 8.26 0 4.552 3.704 8.255 8.259 8.255zm3.341 6.737a15.461 15.461 0 004.795-1.986 2.42 2.42 0 00-2.577-4.096 10.488 10.488 0 01-11.118 0 2.418 2.418 0 00-3.648 2.585c.142.626.527 1.17 1.07 1.511a15.474 15.474 0 004.794 1.986l-4.616 4.617a2.42 2.42 0 103.422 3.422L24 34.754l4.539 4.537a2.416 2.416 0 003.945-.784 2.416 2.416 0 00-.526-2.637l-4.616-4.618z" fill="#333"/></svg><svg width="150" height="75" viewBox="0 0 39.687 19.844" id="Yzpcd29ya1xyZW1lYmVsLW5ld1xwdWJsaWNcaW1nXGRlY29yLWNvcm5lci1vbmUuc3Zn" xmlns="http://www.w3.org/2000/svg"><g fill="none" opacity=".703"><path d="M.709 19.862V.559h18.87" stroke="#ff971d" stroke-width="1.313"/><path d="M.2 1.43l39.527-.094" stroke="#ff971f" stroke-width=".793" stroke-opacity=".941"/></g></svg><svg width="24" height="24" viewBox="0 0 24 24" id="Yzpcd29ya1xyZW1lYmVsLW5ld1xwdWJsaWNcaW1nXGRlY29yLXJvdy5zdmc=" y="123" xmlns="http://www.w3.org/2000/svg"><path d="M11.574 3.712a.5.5 0 01.857 0l9.37 15.545a.5.5 0 01-.429.757l-18.668-.006a.5.5 0 01-.428-.758l9.298-15.538zm.429-2.483c-.76 0-1.521.37-1.966 1.111L.33 18.52c-.915 1.523.182 3.472 1.965 3.472h19.416c1.783 0 2.879-1.949 1.965-3.472L13.969 2.34a2.273 2.273 0 00-1.966-1.111z"/></svg><svg width="48" height="48" fill="none" viewBox="0 0 48 48" id="Yzpcd29ya1xyZW1lYmVsLW5ld1xwdWJsaWNcaW1nXGluc3QtaWNvLnN2Zw==" x="48" y="75" xmlns="http://www.w3.org/2000/svg"><rect width="48" height="48" rx="24" fill="#F2D16C"/><path d="M19.001 24a5 5 0 1110-.001A5 5 0 0119 24zm-2.703 0a7.702 7.702 0 1015.404 0 7.702 7.702 0 00-15.404 0zm13.91-8.008a1.8 1.8 0 101.8-1.799 1.8 1.8 0 00-1.8 1.8zM17.94 36.21c-1.463-.067-2.258-.31-2.786-.516a4.66 4.66 0 01-1.725-1.122 4.627 4.627 0 01-1.122-1.725c-.206-.528-.45-1.323-.516-2.785-.073-1.581-.088-2.056-.088-6.062s.016-4.48.088-6.062c.066-1.462.312-2.256.516-2.785.272-.7.597-1.2 1.122-1.726a4.621 4.621 0 011.725-1.122c.528-.205 1.323-.45 2.786-.516 1.58-.072 2.056-.087 6.06-.087 4.003 0 4.479.016 6.061.087 1.463.067 2.256.312 2.786.516.7.272 1.2.598 1.725 1.122.526.525.85 1.025 1.122 1.726.206.528.45 1.323.516 2.785.073 1.583.087 2.056.087 6.062s-.014 4.48-.087 6.062c-.066 1.462-.311 2.257-.516 2.785-.272.7-.597 1.2-1.122 1.725a4.66 4.66 0 01-1.725 1.122c-.528.206-1.323.45-2.786.516-1.58.072-2.056.087-6.062.087-4.005 0-4.479-.015-6.06-.087zm-.125-27.12c-1.597.074-2.688.327-3.64.698a7.357 7.357 0 00-2.658 1.73 7.33 7.33 0 00-1.73 2.657c-.37.953-.624 2.044-.697 3.64-.074 1.6-.09 2.111-.09 6.185 0 4.073.016 4.585.09 6.184.073 1.597.326 2.688.697 3.641a7.333 7.333 0 001.73 2.657 7.376 7.376 0 002.657 1.73c.955.371 2.044.624 3.641.697 1.6.073 2.111.091 6.184.091 4.074 0 4.585-.017 6.185-.09 1.597-.074 2.687-.327 3.64-.698a7.377 7.377 0 002.658-1.73 7.348 7.348 0 001.73-2.657c.37-.953.625-2.044.697-3.64.072-1.601.09-2.111.09-6.185 0-4.073-.018-4.585-.09-6.184-.073-1.597-.326-2.688-.697-3.641a7.377 7.377 0 00-1.73-2.657 7.341 7.341 0 00-2.656-1.73c-.955-.371-2.045-.626-3.641-.697-1.6-.073-2.11-.091-6.184-.091s-4.585.017-6.186.09z" fill="#333"/></svg><svg width="48" height="48" fill="none" viewBox="0 0 48 48" id="Yzpcd29ya1xyZW1lYmVsLW5ld1xwdWJsaWNcaW1nXHZrLWljby5zdmc=" x="96" y="75" xmlns="http://www.w3.org/2000/svg"><rect width="48" height="48" rx="24" fill="#F2D16C"/><path fill-rule="evenodd" clip-rule="evenodd" d="M39.266 16.535c.222-.742 0-1.287-1.059-1.287h-3.5c-.891 0-1.301.47-1.524.99 0 0-1.78 4.34-4.302 7.158-.816.816-1.187 1.075-1.632 1.075-.223 0-.545-.259-.545-1v-6.936c0-.89-.258-1.287-1-1.287h-5.501c-.556 0-.89.413-.89.805 0 .844 1.26 1.038 1.39 3.412v5.155c0 1.13-.204 1.335-.65 1.335-1.186 0-4.073-4.358-5.785-9.346-.336-.97-.672-1.361-1.567-1.361h-3.5c-1.001 0-1.201.47-1.201.99 0 .928 1.187 5.527 5.526 11.609 2.893 4.154 6.969 6.405 10.678 6.405 2.225 0 2.5-.5 2.5-1.361v-3.14c0-1 .211-1.2.916-1.2.52 0 1.41.26 3.486 2.263 2.374 2.373 2.765 3.438 4.1 3.438h3.501c1 0 1.5-.5 1.212-1.487-.316-.983-1.449-2.41-2.953-4.102-.816-.965-2.04-2.003-2.41-2.522-.52-.668-.371-.964 0-1.557 0 0 4.265-6.009 4.71-8.049z" fill="#333"/></svg></svg>