<svg width="420" height="420" viewBox="0 0 420 420" fill="none" xmlns="http://www.w3.org/2000/svg">
<path fill-rule="evenodd" clip-rule="evenodd" d="M57.5797 178.164L98.8769 179.419L132.353 176.594L160.509 160.275L205.874 137.05L228.713 124.182L266.568 116.649L289.094 120.416L308.491 136.735L313.497 135.48L310.37 126.049L297.863 113.194L281.46 104.452L258.907 102.498L240.024 85.6833L154.647 7.90833C133.579 12.881 113.665 20.9398 95.0587 32.4944L104.349 140.157L105.809 143.996L108.328 147.165L115.579 167.447L88.9245 167.653L64.0132 168.99L58.2721 173.721L57.5797 178.164Z" fill="#A84F46"/>
<path fill-rule="evenodd" clip-rule="evenodd" d="M290.367 269.423C297.057 265.736 303.642 265.199 310.072 269.349L313.019 276.529L309.23 291.943L298.916 316.649C303.629 316.483 308.119 316.714 312.387 315.593L318.703 312.003L323.123 306.513L329.017 297.644L327.754 305.457L327.122 309.892L333.016 309.259L339.541 303.768L343.541 291.732L346.488 275.895L350.066 278.64L351.54 289.62L353.223 293.843L359.117 289.832L363.959 277.584V264.914C365.917 264.677 367.939 263.82 369.439 268.056L373.036 255.821L373.208 248.556L370.105 240.253L364.156 232.641L350.619 219.235L355.189 217.505L361.138 217.245L368.898 214.651L365.449 209.548L358.465 207.126L349.499 207.559L339.583 209.375L330.272 210.499L331.996 200.899L335.445 188.098L331.824 191.298L327.427 197.007L321.995 203.58L313.632 209.721L308.287 214.045L276.074 210.48L290.367 269.423Z" fill="#9F9F9F"/>
<path fill-rule="evenodd" clip-rule="evenodd" d="M290.436 216.514L289.491 199.081L252.702 163.434L135.103 168.754L130.833 190.635L179.336 360.938L257.897 321.643L265.869 308.201L270.71 294.264L284.813 273.993L304.488 265.093L290.938 257.019C325.544 250.113 305.528 231.483 276.654 210.951L290.436 216.514Z" fill="#CCCCCC"/>
<path fill-rule="evenodd" clip-rule="evenodd" d="M136.18 206.988L137.604 194.912L124.16 197.631L116.372 184.538L99.3217 185.594L95.112 204.81L96.3751 226.137L96.7956 235.851L96.3751 250.421V264.569L97.6374 276.817L98.2693 282.307L93.2171 285.896L86.0608 286.952L77.43 285.051L69.8525 281.884L69.2214 287.374L72.3786 292.864L77.0095 296.454L65.0109 301.1L55.7498 305.323L49.4345 313.347L46.5415 324.477C49.8815 322.861 52.8941 322.01 55.1016 323.037L51.0396 333.789L49.6389 341.357L49.8542 348.168L52.441 360.709L54.7036 364.169L57.937 363.737L61.6011 358.979L64.6192 357.033L67.4212 362.115L68.8218 366.979L72.4866 374.764L77.444 380.711L82.1861 383.305L84.7729 382.44L87.4669 377.358L92.209 379.196L97.2744 382.873L103.525 386.873L109.345 388.603L113.737 389.558C112.855 393.232 111.114 395.428 109.345 397.576L182.362 360L178.248 309.297C174.155 300.255 171.82 288.681 172.303 275.429C163.467 254.696 159.243 237.006 168.379 201.398C164.289 211.987 158.102 220.504 152.71 228.155L146.836 223.399L149.351 203.554L136.18 206.988Z" fill="#939393"/>
<path fill-rule="evenodd" clip-rule="evenodd" d="M304.12 266.365L310.443 269.104L313.891 275.879L313.029 283.951L306.276 298.366L297.797 319.557L291.475 350.838L287.739 369.722L277.824 388.318L267.621 397.832L254.832 402.734L223.506 406.193L202.526 407.202L184.565 409.796L164.303 413.256L139.3 417.293L121.482 413.113L112.285 409.653L108.836 402.157L114.441 394.517L128.039 387.807L136.271 381.197L137.741 373.449L115.59 349.685L106.968 342.333L103.951 333.972L106.537 326.621L112.285 320.566L115.59 321.287L118.751 325.755L123.206 330.801L127.948 334.693L158.843 329.071L163.153 324.459L166.89 318.836L172.206 313.935L180.397 310.763L189.019 309.034L196.06 309.61L201.377 311.916L215.747 319.124L245.492 326.765L252.533 325.323L258.137 321.287L262.161 314.079L266.184 303.988L269.92 295.051L275.525 286.114L282.422 277.464L289.176 270.977L297.223 267.373L304.12 266.365Z" fill="#A84F46"/>
<path fill-rule="evenodd" clip-rule="evenodd" d="M132.334 332.365L125.437 322.706L118.109 308.579L110.923 290.849L106.9 274.415L105.463 257.405L107.044 245.008L109.487 237.512L113.223 231.89L116.097 229.727L120.12 234.196L123.281 241.981L130.035 256.684L139.232 275.712L146.848 288.975L153.027 297.624L158.056 302.669L162.223 305.984L166.482 308.579L171.54 311.531L172.828 313.838L169.793 316.421L167.218 318.635L163.723 323.894L160.137 327.769L156.642 329.614L149.193 328.599L140.364 329.43L132.334 332.365ZM192.913 307.05L198.798 300.777L204.5 294.688L209.834 286.2L216.272 275.314L222.71 265.534L228.595 254.463L235.033 242.285L244.781 226.97L247.172 229.923L250.483 234.536L255.207 241.673L259.915 251.71L263.918 263.638L265.448 274.265L266.743 286.429L266.272 295.403L265.448 303.906L263.8 310.283L260.269 317.841L253.794 324.808L247.319 326.343L243.317 326.225L232.487 320.793L225.307 319.376H215.301L211.063 316.66L200.351 311.582L192.913 307.05Z" fill="#FFDA53"/>
<path d="M162.548 369.73C172.796 361.586 174.676 348.665 166.746 340.87C158.816 333.075 144.079 333.358 133.831 341.502C123.583 349.646 121.703 362.567 129.633 370.362C137.563 378.157 152.3 377.874 162.548 369.73Z" fill="#CFF1FF"/>
<path d="M233.74 356.991C244.402 348.852 246.868 336.692 239.249 329.83C231.629 322.969 216.81 324.004 206.148 332.143C195.486 340.282 193.02 352.443 200.639 359.304C208.258 366.166 223.078 365.13 233.74 356.991Z" fill="#CFF1FF"/>
<path fill-rule="evenodd" clip-rule="evenodd" d="M354.346 244.325C354.346 244.325 372.203 273.107 354.432 291.379C352.966 292.887 352.951 286.753 351.727 280.249C350.521 273.846 346.971 268.972 345.254 270.249C341.792 272.822 344.456 306.591 329.371 308.916C325.929 309.447 336.617 285.86 330.505 289.33C327.745 290.897 326.526 298.837 319.514 309.221C314.263 316.995 300.735 316.557 300.735 316.557C300.735 316.557 312.368 318.347 318.042 313.816C325.458 307.895 325.841 301.65 326.904 302.051C328.096 302.502 322.491 310.513 326.124 312.311C328.965 313.717 337.966 310.618 341.675 304.429C349.541 291.305 345.922 286.178 347.858 281.999C350.076 277.209 347.534 299.294 353.542 296.811C361.754 293.418 368.014 276.803 365.085 265.41C362.078 253.718 354.346 244.325 354.346 244.325Z" fill="black"/>
<path fill-rule="evenodd" clip-rule="evenodd" d="M265.25 211.253C265.25 211.253 255.514 174.341 234.939 174.352C227.581 174.356 221.919 197.111 213.582 224.619C205.599 250.95 194.524 275.394 194.524 275.394C194.524 275.394 204.907 263.188 215.447 230.913C222.16 210.356 229.532 187.173 234.872 182.32C244.956 173.155 265.25 211.253 265.25 211.253Z" fill="black"/>
<path fill-rule="evenodd" clip-rule="evenodd" d="M117.544 227.644C112.938 222.07 105.295 219.789 105.295 219.789C105.295 219.789 114.931 227.856 112.182 231.301C90.7969 258.088 114.859 315.065 130.118 332.535C130.118 332.535 138.709 329.46 146.446 328.797C152.76 328.256 158.204 330.268 160.416 329.059C168.132 324.84 162.952 316.431 183.647 311.596C196.589 308.573 201.404 314.192 216.436 320.039C218.427 320.813 220.55 320.313 221.687 320.368C223.934 320.476 224.735 320.504 229.888 321.058C234.803 321.587 242.449 328.659 248.686 328.508C254.897 328.356 261.157 319.78 263.684 315.804C273.299 300.677 269.186 262.988 258.779 244.886C253.737 236.117 248.198 230.791 247.064 227.764C246.132 225.272 247.528 217.745 247.528 217.745C247.528 217.745 235.812 236.728 223.991 257.099C220.23 263.579 216.055 272.198 212.288 278.443C202.256 295.081 193.031 307.01 186.495 308.145C181.288 309.05 177.287 304.219 175.237 296.17C172.917 287.058 172.302 275.393 172.302 275.393C172.302 275.393 170.101 283.244 171.384 293.302C172.11 298.988 176.985 308.209 174.975 309.572C171.575 311.879 156.805 304.638 146.788 285.812C135.026 263.706 122.257 233.347 117.544 227.644ZM263.904 299.416C268.412 260.399 247.84 229.007 244.675 230.681C242.321 231.926 236.567 244.423 229.888 257.203C226.524 263.64 221.47 271.265 217.147 279.544C213.35 286.815 202.112 300.491 196.343 305.096C192.881 307.859 203.737 311.725 211.294 315.648C220.677 320.519 222.252 317.626 229.888 318.84C233.422 319.401 235.587 318.773 242.657 323.725C245.495 325.712 260.65 327.578 263.904 299.416ZM170.779 313.119C170.694 311.604 160.646 307.408 153.974 300.518C145.735 292.01 139.576 282.097 133.476 269.745C125.325 253.237 120.193 235.387 115.818 232.438C112.159 229.972 104.477 247.904 107.384 266.625C109.461 279.998 110.783 288.087 118.655 305.897C125.147 320.585 129.71 329.511 133.124 330.427C133.903 330.636 139.687 327.929 145.298 327.374C150.908 326.818 156.214 328.103 158.01 327.262C161.144 325.794 163.956 320.452 166.415 317.675C168.797 314.983 170.877 314.859 170.779 313.119Z" fill="black"/>
<path fill-rule="evenodd" clip-rule="evenodd" d="M144.462 326.998C162.684 324.585 179.181 335.261 181.28 350.822C183.378 366.385 170.288 380.978 152.065 383.391C133.843 385.803 117.346 375.128 115.247 359.566C113.149 344.003 126.24 329.411 144.462 326.998ZM143.772 330.794C159.65 328.691 174.026 337.994 175.855 351.553C177.683 365.114 166.276 377.83 150.397 379.933C134.519 382.035 120.144 372.733 118.315 359.172C116.487 345.612 127.894 332.896 143.772 330.794Z" fill="black"/>
<path fill-rule="evenodd" clip-rule="evenodd" d="M170.066 346.396C170.066 346.396 160.682 334.987 145.642 336.809C131.244 338.552 124.31 351.422 124.31 351.422C125.662 346.278 131.553 335.895 145.274 334.078C158.995 332.261 169.865 341.511 170.066 346.396Z" fill="black" fill-opacity="0.35"/>
<path fill-rule="evenodd" clip-rule="evenodd" d="M240.069 327.11C240.069 327.11 225.127 327.924 215.135 333.486C205.57 338.811 209.313 343.922 209.313 343.922C206.754 342.368 203.956 338.142 212.964 333.035C221.972 327.928 236.528 326.145 240.069 327.11Z" fill="black" fill-opacity="0.35"/>
<path fill-rule="evenodd" clip-rule="evenodd" d="M203.002 333.771C212.805 323.904 228.438 320.714 237.891 326.65C247.344 332.587 247.061 345.416 237.259 355.283C227.456 365.149 211.823 368.34 202.37 362.404C192.917 356.467 193.2 343.637 203.002 333.771ZM204.572 335.607C213.114 327.01 226.736 324.229 234.974 329.402C243.211 334.575 242.964 345.755 234.422 354.353C225.881 362.95 212.259 365.73 204.022 360.557C195.784 355.384 196.031 344.204 204.572 335.607Z" fill="black"/>
<path fill-rule="evenodd" clip-rule="evenodd" d="M294.926 233.662C292.068 232.475 287.635 229.106 286.038 230.273C285.091 230.966 290.538 234.77 293.331 235.927C296.02 237.041 302.221 237.787 303.132 237.12C304.555 236.08 297.505 234.731 294.926 233.662Z" fill="black"/>
<path fill-rule="evenodd" clip-rule="evenodd" d="M112.089 343.617C108.102 340.657 105.92 337.023 106.248 332.954C106.854 325.448 113.399 321.465 113.399 321.465L111.214 317.675C111.214 317.675 106.451 323.039 104.089 327.211C102.612 329.82 101.946 333.429 102.096 335.734C102.336 339.397 104.835 342.731 105.463 343.632C109.589 349.553 117.587 352.448 117.587 352.448L119.424 347.389C119.424 347.389 115.8 346.372 112.089 343.617Z" fill="black"/>
<path fill-rule="evenodd" clip-rule="evenodd" d="M295.69 243.411C293.499 242.627 290.359 240.614 288.826 241.129C287.917 241.434 291.832 243.733 293.973 244.498C296.034 245.235 301.096 245.984 301.971 245.69C303.337 245.23 297.667 244.118 295.69 243.411Z" fill="black"/>
<path fill-rule="evenodd" clip-rule="evenodd" d="M296.268 250.643C295.271 250.116 294.318 248.455 293.051 249.171C292.299 249.596 293.6 251.452 294.575 251.966C295.513 252.46 298.387 252.594 299.11 252.185C300.24 251.546 297.168 251.118 296.268 250.643Z" fill="black"/>
<path fill-rule="evenodd" clip-rule="evenodd" d="M118.868 336.54C117.866 336.017 114.732 333.977 113.46 334.686C112.705 335.107 114.869 337.615 115.848 338.126C116.284 338.353 117.464 340.177 118.786 340.626C120.32 341.148 121.674 340.415 122.063 340.197C123.197 339.565 119.771 337.012 118.868 336.54Z" fill="black"/>
<path fill-rule="evenodd" clip-rule="evenodd" d="M51.03 322.181C50.1066 322.615 47.091 324.975 47.091 324.975C47.091 324.975 50.25 323.817 51.2462 323.534C52.8114 323.09 55.8377 322.52 55.8377 322.52L57.001 318.054C57.001 318.054 51.8631 321.79 51.03 322.181Z" fill="black"/>
<path fill-rule="evenodd" clip-rule="evenodd" d="M132.801 384.34C131.964 384.994 128.791 387.164 128.791 387.164C128.791 387.164 131.262 384.789 131.942 384.006C133.011 382.775 134.73 380.274 134.73 380.274L138.676 380.791C138.676 380.791 133.557 383.75 132.801 384.34Z" fill="black"/>
<path fill-rule="evenodd" clip-rule="evenodd" d="M367.491 263.702C368.622 265.066 368.044 268.071 368.044 268.071C368.044 268.071 367.692 266.364 367.025 265.657C366.028 264.601 362.964 263.982 362.964 263.982L362.6 258.94C362.6 258.94 365.798 261.66 367.491 263.702Z" fill="black"/>
<path fill-rule="evenodd" clip-rule="evenodd" d="M113.457 394.961C113.878 393.989 114.167 389.759 114.167 389.759C114.167 389.759 112.545 392.837 111.999 393.682C111.142 395.01 109.343 397.261 109.343 397.261L110.26 401.05C110.26 401.05 113.076 395.838 113.457 394.961Z" fill="black"/>
<path fill-rule="evenodd" clip-rule="evenodd" d="M299.185 263.815C292.982 265.285 287.544 268.581 282.944 273.172C276.952 279.153 267.209 295.781 267.209 295.781L266.756 307.414C268.462 302.46 279.402 280.29 287.847 274.765C293.026 271.376 296.346 269.884 302.52 269.534C305.996 269.338 310.868 272.716 310.91 276.208C311.033 286.411 307.725 289.062 301.859 302.02C297.388 311.9 295.668 315.175 292.472 329.656C290.388 339.104 289.529 354.993 285.949 366.935C282.274 379.19 275.818 387.461 269.043 394.021C258.072 404.642 211.047 403.925 204.02 404.752C182.017 407.343 160.399 413.005 138.317 414.802C134.118 415.145 122.466 412.975 126.235 411.085C151.044 398.644 198.89 399.297 218.546 397.481C242.395 395.277 257.404 402.499 275.094 375.307C283.027 363.112 285.157 343.978 286.652 328.647C287.725 317.643 289.015 306.997 291.662 300.695C296.686 288.738 297.978 288.897 304.753 277.872C307.469 273.451 295.237 284.878 292.474 289.269C288.34 295.838 285.933 306.931 284.216 314.505C283.353 318.314 282.478 332.648 281.692 339.102C279.973 353.23 278.038 362.268 273.057 371.133C259.841 394.655 243.143 391.85 218.505 393.398C197.811 394.697 166.057 395.735 145.675 400.551C133.274 403.481 132.394 406.04 119.388 409.329C116.317 410.105 110.738 405.272 111.978 402.347C114.309 396.849 120.676 393.608 126.294 391.623C139.074 387.108 155.604 383.791 169.038 382.02C180.586 380.497 190.485 378.928 203.828 378.67C210.981 378.532 219.388 378.785 225.766 379.434C230.232 379.888 232.539 379.806 237.391 379.973C242.856 380.163 227.425 375.473 209.183 374.901C197.667 374.539 186.85 375.027 176.451 376.123C170.978 376.699 133.119 383.391 120.324 389.088C110.262 393.567 97.9484 403.768 113.032 413.152C117.155 415.717 119.823 414.891 122.635 415.806C125.39 416.702 125.274 419.412 130.531 419.836C146.182 421.096 164.956 414.722 181.892 412.071C200.864 409.102 206.354 409.283 225.381 408.823C242.014 408.42 263.658 404.876 271.474 398.176C286.072 385.661 291.445 368.602 294.085 348.881C295.65 337.195 298.265 325.703 300.832 316.579C304.381 303.963 311.549 294.586 315.956 282.245C322.849 262.934 296.902 255.583 290.004 256.531C286.546 257.006 303.823 262.715 299.185 263.815Z" fill="black"/>
<path fill-rule="evenodd" clip-rule="evenodd" d="M52.348 335.449C54.4186 323.984 62.44 312.199 62.44 312.199C62.44 312.199 53.4004 321.665 51.2357 326.849C49.4084 331.226 48.2098 335.937 47.8258 340.666C47.4714 345.036 48.8277 364.081 53.8869 367.014C57.9769 369.385 63.511 355.893 65.0096 360.427C66.6862 365.502 68.0961 368.903 69.339 372.124C71.8697 378.682 77.2725 384.481 83.8971 385.509C87.1756 386.018 86.4722 376.871 90.1759 379.902C104.997 392.03 113.919 389.568 113.919 389.568C113.919 389.568 104.24 385.986 95.9898 378.623C88.8949 372.292 82.7872 364.846 79.4007 364.012C76.1828 363.22 90.9438 377.156 82.624 379.839C79.86 380.73 77.0634 378.85 74.7689 375.198C69.255 366.419 65.3283 349.051 62.2184 347.263C59.2858 345.577 60.7137 366.203 55.4671 362.167C49.584 357.642 51.0266 342.767 52.348 335.449Z" fill="black"/>
<path fill-rule="evenodd" clip-rule="evenodd" d="M194.246 360.013C188.323 358.409 182.695 358.243 178.662 361.085L177.506 365.84C181.604 361.589 187.321 359.918 196.385 364.525L194.246 360.013Z" fill="black"/>
<path fill-rule="evenodd" clip-rule="evenodd" d="M190.096 354.178C185.006 352.583 181.987 353.179 178.498 355.597L177.507 359.674C181.509 356.113 185.567 354.532 192.702 358.27L190.096 354.178Z" fill="black"/>
<path fill-rule="evenodd" clip-rule="evenodd" d="M101.531 300.976C99.5976 296.266 97.9607 291.231 96.6618 285.822C93.5419 288.961 88.827 290.139 84.9384 289.643C79.7594 288.981 75.5257 285.812 72.3272 285.829C69.9908 285.841 71.993 289.471 75.0414 292.079C77.3849 294.084 80.7442 294.864 80.8033 296.716C80.8919 299.503 75.1814 299.752 71.5274 301.139C66.4752 303.058 60.512 304.466 57.113 306.906C49.1585 312.614 46.5283 324.687 46.5283 324.687C44.3908 314.067 49.6723 301.597 69.7016 296.57C74.9116 295.263 69.6534 294.3 67.6535 289.609C65.9 285.493 66.2467 277.486 68.9119 278.126C72.9646 279.099 77.6764 283.11 82.863 284.421C86.8287 285.424 91.0414 284.636 95.6903 281.393C93.1432 268.585 92.4094 253.757 93.9764 236.35C59.0865 229.332 39.3487 168.023 66.8102 165.98C86.7548 164.496 95.8519 168.529 113.118 166.304C110.29 143.587 77.9787 103.492 52.5023 79.4083L52.3655 79.6063L45.702 73.3139L45.7471 73.2585L45.702 73.2195L45.7891 73.2063C101.173 4.83147 203.673 -24.6346 293.729 24.218L293.682 24.303L293.729 24.3178C282.352 46.2899 273.809 71.2632 268.326 99.4739C272.042 99.4762 275.823 99.8544 279.701 100.663C317.058 108.447 338.994 171.028 304.196 211.981C308.604 210.895 313.254 208.563 317.378 205.236C327.028 197.451 333.923 185.736 335.616 185.846C339.163 186.08 331.625 200.941 332.757 208.057C333.093 210.174 347.603 206.366 355.233 206.203C366.559 205.96 371.659 211.115 371.915 213.794C372.623 221.218 353.658 217.621 354.905 220.375C358.785 228.942 385.068 235.905 369.317 268.348C371.956 259.56 374.324 251.404 369.478 242.694C363.083 231.2 348.821 222.474 348.615 218.506C348.374 213.831 362.094 218.781 365.009 213.275C366.408 210.632 361.321 206.215 348.165 208.83C341.271 210.2 328.971 215.115 327.308 212.322C325.521 209.319 334.448 192.889 333.68 190.788C333.485 190.253 328.396 199.612 321.656 206.293C315.82 212.078 303.836 220.513 293.131 218.843C285.39 218.09 274.164 211.816 275.519 209.886C276.686 208.224 292.006 217.886 288.442 211.429C285.604 206.287 270.114 192.829 259.402 181.249C255.79 177.344 255.708 175.801 254.042 171.315C253.343 169.436 241.679 172.301 235.812 171.726C218.327 170.013 206.846 172.246 195.83 173.192C187.045 173.946 177.469 177.791 169.715 177.403C162.584 177.046 154.167 170.334 149.31 170.865C140.243 171.854 162.53 181.586 160.416 184.343C158.01 187.484 152.975 187.393 148.056 190.919C143.783 193.983 135.926 198.494 138.726 204.724C140.333 208.299 152.765 193.3 154.814 196.535C155.777 198.053 150.607 206.375 149.541 212.143C148.341 218.628 149.317 223.371 150.248 224.524C152.892 227.798 162.4 212.774 168.479 200.888C167.87 208.447 153.928 236.569 148.731 231.023C139.728 221.417 149.441 209.272 147.207 207.052C145.4 205.256 137.275 211.674 135.185 210.607C133.095 209.539 136.047 201.255 134.667 200.647C133.287 200.041 126.346 204.395 127.356 207.032C131.293 217.316 140.573 237.726 141.233 247.81C141.233 247.81 136.351 239.494 128.934 222.293C122.498 207.368 113.836 190.388 107.802 192.405C99.2828 195.251 101.806 209.065 100.368 222.545C98.3392 241.569 97.5324 262.273 99.7616 278.547C104.301 311.679 124.784 330.52 129.012 333.461L125.699 335.703C119.262 329.568 112.782 321.57 107.932 313.721C106.169 315.043 104.803 316.152 103.512 316.753C101.048 317.897 95.3351 321.798 94.8656 320.182C94.0751 317.457 98.6633 315.815 100.969 314.255C103.417 312.598 104.52 311.691 105.858 310.118C105.094 308.703 104.358 307.256 103.655 305.775C101.974 307.233 99.2455 307.775 97.8697 308.414C95.4058 309.56 87.2227 310.589 87.5818 308.945C88.1018 306.566 93.688 305.748 96.2227 304.603C98.9968 303.349 100.507 302.354 101.531 300.976ZM60.4242 174.296C72.0016 169.318 84.4665 173.099 96.3875 173.445C109.24 173.818 122.687 173.45 134.654 168.094C143.527 164.123 153.15 158.502 161.707 153.884C170.287 149.255 178.912 144.024 187.365 139.163C208.024 127.282 227.772 115.162 251.616 110.587C266.137 107.801 280.677 107.78 293.37 116.075C300.067 120.453 306.335 127.338 311.192 133.236C309.916 129.786 307.863 126.613 305.55 123.756C282.303 95.045 243.03 106.052 214.536 119.081C207.008 122.524 199.8 126.64 192.59 130.709C179.629 138.024 169.446 145.027 156.621 152.579C147.291 158.073 141.4 161.481 131.34 165.631C119.932 170.338 107.299 170.265 95.213 170.058C84.0119 169.865 70.2411 166.237 60.4242 174.296ZM182.285 108.056C172.559 109.455 154.372 116.835 146.608 122.004L157.454 146.554C172.516 137.732 179.071 133.903 188.109 129.122L182.285 108.056ZM246.53 99.431C202.099 94.185 156.489 98.1374 105.76 142.087L107.415 144.95C145.244 109.78 192.535 96.7597 246.53 99.431ZM153.073 11.0374C136.622 13.0233 108.609 25.3946 98.9913 33.8219L142.252 111.943C154.142 105.536 166.555 100.969 179.594 98.5983L153.073 11.0374Z" fill="black"/>
<path d="M134.584 315.295L136.73 312.818C137.841 314.816 138.823 316.081 139.717 316.702C140.632 317.366 141.458 317.386 142.216 316.804C143.026 316.183 143.426 315.282 143.417 314.102C143.425 312.908 143.166 311.742 142.638 310.602C142.294 309.857 141.924 309.31 141.508 308.916C141.092 308.522 140.579 308.322 139.983 308.245C139.569 308.206 138.674 308.24 137.356 308.419C135.623 308.56 134.209 308.279 133.107 307.462C131.538 306.29 130.186 304.477 129.05 302.023C128.3 300.402 127.783 298.78 127.496 297.1C127.229 295.464 127.222 293.985 127.569 292.768C127.897 291.508 128.544 290.536 129.492 289.809C131.043 288.62 132.621 288.598 134.187 289.712C135.77 290.813 137.241 292.832 138.631 295.685L136.254 297.864C135.401 296.322 134.649 295.354 133.963 294.931C133.294 294.494 132.598 294.553 131.908 295.081C131.185 295.636 130.778 296.423 130.709 297.485C130.694 298.209 130.84 298.929 131.225 299.761C131.57 300.506 131.975 301.027 132.476 301.355C133.111 301.818 134.194 301.938 135.724 301.714C137.293 301.521 138.533 301.579 139.467 301.931C140.398 302.227 141.37 302.966 142.306 304.03C143.262 305.137 144.187 306.683 145.12 308.699C145.951 310.496 146.532 312.307 146.866 314.188C147.2 316.07 147.175 317.632 146.817 318.976C146.455 320.263 145.741 321.345 144.673 322.164C143.105 323.367 141.49 323.358 139.794 322.165C138.115 320.959 136.378 318.669 134.584 315.295Z" fill="black"/>
<path d="M226.167 306.275L228.345 303.597C229.506 305.67 230.527 306.974 231.451 307.601C232.397 308.273 233.245 308.268 234.018 307.631C234.843 306.951 235.245 305.989 235.224 304.744C235.22 303.485 234.942 302.263 234.389 301.077C234.027 300.302 233.642 299.736 233.211 299.334C232.78 298.932 232.252 298.736 231.639 298.673C231.213 298.645 230.294 298.708 228.943 298.938C227.166 299.141 225.711 298.888 224.572 298.06C222.948 296.873 221.542 295.003 220.351 292.449C219.564 290.762 219.017 289.068 218.705 287.305C218.415 285.587 218.393 284.028 218.737 282.734C219.061 281.395 219.716 280.35 220.681 279.554C222.262 278.252 223.881 278.18 225.5 279.307C227.137 280.419 228.668 282.503 230.124 285.469L227.705 287.84C226.813 286.24 226.032 285.243 225.323 284.817C224.632 284.377 223.918 284.461 223.215 285.04C222.478 285.647 222.068 286.49 222.008 287.612C222 288.376 222.157 289.13 222.561 289.997C222.923 290.772 223.343 291.309 223.862 291.639C224.518 292.108 225.631 292.201 227.2 291.917C228.808 291.665 230.083 291.687 231.045 292.031C232.003 292.314 233.009 293.063 233.981 294.156C234.973 295.294 235.939 296.896 236.917 298.994C237.789 300.863 238.404 302.755 238.765 304.729C239.127 306.703 239.118 308.352 238.763 309.78C238.405 311.148 237.683 312.311 236.594 313.208C234.997 314.525 233.339 314.566 231.585 313.36C229.849 312.14 228.043 309.778 226.167 306.275Z" fill="black"/>
<path d="M225.891 273.958L224.551 274.446L235.667 317.284L237.007 316.796L225.891 273.958Z" fill="black"/>
<path d="M222.704 274.897L221.364 275.385L232.481 318.223L233.821 317.735L222.704 274.897Z" fill="black"/>
<path d="M132.908 283.411L131.599 283.905L144.075 325.605L145.383 325.112L132.908 283.411Z" fill="black"/>
<path d="M130.096 284.161L128.787 284.655L141.263 326.355L142.571 325.861L130.096 284.161Z" fill="black"/>
</svg>
